%TF.GenerationSoftware,KiCad,Pcbnew,8.0.1-8.0.1-1~ubuntu22.04.1*%
%TF.CreationDate,2024-04-25T17:06:36+02:00*%
%TF.ProjectId,EuroClockMD,4575726f-436c-46f6-936b-4d442e6b6963,rev?*%
%TF.SameCoordinates,Original*%
%TF.FileFunction,AssemblyDrawing,Top*%
%FSLAX46Y46*%
G04 Gerber Fmt 4.6, Leading zero omitted, Abs format (unit mm)*
G04 Created by KiCad (PCBNEW 8.0.1-8.0.1-1~ubuntu22.04.1) date 2024-04-25 17:06:36*
%MOMM*%
%LPD*%
G01*
G04 APERTURE LIST*
%ADD10C,0.150000*%
%ADD11C,0.200000*%
%ADD12C,0.100000*%
%ADD13C,0.100000*%
%TD*%
G04 APERTURE END LIST*
D10*
X131890000Y-98161090D02*
X132223333Y-98161090D01*
X132366190Y-98684900D02*
X131890000Y-98684900D01*
X131890000Y-98684900D02*
X131890000Y-97684900D01*
X131890000Y-97684900D02*
X132366190Y-97684900D01*
X132699524Y-97684900D02*
X133366190Y-98684900D01*
X133366190Y-97684900D02*
X132699524Y-98684900D01*
X133604286Y-97684900D02*
X134175714Y-97684900D01*
X133890000Y-98684900D02*
X133890000Y-97684900D01*
X135842381Y-98589661D02*
X135794762Y-98637281D01*
X135794762Y-98637281D02*
X135651905Y-98684900D01*
X135651905Y-98684900D02*
X135556667Y-98684900D01*
X135556667Y-98684900D02*
X135413810Y-98637281D01*
X135413810Y-98637281D02*
X135318572Y-98542042D01*
X135318572Y-98542042D02*
X135270953Y-98446804D01*
X135270953Y-98446804D02*
X135223334Y-98256328D01*
X135223334Y-98256328D02*
X135223334Y-98113471D01*
X135223334Y-98113471D02*
X135270953Y-97922995D01*
X135270953Y-97922995D02*
X135318572Y-97827757D01*
X135318572Y-97827757D02*
X135413810Y-97732519D01*
X135413810Y-97732519D02*
X135556667Y-97684900D01*
X135556667Y-97684900D02*
X135651905Y-97684900D01*
X135651905Y-97684900D02*
X135794762Y-97732519D01*
X135794762Y-97732519D02*
X135842381Y-97780138D01*
X136747143Y-98684900D02*
X136270953Y-98684900D01*
X136270953Y-98684900D02*
X136270953Y-97684900D01*
X137080477Y-98684900D02*
X137080477Y-97684900D01*
X137651905Y-98684900D02*
X137223334Y-98113471D01*
X137651905Y-97684900D02*
X137080477Y-98256328D01*
X138842382Y-98684900D02*
X138842382Y-97684900D01*
X139318572Y-98684900D02*
X139318572Y-97684900D01*
X139318572Y-97684900D02*
X139890000Y-98684900D01*
X139890000Y-98684900D02*
X139890000Y-97684900D01*
X143423332Y-94421661D02*
X143375713Y-94469281D01*
X143375713Y-94469281D02*
X143232856Y-94516900D01*
X143232856Y-94516900D02*
X143137618Y-94516900D01*
X143137618Y-94516900D02*
X142994761Y-94469281D01*
X142994761Y-94469281D02*
X142899523Y-94374042D01*
X142899523Y-94374042D02*
X142851904Y-94278804D01*
X142851904Y-94278804D02*
X142804285Y-94088328D01*
X142804285Y-94088328D02*
X142804285Y-93945471D01*
X142804285Y-93945471D02*
X142851904Y-93754995D01*
X142851904Y-93754995D02*
X142899523Y-93659757D01*
X142899523Y-93659757D02*
X142994761Y-93564519D01*
X142994761Y-93564519D02*
X143137618Y-93516900D01*
X143137618Y-93516900D02*
X143232856Y-93516900D01*
X143232856Y-93516900D02*
X143375713Y-93564519D01*
X143375713Y-93564519D02*
X143423332Y-93612138D01*
X144328094Y-94516900D02*
X143851904Y-94516900D01*
X143851904Y-94516900D02*
X143851904Y-93516900D01*
X144851904Y-93516900D02*
X145042380Y-93516900D01*
X145042380Y-93516900D02*
X145137618Y-93564519D01*
X145137618Y-93564519D02*
X145232856Y-93659757D01*
X145232856Y-93659757D02*
X145280475Y-93850233D01*
X145280475Y-93850233D02*
X145280475Y-94183566D01*
X145280475Y-94183566D02*
X145232856Y-94374042D01*
X145232856Y-94374042D02*
X145137618Y-94469281D01*
X145137618Y-94469281D02*
X145042380Y-94516900D01*
X145042380Y-94516900D02*
X144851904Y-94516900D01*
X144851904Y-94516900D02*
X144756666Y-94469281D01*
X144756666Y-94469281D02*
X144661428Y-94374042D01*
X144661428Y-94374042D02*
X144613809Y-94183566D01*
X144613809Y-94183566D02*
X144613809Y-93850233D01*
X144613809Y-93850233D02*
X144661428Y-93659757D01*
X144661428Y-93659757D02*
X144756666Y-93564519D01*
X144756666Y-93564519D02*
X144851904Y-93516900D01*
X146280475Y-94421661D02*
X146232856Y-94469281D01*
X146232856Y-94469281D02*
X146089999Y-94516900D01*
X146089999Y-94516900D02*
X145994761Y-94516900D01*
X145994761Y-94516900D02*
X145851904Y-94469281D01*
X145851904Y-94469281D02*
X145756666Y-94374042D01*
X145756666Y-94374042D02*
X145709047Y-94278804D01*
X145709047Y-94278804D02*
X145661428Y-94088328D01*
X145661428Y-94088328D02*
X145661428Y-93945471D01*
X145661428Y-93945471D02*
X145709047Y-93754995D01*
X145709047Y-93754995D02*
X145756666Y-93659757D01*
X145756666Y-93659757D02*
X145851904Y-93564519D01*
X145851904Y-93564519D02*
X145994761Y-93516900D01*
X145994761Y-93516900D02*
X146089999Y-93516900D01*
X146089999Y-93516900D02*
X146232856Y-93564519D01*
X146232856Y-93564519D02*
X146280475Y-93612138D01*
X146709047Y-94516900D02*
X146709047Y-93516900D01*
X147280475Y-94516900D02*
X146851904Y-93945471D01*
X147280475Y-93516900D02*
X146709047Y-94088328D01*
X148661428Y-93516900D02*
X148851904Y-93516900D01*
X148851904Y-93516900D02*
X148947142Y-93564519D01*
X148947142Y-93564519D02*
X149042380Y-93659757D01*
X149042380Y-93659757D02*
X149089999Y-93850233D01*
X149089999Y-93850233D02*
X149089999Y-94183566D01*
X149089999Y-94183566D02*
X149042380Y-94374042D01*
X149042380Y-94374042D02*
X148947142Y-94469281D01*
X148947142Y-94469281D02*
X148851904Y-94516900D01*
X148851904Y-94516900D02*
X148661428Y-94516900D01*
X148661428Y-94516900D02*
X148566190Y-94469281D01*
X148566190Y-94469281D02*
X148470952Y-94374042D01*
X148470952Y-94374042D02*
X148423333Y-94183566D01*
X148423333Y-94183566D02*
X148423333Y-93850233D01*
X148423333Y-93850233D02*
X148470952Y-93659757D01*
X148470952Y-93659757D02*
X148566190Y-93564519D01*
X148566190Y-93564519D02*
X148661428Y-93516900D01*
X149518571Y-93516900D02*
X149518571Y-94326423D01*
X149518571Y-94326423D02*
X149566190Y-94421661D01*
X149566190Y-94421661D02*
X149613809Y-94469281D01*
X149613809Y-94469281D02*
X149709047Y-94516900D01*
X149709047Y-94516900D02*
X149899523Y-94516900D01*
X149899523Y-94516900D02*
X149994761Y-94469281D01*
X149994761Y-94469281D02*
X150042380Y-94421661D01*
X150042380Y-94421661D02*
X150089999Y-94326423D01*
X150089999Y-94326423D02*
X150089999Y-93516900D01*
X150423333Y-93516900D02*
X150994761Y-93516900D01*
X150709047Y-94516900D02*
X150709047Y-93516900D01*
X152566190Y-94516900D02*
X152090000Y-94516900D01*
X152090000Y-94516900D02*
X152090000Y-93516900D01*
X152899524Y-93993090D02*
X153232857Y-93993090D01*
X153375714Y-94516900D02*
X152899524Y-94516900D01*
X152899524Y-94516900D02*
X152899524Y-93516900D01*
X152899524Y-93516900D02*
X153375714Y-93516900D01*
X153804286Y-94516900D02*
X153804286Y-93516900D01*
X153804286Y-93516900D02*
X154042381Y-93516900D01*
X154042381Y-93516900D02*
X154185238Y-93564519D01*
X154185238Y-93564519D02*
X154280476Y-93659757D01*
X154280476Y-93659757D02*
X154328095Y-93754995D01*
X154328095Y-93754995D02*
X154375714Y-93945471D01*
X154375714Y-93945471D02*
X154375714Y-94088328D01*
X154375714Y-94088328D02*
X154328095Y-94278804D01*
X154328095Y-94278804D02*
X154280476Y-94374042D01*
X154280476Y-94374042D02*
X154185238Y-94469281D01*
X154185238Y-94469281D02*
X154042381Y-94516900D01*
X154042381Y-94516900D02*
X153804286Y-94516900D01*
D11*
X147979524Y-90461776D02*
X147979524Y-89661776D01*
X147979524Y-89661776D02*
X148170000Y-89661776D01*
X148170000Y-89661776D02*
X148284286Y-89699871D01*
X148284286Y-89699871D02*
X148360476Y-89776061D01*
X148360476Y-89776061D02*
X148398571Y-89852252D01*
X148398571Y-89852252D02*
X148436667Y-90004633D01*
X148436667Y-90004633D02*
X148436667Y-90118919D01*
X148436667Y-90118919D02*
X148398571Y-90271300D01*
X148398571Y-90271300D02*
X148360476Y-90347490D01*
X148360476Y-90347490D02*
X148284286Y-90423681D01*
X148284286Y-90423681D02*
X148170000Y-90461776D01*
X148170000Y-90461776D02*
X147979524Y-90461776D01*
X148817619Y-90461776D02*
X148970000Y-90461776D01*
X148970000Y-90461776D02*
X149046190Y-90423681D01*
X149046190Y-90423681D02*
X149084286Y-90385585D01*
X149084286Y-90385585D02*
X149160476Y-90271300D01*
X149160476Y-90271300D02*
X149198571Y-90118919D01*
X149198571Y-90118919D02*
X149198571Y-89814157D01*
X149198571Y-89814157D02*
X149160476Y-89737966D01*
X149160476Y-89737966D02*
X149122381Y-89699871D01*
X149122381Y-89699871D02*
X149046190Y-89661776D01*
X149046190Y-89661776D02*
X148893809Y-89661776D01*
X148893809Y-89661776D02*
X148817619Y-89699871D01*
X148817619Y-89699871D02*
X148779524Y-89737966D01*
X148779524Y-89737966D02*
X148741428Y-89814157D01*
X148741428Y-89814157D02*
X148741428Y-90004633D01*
X148741428Y-90004633D02*
X148779524Y-90080823D01*
X148779524Y-90080823D02*
X148817619Y-90118919D01*
X148817619Y-90118919D02*
X148893809Y-90157014D01*
X148893809Y-90157014D02*
X149046190Y-90157014D01*
X149046190Y-90157014D02*
X149122381Y-90118919D01*
X149122381Y-90118919D02*
X149160476Y-90080823D01*
X149160476Y-90080823D02*
X149198571Y-90004633D01*
D10*
X191224819Y-63833333D02*
X191939104Y-63833333D01*
X191939104Y-63833333D02*
X192081961Y-63880952D01*
X192081961Y-63880952D02*
X192177200Y-63976190D01*
X192177200Y-63976190D02*
X192224819Y-64119047D01*
X192224819Y-64119047D02*
X192224819Y-64214285D01*
X192224819Y-63309523D02*
X192224819Y-63119047D01*
X192224819Y-63119047D02*
X192177200Y-63023809D01*
X192177200Y-63023809D02*
X192129580Y-62976190D01*
X192129580Y-62976190D02*
X191986723Y-62880952D01*
X191986723Y-62880952D02*
X191796247Y-62833333D01*
X191796247Y-62833333D02*
X191415295Y-62833333D01*
X191415295Y-62833333D02*
X191320057Y-62880952D01*
X191320057Y-62880952D02*
X191272438Y-62928571D01*
X191272438Y-62928571D02*
X191224819Y-63023809D01*
X191224819Y-63023809D02*
X191224819Y-63214285D01*
X191224819Y-63214285D02*
X191272438Y-63309523D01*
X191272438Y-63309523D02*
X191320057Y-63357142D01*
X191320057Y-63357142D02*
X191415295Y-63404761D01*
X191415295Y-63404761D02*
X191653390Y-63404761D01*
X191653390Y-63404761D02*
X191748628Y-63357142D01*
X191748628Y-63357142D02*
X191796247Y-63309523D01*
X191796247Y-63309523D02*
X191843866Y-63214285D01*
X191843866Y-63214285D02*
X191843866Y-63023809D01*
X191843866Y-63023809D02*
X191796247Y-62928571D01*
X191796247Y-62928571D02*
X191748628Y-62880952D01*
X191748628Y-62880952D02*
X191653390Y-62833333D01*
X144923332Y-128212519D02*
X144828094Y-128164900D01*
X144828094Y-128164900D02*
X144685237Y-128164900D01*
X144685237Y-128164900D02*
X144542380Y-128212519D01*
X144542380Y-128212519D02*
X144447142Y-128307757D01*
X144447142Y-128307757D02*
X144399523Y-128402995D01*
X144399523Y-128402995D02*
X144351904Y-128593471D01*
X144351904Y-128593471D02*
X144351904Y-128736328D01*
X144351904Y-128736328D02*
X144399523Y-128926804D01*
X144399523Y-128926804D02*
X144447142Y-129022042D01*
X144447142Y-129022042D02*
X144542380Y-129117281D01*
X144542380Y-129117281D02*
X144685237Y-129164900D01*
X144685237Y-129164900D02*
X144780475Y-129164900D01*
X144780475Y-129164900D02*
X144923332Y-129117281D01*
X144923332Y-129117281D02*
X144970951Y-129069661D01*
X144970951Y-129069661D02*
X144970951Y-128736328D01*
X144970951Y-128736328D02*
X144780475Y-128736328D01*
X145351904Y-128879185D02*
X145828094Y-128879185D01*
X145256666Y-129164900D02*
X145589999Y-128164900D01*
X145589999Y-128164900D02*
X145923332Y-129164900D01*
X146113809Y-128164900D02*
X146685237Y-128164900D01*
X146399523Y-129164900D02*
X146399523Y-128164900D01*
X147018571Y-128641090D02*
X147351904Y-128641090D01*
X147494761Y-129164900D02*
X147018571Y-129164900D01*
X147018571Y-129164900D02*
X147018571Y-128164900D01*
X147018571Y-128164900D02*
X147494761Y-128164900D01*
X148875714Y-128164900D02*
X149066190Y-128164900D01*
X149066190Y-128164900D02*
X149161428Y-128212519D01*
X149161428Y-128212519D02*
X149256666Y-128307757D01*
X149256666Y-128307757D02*
X149304285Y-128498233D01*
X149304285Y-128498233D02*
X149304285Y-128831566D01*
X149304285Y-128831566D02*
X149256666Y-129022042D01*
X149256666Y-129022042D02*
X149161428Y-129117281D01*
X149161428Y-129117281D02*
X149066190Y-129164900D01*
X149066190Y-129164900D02*
X148875714Y-129164900D01*
X148875714Y-129164900D02*
X148780476Y-129117281D01*
X148780476Y-129117281D02*
X148685238Y-129022042D01*
X148685238Y-129022042D02*
X148637619Y-128831566D01*
X148637619Y-128831566D02*
X148637619Y-128498233D01*
X148637619Y-128498233D02*
X148685238Y-128307757D01*
X148685238Y-128307757D02*
X148780476Y-128212519D01*
X148780476Y-128212519D02*
X148875714Y-128164900D01*
X149732857Y-128164900D02*
X149732857Y-128974423D01*
X149732857Y-128974423D02*
X149780476Y-129069661D01*
X149780476Y-129069661D02*
X149828095Y-129117281D01*
X149828095Y-129117281D02*
X149923333Y-129164900D01*
X149923333Y-129164900D02*
X150113809Y-129164900D01*
X150113809Y-129164900D02*
X150209047Y-129117281D01*
X150209047Y-129117281D02*
X150256666Y-129069661D01*
X150256666Y-129069661D02*
X150304285Y-128974423D01*
X150304285Y-128974423D02*
X150304285Y-128164900D01*
X150637619Y-128164900D02*
X151209047Y-128164900D01*
X150923333Y-129164900D02*
X150923333Y-128164900D01*
X152256667Y-128260138D02*
X152304286Y-128212519D01*
X152304286Y-128212519D02*
X152399524Y-128164900D01*
X152399524Y-128164900D02*
X152637619Y-128164900D01*
X152637619Y-128164900D02*
X152732857Y-128212519D01*
X152732857Y-128212519D02*
X152780476Y-128260138D01*
X152780476Y-128260138D02*
X152828095Y-128355376D01*
X152828095Y-128355376D02*
X152828095Y-128450614D01*
X152828095Y-128450614D02*
X152780476Y-128593471D01*
X152780476Y-128593471D02*
X152209048Y-129164900D01*
X152209048Y-129164900D02*
X152828095Y-129164900D01*
X145161428Y-98589661D02*
X145113809Y-98637281D01*
X145113809Y-98637281D02*
X144970952Y-98684900D01*
X144970952Y-98684900D02*
X144875714Y-98684900D01*
X144875714Y-98684900D02*
X144732857Y-98637281D01*
X144732857Y-98637281D02*
X144637619Y-98542042D01*
X144637619Y-98542042D02*
X144590000Y-98446804D01*
X144590000Y-98446804D02*
X144542381Y-98256328D01*
X144542381Y-98256328D02*
X144542381Y-98113471D01*
X144542381Y-98113471D02*
X144590000Y-97922995D01*
X144590000Y-97922995D02*
X144637619Y-97827757D01*
X144637619Y-97827757D02*
X144732857Y-97732519D01*
X144732857Y-97732519D02*
X144875714Y-97684900D01*
X144875714Y-97684900D02*
X144970952Y-97684900D01*
X144970952Y-97684900D02*
X145113809Y-97732519D01*
X145113809Y-97732519D02*
X145161428Y-97780138D01*
X146066190Y-98684900D02*
X145590000Y-98684900D01*
X145590000Y-98684900D02*
X145590000Y-97684900D01*
X146590000Y-97684900D02*
X146780476Y-97684900D01*
X146780476Y-97684900D02*
X146875714Y-97732519D01*
X146875714Y-97732519D02*
X146970952Y-97827757D01*
X146970952Y-97827757D02*
X147018571Y-98018233D01*
X147018571Y-98018233D02*
X147018571Y-98351566D01*
X147018571Y-98351566D02*
X146970952Y-98542042D01*
X146970952Y-98542042D02*
X146875714Y-98637281D01*
X146875714Y-98637281D02*
X146780476Y-98684900D01*
X146780476Y-98684900D02*
X146590000Y-98684900D01*
X146590000Y-98684900D02*
X146494762Y-98637281D01*
X146494762Y-98637281D02*
X146399524Y-98542042D01*
X146399524Y-98542042D02*
X146351905Y-98351566D01*
X146351905Y-98351566D02*
X146351905Y-98018233D01*
X146351905Y-98018233D02*
X146399524Y-97827757D01*
X146399524Y-97827757D02*
X146494762Y-97732519D01*
X146494762Y-97732519D02*
X146590000Y-97684900D01*
X148018571Y-98589661D02*
X147970952Y-98637281D01*
X147970952Y-98637281D02*
X147828095Y-98684900D01*
X147828095Y-98684900D02*
X147732857Y-98684900D01*
X147732857Y-98684900D02*
X147590000Y-98637281D01*
X147590000Y-98637281D02*
X147494762Y-98542042D01*
X147494762Y-98542042D02*
X147447143Y-98446804D01*
X147447143Y-98446804D02*
X147399524Y-98256328D01*
X147399524Y-98256328D02*
X147399524Y-98113471D01*
X147399524Y-98113471D02*
X147447143Y-97922995D01*
X147447143Y-97922995D02*
X147494762Y-97827757D01*
X147494762Y-97827757D02*
X147590000Y-97732519D01*
X147590000Y-97732519D02*
X147732857Y-97684900D01*
X147732857Y-97684900D02*
X147828095Y-97684900D01*
X147828095Y-97684900D02*
X147970952Y-97732519D01*
X147970952Y-97732519D02*
X148018571Y-97780138D01*
X148447143Y-98684900D02*
X148447143Y-97684900D01*
X149018571Y-98684900D02*
X148590000Y-98113471D01*
X149018571Y-97684900D02*
X148447143Y-98256328D01*
X150399524Y-97684900D02*
X150590000Y-97684900D01*
X150590000Y-97684900D02*
X150685238Y-97732519D01*
X150685238Y-97732519D02*
X150780476Y-97827757D01*
X150780476Y-97827757D02*
X150828095Y-98018233D01*
X150828095Y-98018233D02*
X150828095Y-98351566D01*
X150828095Y-98351566D02*
X150780476Y-98542042D01*
X150780476Y-98542042D02*
X150685238Y-98637281D01*
X150685238Y-98637281D02*
X150590000Y-98684900D01*
X150590000Y-98684900D02*
X150399524Y-98684900D01*
X150399524Y-98684900D02*
X150304286Y-98637281D01*
X150304286Y-98637281D02*
X150209048Y-98542042D01*
X150209048Y-98542042D02*
X150161429Y-98351566D01*
X150161429Y-98351566D02*
X150161429Y-98018233D01*
X150161429Y-98018233D02*
X150209048Y-97827757D01*
X150209048Y-97827757D02*
X150304286Y-97732519D01*
X150304286Y-97732519D02*
X150399524Y-97684900D01*
X151256667Y-97684900D02*
X151256667Y-98494423D01*
X151256667Y-98494423D02*
X151304286Y-98589661D01*
X151304286Y-98589661D02*
X151351905Y-98637281D01*
X151351905Y-98637281D02*
X151447143Y-98684900D01*
X151447143Y-98684900D02*
X151637619Y-98684900D01*
X151637619Y-98684900D02*
X151732857Y-98637281D01*
X151732857Y-98637281D02*
X151780476Y-98589661D01*
X151780476Y-98589661D02*
X151828095Y-98494423D01*
X151828095Y-98494423D02*
X151828095Y-97684900D01*
X152161429Y-97684900D02*
X152732857Y-97684900D01*
X152447143Y-98684900D02*
X152447143Y-97684900D01*
X126104284Y-94319281D02*
X126247141Y-94366900D01*
X126247141Y-94366900D02*
X126485236Y-94366900D01*
X126485236Y-94366900D02*
X126580474Y-94319281D01*
X126580474Y-94319281D02*
X126628093Y-94271661D01*
X126628093Y-94271661D02*
X126675712Y-94176423D01*
X126675712Y-94176423D02*
X126675712Y-94081185D01*
X126675712Y-94081185D02*
X126628093Y-93985947D01*
X126628093Y-93985947D02*
X126580474Y-93938328D01*
X126580474Y-93938328D02*
X126485236Y-93890709D01*
X126485236Y-93890709D02*
X126294760Y-93843090D01*
X126294760Y-93843090D02*
X126199522Y-93795471D01*
X126199522Y-93795471D02*
X126151903Y-93747852D01*
X126151903Y-93747852D02*
X126104284Y-93652614D01*
X126104284Y-93652614D02*
X126104284Y-93557376D01*
X126104284Y-93557376D02*
X126151903Y-93462138D01*
X126151903Y-93462138D02*
X126199522Y-93414519D01*
X126199522Y-93414519D02*
X126294760Y-93366900D01*
X126294760Y-93366900D02*
X126532855Y-93366900D01*
X126532855Y-93366900D02*
X126675712Y-93414519D01*
X127009046Y-93366900D02*
X127247141Y-94366900D01*
X127247141Y-94366900D02*
X127437617Y-93652614D01*
X127437617Y-93652614D02*
X127628093Y-94366900D01*
X127628093Y-94366900D02*
X127866189Y-93366900D01*
X128009046Y-94462138D02*
X128770950Y-94462138D01*
X128961427Y-94319281D02*
X129104284Y-94366900D01*
X129104284Y-94366900D02*
X129342379Y-94366900D01*
X129342379Y-94366900D02*
X129437617Y-94319281D01*
X129437617Y-94319281D02*
X129485236Y-94271661D01*
X129485236Y-94271661D02*
X129532855Y-94176423D01*
X129532855Y-94176423D02*
X129532855Y-94081185D01*
X129532855Y-94081185D02*
X129485236Y-93985947D01*
X129485236Y-93985947D02*
X129437617Y-93938328D01*
X129437617Y-93938328D02*
X129342379Y-93890709D01*
X129342379Y-93890709D02*
X129151903Y-93843090D01*
X129151903Y-93843090D02*
X129056665Y-93795471D01*
X129056665Y-93795471D02*
X129009046Y-93747852D01*
X129009046Y-93747852D02*
X128961427Y-93652614D01*
X128961427Y-93652614D02*
X128961427Y-93557376D01*
X128961427Y-93557376D02*
X129009046Y-93462138D01*
X129009046Y-93462138D02*
X129056665Y-93414519D01*
X129056665Y-93414519D02*
X129151903Y-93366900D01*
X129151903Y-93366900D02*
X129389998Y-93366900D01*
X129389998Y-93366900D02*
X129532855Y-93414519D01*
X129961427Y-94366900D02*
X129961427Y-93366900D01*
X129961427Y-93366900D02*
X130342379Y-93366900D01*
X130342379Y-93366900D02*
X130437617Y-93414519D01*
X130437617Y-93414519D02*
X130485236Y-93462138D01*
X130485236Y-93462138D02*
X130532855Y-93557376D01*
X130532855Y-93557376D02*
X130532855Y-93700233D01*
X130532855Y-93700233D02*
X130485236Y-93795471D01*
X130485236Y-93795471D02*
X130437617Y-93843090D01*
X130437617Y-93843090D02*
X130342379Y-93890709D01*
X130342379Y-93890709D02*
X129961427Y-93890709D01*
X130961427Y-94366900D02*
X130961427Y-93366900D01*
X130961427Y-93366900D02*
X131199522Y-93366900D01*
X131199522Y-93366900D02*
X131342379Y-93414519D01*
X131342379Y-93414519D02*
X131437617Y-93509757D01*
X131437617Y-93509757D02*
X131485236Y-93604995D01*
X131485236Y-93604995D02*
X131532855Y-93795471D01*
X131532855Y-93795471D02*
X131532855Y-93938328D01*
X131532855Y-93938328D02*
X131485236Y-94128804D01*
X131485236Y-94128804D02*
X131437617Y-94224042D01*
X131437617Y-94224042D02*
X131342379Y-94319281D01*
X131342379Y-94319281D02*
X131199522Y-94366900D01*
X131199522Y-94366900D02*
X130961427Y-94366900D01*
X131818570Y-93366900D02*
X132389998Y-93366900D01*
X132104284Y-94366900D02*
X132104284Y-93366900D01*
X133770951Y-94747852D02*
X133723332Y-94700233D01*
X133723332Y-94700233D02*
X133628094Y-94557376D01*
X133628094Y-94557376D02*
X133580475Y-94462138D01*
X133580475Y-94462138D02*
X133532856Y-94319281D01*
X133532856Y-94319281D02*
X133485237Y-94081185D01*
X133485237Y-94081185D02*
X133485237Y-93890709D01*
X133485237Y-93890709D02*
X133532856Y-93652614D01*
X133532856Y-93652614D02*
X133580475Y-93509757D01*
X133580475Y-93509757D02*
X133628094Y-93414519D01*
X133628094Y-93414519D02*
X133723332Y-93271661D01*
X133723332Y-93271661D02*
X133770951Y-93224042D01*
X134151904Y-94366900D02*
X134151904Y-93366900D01*
X134628094Y-93700233D02*
X134628094Y-94366900D01*
X134628094Y-93795471D02*
X134675713Y-93747852D01*
X134675713Y-93747852D02*
X134770951Y-93700233D01*
X134770951Y-93700233D02*
X134913808Y-93700233D01*
X134913808Y-93700233D02*
X135009046Y-93747852D01*
X135009046Y-93747852D02*
X135056665Y-93843090D01*
X135056665Y-93843090D02*
X135056665Y-94366900D01*
X135389999Y-93700233D02*
X135770951Y-93700233D01*
X135532856Y-93366900D02*
X135532856Y-94224042D01*
X135532856Y-94224042D02*
X135580475Y-94319281D01*
X135580475Y-94319281D02*
X135675713Y-94366900D01*
X135675713Y-94366900D02*
X135770951Y-94366900D01*
X136485237Y-94319281D02*
X136389999Y-94366900D01*
X136389999Y-94366900D02*
X136199523Y-94366900D01*
X136199523Y-94366900D02*
X136104285Y-94319281D01*
X136104285Y-94319281D02*
X136056666Y-94224042D01*
X136056666Y-94224042D02*
X136056666Y-93843090D01*
X136056666Y-93843090D02*
X136104285Y-93747852D01*
X136104285Y-93747852D02*
X136199523Y-93700233D01*
X136199523Y-93700233D02*
X136389999Y-93700233D01*
X136389999Y-93700233D02*
X136485237Y-93747852D01*
X136485237Y-93747852D02*
X136532856Y-93843090D01*
X136532856Y-93843090D02*
X136532856Y-93938328D01*
X136532856Y-93938328D02*
X136056666Y-94033566D01*
X136961428Y-94366900D02*
X136961428Y-93700233D01*
X136961428Y-93890709D02*
X137009047Y-93795471D01*
X137009047Y-93795471D02*
X137056666Y-93747852D01*
X137056666Y-93747852D02*
X137151904Y-93700233D01*
X137151904Y-93700233D02*
X137247142Y-93700233D01*
X137580476Y-93700233D02*
X137580476Y-94366900D01*
X137580476Y-93795471D02*
X137628095Y-93747852D01*
X137628095Y-93747852D02*
X137723333Y-93700233D01*
X137723333Y-93700233D02*
X137866190Y-93700233D01*
X137866190Y-93700233D02*
X137961428Y-93747852D01*
X137961428Y-93747852D02*
X138009047Y-93843090D01*
X138009047Y-93843090D02*
X138009047Y-94366900D01*
X138913809Y-94366900D02*
X138913809Y-93843090D01*
X138913809Y-93843090D02*
X138866190Y-93747852D01*
X138866190Y-93747852D02*
X138770952Y-93700233D01*
X138770952Y-93700233D02*
X138580476Y-93700233D01*
X138580476Y-93700233D02*
X138485238Y-93747852D01*
X138913809Y-94319281D02*
X138818571Y-94366900D01*
X138818571Y-94366900D02*
X138580476Y-94366900D01*
X138580476Y-94366900D02*
X138485238Y-94319281D01*
X138485238Y-94319281D02*
X138437619Y-94224042D01*
X138437619Y-94224042D02*
X138437619Y-94128804D01*
X138437619Y-94128804D02*
X138485238Y-94033566D01*
X138485238Y-94033566D02*
X138580476Y-93985947D01*
X138580476Y-93985947D02*
X138818571Y-93985947D01*
X138818571Y-93985947D02*
X138913809Y-93938328D01*
X139532857Y-94366900D02*
X139437619Y-94319281D01*
X139437619Y-94319281D02*
X139390000Y-94224042D01*
X139390000Y-94224042D02*
X139390000Y-93366900D01*
X140675715Y-94366900D02*
X140675715Y-93366900D01*
X140675715Y-93366900D02*
X141056667Y-93366900D01*
X141056667Y-93366900D02*
X141151905Y-93414519D01*
X141151905Y-93414519D02*
X141199524Y-93462138D01*
X141199524Y-93462138D02*
X141247143Y-93557376D01*
X141247143Y-93557376D02*
X141247143Y-93700233D01*
X141247143Y-93700233D02*
X141199524Y-93795471D01*
X141199524Y-93795471D02*
X141151905Y-93843090D01*
X141151905Y-93843090D02*
X141056667Y-93890709D01*
X141056667Y-93890709D02*
X140675715Y-93890709D01*
X142104286Y-93700233D02*
X142104286Y-94366900D01*
X141675715Y-93700233D02*
X141675715Y-94224042D01*
X141675715Y-94224042D02*
X141723334Y-94319281D01*
X141723334Y-94319281D02*
X141818572Y-94366900D01*
X141818572Y-94366900D02*
X141961429Y-94366900D01*
X141961429Y-94366900D02*
X142056667Y-94319281D01*
X142056667Y-94319281D02*
X142104286Y-94271661D01*
X142723334Y-94366900D02*
X142628096Y-94319281D01*
X142628096Y-94319281D02*
X142580477Y-94224042D01*
X142580477Y-94224042D02*
X142580477Y-93366900D01*
X143247144Y-94366900D02*
X143151906Y-94319281D01*
X143151906Y-94319281D02*
X143104287Y-94224042D01*
X143104287Y-94224042D02*
X143104287Y-93366900D01*
X144056668Y-93700233D02*
X144056668Y-94366900D01*
X143628097Y-93700233D02*
X143628097Y-94224042D01*
X143628097Y-94224042D02*
X143675716Y-94319281D01*
X143675716Y-94319281D02*
X143770954Y-94366900D01*
X143770954Y-94366900D02*
X143913811Y-94366900D01*
X143913811Y-94366900D02*
X144009049Y-94319281D01*
X144009049Y-94319281D02*
X144056668Y-94271661D01*
X144532859Y-93700233D02*
X144532859Y-94700233D01*
X144532859Y-93747852D02*
X144628097Y-93700233D01*
X144628097Y-93700233D02*
X144818573Y-93700233D01*
X144818573Y-93700233D02*
X144913811Y-93747852D01*
X144913811Y-93747852D02*
X144961430Y-93795471D01*
X144961430Y-93795471D02*
X145009049Y-93890709D01*
X145009049Y-93890709D02*
X145009049Y-94176423D01*
X145009049Y-94176423D02*
X144961430Y-94271661D01*
X144961430Y-94271661D02*
X144913811Y-94319281D01*
X144913811Y-94319281D02*
X144818573Y-94366900D01*
X144818573Y-94366900D02*
X144628097Y-94366900D01*
X144628097Y-94366900D02*
X144532859Y-94319281D01*
X145342383Y-94747852D02*
X145390002Y-94700233D01*
X145390002Y-94700233D02*
X145485240Y-94557376D01*
X145485240Y-94557376D02*
X145532859Y-94462138D01*
X145532859Y-94462138D02*
X145580478Y-94319281D01*
X145580478Y-94319281D02*
X145628097Y-94081185D01*
X145628097Y-94081185D02*
X145628097Y-93890709D01*
X145628097Y-93890709D02*
X145580478Y-93652614D01*
X145580478Y-93652614D02*
X145532859Y-93509757D01*
X145532859Y-93509757D02*
X145485240Y-93414519D01*
X145485240Y-93414519D02*
X145390002Y-93271661D01*
X145390002Y-93271661D02*
X145342383Y-93224042D01*
X134556667Y-93049281D02*
X134699524Y-93096900D01*
X134699524Y-93096900D02*
X134937619Y-93096900D01*
X134937619Y-93096900D02*
X135032857Y-93049281D01*
X135032857Y-93049281D02*
X135080476Y-93001661D01*
X135080476Y-93001661D02*
X135128095Y-92906423D01*
X135128095Y-92906423D02*
X135128095Y-92811185D01*
X135128095Y-92811185D02*
X135080476Y-92715947D01*
X135080476Y-92715947D02*
X135032857Y-92668328D01*
X135032857Y-92668328D02*
X134937619Y-92620709D01*
X134937619Y-92620709D02*
X134747143Y-92573090D01*
X134747143Y-92573090D02*
X134651905Y-92525471D01*
X134651905Y-92525471D02*
X134604286Y-92477852D01*
X134604286Y-92477852D02*
X134556667Y-92382614D01*
X134556667Y-92382614D02*
X134556667Y-92287376D01*
X134556667Y-92287376D02*
X134604286Y-92192138D01*
X134604286Y-92192138D02*
X134651905Y-92144519D01*
X134651905Y-92144519D02*
X134747143Y-92096900D01*
X134747143Y-92096900D02*
X134985238Y-92096900D01*
X134985238Y-92096900D02*
X135128095Y-92144519D01*
X135461429Y-92096900D02*
X135699524Y-93096900D01*
X135699524Y-93096900D02*
X135890000Y-92382614D01*
X135890000Y-92382614D02*
X136080476Y-93096900D01*
X136080476Y-93096900D02*
X136318572Y-92096900D01*
X137223333Y-93096900D02*
X136651905Y-93096900D01*
X136937619Y-93096900D02*
X136937619Y-92096900D01*
X136937619Y-92096900D02*
X136842381Y-92239757D01*
X136842381Y-92239757D02*
X136747143Y-92334995D01*
X136747143Y-92334995D02*
X136651905Y-92382614D01*
X130485237Y-139284519D02*
X130389999Y-139236900D01*
X130389999Y-139236900D02*
X130247142Y-139236900D01*
X130247142Y-139236900D02*
X130104285Y-139284519D01*
X130104285Y-139284519D02*
X130009047Y-139379757D01*
X130009047Y-139379757D02*
X129961428Y-139474995D01*
X129961428Y-139474995D02*
X129913809Y-139665471D01*
X129913809Y-139665471D02*
X129913809Y-139808328D01*
X129913809Y-139808328D02*
X129961428Y-139998804D01*
X129961428Y-139998804D02*
X130009047Y-140094042D01*
X130009047Y-140094042D02*
X130104285Y-140189281D01*
X130104285Y-140189281D02*
X130247142Y-140236900D01*
X130247142Y-140236900D02*
X130342380Y-140236900D01*
X130342380Y-140236900D02*
X130485237Y-140189281D01*
X130485237Y-140189281D02*
X130532856Y-140141661D01*
X130532856Y-140141661D02*
X130532856Y-139808328D01*
X130532856Y-139808328D02*
X130342380Y-139808328D01*
X130913809Y-139951185D02*
X131389999Y-139951185D01*
X130818571Y-140236900D02*
X131151904Y-139236900D01*
X131151904Y-139236900D02*
X131485237Y-140236900D01*
X131675714Y-139236900D02*
X132247142Y-139236900D01*
X131961428Y-140236900D02*
X131961428Y-139236900D01*
X132580476Y-139713090D02*
X132913809Y-139713090D01*
X133056666Y-140236900D02*
X132580476Y-140236900D01*
X132580476Y-140236900D02*
X132580476Y-139236900D01*
X132580476Y-139236900D02*
X133056666Y-139236900D01*
X134437619Y-139236900D02*
X134628095Y-139236900D01*
X134628095Y-139236900D02*
X134723333Y-139284519D01*
X134723333Y-139284519D02*
X134818571Y-139379757D01*
X134818571Y-139379757D02*
X134866190Y-139570233D01*
X134866190Y-139570233D02*
X134866190Y-139903566D01*
X134866190Y-139903566D02*
X134818571Y-140094042D01*
X134818571Y-140094042D02*
X134723333Y-140189281D01*
X134723333Y-140189281D02*
X134628095Y-140236900D01*
X134628095Y-140236900D02*
X134437619Y-140236900D01*
X134437619Y-140236900D02*
X134342381Y-140189281D01*
X134342381Y-140189281D02*
X134247143Y-140094042D01*
X134247143Y-140094042D02*
X134199524Y-139903566D01*
X134199524Y-139903566D02*
X134199524Y-139570233D01*
X134199524Y-139570233D02*
X134247143Y-139379757D01*
X134247143Y-139379757D02*
X134342381Y-139284519D01*
X134342381Y-139284519D02*
X134437619Y-139236900D01*
X135294762Y-139236900D02*
X135294762Y-140046423D01*
X135294762Y-140046423D02*
X135342381Y-140141661D01*
X135342381Y-140141661D02*
X135390000Y-140189281D01*
X135390000Y-140189281D02*
X135485238Y-140236900D01*
X135485238Y-140236900D02*
X135675714Y-140236900D01*
X135675714Y-140236900D02*
X135770952Y-140189281D01*
X135770952Y-140189281D02*
X135818571Y-140141661D01*
X135818571Y-140141661D02*
X135866190Y-140046423D01*
X135866190Y-140046423D02*
X135866190Y-139236900D01*
X136199524Y-139236900D02*
X136770952Y-139236900D01*
X136485238Y-140236900D02*
X136485238Y-139236900D01*
X137818572Y-139332138D02*
X137866191Y-139284519D01*
X137866191Y-139284519D02*
X137961429Y-139236900D01*
X137961429Y-139236900D02*
X138199524Y-139236900D01*
X138199524Y-139236900D02*
X138294762Y-139284519D01*
X138294762Y-139284519D02*
X138342381Y-139332138D01*
X138342381Y-139332138D02*
X138390000Y-139427376D01*
X138390000Y-139427376D02*
X138390000Y-139522614D01*
X138390000Y-139522614D02*
X138342381Y-139665471D01*
X138342381Y-139665471D02*
X137770953Y-140236900D01*
X137770953Y-140236900D02*
X138390000Y-140236900D01*
X140056667Y-140236900D02*
X139580477Y-140236900D01*
X139580477Y-140236900D02*
X139580477Y-139236900D01*
X140390001Y-139713090D02*
X140723334Y-139713090D01*
X140866191Y-140236900D02*
X140390001Y-140236900D01*
X140390001Y-140236900D02*
X140390001Y-139236900D01*
X140390001Y-139236900D02*
X140866191Y-139236900D01*
X141294763Y-140236900D02*
X141294763Y-139236900D01*
X141294763Y-139236900D02*
X141532858Y-139236900D01*
X141532858Y-139236900D02*
X141675715Y-139284519D01*
X141675715Y-139284519D02*
X141770953Y-139379757D01*
X141770953Y-139379757D02*
X141818572Y-139474995D01*
X141818572Y-139474995D02*
X141866191Y-139665471D01*
X141866191Y-139665471D02*
X141866191Y-139808328D01*
X141866191Y-139808328D02*
X141818572Y-139998804D01*
X141818572Y-139998804D02*
X141770953Y-140094042D01*
X141770953Y-140094042D02*
X141675715Y-140189281D01*
X141675715Y-140189281D02*
X141532858Y-140236900D01*
X141532858Y-140236900D02*
X141294763Y-140236900D01*
D11*
X135299524Y-136181776D02*
X135299524Y-135381776D01*
X135299524Y-135381776D02*
X135490000Y-135381776D01*
X135490000Y-135381776D02*
X135604286Y-135419871D01*
X135604286Y-135419871D02*
X135680476Y-135496061D01*
X135680476Y-135496061D02*
X135718571Y-135572252D01*
X135718571Y-135572252D02*
X135756667Y-135724633D01*
X135756667Y-135724633D02*
X135756667Y-135838919D01*
X135756667Y-135838919D02*
X135718571Y-135991300D01*
X135718571Y-135991300D02*
X135680476Y-136067490D01*
X135680476Y-136067490D02*
X135604286Y-136143681D01*
X135604286Y-136143681D02*
X135490000Y-136181776D01*
X135490000Y-136181776D02*
X135299524Y-136181776D01*
X136442381Y-135381776D02*
X136290000Y-135381776D01*
X136290000Y-135381776D02*
X136213809Y-135419871D01*
X136213809Y-135419871D02*
X136175714Y-135457966D01*
X136175714Y-135457966D02*
X136099524Y-135572252D01*
X136099524Y-135572252D02*
X136061428Y-135724633D01*
X136061428Y-135724633D02*
X136061428Y-136029395D01*
X136061428Y-136029395D02*
X136099524Y-136105585D01*
X136099524Y-136105585D02*
X136137619Y-136143681D01*
X136137619Y-136143681D02*
X136213809Y-136181776D01*
X136213809Y-136181776D02*
X136366190Y-136181776D01*
X136366190Y-136181776D02*
X136442381Y-136143681D01*
X136442381Y-136143681D02*
X136480476Y-136105585D01*
X136480476Y-136105585D02*
X136518571Y-136029395D01*
X136518571Y-136029395D02*
X136518571Y-135838919D01*
X136518571Y-135838919D02*
X136480476Y-135762728D01*
X136480476Y-135762728D02*
X136442381Y-135724633D01*
X136442381Y-135724633D02*
X136366190Y-135686538D01*
X136366190Y-135686538D02*
X136213809Y-135686538D01*
X136213809Y-135686538D02*
X136137619Y-135724633D01*
X136137619Y-135724633D02*
X136099524Y-135762728D01*
X136099524Y-135762728D02*
X136061428Y-135838919D01*
D10*
X130485237Y-124044519D02*
X130389999Y-123996900D01*
X130389999Y-123996900D02*
X130247142Y-123996900D01*
X130247142Y-123996900D02*
X130104285Y-124044519D01*
X130104285Y-124044519D02*
X130009047Y-124139757D01*
X130009047Y-124139757D02*
X129961428Y-124234995D01*
X129961428Y-124234995D02*
X129913809Y-124425471D01*
X129913809Y-124425471D02*
X129913809Y-124568328D01*
X129913809Y-124568328D02*
X129961428Y-124758804D01*
X129961428Y-124758804D02*
X130009047Y-124854042D01*
X130009047Y-124854042D02*
X130104285Y-124949281D01*
X130104285Y-124949281D02*
X130247142Y-124996900D01*
X130247142Y-124996900D02*
X130342380Y-124996900D01*
X130342380Y-124996900D02*
X130485237Y-124949281D01*
X130485237Y-124949281D02*
X130532856Y-124901661D01*
X130532856Y-124901661D02*
X130532856Y-124568328D01*
X130532856Y-124568328D02*
X130342380Y-124568328D01*
X130913809Y-124711185D02*
X131389999Y-124711185D01*
X130818571Y-124996900D02*
X131151904Y-123996900D01*
X131151904Y-123996900D02*
X131485237Y-124996900D01*
X131675714Y-123996900D02*
X132247142Y-123996900D01*
X131961428Y-124996900D02*
X131961428Y-123996900D01*
X132580476Y-124473090D02*
X132913809Y-124473090D01*
X133056666Y-124996900D02*
X132580476Y-124996900D01*
X132580476Y-124996900D02*
X132580476Y-123996900D01*
X132580476Y-123996900D02*
X133056666Y-123996900D01*
X134437619Y-123996900D02*
X134628095Y-123996900D01*
X134628095Y-123996900D02*
X134723333Y-124044519D01*
X134723333Y-124044519D02*
X134818571Y-124139757D01*
X134818571Y-124139757D02*
X134866190Y-124330233D01*
X134866190Y-124330233D02*
X134866190Y-124663566D01*
X134866190Y-124663566D02*
X134818571Y-124854042D01*
X134818571Y-124854042D02*
X134723333Y-124949281D01*
X134723333Y-124949281D02*
X134628095Y-124996900D01*
X134628095Y-124996900D02*
X134437619Y-124996900D01*
X134437619Y-124996900D02*
X134342381Y-124949281D01*
X134342381Y-124949281D02*
X134247143Y-124854042D01*
X134247143Y-124854042D02*
X134199524Y-124663566D01*
X134199524Y-124663566D02*
X134199524Y-124330233D01*
X134199524Y-124330233D02*
X134247143Y-124139757D01*
X134247143Y-124139757D02*
X134342381Y-124044519D01*
X134342381Y-124044519D02*
X134437619Y-123996900D01*
X135294762Y-123996900D02*
X135294762Y-124806423D01*
X135294762Y-124806423D02*
X135342381Y-124901661D01*
X135342381Y-124901661D02*
X135390000Y-124949281D01*
X135390000Y-124949281D02*
X135485238Y-124996900D01*
X135485238Y-124996900D02*
X135675714Y-124996900D01*
X135675714Y-124996900D02*
X135770952Y-124949281D01*
X135770952Y-124949281D02*
X135818571Y-124901661D01*
X135818571Y-124901661D02*
X135866190Y-124806423D01*
X135866190Y-124806423D02*
X135866190Y-123996900D01*
X136199524Y-123996900D02*
X136770952Y-123996900D01*
X136485238Y-124996900D02*
X136485238Y-123996900D01*
X138390000Y-124996900D02*
X137818572Y-124996900D01*
X138104286Y-124996900D02*
X138104286Y-123996900D01*
X138104286Y-123996900D02*
X138009048Y-124139757D01*
X138009048Y-124139757D02*
X137913810Y-124234995D01*
X137913810Y-124234995D02*
X137818572Y-124282614D01*
X140056667Y-124996900D02*
X139580477Y-124996900D01*
X139580477Y-124996900D02*
X139580477Y-123996900D01*
X140390001Y-124473090D02*
X140723334Y-124473090D01*
X140866191Y-124996900D02*
X140390001Y-124996900D01*
X140390001Y-124996900D02*
X140390001Y-123996900D01*
X140390001Y-123996900D02*
X140866191Y-123996900D01*
X141294763Y-124996900D02*
X141294763Y-123996900D01*
X141294763Y-123996900D02*
X141532858Y-123996900D01*
X141532858Y-123996900D02*
X141675715Y-124044519D01*
X141675715Y-124044519D02*
X141770953Y-124139757D01*
X141770953Y-124139757D02*
X141818572Y-124234995D01*
X141818572Y-124234995D02*
X141866191Y-124425471D01*
X141866191Y-124425471D02*
X141866191Y-124568328D01*
X141866191Y-124568328D02*
X141818572Y-124758804D01*
X141818572Y-124758804D02*
X141770953Y-124854042D01*
X141770953Y-124854042D02*
X141675715Y-124949281D01*
X141675715Y-124949281D02*
X141532858Y-124996900D01*
X141532858Y-124996900D02*
X141294763Y-124996900D01*
D11*
X135279524Y-120941776D02*
X135279524Y-120141776D01*
X135279524Y-120141776D02*
X135470000Y-120141776D01*
X135470000Y-120141776D02*
X135584286Y-120179871D01*
X135584286Y-120179871D02*
X135660476Y-120256061D01*
X135660476Y-120256061D02*
X135698571Y-120332252D01*
X135698571Y-120332252D02*
X135736667Y-120484633D01*
X135736667Y-120484633D02*
X135736667Y-120598919D01*
X135736667Y-120598919D02*
X135698571Y-120751300D01*
X135698571Y-120751300D02*
X135660476Y-120827490D01*
X135660476Y-120827490D02*
X135584286Y-120903681D01*
X135584286Y-120903681D02*
X135470000Y-120941776D01*
X135470000Y-120941776D02*
X135279524Y-120941776D01*
X136041428Y-120217966D02*
X136079524Y-120179871D01*
X136079524Y-120179871D02*
X136155714Y-120141776D01*
X136155714Y-120141776D02*
X136346190Y-120141776D01*
X136346190Y-120141776D02*
X136422381Y-120179871D01*
X136422381Y-120179871D02*
X136460476Y-120217966D01*
X136460476Y-120217966D02*
X136498571Y-120294157D01*
X136498571Y-120294157D02*
X136498571Y-120370347D01*
X136498571Y-120370347D02*
X136460476Y-120484633D01*
X136460476Y-120484633D02*
X136003333Y-120941776D01*
X136003333Y-120941776D02*
X136498571Y-120941776D01*
D10*
X136922857Y-38904819D02*
X136351429Y-38904819D01*
X136637143Y-38904819D02*
X136637143Y-37904819D01*
X136637143Y-37904819D02*
X136541905Y-38047676D01*
X136541905Y-38047676D02*
X136446667Y-38142914D01*
X136446667Y-38142914D02*
X136351429Y-38190533D01*
X137541905Y-37904819D02*
X137637143Y-37904819D01*
X137637143Y-37904819D02*
X137732381Y-37952438D01*
X137732381Y-37952438D02*
X137780000Y-38000057D01*
X137780000Y-38000057D02*
X137827619Y-38095295D01*
X137827619Y-38095295D02*
X137875238Y-38285771D01*
X137875238Y-38285771D02*
X137875238Y-38523866D01*
X137875238Y-38523866D02*
X137827619Y-38714342D01*
X137827619Y-38714342D02*
X137780000Y-38809580D01*
X137780000Y-38809580D02*
X137732381Y-38857200D01*
X137732381Y-38857200D02*
X137637143Y-38904819D01*
X137637143Y-38904819D02*
X137541905Y-38904819D01*
X137541905Y-38904819D02*
X137446667Y-38857200D01*
X137446667Y-38857200D02*
X137399048Y-38809580D01*
X137399048Y-38809580D02*
X137351429Y-38714342D01*
X137351429Y-38714342D02*
X137303810Y-38523866D01*
X137303810Y-38523866D02*
X137303810Y-38285771D01*
X137303810Y-38285771D02*
X137351429Y-38095295D01*
X137351429Y-38095295D02*
X137399048Y-38000057D01*
X137399048Y-38000057D02*
X137446667Y-37952438D01*
X137446667Y-37952438D02*
X137541905Y-37904819D01*
X138494286Y-37904819D02*
X138589524Y-37904819D01*
X138589524Y-37904819D02*
X138684762Y-37952438D01*
X138684762Y-37952438D02*
X138732381Y-38000057D01*
X138732381Y-38000057D02*
X138780000Y-38095295D01*
X138780000Y-38095295D02*
X138827619Y-38285771D01*
X138827619Y-38285771D02*
X138827619Y-38523866D01*
X138827619Y-38523866D02*
X138780000Y-38714342D01*
X138780000Y-38714342D02*
X138732381Y-38809580D01*
X138732381Y-38809580D02*
X138684762Y-38857200D01*
X138684762Y-38857200D02*
X138589524Y-38904819D01*
X138589524Y-38904819D02*
X138494286Y-38904819D01*
X138494286Y-38904819D02*
X138399048Y-38857200D01*
X138399048Y-38857200D02*
X138351429Y-38809580D01*
X138351429Y-38809580D02*
X138303810Y-38714342D01*
X138303810Y-38714342D02*
X138256191Y-38523866D01*
X138256191Y-38523866D02*
X138256191Y-38285771D01*
X138256191Y-38285771D02*
X138303810Y-38095295D01*
X138303810Y-38095295D02*
X138351429Y-38000057D01*
X138351429Y-38000057D02*
X138399048Y-37952438D01*
X138399048Y-37952438D02*
X138494286Y-37904819D01*
X139256191Y-38904819D02*
X139256191Y-37904819D01*
X139827619Y-38904819D02*
X139399048Y-38333390D01*
X139827619Y-37904819D02*
X139256191Y-38476247D01*
X141018096Y-38904819D02*
X141018096Y-37904819D01*
X141018096Y-37904819D02*
X141351429Y-38619104D01*
X141351429Y-38619104D02*
X141684762Y-37904819D01*
X141684762Y-37904819D02*
X141684762Y-38904819D01*
X142160953Y-37904819D02*
X142160953Y-38714342D01*
X142160953Y-38714342D02*
X142208572Y-38809580D01*
X142208572Y-38809580D02*
X142256191Y-38857200D01*
X142256191Y-38857200D02*
X142351429Y-38904819D01*
X142351429Y-38904819D02*
X142541905Y-38904819D01*
X142541905Y-38904819D02*
X142637143Y-38857200D01*
X142637143Y-38857200D02*
X142684762Y-38809580D01*
X142684762Y-38809580D02*
X142732381Y-38714342D01*
X142732381Y-38714342D02*
X142732381Y-37904819D01*
X143684762Y-38904819D02*
X143208572Y-38904819D01*
X143208572Y-38904819D02*
X143208572Y-37904819D01*
X143875239Y-37904819D02*
X144446667Y-37904819D01*
X144160953Y-38904819D02*
X144160953Y-37904819D01*
X144780001Y-38904819D02*
X144780001Y-37904819D01*
X145970476Y-37857200D02*
X145113334Y-39142914D01*
X146303810Y-38904819D02*
X146303810Y-37904819D01*
X146303810Y-37904819D02*
X146541905Y-37904819D01*
X146541905Y-37904819D02*
X146684762Y-37952438D01*
X146684762Y-37952438D02*
X146780000Y-38047676D01*
X146780000Y-38047676D02*
X146827619Y-38142914D01*
X146827619Y-38142914D02*
X146875238Y-38333390D01*
X146875238Y-38333390D02*
X146875238Y-38476247D01*
X146875238Y-38476247D02*
X146827619Y-38666723D01*
X146827619Y-38666723D02*
X146780000Y-38761961D01*
X146780000Y-38761961D02*
X146684762Y-38857200D01*
X146684762Y-38857200D02*
X146541905Y-38904819D01*
X146541905Y-38904819D02*
X146303810Y-38904819D01*
X147303810Y-38904819D02*
X147303810Y-37904819D01*
X147637143Y-37904819D02*
X147970476Y-38904819D01*
X147970476Y-38904819D02*
X148303809Y-37904819D01*
X138970475Y-64304819D02*
X138399047Y-64304819D01*
X138684761Y-64304819D02*
X138684761Y-63304819D01*
X138684761Y-63304819D02*
X138589523Y-63447676D01*
X138589523Y-63447676D02*
X138494285Y-63542914D01*
X138494285Y-63542914D02*
X138399047Y-63590533D01*
X139589523Y-63304819D02*
X139684761Y-63304819D01*
X139684761Y-63304819D02*
X139779999Y-63352438D01*
X139779999Y-63352438D02*
X139827618Y-63400057D01*
X139827618Y-63400057D02*
X139875237Y-63495295D01*
X139875237Y-63495295D02*
X139922856Y-63685771D01*
X139922856Y-63685771D02*
X139922856Y-63923866D01*
X139922856Y-63923866D02*
X139875237Y-64114342D01*
X139875237Y-64114342D02*
X139827618Y-64209580D01*
X139827618Y-64209580D02*
X139779999Y-64257200D01*
X139779999Y-64257200D02*
X139684761Y-64304819D01*
X139684761Y-64304819D02*
X139589523Y-64304819D01*
X139589523Y-64304819D02*
X139494285Y-64257200D01*
X139494285Y-64257200D02*
X139446666Y-64209580D01*
X139446666Y-64209580D02*
X139399047Y-64114342D01*
X139399047Y-64114342D02*
X139351428Y-63923866D01*
X139351428Y-63923866D02*
X139351428Y-63685771D01*
X139351428Y-63685771D02*
X139399047Y-63495295D01*
X139399047Y-63495295D02*
X139446666Y-63400057D01*
X139446666Y-63400057D02*
X139494285Y-63352438D01*
X139494285Y-63352438D02*
X139589523Y-63304819D01*
X140541904Y-63304819D02*
X140637142Y-63304819D01*
X140637142Y-63304819D02*
X140732380Y-63352438D01*
X140732380Y-63352438D02*
X140779999Y-63400057D01*
X140779999Y-63400057D02*
X140827618Y-63495295D01*
X140827618Y-63495295D02*
X140875237Y-63685771D01*
X140875237Y-63685771D02*
X140875237Y-63923866D01*
X140875237Y-63923866D02*
X140827618Y-64114342D01*
X140827618Y-64114342D02*
X140779999Y-64209580D01*
X140779999Y-64209580D02*
X140732380Y-64257200D01*
X140732380Y-64257200D02*
X140637142Y-64304819D01*
X140637142Y-64304819D02*
X140541904Y-64304819D01*
X140541904Y-64304819D02*
X140446666Y-64257200D01*
X140446666Y-64257200D02*
X140399047Y-64209580D01*
X140399047Y-64209580D02*
X140351428Y-64114342D01*
X140351428Y-64114342D02*
X140303809Y-63923866D01*
X140303809Y-63923866D02*
X140303809Y-63685771D01*
X140303809Y-63685771D02*
X140351428Y-63495295D01*
X140351428Y-63495295D02*
X140399047Y-63400057D01*
X140399047Y-63400057D02*
X140446666Y-63352438D01*
X140446666Y-63352438D02*
X140541904Y-63304819D01*
X141303809Y-64304819D02*
X141303809Y-63304819D01*
X141875237Y-64304819D02*
X141446666Y-63733390D01*
X141875237Y-63304819D02*
X141303809Y-63876247D01*
X143637142Y-64304819D02*
X143303809Y-63828628D01*
X143065714Y-64304819D02*
X143065714Y-63304819D01*
X143065714Y-63304819D02*
X143446666Y-63304819D01*
X143446666Y-63304819D02*
X143541904Y-63352438D01*
X143541904Y-63352438D02*
X143589523Y-63400057D01*
X143589523Y-63400057D02*
X143637142Y-63495295D01*
X143637142Y-63495295D02*
X143637142Y-63638152D01*
X143637142Y-63638152D02*
X143589523Y-63733390D01*
X143589523Y-63733390D02*
X143541904Y-63781009D01*
X143541904Y-63781009D02*
X143446666Y-63828628D01*
X143446666Y-63828628D02*
X143065714Y-63828628D01*
X144018095Y-64019104D02*
X144494285Y-64019104D01*
X143922857Y-64304819D02*
X144256190Y-63304819D01*
X144256190Y-63304819D02*
X144589523Y-64304819D01*
X144780000Y-63304819D02*
X145351428Y-63304819D01*
X145065714Y-64304819D02*
X145065714Y-63304819D01*
X145684762Y-63781009D02*
X146018095Y-63781009D01*
X146160952Y-64304819D02*
X145684762Y-64304819D01*
X145684762Y-64304819D02*
X145684762Y-63304819D01*
X145684762Y-63304819D02*
X146160952Y-63304819D01*
X144923332Y-112972519D02*
X144828094Y-112924900D01*
X144828094Y-112924900D02*
X144685237Y-112924900D01*
X144685237Y-112924900D02*
X144542380Y-112972519D01*
X144542380Y-112972519D02*
X144447142Y-113067757D01*
X144447142Y-113067757D02*
X144399523Y-113162995D01*
X144399523Y-113162995D02*
X144351904Y-113353471D01*
X144351904Y-113353471D02*
X144351904Y-113496328D01*
X144351904Y-113496328D02*
X144399523Y-113686804D01*
X144399523Y-113686804D02*
X144447142Y-113782042D01*
X144447142Y-113782042D02*
X144542380Y-113877281D01*
X144542380Y-113877281D02*
X144685237Y-113924900D01*
X144685237Y-113924900D02*
X144780475Y-113924900D01*
X144780475Y-113924900D02*
X144923332Y-113877281D01*
X144923332Y-113877281D02*
X144970951Y-113829661D01*
X144970951Y-113829661D02*
X144970951Y-113496328D01*
X144970951Y-113496328D02*
X144780475Y-113496328D01*
X145351904Y-113639185D02*
X145828094Y-113639185D01*
X145256666Y-113924900D02*
X145589999Y-112924900D01*
X145589999Y-112924900D02*
X145923332Y-113924900D01*
X146113809Y-112924900D02*
X146685237Y-112924900D01*
X146399523Y-113924900D02*
X146399523Y-112924900D01*
X147018571Y-113401090D02*
X147351904Y-113401090D01*
X147494761Y-113924900D02*
X147018571Y-113924900D01*
X147018571Y-113924900D02*
X147018571Y-112924900D01*
X147018571Y-112924900D02*
X147494761Y-112924900D01*
X148875714Y-112924900D02*
X149066190Y-112924900D01*
X149066190Y-112924900D02*
X149161428Y-112972519D01*
X149161428Y-112972519D02*
X149256666Y-113067757D01*
X149256666Y-113067757D02*
X149304285Y-113258233D01*
X149304285Y-113258233D02*
X149304285Y-113591566D01*
X149304285Y-113591566D02*
X149256666Y-113782042D01*
X149256666Y-113782042D02*
X149161428Y-113877281D01*
X149161428Y-113877281D02*
X149066190Y-113924900D01*
X149066190Y-113924900D02*
X148875714Y-113924900D01*
X148875714Y-113924900D02*
X148780476Y-113877281D01*
X148780476Y-113877281D02*
X148685238Y-113782042D01*
X148685238Y-113782042D02*
X148637619Y-113591566D01*
X148637619Y-113591566D02*
X148637619Y-113258233D01*
X148637619Y-113258233D02*
X148685238Y-113067757D01*
X148685238Y-113067757D02*
X148780476Y-112972519D01*
X148780476Y-112972519D02*
X148875714Y-112924900D01*
X149732857Y-112924900D02*
X149732857Y-113734423D01*
X149732857Y-113734423D02*
X149780476Y-113829661D01*
X149780476Y-113829661D02*
X149828095Y-113877281D01*
X149828095Y-113877281D02*
X149923333Y-113924900D01*
X149923333Y-113924900D02*
X150113809Y-113924900D01*
X150113809Y-113924900D02*
X150209047Y-113877281D01*
X150209047Y-113877281D02*
X150256666Y-113829661D01*
X150256666Y-113829661D02*
X150304285Y-113734423D01*
X150304285Y-113734423D02*
X150304285Y-112924900D01*
X150637619Y-112924900D02*
X151209047Y-112924900D01*
X150923333Y-113924900D02*
X150923333Y-112924900D01*
X152828095Y-113924900D02*
X152256667Y-113924900D01*
X152542381Y-113924900D02*
X152542381Y-112924900D01*
X152542381Y-112924900D02*
X152447143Y-113067757D01*
X152447143Y-113067757D02*
X152351905Y-113162995D01*
X152351905Y-113162995D02*
X152256667Y-113210614D01*
X161814760Y-83969580D02*
X161767141Y-84017200D01*
X161767141Y-84017200D02*
X161624284Y-84064819D01*
X161624284Y-84064819D02*
X161529046Y-84064819D01*
X161529046Y-84064819D02*
X161386189Y-84017200D01*
X161386189Y-84017200D02*
X161290951Y-83921961D01*
X161290951Y-83921961D02*
X161243332Y-83826723D01*
X161243332Y-83826723D02*
X161195713Y-83636247D01*
X161195713Y-83636247D02*
X161195713Y-83493390D01*
X161195713Y-83493390D02*
X161243332Y-83302914D01*
X161243332Y-83302914D02*
X161290951Y-83207676D01*
X161290951Y-83207676D02*
X161386189Y-83112438D01*
X161386189Y-83112438D02*
X161529046Y-83064819D01*
X161529046Y-83064819D02*
X161624284Y-83064819D01*
X161624284Y-83064819D02*
X161767141Y-83112438D01*
X161767141Y-83112438D02*
X161814760Y-83160057D01*
X162386189Y-84064819D02*
X162290951Y-84017200D01*
X162290951Y-84017200D02*
X162243332Y-83969580D01*
X162243332Y-83969580D02*
X162195713Y-83874342D01*
X162195713Y-83874342D02*
X162195713Y-83588628D01*
X162195713Y-83588628D02*
X162243332Y-83493390D01*
X162243332Y-83493390D02*
X162290951Y-83445771D01*
X162290951Y-83445771D02*
X162386189Y-83398152D01*
X162386189Y-83398152D02*
X162529046Y-83398152D01*
X162529046Y-83398152D02*
X162624284Y-83445771D01*
X162624284Y-83445771D02*
X162671903Y-83493390D01*
X162671903Y-83493390D02*
X162719522Y-83588628D01*
X162719522Y-83588628D02*
X162719522Y-83874342D01*
X162719522Y-83874342D02*
X162671903Y-83969580D01*
X162671903Y-83969580D02*
X162624284Y-84017200D01*
X162624284Y-84017200D02*
X162529046Y-84064819D01*
X162529046Y-84064819D02*
X162386189Y-84064819D01*
X163148094Y-83398152D02*
X163148094Y-84064819D01*
X163148094Y-83493390D02*
X163195713Y-83445771D01*
X163195713Y-83445771D02*
X163290951Y-83398152D01*
X163290951Y-83398152D02*
X163433808Y-83398152D01*
X163433808Y-83398152D02*
X163529046Y-83445771D01*
X163529046Y-83445771D02*
X163576665Y-83541009D01*
X163576665Y-83541009D02*
X163576665Y-84064819D01*
X164052856Y-83398152D02*
X164052856Y-84064819D01*
X164052856Y-83493390D02*
X164100475Y-83445771D01*
X164100475Y-83445771D02*
X164195713Y-83398152D01*
X164195713Y-83398152D02*
X164338570Y-83398152D01*
X164338570Y-83398152D02*
X164433808Y-83445771D01*
X164433808Y-83445771D02*
X164481427Y-83541009D01*
X164481427Y-83541009D02*
X164481427Y-84064819D01*
X164719523Y-84160057D02*
X165481427Y-84160057D01*
X165909999Y-83064819D02*
X166005237Y-83064819D01*
X166005237Y-83064819D02*
X166100475Y-83112438D01*
X166100475Y-83112438D02*
X166148094Y-83160057D01*
X166148094Y-83160057D02*
X166195713Y-83255295D01*
X166195713Y-83255295D02*
X166243332Y-83445771D01*
X166243332Y-83445771D02*
X166243332Y-83683866D01*
X166243332Y-83683866D02*
X166195713Y-83874342D01*
X166195713Y-83874342D02*
X166148094Y-83969580D01*
X166148094Y-83969580D02*
X166100475Y-84017200D01*
X166100475Y-84017200D02*
X166005237Y-84064819D01*
X166005237Y-84064819D02*
X165909999Y-84064819D01*
X165909999Y-84064819D02*
X165814761Y-84017200D01*
X165814761Y-84017200D02*
X165767142Y-83969580D01*
X165767142Y-83969580D02*
X165719523Y-83874342D01*
X165719523Y-83874342D02*
X165671904Y-83683866D01*
X165671904Y-83683866D02*
X165671904Y-83445771D01*
X165671904Y-83445771D02*
X165719523Y-83255295D01*
X165719523Y-83255295D02*
X165767142Y-83160057D01*
X165767142Y-83160057D02*
X165814761Y-83112438D01*
X165814761Y-83112438D02*
X165909999Y-83064819D01*
X167195713Y-84064819D02*
X166624285Y-84064819D01*
X166909999Y-84064819D02*
X166909999Y-83064819D01*
X166909999Y-83064819D02*
X166814761Y-83207676D01*
X166814761Y-83207676D02*
X166719523Y-83302914D01*
X166719523Y-83302914D02*
X166624285Y-83350533D01*
X167529047Y-84064819D02*
X168052856Y-83398152D01*
X167529047Y-83398152D02*
X168052856Y-84064819D01*
X168957618Y-84064819D02*
X168386190Y-84064819D01*
X168671904Y-84064819D02*
X168671904Y-83064819D01*
X168671904Y-83064819D02*
X168576666Y-83207676D01*
X168576666Y-83207676D02*
X168481428Y-83302914D01*
X168481428Y-83302914D02*
X168386190Y-83350533D01*
X169862380Y-83064819D02*
X169386190Y-83064819D01*
X169386190Y-83064819D02*
X169338571Y-83541009D01*
X169338571Y-83541009D02*
X169386190Y-83493390D01*
X169386190Y-83493390D02*
X169481428Y-83445771D01*
X169481428Y-83445771D02*
X169719523Y-83445771D01*
X169719523Y-83445771D02*
X169814761Y-83493390D01*
X169814761Y-83493390D02*
X169862380Y-83541009D01*
X169862380Y-83541009D02*
X169909999Y-83636247D01*
X169909999Y-83636247D02*
X169909999Y-83874342D01*
X169909999Y-83874342D02*
X169862380Y-83969580D01*
X169862380Y-83969580D02*
X169814761Y-84017200D01*
X169814761Y-84017200D02*
X169719523Y-84064819D01*
X169719523Y-84064819D02*
X169481428Y-84064819D01*
X169481428Y-84064819D02*
X169386190Y-84017200D01*
X169386190Y-84017200D02*
X169338571Y-83969580D01*
X170100476Y-84160057D02*
X170862380Y-84160057D01*
X171100476Y-84064819D02*
X171100476Y-83064819D01*
X171100476Y-83064819D02*
X171481428Y-83064819D01*
X171481428Y-83064819D02*
X171576666Y-83112438D01*
X171576666Y-83112438D02*
X171624285Y-83160057D01*
X171624285Y-83160057D02*
X171671904Y-83255295D01*
X171671904Y-83255295D02*
X171671904Y-83398152D01*
X171671904Y-83398152D02*
X171624285Y-83493390D01*
X171624285Y-83493390D02*
X171576666Y-83541009D01*
X171576666Y-83541009D02*
X171481428Y-83588628D01*
X171481428Y-83588628D02*
X171100476Y-83588628D01*
X172100476Y-84064819D02*
X172100476Y-83398152D01*
X172100476Y-83064819D02*
X172052857Y-83112438D01*
X172052857Y-83112438D02*
X172100476Y-83160057D01*
X172100476Y-83160057D02*
X172148095Y-83112438D01*
X172148095Y-83112438D02*
X172100476Y-83064819D01*
X172100476Y-83064819D02*
X172100476Y-83160057D01*
X172576666Y-83398152D02*
X172576666Y-84064819D01*
X172576666Y-83493390D02*
X172624285Y-83445771D01*
X172624285Y-83445771D02*
X172719523Y-83398152D01*
X172719523Y-83398152D02*
X172862380Y-83398152D01*
X172862380Y-83398152D02*
X172957618Y-83445771D01*
X172957618Y-83445771D02*
X173005237Y-83541009D01*
X173005237Y-83541009D02*
X173005237Y-84064819D01*
X173243333Y-84160057D02*
X174005237Y-84160057D01*
X174719523Y-84064819D02*
X174243333Y-84064819D01*
X174243333Y-84064819D02*
X174243333Y-83064819D01*
X175433809Y-84017200D02*
X175338571Y-84064819D01*
X175338571Y-84064819D02*
X175148095Y-84064819D01*
X175148095Y-84064819D02*
X175052857Y-84017200D01*
X175052857Y-84017200D02*
X175005238Y-83921961D01*
X175005238Y-83921961D02*
X175005238Y-83541009D01*
X175005238Y-83541009D02*
X175052857Y-83445771D01*
X175052857Y-83445771D02*
X175148095Y-83398152D01*
X175148095Y-83398152D02*
X175338571Y-83398152D01*
X175338571Y-83398152D02*
X175433809Y-83445771D01*
X175433809Y-83445771D02*
X175481428Y-83541009D01*
X175481428Y-83541009D02*
X175481428Y-83636247D01*
X175481428Y-83636247D02*
X175005238Y-83731485D01*
X175767143Y-83398152D02*
X176148095Y-83398152D01*
X175910000Y-84064819D02*
X175910000Y-83207676D01*
X175910000Y-83207676D02*
X175957619Y-83112438D01*
X175957619Y-83112438D02*
X176052857Y-83064819D01*
X176052857Y-83064819D02*
X176148095Y-83064819D01*
X176338572Y-83398152D02*
X176719524Y-83398152D01*
X176481429Y-83064819D02*
X176481429Y-83921961D01*
X176481429Y-83921961D02*
X176529048Y-84017200D01*
X176529048Y-84017200D02*
X176624286Y-84064819D01*
X176624286Y-84064819D02*
X176719524Y-84064819D01*
X168364819Y-63833333D02*
X169079104Y-63833333D01*
X169079104Y-63833333D02*
X169221961Y-63880952D01*
X169221961Y-63880952D02*
X169317200Y-63976190D01*
X169317200Y-63976190D02*
X169364819Y-64119047D01*
X169364819Y-64119047D02*
X169364819Y-64214285D01*
X168364819Y-62928571D02*
X168364819Y-63119047D01*
X168364819Y-63119047D02*
X168412438Y-63214285D01*
X168412438Y-63214285D02*
X168460057Y-63261904D01*
X168460057Y-63261904D02*
X168602914Y-63357142D01*
X168602914Y-63357142D02*
X168793390Y-63404761D01*
X168793390Y-63404761D02*
X169174342Y-63404761D01*
X169174342Y-63404761D02*
X169269580Y-63357142D01*
X169269580Y-63357142D02*
X169317200Y-63309523D01*
X169317200Y-63309523D02*
X169364819Y-63214285D01*
X169364819Y-63214285D02*
X169364819Y-63023809D01*
X169364819Y-63023809D02*
X169317200Y-62928571D01*
X169317200Y-62928571D02*
X169269580Y-62880952D01*
X169269580Y-62880952D02*
X169174342Y-62833333D01*
X169174342Y-62833333D02*
X168936247Y-62833333D01*
X168936247Y-62833333D02*
X168841009Y-62880952D01*
X168841009Y-62880952D02*
X168793390Y-62928571D01*
X168793390Y-62928571D02*
X168745771Y-63023809D01*
X168745771Y-63023809D02*
X168745771Y-63214285D01*
X168745771Y-63214285D02*
X168793390Y-63309523D01*
X168793390Y-63309523D02*
X168841009Y-63357142D01*
X168841009Y-63357142D02*
X168936247Y-63404761D01*
D12*
%TO.C,D9*%
X151090000Y-90102081D02*
G75*
G02*
X146090000Y-90102081I-2500000J0D01*
G01*
X146090000Y-90102081D02*
G75*
G02*
X151090000Y-90102081I2500000J0D01*
G01*
X146090000Y-88632387D02*
G75*
G02*
X146089984Y-91571747I2500000J-1469694D01*
G01*
X146090000Y-88632387D02*
X146090000Y-91571775D01*
%TO.C,J9*%
X190500000Y-45085000D02*
X191135000Y-44450000D01*
X190500000Y-82550000D02*
X190500000Y-45085000D01*
X191135000Y-44450000D02*
X193040000Y-44450000D01*
X193040000Y-44450000D02*
X193040000Y-82550000D01*
X193040000Y-82550000D02*
X190500000Y-82550000D01*
%TO.C,SW1*%
X130890000Y-88852081D02*
X140890000Y-88852081D01*
X140890000Y-91352081D01*
X130890000Y-91352081D01*
X130890000Y-88852081D01*
%TO.C,D6*%
X138390000Y-135822081D02*
G75*
G02*
X133390000Y-135822081I-2500000J0D01*
G01*
X133390000Y-135822081D02*
G75*
G02*
X138390000Y-135822081I2500000J0D01*
G01*
X133390000Y-134352387D02*
G75*
G02*
X133389984Y-137291747I2500000J-1469694D01*
G01*
X133390000Y-134352387D02*
X133390000Y-137291775D01*
%TO.C,D2*%
X138390000Y-120582081D02*
G75*
G02*
X133390000Y-120582081I-2500000J0D01*
G01*
X133390000Y-120582081D02*
G75*
G02*
X138390000Y-120582081I2500000J0D01*
G01*
X133390000Y-119112387D02*
G75*
G02*
X133389984Y-122051747I2500000J-1469694D01*
G01*
X133390000Y-119112387D02*
X133390000Y-122051775D01*
%TO.C,J6*%
X167640000Y-45085000D02*
X168275000Y-44450000D01*
X167640000Y-82550000D02*
X167640000Y-45085000D01*
X168275000Y-44450000D02*
X170180000Y-44450000D01*
X170180000Y-44450000D02*
X170180000Y-82550000D01*
X170180000Y-82550000D02*
X167640000Y-82550000D01*
%TD*%
%TO.C,REF\u002A\u002A*%
X228290000Y-106680000D02*
G75*
G02*
X221290000Y-106680000I-3500000J0D01*
G01*
X221290000Y-106680000D02*
G75*
G02*
X228290000Y-106680000I3500000J0D01*
G01*
%TD*%
X227600000Y-152450600D02*
X229600000Y-152450600D01*
X229600000Y-149250600D02*
G75*
G02*
X229600000Y-152450600I0J-1600000D01*
G01*
X229600000Y-149250600D02*
X227600000Y-149250600D01*
X227600000Y-149250600D02*
G75*
G03*
X227600000Y-152450600I0J-1600000D01*
G01*
%TO.C,J4*%
X136790000Y-108722081D02*
G75*
G02*
X134990000Y-108722081I-900000J0D01*
G01*
X134990000Y-108722081D02*
G75*
G02*
X136790000Y-108722081I900000J0D01*
G01*
X136790000Y-100422081D02*
G75*
G02*
X134990000Y-100422081I-900000J0D01*
G01*
X134990000Y-100422081D02*
G75*
G02*
X136790000Y-100422081I900000J0D01*
G01*
X136790000Y-111822081D02*
G75*
G02*
X134990000Y-111822081I-900000J0D01*
G01*
X134990000Y-111822081D02*
G75*
G02*
X136790000Y-111822081I900000J0D01*
G01*
%TD*%
%TO.C,REF\u002A\u002A*%
X228290000Y-121920000D02*
G75*
G02*
X221290000Y-121920000I-3500000J0D01*
G01*
X221290000Y-121920000D02*
G75*
G02*
X228290000Y-121920000I3500000J0D01*
G01*
%TD*%
%TO.C,REF\u002A\u002A*%
X215590000Y-106680000D02*
G75*
G02*
X208590000Y-106680000I-3500000J0D01*
G01*
X208590000Y-106680000D02*
G75*
G02*
X215590000Y-106680000I3500000J0D01*
G01*
%TD*%
%TO.C,D9*%
X150760000Y-90102081D02*
G75*
G02*
X148960000Y-90102081I-900000J0D01*
G01*
X148960000Y-90102081D02*
G75*
G02*
X150760000Y-90102081I900000J0D01*
G01*
X146420000Y-89202081D02*
X146420000Y-91002081D01*
X148220000Y-91002081D01*
X148220000Y-89202081D01*
X146420000Y-89202081D01*
%TD*%
%TO.C,J9*%
X190920000Y-44870000D02*
X190920000Y-46570000D01*
X192620000Y-46570000D01*
X192620000Y-44870000D01*
X190920000Y-44870000D01*
X190920000Y-48260000D02*
X190920000Y-48260000D01*
X192620000Y-48260000D02*
G75*
G02*
X190920000Y-48260000I-850000J0D01*
G01*
X192620000Y-48260000D02*
X192620000Y-48260000D01*
X192620000Y-48260000D02*
G75*
G03*
X190920000Y-48260000I-850000J0D01*
G01*
X190920000Y-50800000D02*
X190920000Y-50800000D01*
X192620000Y-50800000D02*
G75*
G02*
X190920000Y-50800000I-850000J0D01*
G01*
X192620000Y-50800000D02*
X192620000Y-50800000D01*
X192620000Y-50800000D02*
G75*
G03*
X190920000Y-50800000I-850000J0D01*
G01*
X190920000Y-53340000D02*
X190920000Y-53340000D01*
X192620000Y-53340000D02*
G75*
G02*
X190920000Y-53340000I-850000J0D01*
G01*
X192620000Y-53340000D02*
X192620000Y-53340000D01*
X192620000Y-53340000D02*
G75*
G03*
X190920000Y-53340000I-850000J0D01*
G01*
X190920000Y-55880000D02*
X190920000Y-55880000D01*
X192620000Y-55880000D02*
G75*
G02*
X190920000Y-55880000I-850000J0D01*
G01*
X192620000Y-55880000D02*
X192620000Y-55880000D01*
X192620000Y-55880000D02*
G75*
G03*
X190920000Y-55880000I-850000J0D01*
G01*
X190920000Y-58420000D02*
X190920000Y-58420000D01*
X192620000Y-58420000D02*
G75*
G02*
X190920000Y-58420000I-850000J0D01*
G01*
X192620000Y-58420000D02*
X192620000Y-58420000D01*
X192620000Y-58420000D02*
G75*
G03*
X190920000Y-58420000I-850000J0D01*
G01*
X190920000Y-60960000D02*
X190920000Y-60960000D01*
X192620000Y-60960000D02*
G75*
G02*
X190920000Y-60960000I-850000J0D01*
G01*
X192620000Y-60960000D02*
X192620000Y-60960000D01*
X192620000Y-60960000D02*
G75*
G03*
X190920000Y-60960000I-850000J0D01*
G01*
X190920000Y-63500000D02*
X190920000Y-63500000D01*
X192620000Y-63500000D02*
G75*
G02*
X190920000Y-63500000I-850000J0D01*
G01*
X192620000Y-63500000D02*
X192620000Y-63500000D01*
X192620000Y-63500000D02*
G75*
G03*
X190920000Y-63500000I-850000J0D01*
G01*
X190920000Y-66040000D02*
X190920000Y-66040000D01*
X192620000Y-66040000D02*
G75*
G02*
X190920000Y-66040000I-850000J0D01*
G01*
X192620000Y-66040000D02*
X192620000Y-66040000D01*
X192620000Y-66040000D02*
G75*
G03*
X190920000Y-66040000I-850000J0D01*
G01*
X190920000Y-68580000D02*
X190920000Y-68580000D01*
X192620000Y-68580000D02*
G75*
G02*
X190920000Y-68580000I-850000J0D01*
G01*
X192620000Y-68580000D02*
X192620000Y-68580000D01*
X192620000Y-68580000D02*
G75*
G03*
X190920000Y-68580000I-850000J0D01*
G01*
X190920000Y-71120000D02*
X190920000Y-71120000D01*
X192620000Y-71120000D02*
G75*
G02*
X190920000Y-71120000I-850000J0D01*
G01*
X192620000Y-71120000D02*
X192620000Y-71120000D01*
X192620000Y-71120000D02*
G75*
G03*
X190920000Y-71120000I-850000J0D01*
G01*
X190920000Y-73660000D02*
X190920000Y-73660000D01*
X192620000Y-73660000D02*
G75*
G02*
X190920000Y-73660000I-850000J0D01*
G01*
X192620000Y-73660000D02*
X192620000Y-73660000D01*
X192620000Y-73660000D02*
G75*
G03*
X190920000Y-73660000I-850000J0D01*
G01*
X190920000Y-76200000D02*
X190920000Y-76200000D01*
X192620000Y-76200000D02*
G75*
G02*
X190920000Y-76200000I-850000J0D01*
G01*
X192620000Y-76200000D02*
X192620000Y-76200000D01*
X192620000Y-76200000D02*
G75*
G03*
X190920000Y-76200000I-850000J0D01*
G01*
X190920000Y-78740000D02*
X190920000Y-78740000D01*
X192620000Y-78740000D02*
G75*
G02*
X190920000Y-78740000I-850000J0D01*
G01*
X192620000Y-78740000D02*
X192620000Y-78740000D01*
X192620000Y-78740000D02*
G75*
G03*
X190920000Y-78740000I-850000J0D01*
G01*
X190920000Y-81280000D02*
X190920000Y-81280000D01*
X192620000Y-81280000D02*
G75*
G02*
X190920000Y-81280000I-850000J0D01*
G01*
X192620000Y-81280000D02*
X192620000Y-81280000D01*
X192620000Y-81280000D02*
G75*
G03*
X190920000Y-81280000I-850000J0D01*
G01*
%TD*%
%TO.C,REF\u002A\u002A*%
X214590000Y-137160000D02*
G75*
G02*
X209590000Y-137160000I-2500000J0D01*
G01*
X209590000Y-137160000D02*
G75*
G02*
X214590000Y-137160000I2500000J0D01*
G01*
%TD*%
%TO.C,J2*%
X149490000Y-139202081D02*
G75*
G02*
X147690000Y-139202081I-900000J0D01*
G01*
X147690000Y-139202081D02*
G75*
G02*
X149490000Y-139202081I900000J0D01*
G01*
X149490000Y-130902081D02*
G75*
G02*
X147690000Y-130902081I-900000J0D01*
G01*
X147690000Y-130902081D02*
G75*
G02*
X149490000Y-130902081I900000J0D01*
G01*
X149490000Y-142302081D02*
G75*
G02*
X147690000Y-142302081I-900000J0D01*
G01*
X147690000Y-142302081D02*
G75*
G02*
X149490000Y-142302081I900000J0D01*
G01*
%TD*%
%TO.C,J3*%
X149490000Y-108722081D02*
G75*
G02*
X147690000Y-108722081I-900000J0D01*
G01*
X147690000Y-108722081D02*
G75*
G02*
X149490000Y-108722081I900000J0D01*
G01*
X149490000Y-100422081D02*
G75*
G02*
X147690000Y-100422081I-900000J0D01*
G01*
X147690000Y-100422081D02*
G75*
G02*
X149490000Y-100422081I900000J0D01*
G01*
X149490000Y-111822081D02*
G75*
G02*
X147690000Y-111822081I-900000J0D01*
G01*
X147690000Y-111822081D02*
G75*
G02*
X149490000Y-111822081I900000J0D01*
G01*
%TD*%
X207280000Y-29946400D02*
X209280000Y-29946400D01*
X209280000Y-26746400D02*
G75*
G02*
X209280000Y-29946400I0J-1600000D01*
G01*
X209280000Y-26746400D02*
X207280000Y-26746400D01*
X207280000Y-26746400D02*
G75*
G03*
X207280000Y-29946400I0J-1600000D01*
G01*
%TO.C,SW1*%
X137580000Y-88832081D02*
X137580000Y-91372081D01*
X139280000Y-91372081D01*
X139280000Y-88832081D01*
X137580000Y-88832081D01*
X132500000Y-88832081D02*
X132500000Y-91372081D01*
X134200000Y-91372081D01*
X134200000Y-88832081D01*
X132500000Y-88832081D01*
X135040000Y-88832081D02*
X135040000Y-91372081D01*
X136740000Y-91372081D01*
X136740000Y-88832081D01*
X135040000Y-88832081D01*
%TD*%
%TO.C,REF\u002A\u002A*%
X227290000Y-91440000D02*
G75*
G02*
X222290000Y-91440000I-2500000J0D01*
G01*
X222290000Y-91440000D02*
G75*
G02*
X227290000Y-91440000I2500000J0D01*
G01*
%TD*%
%TO.C,D6*%
X138060000Y-135822081D02*
G75*
G02*
X136260000Y-135822081I-900000J0D01*
G01*
X136260000Y-135822081D02*
G75*
G02*
X138060000Y-135822081I900000J0D01*
G01*
X133720000Y-134922081D02*
X133720000Y-136722081D01*
X135520000Y-136722081D01*
X135520000Y-134922081D01*
X133720000Y-134922081D01*
%TD*%
%TO.C,REF\u002A\u002A*%
X221940000Y-44450000D02*
G75*
G02*
X214940000Y-44450000I-3500000J0D01*
G01*
X214940000Y-44450000D02*
G75*
G02*
X221940000Y-44450000I3500000J0D01*
G01*
%TD*%
%TO.C,D2*%
X138060000Y-120582081D02*
G75*
G02*
X136260000Y-120582081I-900000J0D01*
G01*
X136260000Y-120582081D02*
G75*
G02*
X138060000Y-120582081I900000J0D01*
G01*
X133720000Y-119682081D02*
X133720000Y-121482081D01*
X135520000Y-121482081D01*
X135520000Y-119682081D01*
X133720000Y-119682081D01*
%TD*%
%TO.C,RV1*%
X138480000Y-44450000D02*
G75*
G02*
X136480000Y-44450000I-1000000J0D01*
G01*
X136480000Y-44450000D02*
G75*
G02*
X138480000Y-44450000I1000000J0D01*
G01*
X148080000Y-44450000D02*
G75*
G02*
X146080000Y-44450000I-1000000J0D01*
G01*
X146080000Y-44450000D02*
G75*
G02*
X148080000Y-44450000I1000000J0D01*
G01*
X140430000Y-51950000D02*
G75*
G02*
X139130000Y-51950000I-650000J0D01*
G01*
X139130000Y-51950000D02*
G75*
G02*
X140430000Y-51950000I650000J0D01*
G01*
X142930000Y-51950000D02*
G75*
G02*
X141630000Y-51950000I-650000J0D01*
G01*
X141630000Y-51950000D02*
G75*
G02*
X142930000Y-51950000I650000J0D01*
G01*
X145430000Y-51950000D02*
G75*
G02*
X144130000Y-51950000I-650000J0D01*
G01*
X144130000Y-51950000D02*
G75*
G02*
X145430000Y-51950000I650000J0D01*
G01*
%TD*%
%TO.C,REF\u002A\u002A*%
X228290000Y-137160000D02*
G75*
G02*
X221290000Y-137160000I-3500000J0D01*
G01*
X221290000Y-137160000D02*
G75*
G02*
X228290000Y-137160000I3500000J0D01*
G01*
%TD*%
%TO.C,RV2*%
X138480000Y-69850000D02*
G75*
G02*
X136480000Y-69850000I-1000000J0D01*
G01*
X136480000Y-69850000D02*
G75*
G02*
X138480000Y-69850000I1000000J0D01*
G01*
X148080000Y-69850000D02*
G75*
G02*
X146080000Y-69850000I-1000000J0D01*
G01*
X146080000Y-69850000D02*
G75*
G02*
X148080000Y-69850000I1000000J0D01*
G01*
X140430000Y-77350000D02*
G75*
G02*
X139130000Y-77350000I-650000J0D01*
G01*
X139130000Y-77350000D02*
G75*
G02*
X140430000Y-77350000I650000J0D01*
G01*
X142930000Y-77350000D02*
G75*
G02*
X141630000Y-77350000I-650000J0D01*
G01*
X141630000Y-77350000D02*
G75*
G02*
X142930000Y-77350000I650000J0D01*
G01*
X145430000Y-77350000D02*
G75*
G02*
X144130000Y-77350000I-650000J0D01*
G01*
X144130000Y-77350000D02*
G75*
G02*
X145430000Y-77350000I650000J0D01*
G01*
%TD*%
%TO.C,J1*%
X149490000Y-123962081D02*
G75*
G02*
X147690000Y-123962081I-900000J0D01*
G01*
X147690000Y-123962081D02*
G75*
G02*
X149490000Y-123962081I900000J0D01*
G01*
X149490000Y-115662081D02*
G75*
G02*
X147690000Y-115662081I-900000J0D01*
G01*
X147690000Y-115662081D02*
G75*
G02*
X149490000Y-115662081I900000J0D01*
G01*
X149490000Y-127062081D02*
G75*
G02*
X147690000Y-127062081I-900000J0D01*
G01*
X147690000Y-127062081D02*
G75*
G02*
X149490000Y-127062081I900000J0D01*
G01*
%TD*%
%TO.C,J6*%
X168060000Y-44870000D02*
X168060000Y-46570000D01*
X169760000Y-46570000D01*
X169760000Y-44870000D01*
X168060000Y-44870000D01*
X168060000Y-48260000D02*
X168060000Y-48260000D01*
X169760000Y-48260000D02*
G75*
G02*
X168060000Y-48260000I-850000J0D01*
G01*
X169760000Y-48260000D02*
X169760000Y-48260000D01*
X169760000Y-48260000D02*
G75*
G03*
X168060000Y-48260000I-850000J0D01*
G01*
X168060000Y-50800000D02*
X168060000Y-50800000D01*
X169760000Y-50800000D02*
G75*
G02*
X168060000Y-50800000I-850000J0D01*
G01*
X169760000Y-50800000D02*
X169760000Y-50800000D01*
X169760000Y-50800000D02*
G75*
G03*
X168060000Y-50800000I-850000J0D01*
G01*
X168060000Y-53340000D02*
X168060000Y-53340000D01*
X169760000Y-53340000D02*
G75*
G02*
X168060000Y-53340000I-850000J0D01*
G01*
X169760000Y-53340000D02*
X169760000Y-53340000D01*
X169760000Y-53340000D02*
G75*
G03*
X168060000Y-53340000I-850000J0D01*
G01*
X168060000Y-55880000D02*
X168060000Y-55880000D01*
X169760000Y-55880000D02*
G75*
G02*
X168060000Y-55880000I-850000J0D01*
G01*
X169760000Y-55880000D02*
X169760000Y-55880000D01*
X169760000Y-55880000D02*
G75*
G03*
X168060000Y-55880000I-850000J0D01*
G01*
X168060000Y-58420000D02*
X168060000Y-58420000D01*
X169760000Y-58420000D02*
G75*
G02*
X168060000Y-58420000I-850000J0D01*
G01*
X169760000Y-58420000D02*
X169760000Y-58420000D01*
X169760000Y-58420000D02*
G75*
G03*
X168060000Y-58420000I-850000J0D01*
G01*
X168060000Y-60960000D02*
X168060000Y-60960000D01*
X169760000Y-60960000D02*
G75*
G02*
X168060000Y-60960000I-850000J0D01*
G01*
X169760000Y-60960000D02*
X169760000Y-60960000D01*
X169760000Y-60960000D02*
G75*
G03*
X168060000Y-60960000I-850000J0D01*
G01*
X168060000Y-63500000D02*
X168060000Y-63500000D01*
X169760000Y-63500000D02*
G75*
G02*
X168060000Y-63500000I-850000J0D01*
G01*
X169760000Y-63500000D02*
X169760000Y-63500000D01*
X169760000Y-63500000D02*
G75*
G03*
X168060000Y-63500000I-850000J0D01*
G01*
X168060000Y-66040000D02*
X168060000Y-66040000D01*
X169760000Y-66040000D02*
G75*
G02*
X168060000Y-66040000I-850000J0D01*
G01*
X169760000Y-66040000D02*
X169760000Y-66040000D01*
X169760000Y-66040000D02*
G75*
G03*
X168060000Y-66040000I-850000J0D01*
G01*
X168060000Y-68580000D02*
X168060000Y-68580000D01*
X169760000Y-68580000D02*
G75*
G02*
X168060000Y-68580000I-850000J0D01*
G01*
X169760000Y-68580000D02*
X169760000Y-68580000D01*
X169760000Y-68580000D02*
G75*
G03*
X168060000Y-68580000I-850000J0D01*
G01*
X168060000Y-71120000D02*
X168060000Y-71120000D01*
X169760000Y-71120000D02*
G75*
G02*
X168060000Y-71120000I-850000J0D01*
G01*
X169760000Y-71120000D02*
X169760000Y-71120000D01*
X169760000Y-71120000D02*
G75*
G03*
X168060000Y-71120000I-850000J0D01*
G01*
X168060000Y-73660000D02*
X168060000Y-73660000D01*
X169760000Y-73660000D02*
G75*
G02*
X168060000Y-73660000I-850000J0D01*
G01*
X169760000Y-73660000D02*
X169760000Y-73660000D01*
X169760000Y-73660000D02*
G75*
G03*
X168060000Y-73660000I-850000J0D01*
G01*
X168060000Y-76200000D02*
X168060000Y-76200000D01*
X169760000Y-76200000D02*
G75*
G02*
X168060000Y-76200000I-850000J0D01*
G01*
X169760000Y-76200000D02*
X169760000Y-76200000D01*
X169760000Y-76200000D02*
G75*
G03*
X168060000Y-76200000I-850000J0D01*
G01*
X168060000Y-78740000D02*
X168060000Y-78740000D01*
X169760000Y-78740000D02*
G75*
G02*
X168060000Y-78740000I-850000J0D01*
G01*
X169760000Y-78740000D02*
X169760000Y-78740000D01*
X169760000Y-78740000D02*
G75*
G03*
X168060000Y-78740000I-850000J0D01*
G01*
X168060000Y-81280000D02*
X168060000Y-81280000D01*
X169760000Y-81280000D02*
G75*
G02*
X168060000Y-81280000I-850000J0D01*
G01*
X169760000Y-81280000D02*
X169760000Y-81280000D01*
X169760000Y-81280000D02*
G75*
G03*
X168060000Y-81280000I-850000J0D01*
G01*
%TD*%
%TO.C,*%
X214590000Y-121920000D02*
G75*
G02*
X209590000Y-121920000I-2500000J0D01*
G01*
X209590000Y-121920000D02*
G75*
G02*
X214590000Y-121920000I2500000J0D01*
G01*
%TD*%
%TO.C,REF\u002A\u002A*%
X214590000Y-91440000D02*
G75*
G02*
X209590000Y-91440000I-2500000J0D01*
G01*
X209590000Y-91440000D02*
G75*
G02*
X214590000Y-91440000I2500000J0D01*
G01*
%TD*%
%TO.C,REF\u002A\u002A*%
X221940000Y-69850000D02*
G75*
G02*
X214940000Y-69850000I-3500000J0D01*
G01*
X214940000Y-69850000D02*
G75*
G02*
X221940000Y-69850000I3500000J0D01*
G01*
%TD*%
%TO.C,R1*%
X150660000Y-53340000D02*
G75*
G02*
X149060000Y-53340000I-800000J0D01*
G01*
X149060000Y-53340000D02*
G75*
G02*
X150660000Y-53340000I800000J0D01*
G01*
X149860000Y-60160000D02*
X149860000Y-60160000D01*
X149860000Y-61760000D02*
G75*
G02*
X149860000Y-60160000I0J800000D01*
G01*
X149860000Y-61760000D02*
X149860000Y-61760000D01*
X149860000Y-61760000D02*
G75*
G03*
X149860000Y-60160000I0J800000D01*
G01*
%TD*%
%TO.C,D8*%
X175730000Y-103340000D02*
X175730000Y-104940000D01*
X177330000Y-104940000D01*
X177330000Y-103340000D01*
X175730000Y-103340000D01*
X183350000Y-104140000D02*
X183350000Y-104140000D01*
X184950000Y-104140000D02*
G75*
G02*
X183350000Y-104140000I-800000J0D01*
G01*
X184950000Y-104140000D02*
X184950000Y-104140000D01*
X184950000Y-104140000D02*
G75*
G03*
X183350000Y-104140000I-800000J0D01*
G01*
%TD*%
%TO.C,R4*%
X135420000Y-60960000D02*
G75*
G02*
X133820000Y-60960000I-800000J0D01*
G01*
X133820000Y-60960000D02*
G75*
G02*
X135420000Y-60960000I800000J0D01*
G01*
X134620000Y-54140000D02*
X134620000Y-54140000D01*
X134620000Y-52540000D02*
G75*
G02*
X134620000Y-54140000I0J-800000D01*
G01*
X134620000Y-52540000D02*
X134620000Y-52540000D01*
X134620000Y-52540000D02*
G75*
G03*
X134620000Y-54140000I0J-800000D01*
G01*
%TD*%
X142240000Y-107082081D02*
X142240000Y-107082081D01*
X142240000Y-108682081D02*
G75*
G02*
X142240000Y-107082081I0J800000D01*
G01*
X142240000Y-108682081D02*
X142240000Y-108682081D01*
X142240000Y-108682081D02*
G75*
G03*
X142240000Y-107082081I0J800000D01*
G01*
%TO.C,R9*%
X143040000Y-100262081D02*
G75*
G02*
X141440000Y-100262081I-800000J0D01*
G01*
X141440000Y-100262081D02*
G75*
G02*
X143040000Y-100262081I800000J0D01*
G01*
%TD*%
%TO.C,J8*%
X152820000Y-44870000D02*
X152820000Y-46570000D01*
X154520000Y-46570000D01*
X154520000Y-44870000D01*
X152820000Y-44870000D01*
X154520000Y-48260000D02*
X154520000Y-48260000D01*
X152820000Y-48260000D02*
G75*
G02*
X154520000Y-48260000I850000J0D01*
G01*
X152820000Y-48260000D02*
X152820000Y-48260000D01*
X152820000Y-48260000D02*
G75*
G03*
X154520000Y-48260000I850000J0D01*
G01*
X154520000Y-50800000D02*
X154520000Y-50800000D01*
X152820000Y-50800000D02*
G75*
G02*
X154520000Y-50800000I850000J0D01*
G01*
X152820000Y-50800000D02*
X152820000Y-50800000D01*
X152820000Y-50800000D02*
G75*
G03*
X154520000Y-50800000I850000J0D01*
G01*
X154520000Y-53340000D02*
X154520000Y-53340000D01*
X152820000Y-53340000D02*
G75*
G02*
X154520000Y-53340000I850000J0D01*
G01*
X152820000Y-53340000D02*
X152820000Y-53340000D01*
X152820000Y-53340000D02*
G75*
G03*
X154520000Y-53340000I850000J0D01*
G01*
X154520000Y-55880000D02*
X154520000Y-55880000D01*
X152820000Y-55880000D02*
G75*
G02*
X154520000Y-55880000I850000J0D01*
G01*
X152820000Y-55880000D02*
X152820000Y-55880000D01*
X152820000Y-55880000D02*
G75*
G03*
X154520000Y-55880000I850000J0D01*
G01*
X154520000Y-58420000D02*
X154520000Y-58420000D01*
X152820000Y-58420000D02*
G75*
G02*
X154520000Y-58420000I850000J0D01*
G01*
X152820000Y-58420000D02*
X152820000Y-58420000D01*
X152820000Y-58420000D02*
G75*
G03*
X154520000Y-58420000I850000J0D01*
G01*
X154520000Y-60960000D02*
X154520000Y-60960000D01*
X152820000Y-60960000D02*
G75*
G02*
X154520000Y-60960000I850000J0D01*
G01*
X152820000Y-60960000D02*
X152820000Y-60960000D01*
X152820000Y-60960000D02*
G75*
G03*
X154520000Y-60960000I850000J0D01*
G01*
X154520000Y-63500000D02*
X154520000Y-63500000D01*
X152820000Y-63500000D02*
G75*
G02*
X154520000Y-63500000I850000J0D01*
G01*
X152820000Y-63500000D02*
X152820000Y-63500000D01*
X152820000Y-63500000D02*
G75*
G03*
X154520000Y-63500000I850000J0D01*
G01*
X154520000Y-66040000D02*
X154520000Y-66040000D01*
X152820000Y-66040000D02*
G75*
G02*
X154520000Y-66040000I850000J0D01*
G01*
X152820000Y-66040000D02*
X152820000Y-66040000D01*
X152820000Y-66040000D02*
G75*
G03*
X154520000Y-66040000I850000J0D01*
G01*
X154520000Y-68580000D02*
X154520000Y-68580000D01*
X152820000Y-68580000D02*
G75*
G02*
X154520000Y-68580000I850000J0D01*
G01*
X152820000Y-68580000D02*
X152820000Y-68580000D01*
X152820000Y-68580000D02*
G75*
G03*
X154520000Y-68580000I850000J0D01*
G01*
X154520000Y-71120000D02*
X154520000Y-71120000D01*
X152820000Y-71120000D02*
G75*
G02*
X154520000Y-71120000I850000J0D01*
G01*
X152820000Y-71120000D02*
X152820000Y-71120000D01*
X152820000Y-71120000D02*
G75*
G03*
X154520000Y-71120000I850000J0D01*
G01*
X154520000Y-73660000D02*
X154520000Y-73660000D01*
X152820000Y-73660000D02*
G75*
G02*
X154520000Y-73660000I850000J0D01*
G01*
X152820000Y-73660000D02*
X152820000Y-73660000D01*
X152820000Y-73660000D02*
G75*
G03*
X154520000Y-73660000I850000J0D01*
G01*
X154520000Y-76200000D02*
X154520000Y-76200000D01*
X152820000Y-76200000D02*
G75*
G02*
X154520000Y-76200000I850000J0D01*
G01*
X152820000Y-76200000D02*
X152820000Y-76200000D01*
X152820000Y-76200000D02*
G75*
G03*
X154520000Y-76200000I850000J0D01*
G01*
X154520000Y-78740000D02*
X154520000Y-78740000D01*
X152820000Y-78740000D02*
G75*
G02*
X154520000Y-78740000I850000J0D01*
G01*
X152820000Y-78740000D02*
X152820000Y-78740000D01*
X152820000Y-78740000D02*
G75*
G03*
X154520000Y-78740000I850000J0D01*
G01*
X154520000Y-81280000D02*
X154520000Y-81280000D01*
X152820000Y-81280000D02*
G75*
G02*
X154520000Y-81280000I850000J0D01*
G01*
X152820000Y-81280000D02*
X152820000Y-81280000D01*
X152820000Y-81280000D02*
G75*
G03*
X154520000Y-81280000I850000J0D01*
G01*
%TD*%
%TO.C,D4*%
X183350000Y-113500000D02*
X183350000Y-115100000D01*
X184950000Y-115100000D01*
X184950000Y-113500000D01*
X183350000Y-113500000D01*
X177330000Y-114300000D02*
X177330000Y-114300000D01*
X175730000Y-114300000D02*
G75*
G02*
X177330000Y-114300000I800000J0D01*
G01*
X175730000Y-114300000D02*
X175730000Y-114300000D01*
X175730000Y-114300000D02*
G75*
G03*
X177330000Y-114300000I800000J0D01*
G01*
%TD*%
%TO.C,J7*%
X129960000Y-44870000D02*
X129960000Y-46570000D01*
X131660000Y-46570000D01*
X131660000Y-44870000D01*
X129960000Y-44870000D01*
X131660000Y-48260000D02*
X131660000Y-48260000D01*
X129960000Y-48260000D02*
G75*
G02*
X131660000Y-48260000I850000J0D01*
G01*
X129960000Y-48260000D02*
X129960000Y-48260000D01*
X129960000Y-48260000D02*
G75*
G03*
X131660000Y-48260000I850000J0D01*
G01*
X131660000Y-50800000D02*
X131660000Y-50800000D01*
X129960000Y-50800000D02*
G75*
G02*
X131660000Y-50800000I850000J0D01*
G01*
X129960000Y-50800000D02*
X129960000Y-50800000D01*
X129960000Y-50800000D02*
G75*
G03*
X131660000Y-50800000I850000J0D01*
G01*
X131660000Y-53340000D02*
X131660000Y-53340000D01*
X129960000Y-53340000D02*
G75*
G02*
X131660000Y-53340000I850000J0D01*
G01*
X129960000Y-53340000D02*
X129960000Y-53340000D01*
X129960000Y-53340000D02*
G75*
G03*
X131660000Y-53340000I850000J0D01*
G01*
X131660000Y-55880000D02*
X131660000Y-55880000D01*
X129960000Y-55880000D02*
G75*
G02*
X131660000Y-55880000I850000J0D01*
G01*
X129960000Y-55880000D02*
X129960000Y-55880000D01*
X129960000Y-55880000D02*
G75*
G03*
X131660000Y-55880000I850000J0D01*
G01*
X131660000Y-58420000D02*
X131660000Y-58420000D01*
X129960000Y-58420000D02*
G75*
G02*
X131660000Y-58420000I850000J0D01*
G01*
X129960000Y-58420000D02*
X129960000Y-58420000D01*
X129960000Y-58420000D02*
G75*
G03*
X131660000Y-58420000I850000J0D01*
G01*
X131660000Y-60960000D02*
X131660000Y-60960000D01*
X129960000Y-60960000D02*
G75*
G02*
X131660000Y-60960000I850000J0D01*
G01*
X129960000Y-60960000D02*
X129960000Y-60960000D01*
X129960000Y-60960000D02*
G75*
G03*
X131660000Y-60960000I850000J0D01*
G01*
X131660000Y-63500000D02*
X131660000Y-63500000D01*
X129960000Y-63500000D02*
G75*
G02*
X131660000Y-63500000I850000J0D01*
G01*
X129960000Y-63500000D02*
X129960000Y-63500000D01*
X129960000Y-63500000D02*
G75*
G03*
X131660000Y-63500000I850000J0D01*
G01*
X131660000Y-66040000D02*
X131660000Y-66040000D01*
X129960000Y-66040000D02*
G75*
G02*
X131660000Y-66040000I850000J0D01*
G01*
X129960000Y-66040000D02*
X129960000Y-66040000D01*
X129960000Y-66040000D02*
G75*
G03*
X131660000Y-66040000I850000J0D01*
G01*
X131660000Y-68580000D02*
X131660000Y-68580000D01*
X129960000Y-68580000D02*
G75*
G02*
X131660000Y-68580000I850000J0D01*
G01*
X129960000Y-68580000D02*
X129960000Y-68580000D01*
X129960000Y-68580000D02*
G75*
G03*
X131660000Y-68580000I850000J0D01*
G01*
X131660000Y-71120000D02*
X131660000Y-71120000D01*
X129960000Y-71120000D02*
G75*
G02*
X131660000Y-71120000I850000J0D01*
G01*
X129960000Y-71120000D02*
X129960000Y-71120000D01*
X129960000Y-71120000D02*
G75*
G03*
X131660000Y-71120000I850000J0D01*
G01*
X131660000Y-73660000D02*
X131660000Y-73660000D01*
X129960000Y-73660000D02*
G75*
G02*
X131660000Y-73660000I850000J0D01*
G01*
X129960000Y-73660000D02*
X129960000Y-73660000D01*
X129960000Y-73660000D02*
G75*
G03*
X131660000Y-73660000I850000J0D01*
G01*
X131660000Y-76200000D02*
X131660000Y-76200000D01*
X129960000Y-76200000D02*
G75*
G02*
X131660000Y-76200000I850000J0D01*
G01*
X129960000Y-76200000D02*
X129960000Y-76200000D01*
X129960000Y-76200000D02*
G75*
G03*
X131660000Y-76200000I850000J0D01*
G01*
X131660000Y-78740000D02*
X131660000Y-78740000D01*
X129960000Y-78740000D02*
G75*
G02*
X131660000Y-78740000I850000J0D01*
G01*
X129960000Y-78740000D02*
X129960000Y-78740000D01*
X129960000Y-78740000D02*
G75*
G03*
X131660000Y-78740000I850000J0D01*
G01*
X131660000Y-81280000D02*
X131660000Y-81280000D01*
X129960000Y-81280000D02*
G75*
G02*
X131660000Y-81280000I850000J0D01*
G01*
X129960000Y-81280000D02*
X129960000Y-81280000D01*
X129960000Y-81280000D02*
G75*
G03*
X131660000Y-81280000I850000J0D01*
G01*
%TD*%
%TO.C,R6*%
X150660000Y-66040000D02*
G75*
G02*
X149060000Y-66040000I-800000J0D01*
G01*
X149060000Y-66040000D02*
G75*
G02*
X150660000Y-66040000I800000J0D01*
G01*
X149860000Y-72860000D02*
X149860000Y-72860000D01*
X149860000Y-74460000D02*
G75*
G02*
X149860000Y-72860000I0J800000D01*
G01*
X149860000Y-74460000D02*
X149860000Y-74460000D01*
X149860000Y-74460000D02*
G75*
G03*
X149860000Y-72860000I0J800000D01*
G01*
%TD*%
%TO.C,D10*%
X183350000Y-118580000D02*
X183350000Y-120180000D01*
X184950000Y-120180000D01*
X184950000Y-118580000D01*
X183350000Y-118580000D01*
X177330000Y-119380000D02*
X177330000Y-119380000D01*
X175730000Y-119380000D02*
G75*
G02*
X177330000Y-119380000I800000J0D01*
G01*
X175730000Y-119380000D02*
X175730000Y-119380000D01*
X175730000Y-119380000D02*
G75*
G03*
X177330000Y-119380000I800000J0D01*
G01*
%TD*%
X142240000Y-127402081D02*
X142240000Y-127402081D01*
X142240000Y-129002081D02*
G75*
G02*
X142240000Y-127402081I0J800000D01*
G01*
X142240000Y-129002081D02*
X142240000Y-129002081D01*
X142240000Y-129002081D02*
G75*
G03*
X142240000Y-127402081I0J800000D01*
G01*
%TO.C,R3*%
X143040000Y-120582081D02*
G75*
G02*
X141440000Y-120582081I-800000J0D01*
G01*
X141440000Y-120582081D02*
G75*
G02*
X143040000Y-120582081I800000J0D01*
G01*
%TD*%
%TO.C,R8*%
X150660000Y-85090000D02*
G75*
G02*
X149060000Y-85090000I-800000J0D01*
G01*
X149060000Y-85090000D02*
G75*
G02*
X150660000Y-85090000I800000J0D01*
G01*
X149860000Y-78270000D02*
X149860000Y-78270000D01*
X149860000Y-76670000D02*
G75*
G02*
X149860000Y-78270000I0J-800000D01*
G01*
X149860000Y-76670000D02*
X149860000Y-76670000D01*
X149860000Y-76670000D02*
G75*
G03*
X149860000Y-78270000I0J-800000D01*
G01*
%TD*%
%TO.C,D7*%
X175730000Y-98260000D02*
X175730000Y-99860000D01*
X177330000Y-99860000D01*
X177330000Y-98260000D01*
X175730000Y-98260000D01*
X183350000Y-99060000D02*
X183350000Y-99060000D01*
X184950000Y-99060000D02*
G75*
G02*
X183350000Y-99060000I-800000J0D01*
G01*
X184950000Y-99060000D02*
X184950000Y-99060000D01*
X184950000Y-99060000D02*
G75*
G03*
X183350000Y-99060000I-800000J0D01*
G01*
%TD*%
%TO.C,C2*%
X146850000Y-82590000D02*
G75*
G02*
X145250000Y-82590000I-800000J0D01*
G01*
X145250000Y-82590000D02*
G75*
G02*
X146850000Y-82590000I800000J0D01*
G01*
X146850000Y-85090000D02*
G75*
G02*
X145250000Y-85090000I-800000J0D01*
G01*
X145250000Y-85090000D02*
G75*
G02*
X146850000Y-85090000I800000J0D01*
G01*
%TD*%
%TO.C,R2*%
X143040000Y-110422081D02*
G75*
G02*
X141440000Y-110422081I-800000J0D01*
G01*
X141440000Y-110422081D02*
G75*
G02*
X143040000Y-110422081I800000J0D01*
G01*
X142240000Y-117242081D02*
X142240000Y-117242081D01*
X142240000Y-118842081D02*
G75*
G02*
X142240000Y-117242081I0J800000D01*
G01*
X142240000Y-118842081D02*
X142240000Y-118842081D01*
X142240000Y-118842081D02*
G75*
G03*
X142240000Y-117242081I0J800000D01*
G01*
%TD*%
%TO.C,C1*%
X143040000Y-55920000D02*
G75*
G02*
X141440000Y-55920000I-800000J0D01*
G01*
X141440000Y-55920000D02*
G75*
G02*
X143040000Y-55920000I800000J0D01*
G01*
X143040000Y-58420000D02*
G75*
G02*
X141440000Y-58420000I-800000J0D01*
G01*
X141440000Y-58420000D02*
G75*
G02*
X143040000Y-58420000I800000J0D01*
G01*
%TD*%
X142240000Y-131542081D02*
X142240000Y-131542081D01*
X142240000Y-129942081D02*
G75*
G02*
X142240000Y-131542081I0J-800000D01*
G01*
X142240000Y-129942081D02*
X142240000Y-129942081D01*
X142240000Y-129942081D02*
G75*
G03*
X142240000Y-131542081I0J-800000D01*
G01*
%TO.C,D12*%
X141440000Y-137562081D02*
X141440000Y-139162081D01*
X143040000Y-139162081D01*
X143040000Y-137562081D01*
X141440000Y-137562081D01*
%TD*%
%TO.C,D5*%
X175730000Y-93180000D02*
X175730000Y-94780000D01*
X177330000Y-94780000D01*
X177330000Y-93180000D01*
X175730000Y-93180000D01*
X183350000Y-93980000D02*
X183350000Y-93980000D01*
X184950000Y-93980000D02*
G75*
G02*
X183350000Y-93980000I-800000J0D01*
G01*
X184950000Y-93980000D02*
X184950000Y-93980000D01*
X184950000Y-93980000D02*
G75*
G03*
X183350000Y-93980000I-800000J0D01*
G01*
%TD*%
X132880000Y-140902081D02*
X132880000Y-140902081D01*
X131280000Y-140902081D02*
G75*
G02*
X132880000Y-140902081I800000J0D01*
G01*
X131280000Y-140902081D02*
X131280000Y-140902081D01*
X131280000Y-140902081D02*
G75*
G03*
X132880000Y-140902081I800000J0D01*
G01*
%TO.C,R5*%
X140500000Y-140902081D02*
G75*
G02*
X138900000Y-140902081I-800000J0D01*
G01*
X138900000Y-140902081D02*
G75*
G02*
X140500000Y-140902081I800000J0D01*
G01*
%TD*%
%TO.C,R10*%
X177330000Y-124460000D02*
G75*
G02*
X175730000Y-124460000I-800000J0D01*
G01*
X175730000Y-124460000D02*
G75*
G02*
X177330000Y-124460000I800000J0D01*
G01*
X183350000Y-124460000D02*
X183350000Y-124460000D01*
X184950000Y-124460000D02*
G75*
G02*
X183350000Y-124460000I-800000J0D01*
G01*
X184950000Y-124460000D02*
X184950000Y-124460000D01*
X184950000Y-124460000D02*
G75*
G03*
X183350000Y-124460000I-800000J0D01*
G01*
%TD*%
D13*
%TO.C,J5*%
D12*
X186020000Y-138850000D02*
X186115671Y-138869030D01*
X186196777Y-138923223D01*
X186250970Y-139004329D01*
X186270000Y-139100000D01*
X186270000Y-140300000D01*
X186250970Y-140395671D01*
X186196777Y-140476777D01*
X186115671Y-140530970D01*
X186020000Y-140550000D01*
X184820000Y-140550000D01*
X184724329Y-140530970D01*
X184643223Y-140476777D01*
X184589030Y-140395671D01*
X184570000Y-140300000D01*
X184570000Y-139100000D01*
X184589030Y-139004329D01*
X184643223Y-138923223D01*
X184724329Y-138869030D01*
X184820000Y-138850000D01*
X186020000Y-138850000D01*
X186270000Y-137160000D02*
G75*
G02*
X184570000Y-137160000I-850000J0D01*
G01*
X184570000Y-137160000D02*
G75*
G02*
X186270000Y-137160000I850000J0D01*
G01*
X183730000Y-139700000D02*
G75*
G02*
X182030000Y-139700000I-850000J0D01*
G01*
X182030000Y-139700000D02*
G75*
G02*
X183730000Y-139700000I850000J0D01*
G01*
X183730000Y-137160000D02*
G75*
G02*
X182030000Y-137160000I-850000J0D01*
G01*
X182030000Y-137160000D02*
G75*
G02*
X183730000Y-137160000I850000J0D01*
G01*
X181190000Y-139700000D02*
G75*
G02*
X179490000Y-139700000I-850000J0D01*
G01*
X179490000Y-139700000D02*
G75*
G02*
X181190000Y-139700000I850000J0D01*
G01*
X181190000Y-137160000D02*
G75*
G02*
X179490000Y-137160000I-850000J0D01*
G01*
X179490000Y-137160000D02*
G75*
G02*
X181190000Y-137160000I850000J0D01*
G01*
X178650000Y-139700000D02*
G75*
G02*
X176950000Y-139700000I-850000J0D01*
G01*
X176950000Y-139700000D02*
G75*
G02*
X178650000Y-139700000I850000J0D01*
G01*
X178650000Y-137160000D02*
G75*
G02*
X176950000Y-137160000I-850000J0D01*
G01*
X176950000Y-137160000D02*
G75*
G02*
X178650000Y-137160000I850000J0D01*
G01*
X176110000Y-139700000D02*
G75*
G02*
X174410000Y-139700000I-850000J0D01*
G01*
X174410000Y-139700000D02*
G75*
G02*
X176110000Y-139700000I850000J0D01*
G01*
X176110000Y-137160000D02*
G75*
G02*
X174410000Y-137160000I-850000J0D01*
G01*
X174410000Y-137160000D02*
G75*
G02*
X176110000Y-137160000I850000J0D01*
G01*
%TD*%
%TO.C,A1*%
X171920000Y-80480000D02*
X171920000Y-82080000D01*
X173520000Y-82080000D01*
X173520000Y-80480000D01*
X171920000Y-80480000D01*
X171920000Y-78740000D02*
X171920000Y-78740000D01*
X173520000Y-78740000D02*
G75*
G02*
X171920000Y-78740000I-800000J0D01*
G01*
X173520000Y-78740000D02*
X173520000Y-78740000D01*
X173520000Y-78740000D02*
G75*
G03*
X171920000Y-78740000I-800000J0D01*
G01*
X171920000Y-76200000D02*
X171920000Y-76200000D01*
X173520000Y-76200000D02*
G75*
G02*
X171920000Y-76200000I-800000J0D01*
G01*
X173520000Y-76200000D02*
X173520000Y-76200000D01*
X173520000Y-76200000D02*
G75*
G03*
X171920000Y-76200000I-800000J0D01*
G01*
X171920000Y-73660000D02*
X171920000Y-73660000D01*
X173520000Y-73660000D02*
G75*
G02*
X171920000Y-73660000I-800000J0D01*
G01*
X173520000Y-73660000D02*
X173520000Y-73660000D01*
X173520000Y-73660000D02*
G75*
G03*
X171920000Y-73660000I-800000J0D01*
G01*
X171920000Y-71120000D02*
X171920000Y-71120000D01*
X173520000Y-71120000D02*
G75*
G02*
X171920000Y-71120000I-800000J0D01*
G01*
X173520000Y-71120000D02*
X173520000Y-71120000D01*
X173520000Y-71120000D02*
G75*
G03*
X171920000Y-71120000I-800000J0D01*
G01*
X171920000Y-68580000D02*
X171920000Y-68580000D01*
X173520000Y-68580000D02*
G75*
G02*
X171920000Y-68580000I-800000J0D01*
G01*
X173520000Y-68580000D02*
X173520000Y-68580000D01*
X173520000Y-68580000D02*
G75*
G03*
X171920000Y-68580000I-800000J0D01*
G01*
X171920000Y-66040000D02*
X171920000Y-66040000D01*
X173520000Y-66040000D02*
G75*
G02*
X171920000Y-66040000I-800000J0D01*
G01*
X173520000Y-66040000D02*
X173520000Y-66040000D01*
X173520000Y-66040000D02*
G75*
G03*
X171920000Y-66040000I-800000J0D01*
G01*
X171920000Y-63500000D02*
X171920000Y-63500000D01*
X173520000Y-63500000D02*
G75*
G02*
X171920000Y-63500000I-800000J0D01*
G01*
X173520000Y-63500000D02*
X173520000Y-63500000D01*
X173520000Y-63500000D02*
G75*
G03*
X171920000Y-63500000I-800000J0D01*
G01*
X171920000Y-60960000D02*
X171920000Y-60960000D01*
X173520000Y-60960000D02*
G75*
G02*
X171920000Y-60960000I-800000J0D01*
G01*
X173520000Y-60960000D02*
X173520000Y-60960000D01*
X173520000Y-60960000D02*
G75*
G03*
X171920000Y-60960000I-800000J0D01*
G01*
X171920000Y-58420000D02*
X171920000Y-58420000D01*
X173520000Y-58420000D02*
G75*
G02*
X171920000Y-58420000I-800000J0D01*
G01*
X173520000Y-58420000D02*
X173520000Y-58420000D01*
X173520000Y-58420000D02*
G75*
G03*
X171920000Y-58420000I-800000J0D01*
G01*
X171920000Y-55880000D02*
X171920000Y-55880000D01*
X173520000Y-55880000D02*
G75*
G02*
X171920000Y-55880000I-800000J0D01*
G01*
X173520000Y-55880000D02*
X173520000Y-55880000D01*
X173520000Y-55880000D02*
G75*
G03*
X171920000Y-55880000I-800000J0D01*
G01*
X171920000Y-53340000D02*
X171920000Y-53340000D01*
X173520000Y-53340000D02*
G75*
G02*
X171920000Y-53340000I-800000J0D01*
G01*
X173520000Y-53340000D02*
X173520000Y-53340000D01*
X173520000Y-53340000D02*
G75*
G03*
X171920000Y-53340000I-800000J0D01*
G01*
X171920000Y-50800000D02*
X171920000Y-50800000D01*
X173520000Y-50800000D02*
G75*
G02*
X171920000Y-50800000I-800000J0D01*
G01*
X173520000Y-50800000D02*
X173520000Y-50800000D01*
X173520000Y-50800000D02*
G75*
G03*
X171920000Y-50800000I-800000J0D01*
G01*
X171920000Y-48260000D02*
X171920000Y-48260000D01*
X173520000Y-48260000D02*
G75*
G02*
X171920000Y-48260000I-800000J0D01*
G01*
X173520000Y-48260000D02*
X173520000Y-48260000D01*
X173520000Y-48260000D02*
G75*
G03*
X171920000Y-48260000I-800000J0D01*
G01*
X171920000Y-45720000D02*
X171920000Y-45720000D01*
X173520000Y-45720000D02*
G75*
G02*
X171920000Y-45720000I-800000J0D01*
G01*
X173520000Y-45720000D02*
X173520000Y-45720000D01*
X173520000Y-45720000D02*
G75*
G03*
X171920000Y-45720000I-800000J0D01*
G01*
X187160000Y-45720000D02*
X187160000Y-45720000D01*
X188760000Y-45720000D02*
G75*
G02*
X187160000Y-45720000I-800000J0D01*
G01*
X188760000Y-45720000D02*
X188760000Y-45720000D01*
X188760000Y-45720000D02*
G75*
G03*
X187160000Y-45720000I-800000J0D01*
G01*
X187160000Y-48260000D02*
X187160000Y-48260000D01*
X188760000Y-48260000D02*
G75*
G02*
X187160000Y-48260000I-800000J0D01*
G01*
X188760000Y-48260000D02*
X188760000Y-48260000D01*
X188760000Y-48260000D02*
G75*
G03*
X187160000Y-48260000I-800000J0D01*
G01*
X187160000Y-50800000D02*
X187160000Y-50800000D01*
X188760000Y-50800000D02*
G75*
G02*
X187160000Y-50800000I-800000J0D01*
G01*
X188760000Y-50800000D02*
X188760000Y-50800000D01*
X188760000Y-50800000D02*
G75*
G03*
X187160000Y-50800000I-800000J0D01*
G01*
X187160000Y-53340000D02*
X187160000Y-53340000D01*
X188760000Y-53340000D02*
G75*
G02*
X187160000Y-53340000I-800000J0D01*
G01*
X188760000Y-53340000D02*
X188760000Y-53340000D01*
X188760000Y-53340000D02*
G75*
G03*
X187160000Y-53340000I-800000J0D01*
G01*
X187160000Y-55880000D02*
X187160000Y-55880000D01*
X188760000Y-55880000D02*
G75*
G02*
X187160000Y-55880000I-800000J0D01*
G01*
X188760000Y-55880000D02*
X188760000Y-55880000D01*
X188760000Y-55880000D02*
G75*
G03*
X187160000Y-55880000I-800000J0D01*
G01*
X187160000Y-58420000D02*
X187160000Y-58420000D01*
X188760000Y-58420000D02*
G75*
G02*
X187160000Y-58420000I-800000J0D01*
G01*
X188760000Y-58420000D02*
X188760000Y-58420000D01*
X188760000Y-58420000D02*
G75*
G03*
X187160000Y-58420000I-800000J0D01*
G01*
X187160000Y-60960000D02*
X187160000Y-60960000D01*
X188760000Y-60960000D02*
G75*
G02*
X187160000Y-60960000I-800000J0D01*
G01*
X188760000Y-60960000D02*
X188760000Y-60960000D01*
X188760000Y-60960000D02*
G75*
G03*
X187160000Y-60960000I-800000J0D01*
G01*
X187160000Y-63500000D02*
X187160000Y-63500000D01*
X188760000Y-63500000D02*
G75*
G02*
X187160000Y-63500000I-800000J0D01*
G01*
X188760000Y-63500000D02*
X188760000Y-63500000D01*
X188760000Y-63500000D02*
G75*
G03*
X187160000Y-63500000I-800000J0D01*
G01*
X187160000Y-66040000D02*
X187160000Y-66040000D01*
X188760000Y-66040000D02*
G75*
G02*
X187160000Y-66040000I-800000J0D01*
G01*
X188760000Y-66040000D02*
X188760000Y-66040000D01*
X188760000Y-66040000D02*
G75*
G03*
X187160000Y-66040000I-800000J0D01*
G01*
X187160000Y-68580000D02*
X187160000Y-68580000D01*
X188760000Y-68580000D02*
G75*
G02*
X187160000Y-68580000I-800000J0D01*
G01*
X188760000Y-68580000D02*
X188760000Y-68580000D01*
X188760000Y-68580000D02*
G75*
G03*
X187160000Y-68580000I-800000J0D01*
G01*
X187160000Y-71120000D02*
X187160000Y-71120000D01*
X188760000Y-71120000D02*
G75*
G02*
X187160000Y-71120000I-800000J0D01*
G01*
X188760000Y-71120000D02*
X188760000Y-71120000D01*
X188760000Y-71120000D02*
G75*
G03*
X187160000Y-71120000I-800000J0D01*
G01*
X187160000Y-73660000D02*
X187160000Y-73660000D01*
X188760000Y-73660000D02*
G75*
G02*
X187160000Y-73660000I-800000J0D01*
G01*
X188760000Y-73660000D02*
X188760000Y-73660000D01*
X188760000Y-73660000D02*
G75*
G03*
X187160000Y-73660000I-800000J0D01*
G01*
X187160000Y-76200000D02*
X187160000Y-76200000D01*
X188760000Y-76200000D02*
G75*
G02*
X187160000Y-76200000I-800000J0D01*
G01*
X188760000Y-76200000D02*
X188760000Y-76200000D01*
X188760000Y-76200000D02*
G75*
G03*
X187160000Y-76200000I-800000J0D01*
G01*
X187160000Y-78740000D02*
X187160000Y-78740000D01*
X188760000Y-78740000D02*
G75*
G02*
X187160000Y-78740000I-800000J0D01*
G01*
X188760000Y-78740000D02*
X188760000Y-78740000D01*
X188760000Y-78740000D02*
G75*
G03*
X187160000Y-78740000I-800000J0D01*
G01*
X187160000Y-81280000D02*
X187160000Y-81280000D01*
X188760000Y-81280000D02*
G75*
G02*
X187160000Y-81280000I-800000J0D01*
G01*
X188760000Y-81280000D02*
X188760000Y-81280000D01*
X188760000Y-81280000D02*
G75*
G03*
X187160000Y-81280000I-800000J0D01*
G01*
%TD*%
%TO.C,D3*%
X175730000Y-108420000D02*
X175730000Y-110020000D01*
X177330000Y-110020000D01*
X177330000Y-108420000D01*
X175730000Y-108420000D01*
X183350000Y-109220000D02*
X183350000Y-109220000D01*
X184950000Y-109220000D02*
G75*
G02*
X183350000Y-109220000I-800000J0D01*
G01*
X184950000Y-109220000D02*
X184950000Y-109220000D01*
X184950000Y-109220000D02*
G75*
G03*
X183350000Y-109220000I-800000J0D01*
G01*
%TD*%
%TO.C,D1*%
X183350000Y-88100000D02*
X183350000Y-89700000D01*
X184950000Y-89700000D01*
X184950000Y-88100000D01*
X183350000Y-88100000D01*
X177330000Y-88900000D02*
X177330000Y-88900000D01*
X175730000Y-88900000D02*
G75*
G02*
X177330000Y-88900000I800000J0D01*
G01*
X175730000Y-88900000D02*
X175730000Y-88900000D01*
X175730000Y-88900000D02*
G75*
G03*
X177330000Y-88900000I800000J0D01*
G01*
%TD*%
%TO.C,D11*%
X175730000Y-128740000D02*
X175730000Y-130340000D01*
X177330000Y-130340000D01*
X177330000Y-128740000D01*
X175730000Y-128740000D01*
X183350000Y-129540000D02*
X183350000Y-129540000D01*
X184950000Y-129540000D02*
G75*
G02*
X183350000Y-129540000I-800000J0D01*
G01*
X184950000Y-129540000D02*
X184950000Y-129540000D01*
X184950000Y-129540000D02*
G75*
G03*
X183350000Y-129540000I-800000J0D01*
G01*
%TD*%
X129540000Y-131542081D02*
X129540000Y-131542081D01*
X129540000Y-129942081D02*
G75*
G02*
X129540000Y-131542081I0J-800000D01*
G01*
X129540000Y-129942081D02*
X129540000Y-129942081D01*
X129540000Y-129942081D02*
G75*
G03*
X129540000Y-131542081I0J-800000D01*
G01*
%TO.C,R7*%
X130340000Y-138362081D02*
G75*
G02*
X128740000Y-138362081I-800000J0D01*
G01*
X128740000Y-138362081D02*
G75*
G02*
X130340000Y-138362081I800000J0D01*
G01*
%TD*%
M02*
