M48
; DRILL file {KiCad 8.0.1-8.0.1-1~ubuntu22.04.1} date 2024-04-26T21:28:45+0200
; FORMAT={-:-/ absolute / inch / decimal}
; #@! TF.CreationDate,2024-04-26T21:28:45+02:00
; #@! TF.GenerationSoftware,Kicad,Pcbnew,8.0.1-8.0.1-1~ubuntu22.04.1
; #@! TF.FileFunction,Plated,1,2,PTH
FMAT,2
INCH
; #@! TA.AperFunction,Plated,PTH,ComponentDrill
T1C0.0315
; #@! TA.AperFunction,Plated,PTH,ComponentDrill
T2C0.0354
; #@! TA.AperFunction,Plated,PTH,ComponentDrill
T3C0.0394
; #@! TA.AperFunction,Plated,PTH,ComponentDrill
T4C0.0472
; #@! TA.AperFunction,Plated,PTH,ComponentDrill
T5C0.0630
; #@! TA.AperFunction,Plated,PTH,ComponentDrill
T6C0.0709
%
G90
G05
T1
X5.1Y-5.1473
X5.1Y-5.4473
X5.2Y-5.5473
X5.3Y-2.1
X5.3Y-2.4
X5.5Y-5.5473
X5.6Y-2.2016
X5.6Y-2.3
X5.6Y-3.9473
X5.6Y-4.2473
X5.6Y-4.3473
X5.6Y-4.6473
X5.6Y-4.7473
X5.6Y-5.0473
X5.6Y-5.1473
X5.6Y-5.4473
X5.75Y-3.2516
X5.75Y-3.35
X5.9Y-2.1
X5.9Y-2.4
X5.9Y-2.6
X5.9Y-2.9
X5.9Y-3.05
X5.9Y-3.35
X6.95Y-3.5
X6.95Y-3.7
X6.95Y-3.9
X6.95Y-4.1
X6.95Y-4.3
X6.95Y-4.5
X6.95Y-4.7
X6.95Y-4.9
X6.95Y-5.1
X7.25Y-3.5
X7.25Y-3.7
X7.25Y-3.9
X7.25Y-4.1
X7.25Y-4.3
X7.25Y-4.5
X7.25Y-4.7
X7.25Y-4.9
X7.25Y-5.1
T2
X5.3Y-4.7473
X5.3Y-5.3473
X5.4Y-4.7473
X5.4Y-5.3473
X5.8Y-3.5473
X5.9Y-3.5473
T3
X5.15Y-1.8
X5.15Y-1.9
X5.15Y-2.0
X5.15Y-2.1
X5.15Y-2.2
X5.15Y-2.3
X5.15Y-2.4
X5.15Y-2.5
X5.15Y-2.6
X5.15Y-2.7
X5.15Y-2.8
X5.15Y-2.9
X5.15Y-3.0
X5.15Y-3.1
X5.15Y-3.2
X5.5031Y-2.0453
X5.5031Y-3.0453
X5.6016Y-2.0453
X5.6016Y-3.0453
X5.7Y-2.0453
X5.7Y-3.0453
X6.05Y-1.8
X6.05Y-1.9
X6.05Y-2.0
X6.05Y-2.1
X6.05Y-2.2
X6.05Y-2.3
X6.05Y-2.4
X6.05Y-2.5
X6.05Y-2.6
X6.05Y-2.7
X6.05Y-2.8
X6.05Y-2.9
X6.05Y-3.0
X6.05Y-3.1
X6.05Y-3.2
X6.65Y-1.8
X6.65Y-1.9
X6.65Y-2.0
X6.65Y-2.1
X6.65Y-2.2
X6.65Y-2.3
X6.65Y-2.4
X6.65Y-2.5
X6.65Y-2.6
X6.65Y-2.7
X6.65Y-2.8
X6.65Y-2.9
X6.65Y-3.0
X6.65Y-3.1
X6.65Y-3.2
X6.8Y-1.8
X6.8Y-1.9
X6.8Y-2.0
X6.8Y-2.1
X6.8Y-2.2
X6.8Y-2.3
X6.8Y-2.4
X6.8Y-2.5
X6.8Y-2.6
X6.8Y-2.7
X6.8Y-2.8
X6.8Y-2.9
X6.8Y-3.0
X6.8Y-3.1
X6.8Y-3.2
X6.9Y-5.4
X6.9Y-5.5
X7.0Y-5.4
X7.0Y-5.5
X7.1Y-5.4
X7.1Y-5.5
X7.2Y-5.4
X7.2Y-5.5
X7.3Y-5.4
X7.3Y-5.5
X7.4Y-1.8
X7.4Y-1.9
X7.4Y-2.0
X7.4Y-2.1
X7.4Y-2.2
X7.4Y-2.3
X7.4Y-2.4
X7.4Y-2.5
X7.4Y-2.6
X7.4Y-2.7
X7.4Y-2.8
X7.4Y-2.9
X7.4Y-3.0
X7.4Y-3.1
X7.4Y-3.2
X7.55Y-1.8
X7.55Y-1.9
X7.55Y-2.0
X7.55Y-2.1
X7.55Y-2.2
X7.55Y-2.3
X7.55Y-2.4
X7.55Y-2.5
X7.55Y-2.6
X7.55Y-2.7
X7.55Y-2.8
X7.55Y-2.9
X7.55Y-3.0
X7.55Y-3.1
X7.55Y-3.2
T5
X5.35Y-3.9536
X5.35Y-4.2804
X5.35Y-4.4024
X5.85Y-3.9536
X5.85Y-4.2804
X5.85Y-4.4024
X5.85Y-4.5536
X5.85Y-4.8804
X5.85Y-5.0024
X5.85Y-5.1536
X5.85Y-5.4804
X5.85Y-5.6024
T6
X5.4126Y-1.75
X5.4126Y-2.75
X5.7906Y-1.75
X5.7906Y-2.75
T4
G00X5.25Y-3.5296
M15
G01X5.25Y-3.565
M16
G05
G00X5.35Y-3.5296
M15
G01X5.35Y-3.565
M16
G05
G00X5.45Y-3.5296
M15
G01X5.45Y-3.565
M16
G05
M30
