%TF.GenerationSoftware,KiCad,Pcbnew,8.0.1-8.0.1-1~ubuntu22.04.1*%
%TF.CreationDate,2024-04-25T17:06:39+02:00*%
%TF.ProjectId,EuroClockMD,4575726f-436c-46f6-936b-4d442e6b6963,rev?*%
%TF.SameCoordinates,Original*%
%TF.FileFunction,AssemblyDrawing,Bot*%
%FSLAX46Y46*%
G04 Gerber Fmt 4.6, Leading zero omitted, Abs format (unit mm)*
G04 Created by KiCad (PCBNEW 8.0.1-8.0.1-1~ubuntu22.04.1) date 2024-04-25 17:06:39*
%MOMM*%
%LPD*%
G01*
G04 APERTURE LIST*
%ADD10C,0.150000*%
%ADD11C,0.120000*%
%ADD12C,0.090000*%
%ADD13C,0.100000*%
%ADD14C,0.100000*%
%TD*%
G04 APERTURE END LIST*
D10*
X152018152Y-56388095D02*
X152684819Y-56388095D01*
X151637200Y-56150000D02*
X152351485Y-55911905D01*
X152351485Y-55911905D02*
X152351485Y-56530952D01*
X151684819Y-56816667D02*
X151684819Y-57483333D01*
X151684819Y-57483333D02*
X152684819Y-57054762D01*
X151684819Y-58054762D02*
X151684819Y-58150000D01*
X151684819Y-58150000D02*
X151732438Y-58245238D01*
X151732438Y-58245238D02*
X151780057Y-58292857D01*
X151780057Y-58292857D02*
X151875295Y-58340476D01*
X151875295Y-58340476D02*
X152065771Y-58388095D01*
X152065771Y-58388095D02*
X152303866Y-58388095D01*
X152303866Y-58388095D02*
X152494342Y-58340476D01*
X152494342Y-58340476D02*
X152589580Y-58292857D01*
X152589580Y-58292857D02*
X152637200Y-58245238D01*
X152637200Y-58245238D02*
X152684819Y-58150000D01*
X152684819Y-58150000D02*
X152684819Y-58054762D01*
X152684819Y-58054762D02*
X152637200Y-57959524D01*
X152637200Y-57959524D02*
X152589580Y-57911905D01*
X152589580Y-57911905D02*
X152494342Y-57864286D01*
X152494342Y-57864286D02*
X152303866Y-57816667D01*
X152303866Y-57816667D02*
X152065771Y-57816667D01*
X152065771Y-57816667D02*
X151875295Y-57864286D01*
X151875295Y-57864286D02*
X151780057Y-57911905D01*
X151780057Y-57911905D02*
X151732438Y-57959524D01*
X151732438Y-57959524D02*
X151684819Y-58054762D01*
X150314819Y-56983333D02*
X149838628Y-56650000D01*
X150314819Y-56411905D02*
X149314819Y-56411905D01*
X149314819Y-56411905D02*
X149314819Y-56792857D01*
X149314819Y-56792857D02*
X149362438Y-56888095D01*
X149362438Y-56888095D02*
X149410057Y-56935714D01*
X149410057Y-56935714D02*
X149505295Y-56983333D01*
X149505295Y-56983333D02*
X149648152Y-56983333D01*
X149648152Y-56983333D02*
X149743390Y-56935714D01*
X149743390Y-56935714D02*
X149791009Y-56888095D01*
X149791009Y-56888095D02*
X149838628Y-56792857D01*
X149838628Y-56792857D02*
X149838628Y-56411905D01*
X150314819Y-57935714D02*
X150314819Y-57364286D01*
X150314819Y-57650000D02*
X149314819Y-57650000D01*
X149314819Y-57650000D02*
X149457676Y-57554762D01*
X149457676Y-57554762D02*
X149552914Y-57459524D01*
X149552914Y-57459524D02*
X149600533Y-57364286D01*
X182030476Y-101951009D02*
X181887619Y-101998628D01*
X181887619Y-101998628D02*
X181840000Y-102046247D01*
X181840000Y-102046247D02*
X181792381Y-102141485D01*
X181792381Y-102141485D02*
X181792381Y-102284342D01*
X181792381Y-102284342D02*
X181840000Y-102379580D01*
X181840000Y-102379580D02*
X181887619Y-102427200D01*
X181887619Y-102427200D02*
X181982857Y-102474819D01*
X181982857Y-102474819D02*
X182363809Y-102474819D01*
X182363809Y-102474819D02*
X182363809Y-101474819D01*
X182363809Y-101474819D02*
X182030476Y-101474819D01*
X182030476Y-101474819D02*
X181935238Y-101522438D01*
X181935238Y-101522438D02*
X181887619Y-101570057D01*
X181887619Y-101570057D02*
X181840000Y-101665295D01*
X181840000Y-101665295D02*
X181840000Y-101760533D01*
X181840000Y-101760533D02*
X181887619Y-101855771D01*
X181887619Y-101855771D02*
X181935238Y-101903390D01*
X181935238Y-101903390D02*
X182030476Y-101951009D01*
X182030476Y-101951009D02*
X182363809Y-101951009D01*
X181411428Y-102189104D02*
X180935238Y-102189104D01*
X181506666Y-102474819D02*
X181173333Y-101474819D01*
X181173333Y-101474819D02*
X180840000Y-102474819D01*
X180649523Y-101474819D02*
X180078095Y-101474819D01*
X180363809Y-102474819D02*
X180363809Y-101474819D01*
X179316190Y-101808152D02*
X179316190Y-102474819D01*
X179554285Y-101427200D02*
X179792380Y-102141485D01*
X179792380Y-102141485D02*
X179173333Y-102141485D01*
X178887618Y-101474819D02*
X178268571Y-101474819D01*
X178268571Y-101474819D02*
X178601904Y-101855771D01*
X178601904Y-101855771D02*
X178459047Y-101855771D01*
X178459047Y-101855771D02*
X178363809Y-101903390D01*
X178363809Y-101903390D02*
X178316190Y-101951009D01*
X178316190Y-101951009D02*
X178268571Y-102046247D01*
X178268571Y-102046247D02*
X178268571Y-102284342D01*
X178268571Y-102284342D02*
X178316190Y-102379580D01*
X178316190Y-102379580D02*
X178363809Y-102427200D01*
X178363809Y-102427200D02*
X178459047Y-102474819D01*
X178459047Y-102474819D02*
X178744761Y-102474819D01*
X178744761Y-102474819D02*
X178839999Y-102427200D01*
X178839999Y-102427200D02*
X178887618Y-102379580D01*
D11*
X181230475Y-104503855D02*
X181230475Y-103703855D01*
X181230475Y-103703855D02*
X181039999Y-103703855D01*
X181039999Y-103703855D02*
X180925713Y-103741950D01*
X180925713Y-103741950D02*
X180849523Y-103818140D01*
X180849523Y-103818140D02*
X180811428Y-103894331D01*
X180811428Y-103894331D02*
X180773332Y-104046712D01*
X180773332Y-104046712D02*
X180773332Y-104160998D01*
X180773332Y-104160998D02*
X180811428Y-104313379D01*
X180811428Y-104313379D02*
X180849523Y-104389569D01*
X180849523Y-104389569D02*
X180925713Y-104465760D01*
X180925713Y-104465760D02*
X181039999Y-104503855D01*
X181039999Y-104503855D02*
X181230475Y-104503855D01*
X180316190Y-104046712D02*
X180392380Y-104008617D01*
X180392380Y-104008617D02*
X180430475Y-103970521D01*
X180430475Y-103970521D02*
X180468571Y-103894331D01*
X180468571Y-103894331D02*
X180468571Y-103856236D01*
X180468571Y-103856236D02*
X180430475Y-103780045D01*
X180430475Y-103780045D02*
X180392380Y-103741950D01*
X180392380Y-103741950D02*
X180316190Y-103703855D01*
X180316190Y-103703855D02*
X180163809Y-103703855D01*
X180163809Y-103703855D02*
X180087618Y-103741950D01*
X180087618Y-103741950D02*
X180049523Y-103780045D01*
X180049523Y-103780045D02*
X180011428Y-103856236D01*
X180011428Y-103856236D02*
X180011428Y-103894331D01*
X180011428Y-103894331D02*
X180049523Y-103970521D01*
X180049523Y-103970521D02*
X180087618Y-104008617D01*
X180087618Y-104008617D02*
X180163809Y-104046712D01*
X180163809Y-104046712D02*
X180316190Y-104046712D01*
X180316190Y-104046712D02*
X180392380Y-104084807D01*
X180392380Y-104084807D02*
X180430475Y-104122902D01*
X180430475Y-104122902D02*
X180468571Y-104199093D01*
X180468571Y-104199093D02*
X180468571Y-104351474D01*
X180468571Y-104351474D02*
X180430475Y-104427664D01*
X180430475Y-104427664D02*
X180392380Y-104465760D01*
X180392380Y-104465760D02*
X180316190Y-104503855D01*
X180316190Y-104503855D02*
X180163809Y-104503855D01*
X180163809Y-104503855D02*
X180087618Y-104465760D01*
X180087618Y-104465760D02*
X180049523Y-104427664D01*
X180049523Y-104427664D02*
X180011428Y-104351474D01*
X180011428Y-104351474D02*
X180011428Y-104199093D01*
X180011428Y-104199093D02*
X180049523Y-104122902D01*
X180049523Y-104122902D02*
X180087618Y-104084807D01*
X180087618Y-104084807D02*
X180163809Y-104046712D01*
D10*
X176791904Y-106394819D02*
X176791904Y-105394819D01*
X176220476Y-106394819D02*
X176649047Y-105823390D01*
X176220476Y-105394819D02*
X176791904Y-105966247D01*
X132038152Y-56388095D02*
X132704819Y-56388095D01*
X131657200Y-56150000D02*
X132371485Y-55911905D01*
X132371485Y-55911905D02*
X132371485Y-56530952D01*
X131704819Y-56816667D02*
X131704819Y-57483333D01*
X131704819Y-57483333D02*
X132704819Y-57054762D01*
X131704819Y-58054762D02*
X131704819Y-58150000D01*
X131704819Y-58150000D02*
X131752438Y-58245238D01*
X131752438Y-58245238D02*
X131800057Y-58292857D01*
X131800057Y-58292857D02*
X131895295Y-58340476D01*
X131895295Y-58340476D02*
X132085771Y-58388095D01*
X132085771Y-58388095D02*
X132323866Y-58388095D01*
X132323866Y-58388095D02*
X132514342Y-58340476D01*
X132514342Y-58340476D02*
X132609580Y-58292857D01*
X132609580Y-58292857D02*
X132657200Y-58245238D01*
X132657200Y-58245238D02*
X132704819Y-58150000D01*
X132704819Y-58150000D02*
X132704819Y-58054762D01*
X132704819Y-58054762D02*
X132657200Y-57959524D01*
X132657200Y-57959524D02*
X132609580Y-57911905D01*
X132609580Y-57911905D02*
X132514342Y-57864286D01*
X132514342Y-57864286D02*
X132323866Y-57816667D01*
X132323866Y-57816667D02*
X132085771Y-57816667D01*
X132085771Y-57816667D02*
X131895295Y-57864286D01*
X131895295Y-57864286D02*
X131800057Y-57911905D01*
X131800057Y-57911905D02*
X131752438Y-57959524D01*
X131752438Y-57959524D02*
X131704819Y-58054762D01*
X135074819Y-56983333D02*
X134598628Y-56650000D01*
X135074819Y-56411905D02*
X134074819Y-56411905D01*
X134074819Y-56411905D02*
X134074819Y-56792857D01*
X134074819Y-56792857D02*
X134122438Y-56888095D01*
X134122438Y-56888095D02*
X134170057Y-56935714D01*
X134170057Y-56935714D02*
X134265295Y-56983333D01*
X134265295Y-56983333D02*
X134408152Y-56983333D01*
X134408152Y-56983333D02*
X134503390Y-56935714D01*
X134503390Y-56935714D02*
X134551009Y-56888095D01*
X134551009Y-56888095D02*
X134598628Y-56792857D01*
X134598628Y-56792857D02*
X134598628Y-56411905D01*
X134408152Y-57840476D02*
X135074819Y-57840476D01*
X134027200Y-57602381D02*
X134741485Y-57364286D01*
X134741485Y-57364286D02*
X134741485Y-57983333D01*
X144398152Y-103310176D02*
X145064819Y-103310176D01*
X144017200Y-103072081D02*
X144731485Y-102833986D01*
X144731485Y-102833986D02*
X144731485Y-103453033D01*
X144064819Y-103738748D02*
X144064819Y-104405414D01*
X144064819Y-104405414D02*
X145064819Y-103976843D01*
X144064819Y-104976843D02*
X144064819Y-105072081D01*
X144064819Y-105072081D02*
X144112438Y-105167319D01*
X144112438Y-105167319D02*
X144160057Y-105214938D01*
X144160057Y-105214938D02*
X144255295Y-105262557D01*
X144255295Y-105262557D02*
X144445771Y-105310176D01*
X144445771Y-105310176D02*
X144683866Y-105310176D01*
X144683866Y-105310176D02*
X144874342Y-105262557D01*
X144874342Y-105262557D02*
X144969580Y-105214938D01*
X144969580Y-105214938D02*
X145017200Y-105167319D01*
X145017200Y-105167319D02*
X145064819Y-105072081D01*
X145064819Y-105072081D02*
X145064819Y-104976843D01*
X145064819Y-104976843D02*
X145017200Y-104881605D01*
X145017200Y-104881605D02*
X144969580Y-104833986D01*
X144969580Y-104833986D02*
X144874342Y-104786367D01*
X144874342Y-104786367D02*
X144683866Y-104738748D01*
X144683866Y-104738748D02*
X144445771Y-104738748D01*
X144445771Y-104738748D02*
X144255295Y-104786367D01*
X144255295Y-104786367D02*
X144160057Y-104833986D01*
X144160057Y-104833986D02*
X144112438Y-104881605D01*
X144112438Y-104881605D02*
X144064819Y-104976843D01*
X142694819Y-103905414D02*
X142218628Y-103572081D01*
X142694819Y-103333986D02*
X141694819Y-103333986D01*
X141694819Y-103333986D02*
X141694819Y-103714938D01*
X141694819Y-103714938D02*
X141742438Y-103810176D01*
X141742438Y-103810176D02*
X141790057Y-103857795D01*
X141790057Y-103857795D02*
X141885295Y-103905414D01*
X141885295Y-103905414D02*
X142028152Y-103905414D01*
X142028152Y-103905414D02*
X142123390Y-103857795D01*
X142123390Y-103857795D02*
X142171009Y-103810176D01*
X142171009Y-103810176D02*
X142218628Y-103714938D01*
X142218628Y-103714938D02*
X142218628Y-103333986D01*
X142694819Y-104381605D02*
X142694819Y-104572081D01*
X142694819Y-104572081D02*
X142647200Y-104667319D01*
X142647200Y-104667319D02*
X142599580Y-104714938D01*
X142599580Y-104714938D02*
X142456723Y-104810176D01*
X142456723Y-104810176D02*
X142266247Y-104857795D01*
X142266247Y-104857795D02*
X141885295Y-104857795D01*
X141885295Y-104857795D02*
X141790057Y-104810176D01*
X141790057Y-104810176D02*
X141742438Y-104762557D01*
X141742438Y-104762557D02*
X141694819Y-104667319D01*
X141694819Y-104667319D02*
X141694819Y-104476843D01*
X141694819Y-104476843D02*
X141742438Y-104381605D01*
X141742438Y-104381605D02*
X141790057Y-104333986D01*
X141790057Y-104333986D02*
X141885295Y-104286367D01*
X141885295Y-104286367D02*
X142123390Y-104286367D01*
X142123390Y-104286367D02*
X142218628Y-104333986D01*
X142218628Y-104333986D02*
X142266247Y-104381605D01*
X142266247Y-104381605D02*
X142313866Y-104476843D01*
X142313866Y-104476843D02*
X142313866Y-104667319D01*
X142313866Y-104667319D02*
X142266247Y-104762557D01*
X142266247Y-104762557D02*
X142218628Y-104810176D01*
X142218628Y-104810176D02*
X142123390Y-104857795D01*
X162574763Y-84409580D02*
X162622382Y-84457200D01*
X162622382Y-84457200D02*
X162765239Y-84504819D01*
X162765239Y-84504819D02*
X162860477Y-84504819D01*
X162860477Y-84504819D02*
X163003334Y-84457200D01*
X163003334Y-84457200D02*
X163098572Y-84361961D01*
X163098572Y-84361961D02*
X163146191Y-84266723D01*
X163146191Y-84266723D02*
X163193810Y-84076247D01*
X163193810Y-84076247D02*
X163193810Y-83933390D01*
X163193810Y-83933390D02*
X163146191Y-83742914D01*
X163146191Y-83742914D02*
X163098572Y-83647676D01*
X163098572Y-83647676D02*
X163003334Y-83552438D01*
X163003334Y-83552438D02*
X162860477Y-83504819D01*
X162860477Y-83504819D02*
X162765239Y-83504819D01*
X162765239Y-83504819D02*
X162622382Y-83552438D01*
X162622382Y-83552438D02*
X162574763Y-83600057D01*
X162003334Y-84504819D02*
X162098572Y-84457200D01*
X162098572Y-84457200D02*
X162146191Y-84409580D01*
X162146191Y-84409580D02*
X162193810Y-84314342D01*
X162193810Y-84314342D02*
X162193810Y-84028628D01*
X162193810Y-84028628D02*
X162146191Y-83933390D01*
X162146191Y-83933390D02*
X162098572Y-83885771D01*
X162098572Y-83885771D02*
X162003334Y-83838152D01*
X162003334Y-83838152D02*
X161860477Y-83838152D01*
X161860477Y-83838152D02*
X161765239Y-83885771D01*
X161765239Y-83885771D02*
X161717620Y-83933390D01*
X161717620Y-83933390D02*
X161670001Y-84028628D01*
X161670001Y-84028628D02*
X161670001Y-84314342D01*
X161670001Y-84314342D02*
X161717620Y-84409580D01*
X161717620Y-84409580D02*
X161765239Y-84457200D01*
X161765239Y-84457200D02*
X161860477Y-84504819D01*
X161860477Y-84504819D02*
X162003334Y-84504819D01*
X161241429Y-83838152D02*
X161241429Y-84504819D01*
X161241429Y-83933390D02*
X161193810Y-83885771D01*
X161193810Y-83885771D02*
X161098572Y-83838152D01*
X161098572Y-83838152D02*
X160955715Y-83838152D01*
X160955715Y-83838152D02*
X160860477Y-83885771D01*
X160860477Y-83885771D02*
X160812858Y-83981009D01*
X160812858Y-83981009D02*
X160812858Y-84504819D01*
X160336667Y-83838152D02*
X160336667Y-84504819D01*
X160336667Y-83933390D02*
X160289048Y-83885771D01*
X160289048Y-83885771D02*
X160193810Y-83838152D01*
X160193810Y-83838152D02*
X160050953Y-83838152D01*
X160050953Y-83838152D02*
X159955715Y-83885771D01*
X159955715Y-83885771D02*
X159908096Y-83981009D01*
X159908096Y-83981009D02*
X159908096Y-84504819D01*
X159670001Y-84600057D02*
X158908096Y-84600057D01*
X158479524Y-83504819D02*
X158384286Y-83504819D01*
X158384286Y-83504819D02*
X158289048Y-83552438D01*
X158289048Y-83552438D02*
X158241429Y-83600057D01*
X158241429Y-83600057D02*
X158193810Y-83695295D01*
X158193810Y-83695295D02*
X158146191Y-83885771D01*
X158146191Y-83885771D02*
X158146191Y-84123866D01*
X158146191Y-84123866D02*
X158193810Y-84314342D01*
X158193810Y-84314342D02*
X158241429Y-84409580D01*
X158241429Y-84409580D02*
X158289048Y-84457200D01*
X158289048Y-84457200D02*
X158384286Y-84504819D01*
X158384286Y-84504819D02*
X158479524Y-84504819D01*
X158479524Y-84504819D02*
X158574762Y-84457200D01*
X158574762Y-84457200D02*
X158622381Y-84409580D01*
X158622381Y-84409580D02*
X158670000Y-84314342D01*
X158670000Y-84314342D02*
X158717619Y-84123866D01*
X158717619Y-84123866D02*
X158717619Y-83885771D01*
X158717619Y-83885771D02*
X158670000Y-83695295D01*
X158670000Y-83695295D02*
X158622381Y-83600057D01*
X158622381Y-83600057D02*
X158574762Y-83552438D01*
X158574762Y-83552438D02*
X158479524Y-83504819D01*
X157193810Y-84504819D02*
X157765238Y-84504819D01*
X157479524Y-84504819D02*
X157479524Y-83504819D01*
X157479524Y-83504819D02*
X157574762Y-83647676D01*
X157574762Y-83647676D02*
X157670000Y-83742914D01*
X157670000Y-83742914D02*
X157765238Y-83790533D01*
X156860476Y-84504819D02*
X156336667Y-83838152D01*
X156860476Y-83838152D02*
X156336667Y-84504819D01*
X155431905Y-84504819D02*
X156003333Y-84504819D01*
X155717619Y-84504819D02*
X155717619Y-83504819D01*
X155717619Y-83504819D02*
X155812857Y-83647676D01*
X155812857Y-83647676D02*
X155908095Y-83742914D01*
X155908095Y-83742914D02*
X156003333Y-83790533D01*
X154527143Y-83504819D02*
X155003333Y-83504819D01*
X155003333Y-83504819D02*
X155050952Y-83981009D01*
X155050952Y-83981009D02*
X155003333Y-83933390D01*
X155003333Y-83933390D02*
X154908095Y-83885771D01*
X154908095Y-83885771D02*
X154670000Y-83885771D01*
X154670000Y-83885771D02*
X154574762Y-83933390D01*
X154574762Y-83933390D02*
X154527143Y-83981009D01*
X154527143Y-83981009D02*
X154479524Y-84076247D01*
X154479524Y-84076247D02*
X154479524Y-84314342D01*
X154479524Y-84314342D02*
X154527143Y-84409580D01*
X154527143Y-84409580D02*
X154574762Y-84457200D01*
X154574762Y-84457200D02*
X154670000Y-84504819D01*
X154670000Y-84504819D02*
X154908095Y-84504819D01*
X154908095Y-84504819D02*
X155003333Y-84457200D01*
X155003333Y-84457200D02*
X155050952Y-84409580D01*
X154289048Y-84600057D02*
X153527143Y-84600057D01*
X153336666Y-84457200D02*
X153193809Y-84504819D01*
X153193809Y-84504819D02*
X152955714Y-84504819D01*
X152955714Y-84504819D02*
X152860476Y-84457200D01*
X152860476Y-84457200D02*
X152812857Y-84409580D01*
X152812857Y-84409580D02*
X152765238Y-84314342D01*
X152765238Y-84314342D02*
X152765238Y-84219104D01*
X152765238Y-84219104D02*
X152812857Y-84123866D01*
X152812857Y-84123866D02*
X152860476Y-84076247D01*
X152860476Y-84076247D02*
X152955714Y-84028628D01*
X152955714Y-84028628D02*
X153146190Y-83981009D01*
X153146190Y-83981009D02*
X153241428Y-83933390D01*
X153241428Y-83933390D02*
X153289047Y-83885771D01*
X153289047Y-83885771D02*
X153336666Y-83790533D01*
X153336666Y-83790533D02*
X153336666Y-83695295D01*
X153336666Y-83695295D02*
X153289047Y-83600057D01*
X153289047Y-83600057D02*
X153241428Y-83552438D01*
X153241428Y-83552438D02*
X153146190Y-83504819D01*
X153146190Y-83504819D02*
X152908095Y-83504819D01*
X152908095Y-83504819D02*
X152765238Y-83552438D01*
X152193809Y-84504819D02*
X152289047Y-84457200D01*
X152289047Y-84457200D02*
X152336666Y-84409580D01*
X152336666Y-84409580D02*
X152384285Y-84314342D01*
X152384285Y-84314342D02*
X152384285Y-84028628D01*
X152384285Y-84028628D02*
X152336666Y-83933390D01*
X152336666Y-83933390D02*
X152289047Y-83885771D01*
X152289047Y-83885771D02*
X152193809Y-83838152D01*
X152193809Y-83838152D02*
X152050952Y-83838152D01*
X152050952Y-83838152D02*
X151955714Y-83885771D01*
X151955714Y-83885771D02*
X151908095Y-83933390D01*
X151908095Y-83933390D02*
X151860476Y-84028628D01*
X151860476Y-84028628D02*
X151860476Y-84314342D01*
X151860476Y-84314342D02*
X151908095Y-84409580D01*
X151908095Y-84409580D02*
X151955714Y-84457200D01*
X151955714Y-84457200D02*
X152050952Y-84504819D01*
X152050952Y-84504819D02*
X152193809Y-84504819D01*
X151003333Y-84457200D02*
X151098571Y-84504819D01*
X151098571Y-84504819D02*
X151289047Y-84504819D01*
X151289047Y-84504819D02*
X151384285Y-84457200D01*
X151384285Y-84457200D02*
X151431904Y-84409580D01*
X151431904Y-84409580D02*
X151479523Y-84314342D01*
X151479523Y-84314342D02*
X151479523Y-84028628D01*
X151479523Y-84028628D02*
X151431904Y-83933390D01*
X151431904Y-83933390D02*
X151384285Y-83885771D01*
X151384285Y-83885771D02*
X151289047Y-83838152D01*
X151289047Y-83838152D02*
X151098571Y-83838152D01*
X151098571Y-83838152D02*
X151003333Y-83885771D01*
X150574761Y-84504819D02*
X150574761Y-83504819D01*
X150479523Y-84123866D02*
X150193809Y-84504819D01*
X150193809Y-83838152D02*
X150574761Y-84219104D01*
X149384285Y-84457200D02*
X149479523Y-84504819D01*
X149479523Y-84504819D02*
X149669999Y-84504819D01*
X149669999Y-84504819D02*
X149765237Y-84457200D01*
X149765237Y-84457200D02*
X149812856Y-84361961D01*
X149812856Y-84361961D02*
X149812856Y-83981009D01*
X149812856Y-83981009D02*
X149765237Y-83885771D01*
X149765237Y-83885771D02*
X149669999Y-83838152D01*
X149669999Y-83838152D02*
X149479523Y-83838152D01*
X149479523Y-83838152D02*
X149384285Y-83885771D01*
X149384285Y-83885771D02*
X149336666Y-83981009D01*
X149336666Y-83981009D02*
X149336666Y-84076247D01*
X149336666Y-84076247D02*
X149812856Y-84171485D01*
X149050951Y-83838152D02*
X148669999Y-83838152D01*
X148908094Y-83504819D02*
X148908094Y-84361961D01*
X148908094Y-84361961D02*
X148860475Y-84457200D01*
X148860475Y-84457200D02*
X148765237Y-84504819D01*
X148765237Y-84504819D02*
X148669999Y-84504819D01*
X148574761Y-84600057D02*
X147812856Y-84600057D01*
X147003332Y-84504819D02*
X147336665Y-84028628D01*
X147574760Y-84504819D02*
X147574760Y-83504819D01*
X147574760Y-83504819D02*
X147193808Y-83504819D01*
X147193808Y-83504819D02*
X147098570Y-83552438D01*
X147098570Y-83552438D02*
X147050951Y-83600057D01*
X147050951Y-83600057D02*
X147003332Y-83695295D01*
X147003332Y-83695295D02*
X147003332Y-83838152D01*
X147003332Y-83838152D02*
X147050951Y-83933390D01*
X147050951Y-83933390D02*
X147098570Y-83981009D01*
X147098570Y-83981009D02*
X147193808Y-84028628D01*
X147193808Y-84028628D02*
X147574760Y-84028628D01*
X146574760Y-84504819D02*
X146574760Y-83838152D01*
X146574760Y-83504819D02*
X146622379Y-83552438D01*
X146622379Y-83552438D02*
X146574760Y-83600057D01*
X146574760Y-83600057D02*
X146527141Y-83552438D01*
X146527141Y-83552438D02*
X146574760Y-83504819D01*
X146574760Y-83504819D02*
X146574760Y-83600057D01*
X145669999Y-83838152D02*
X145669999Y-84647676D01*
X145669999Y-84647676D02*
X145717618Y-84742914D01*
X145717618Y-84742914D02*
X145765237Y-84790533D01*
X145765237Y-84790533D02*
X145860475Y-84838152D01*
X145860475Y-84838152D02*
X146003332Y-84838152D01*
X146003332Y-84838152D02*
X146098570Y-84790533D01*
X145669999Y-84457200D02*
X145765237Y-84504819D01*
X145765237Y-84504819D02*
X145955713Y-84504819D01*
X145955713Y-84504819D02*
X146050951Y-84457200D01*
X146050951Y-84457200D02*
X146098570Y-84409580D01*
X146098570Y-84409580D02*
X146146189Y-84314342D01*
X146146189Y-84314342D02*
X146146189Y-84028628D01*
X146146189Y-84028628D02*
X146098570Y-83933390D01*
X146098570Y-83933390D02*
X146050951Y-83885771D01*
X146050951Y-83885771D02*
X145955713Y-83838152D01*
X145955713Y-83838152D02*
X145765237Y-83838152D01*
X145765237Y-83838152D02*
X145669999Y-83885771D01*
X145193808Y-84504819D02*
X145193808Y-83504819D01*
X144765237Y-84504819D02*
X144765237Y-83981009D01*
X144765237Y-83981009D02*
X144812856Y-83885771D01*
X144812856Y-83885771D02*
X144908094Y-83838152D01*
X144908094Y-83838152D02*
X145050951Y-83838152D01*
X145050951Y-83838152D02*
X145146189Y-83885771D01*
X145146189Y-83885771D02*
X145193808Y-83933390D01*
X144431903Y-83838152D02*
X144050951Y-83838152D01*
X144289046Y-83504819D02*
X144289046Y-84361961D01*
X144289046Y-84361961D02*
X144241427Y-84457200D01*
X144241427Y-84457200D02*
X144146189Y-84504819D01*
X144146189Y-84504819D02*
X144050951Y-84504819D01*
X153124819Y-63166666D02*
X153839104Y-63166666D01*
X153839104Y-63166666D02*
X153981961Y-63119047D01*
X153981961Y-63119047D02*
X154077200Y-63023809D01*
X154077200Y-63023809D02*
X154124819Y-62880952D01*
X154124819Y-62880952D02*
X154124819Y-62785714D01*
X153553390Y-63785714D02*
X153505771Y-63690476D01*
X153505771Y-63690476D02*
X153458152Y-63642857D01*
X153458152Y-63642857D02*
X153362914Y-63595238D01*
X153362914Y-63595238D02*
X153315295Y-63595238D01*
X153315295Y-63595238D02*
X153220057Y-63642857D01*
X153220057Y-63642857D02*
X153172438Y-63690476D01*
X153172438Y-63690476D02*
X153124819Y-63785714D01*
X153124819Y-63785714D02*
X153124819Y-63976190D01*
X153124819Y-63976190D02*
X153172438Y-64071428D01*
X153172438Y-64071428D02*
X153220057Y-64119047D01*
X153220057Y-64119047D02*
X153315295Y-64166666D01*
X153315295Y-64166666D02*
X153362914Y-64166666D01*
X153362914Y-64166666D02*
X153458152Y-64119047D01*
X153458152Y-64119047D02*
X153505771Y-64071428D01*
X153505771Y-64071428D02*
X153553390Y-63976190D01*
X153553390Y-63976190D02*
X153553390Y-63785714D01*
X153553390Y-63785714D02*
X153601009Y-63690476D01*
X153601009Y-63690476D02*
X153648628Y-63642857D01*
X153648628Y-63642857D02*
X153743866Y-63595238D01*
X153743866Y-63595238D02*
X153934342Y-63595238D01*
X153934342Y-63595238D02*
X154029580Y-63642857D01*
X154029580Y-63642857D02*
X154077200Y-63690476D01*
X154077200Y-63690476D02*
X154124819Y-63785714D01*
X154124819Y-63785714D02*
X154124819Y-63976190D01*
X154124819Y-63976190D02*
X154077200Y-64071428D01*
X154077200Y-64071428D02*
X154029580Y-64119047D01*
X154029580Y-64119047D02*
X153934342Y-64166666D01*
X153934342Y-64166666D02*
X153743866Y-64166666D01*
X153743866Y-64166666D02*
X153648628Y-64119047D01*
X153648628Y-64119047D02*
X153601009Y-64071428D01*
X153601009Y-64071428D02*
X153553390Y-63976190D01*
X182030476Y-116351009D02*
X181887619Y-116398628D01*
X181887619Y-116398628D02*
X181840000Y-116446247D01*
X181840000Y-116446247D02*
X181792381Y-116541485D01*
X181792381Y-116541485D02*
X181792381Y-116684342D01*
X181792381Y-116684342D02*
X181840000Y-116779580D01*
X181840000Y-116779580D02*
X181887619Y-116827200D01*
X181887619Y-116827200D02*
X181982857Y-116874819D01*
X181982857Y-116874819D02*
X182363809Y-116874819D01*
X182363809Y-116874819D02*
X182363809Y-115874819D01*
X182363809Y-115874819D02*
X182030476Y-115874819D01*
X182030476Y-115874819D02*
X181935238Y-115922438D01*
X181935238Y-115922438D02*
X181887619Y-115970057D01*
X181887619Y-115970057D02*
X181840000Y-116065295D01*
X181840000Y-116065295D02*
X181840000Y-116160533D01*
X181840000Y-116160533D02*
X181887619Y-116255771D01*
X181887619Y-116255771D02*
X181935238Y-116303390D01*
X181935238Y-116303390D02*
X182030476Y-116351009D01*
X182030476Y-116351009D02*
X182363809Y-116351009D01*
X181411428Y-116589104D02*
X180935238Y-116589104D01*
X181506666Y-116874819D02*
X181173333Y-115874819D01*
X181173333Y-115874819D02*
X180840000Y-116874819D01*
X180649523Y-115874819D02*
X180078095Y-115874819D01*
X180363809Y-116874819D02*
X180363809Y-115874819D01*
X179316190Y-116208152D02*
X179316190Y-116874819D01*
X179554285Y-115827200D02*
X179792380Y-116541485D01*
X179792380Y-116541485D02*
X179173333Y-116541485D01*
X178887618Y-115874819D02*
X178268571Y-115874819D01*
X178268571Y-115874819D02*
X178601904Y-116255771D01*
X178601904Y-116255771D02*
X178459047Y-116255771D01*
X178459047Y-116255771D02*
X178363809Y-116303390D01*
X178363809Y-116303390D02*
X178316190Y-116351009D01*
X178316190Y-116351009D02*
X178268571Y-116446247D01*
X178268571Y-116446247D02*
X178268571Y-116684342D01*
X178268571Y-116684342D02*
X178316190Y-116779580D01*
X178316190Y-116779580D02*
X178363809Y-116827200D01*
X178363809Y-116827200D02*
X178459047Y-116874819D01*
X178459047Y-116874819D02*
X178744761Y-116874819D01*
X178744761Y-116874819D02*
X178839999Y-116827200D01*
X178839999Y-116827200D02*
X178887618Y-116779580D01*
X184411904Y-112954819D02*
X184411904Y-111954819D01*
X183840476Y-112954819D02*
X184269047Y-112383390D01*
X183840476Y-111954819D02*
X184411904Y-112526247D01*
D11*
X180630475Y-114663855D02*
X180630475Y-113863855D01*
X180630475Y-113863855D02*
X180439999Y-113863855D01*
X180439999Y-113863855D02*
X180325713Y-113901950D01*
X180325713Y-113901950D02*
X180249523Y-113978140D01*
X180249523Y-113978140D02*
X180211428Y-114054331D01*
X180211428Y-114054331D02*
X180173332Y-114206712D01*
X180173332Y-114206712D02*
X180173332Y-114320998D01*
X180173332Y-114320998D02*
X180211428Y-114473379D01*
X180211428Y-114473379D02*
X180249523Y-114549569D01*
X180249523Y-114549569D02*
X180325713Y-114625760D01*
X180325713Y-114625760D02*
X180439999Y-114663855D01*
X180439999Y-114663855D02*
X180630475Y-114663855D01*
X179487618Y-114130521D02*
X179487618Y-114663855D01*
X179678094Y-113825760D02*
X179868571Y-114397188D01*
X179868571Y-114397188D02*
X179373332Y-114397188D01*
D10*
X139190954Y-84409580D02*
X139238573Y-84457200D01*
X139238573Y-84457200D02*
X139381430Y-84504819D01*
X139381430Y-84504819D02*
X139476668Y-84504819D01*
X139476668Y-84504819D02*
X139619525Y-84457200D01*
X139619525Y-84457200D02*
X139714763Y-84361961D01*
X139714763Y-84361961D02*
X139762382Y-84266723D01*
X139762382Y-84266723D02*
X139810001Y-84076247D01*
X139810001Y-84076247D02*
X139810001Y-83933390D01*
X139810001Y-83933390D02*
X139762382Y-83742914D01*
X139762382Y-83742914D02*
X139714763Y-83647676D01*
X139714763Y-83647676D02*
X139619525Y-83552438D01*
X139619525Y-83552438D02*
X139476668Y-83504819D01*
X139476668Y-83504819D02*
X139381430Y-83504819D01*
X139381430Y-83504819D02*
X139238573Y-83552438D01*
X139238573Y-83552438D02*
X139190954Y-83600057D01*
X138619525Y-84504819D02*
X138714763Y-84457200D01*
X138714763Y-84457200D02*
X138762382Y-84409580D01*
X138762382Y-84409580D02*
X138810001Y-84314342D01*
X138810001Y-84314342D02*
X138810001Y-84028628D01*
X138810001Y-84028628D02*
X138762382Y-83933390D01*
X138762382Y-83933390D02*
X138714763Y-83885771D01*
X138714763Y-83885771D02*
X138619525Y-83838152D01*
X138619525Y-83838152D02*
X138476668Y-83838152D01*
X138476668Y-83838152D02*
X138381430Y-83885771D01*
X138381430Y-83885771D02*
X138333811Y-83933390D01*
X138333811Y-83933390D02*
X138286192Y-84028628D01*
X138286192Y-84028628D02*
X138286192Y-84314342D01*
X138286192Y-84314342D02*
X138333811Y-84409580D01*
X138333811Y-84409580D02*
X138381430Y-84457200D01*
X138381430Y-84457200D02*
X138476668Y-84504819D01*
X138476668Y-84504819D02*
X138619525Y-84504819D01*
X137857620Y-83838152D02*
X137857620Y-84504819D01*
X137857620Y-83933390D02*
X137810001Y-83885771D01*
X137810001Y-83885771D02*
X137714763Y-83838152D01*
X137714763Y-83838152D02*
X137571906Y-83838152D01*
X137571906Y-83838152D02*
X137476668Y-83885771D01*
X137476668Y-83885771D02*
X137429049Y-83981009D01*
X137429049Y-83981009D02*
X137429049Y-84504819D01*
X136952858Y-83838152D02*
X136952858Y-84504819D01*
X136952858Y-83933390D02*
X136905239Y-83885771D01*
X136905239Y-83885771D02*
X136810001Y-83838152D01*
X136810001Y-83838152D02*
X136667144Y-83838152D01*
X136667144Y-83838152D02*
X136571906Y-83885771D01*
X136571906Y-83885771D02*
X136524287Y-83981009D01*
X136524287Y-83981009D02*
X136524287Y-84504819D01*
X136286192Y-84600057D02*
X135524287Y-84600057D01*
X135095715Y-83504819D02*
X135000477Y-83504819D01*
X135000477Y-83504819D02*
X134905239Y-83552438D01*
X134905239Y-83552438D02*
X134857620Y-83600057D01*
X134857620Y-83600057D02*
X134810001Y-83695295D01*
X134810001Y-83695295D02*
X134762382Y-83885771D01*
X134762382Y-83885771D02*
X134762382Y-84123866D01*
X134762382Y-84123866D02*
X134810001Y-84314342D01*
X134810001Y-84314342D02*
X134857620Y-84409580D01*
X134857620Y-84409580D02*
X134905239Y-84457200D01*
X134905239Y-84457200D02*
X135000477Y-84504819D01*
X135000477Y-84504819D02*
X135095715Y-84504819D01*
X135095715Y-84504819D02*
X135190953Y-84457200D01*
X135190953Y-84457200D02*
X135238572Y-84409580D01*
X135238572Y-84409580D02*
X135286191Y-84314342D01*
X135286191Y-84314342D02*
X135333810Y-84123866D01*
X135333810Y-84123866D02*
X135333810Y-83885771D01*
X135333810Y-83885771D02*
X135286191Y-83695295D01*
X135286191Y-83695295D02*
X135238572Y-83600057D01*
X135238572Y-83600057D02*
X135190953Y-83552438D01*
X135190953Y-83552438D02*
X135095715Y-83504819D01*
X133810001Y-84504819D02*
X134381429Y-84504819D01*
X134095715Y-84504819D02*
X134095715Y-83504819D01*
X134095715Y-83504819D02*
X134190953Y-83647676D01*
X134190953Y-83647676D02*
X134286191Y-83742914D01*
X134286191Y-83742914D02*
X134381429Y-83790533D01*
X133476667Y-84504819D02*
X132952858Y-83838152D01*
X133476667Y-83838152D02*
X132952858Y-84504819D01*
X132048096Y-84504819D02*
X132619524Y-84504819D01*
X132333810Y-84504819D02*
X132333810Y-83504819D01*
X132333810Y-83504819D02*
X132429048Y-83647676D01*
X132429048Y-83647676D02*
X132524286Y-83742914D01*
X132524286Y-83742914D02*
X132619524Y-83790533D01*
X131143334Y-83504819D02*
X131619524Y-83504819D01*
X131619524Y-83504819D02*
X131667143Y-83981009D01*
X131667143Y-83981009D02*
X131619524Y-83933390D01*
X131619524Y-83933390D02*
X131524286Y-83885771D01*
X131524286Y-83885771D02*
X131286191Y-83885771D01*
X131286191Y-83885771D02*
X131190953Y-83933390D01*
X131190953Y-83933390D02*
X131143334Y-83981009D01*
X131143334Y-83981009D02*
X131095715Y-84076247D01*
X131095715Y-84076247D02*
X131095715Y-84314342D01*
X131095715Y-84314342D02*
X131143334Y-84409580D01*
X131143334Y-84409580D02*
X131190953Y-84457200D01*
X131190953Y-84457200D02*
X131286191Y-84504819D01*
X131286191Y-84504819D02*
X131524286Y-84504819D01*
X131524286Y-84504819D02*
X131619524Y-84457200D01*
X131619524Y-84457200D02*
X131667143Y-84409580D01*
X130905239Y-84600057D02*
X130143334Y-84600057D01*
X129952857Y-84457200D02*
X129810000Y-84504819D01*
X129810000Y-84504819D02*
X129571905Y-84504819D01*
X129571905Y-84504819D02*
X129476667Y-84457200D01*
X129476667Y-84457200D02*
X129429048Y-84409580D01*
X129429048Y-84409580D02*
X129381429Y-84314342D01*
X129381429Y-84314342D02*
X129381429Y-84219104D01*
X129381429Y-84219104D02*
X129429048Y-84123866D01*
X129429048Y-84123866D02*
X129476667Y-84076247D01*
X129476667Y-84076247D02*
X129571905Y-84028628D01*
X129571905Y-84028628D02*
X129762381Y-83981009D01*
X129762381Y-83981009D02*
X129857619Y-83933390D01*
X129857619Y-83933390D02*
X129905238Y-83885771D01*
X129905238Y-83885771D02*
X129952857Y-83790533D01*
X129952857Y-83790533D02*
X129952857Y-83695295D01*
X129952857Y-83695295D02*
X129905238Y-83600057D01*
X129905238Y-83600057D02*
X129857619Y-83552438D01*
X129857619Y-83552438D02*
X129762381Y-83504819D01*
X129762381Y-83504819D02*
X129524286Y-83504819D01*
X129524286Y-83504819D02*
X129381429Y-83552438D01*
X128810000Y-84504819D02*
X128905238Y-84457200D01*
X128905238Y-84457200D02*
X128952857Y-84409580D01*
X128952857Y-84409580D02*
X129000476Y-84314342D01*
X129000476Y-84314342D02*
X129000476Y-84028628D01*
X129000476Y-84028628D02*
X128952857Y-83933390D01*
X128952857Y-83933390D02*
X128905238Y-83885771D01*
X128905238Y-83885771D02*
X128810000Y-83838152D01*
X128810000Y-83838152D02*
X128667143Y-83838152D01*
X128667143Y-83838152D02*
X128571905Y-83885771D01*
X128571905Y-83885771D02*
X128524286Y-83933390D01*
X128524286Y-83933390D02*
X128476667Y-84028628D01*
X128476667Y-84028628D02*
X128476667Y-84314342D01*
X128476667Y-84314342D02*
X128524286Y-84409580D01*
X128524286Y-84409580D02*
X128571905Y-84457200D01*
X128571905Y-84457200D02*
X128667143Y-84504819D01*
X128667143Y-84504819D02*
X128810000Y-84504819D01*
X127619524Y-84457200D02*
X127714762Y-84504819D01*
X127714762Y-84504819D02*
X127905238Y-84504819D01*
X127905238Y-84504819D02*
X128000476Y-84457200D01*
X128000476Y-84457200D02*
X128048095Y-84409580D01*
X128048095Y-84409580D02*
X128095714Y-84314342D01*
X128095714Y-84314342D02*
X128095714Y-84028628D01*
X128095714Y-84028628D02*
X128048095Y-83933390D01*
X128048095Y-83933390D02*
X128000476Y-83885771D01*
X128000476Y-83885771D02*
X127905238Y-83838152D01*
X127905238Y-83838152D02*
X127714762Y-83838152D01*
X127714762Y-83838152D02*
X127619524Y-83885771D01*
X127190952Y-84504819D02*
X127190952Y-83504819D01*
X127095714Y-84123866D02*
X126810000Y-84504819D01*
X126810000Y-83838152D02*
X127190952Y-84219104D01*
X126000476Y-84457200D02*
X126095714Y-84504819D01*
X126095714Y-84504819D02*
X126286190Y-84504819D01*
X126286190Y-84504819D02*
X126381428Y-84457200D01*
X126381428Y-84457200D02*
X126429047Y-84361961D01*
X126429047Y-84361961D02*
X126429047Y-83981009D01*
X126429047Y-83981009D02*
X126381428Y-83885771D01*
X126381428Y-83885771D02*
X126286190Y-83838152D01*
X126286190Y-83838152D02*
X126095714Y-83838152D01*
X126095714Y-83838152D02*
X126000476Y-83885771D01*
X126000476Y-83885771D02*
X125952857Y-83981009D01*
X125952857Y-83981009D02*
X125952857Y-84076247D01*
X125952857Y-84076247D02*
X126429047Y-84171485D01*
X125667142Y-83838152D02*
X125286190Y-83838152D01*
X125524285Y-83504819D02*
X125524285Y-84361961D01*
X125524285Y-84361961D02*
X125476666Y-84457200D01*
X125476666Y-84457200D02*
X125381428Y-84504819D01*
X125381428Y-84504819D02*
X125286190Y-84504819D01*
X125190952Y-84600057D02*
X124429047Y-84600057D01*
X123714761Y-84504819D02*
X124190951Y-84504819D01*
X124190951Y-84504819D02*
X124190951Y-83504819D01*
X123000475Y-84457200D02*
X123095713Y-84504819D01*
X123095713Y-84504819D02*
X123286189Y-84504819D01*
X123286189Y-84504819D02*
X123381427Y-84457200D01*
X123381427Y-84457200D02*
X123429046Y-84361961D01*
X123429046Y-84361961D02*
X123429046Y-83981009D01*
X123429046Y-83981009D02*
X123381427Y-83885771D01*
X123381427Y-83885771D02*
X123286189Y-83838152D01*
X123286189Y-83838152D02*
X123095713Y-83838152D01*
X123095713Y-83838152D02*
X123000475Y-83885771D01*
X123000475Y-83885771D02*
X122952856Y-83981009D01*
X122952856Y-83981009D02*
X122952856Y-84076247D01*
X122952856Y-84076247D02*
X123429046Y-84171485D01*
X122667141Y-83838152D02*
X122286189Y-83838152D01*
X122524284Y-84504819D02*
X122524284Y-83647676D01*
X122524284Y-83647676D02*
X122476665Y-83552438D01*
X122476665Y-83552438D02*
X122381427Y-83504819D01*
X122381427Y-83504819D02*
X122286189Y-83504819D01*
X122095712Y-83838152D02*
X121714760Y-83838152D01*
X121952855Y-83504819D02*
X121952855Y-84361961D01*
X121952855Y-84361961D02*
X121905236Y-84457200D01*
X121905236Y-84457200D02*
X121809998Y-84504819D01*
X121809998Y-84504819D02*
X121714760Y-84504819D01*
X130264819Y-63166666D02*
X130979104Y-63166666D01*
X130979104Y-63166666D02*
X131121961Y-63119047D01*
X131121961Y-63119047D02*
X131217200Y-63023809D01*
X131217200Y-63023809D02*
X131264819Y-62880952D01*
X131264819Y-62880952D02*
X131264819Y-62785714D01*
X130264819Y-63547619D02*
X130264819Y-64214285D01*
X130264819Y-64214285D02*
X131264819Y-63785714D01*
X152018152Y-69088095D02*
X152684819Y-69088095D01*
X151637200Y-68850000D02*
X152351485Y-68611905D01*
X152351485Y-68611905D02*
X152351485Y-69230952D01*
X151684819Y-69516667D02*
X151684819Y-70183333D01*
X151684819Y-70183333D02*
X152684819Y-69754762D01*
X151684819Y-70754762D02*
X151684819Y-70850000D01*
X151684819Y-70850000D02*
X151732438Y-70945238D01*
X151732438Y-70945238D02*
X151780057Y-70992857D01*
X151780057Y-70992857D02*
X151875295Y-71040476D01*
X151875295Y-71040476D02*
X152065771Y-71088095D01*
X152065771Y-71088095D02*
X152303866Y-71088095D01*
X152303866Y-71088095D02*
X152494342Y-71040476D01*
X152494342Y-71040476D02*
X152589580Y-70992857D01*
X152589580Y-70992857D02*
X152637200Y-70945238D01*
X152637200Y-70945238D02*
X152684819Y-70850000D01*
X152684819Y-70850000D02*
X152684819Y-70754762D01*
X152684819Y-70754762D02*
X152637200Y-70659524D01*
X152637200Y-70659524D02*
X152589580Y-70611905D01*
X152589580Y-70611905D02*
X152494342Y-70564286D01*
X152494342Y-70564286D02*
X152303866Y-70516667D01*
X152303866Y-70516667D02*
X152065771Y-70516667D01*
X152065771Y-70516667D02*
X151875295Y-70564286D01*
X151875295Y-70564286D02*
X151780057Y-70611905D01*
X151780057Y-70611905D02*
X151732438Y-70659524D01*
X151732438Y-70659524D02*
X151684819Y-70754762D01*
X150314819Y-69683333D02*
X149838628Y-69350000D01*
X150314819Y-69111905D02*
X149314819Y-69111905D01*
X149314819Y-69111905D02*
X149314819Y-69492857D01*
X149314819Y-69492857D02*
X149362438Y-69588095D01*
X149362438Y-69588095D02*
X149410057Y-69635714D01*
X149410057Y-69635714D02*
X149505295Y-69683333D01*
X149505295Y-69683333D02*
X149648152Y-69683333D01*
X149648152Y-69683333D02*
X149743390Y-69635714D01*
X149743390Y-69635714D02*
X149791009Y-69588095D01*
X149791009Y-69588095D02*
X149838628Y-69492857D01*
X149838628Y-69492857D02*
X149838628Y-69111905D01*
X149314819Y-70540476D02*
X149314819Y-70350000D01*
X149314819Y-70350000D02*
X149362438Y-70254762D01*
X149362438Y-70254762D02*
X149410057Y-70207143D01*
X149410057Y-70207143D02*
X149552914Y-70111905D01*
X149552914Y-70111905D02*
X149743390Y-70064286D01*
X149743390Y-70064286D02*
X150124342Y-70064286D01*
X150124342Y-70064286D02*
X150219580Y-70111905D01*
X150219580Y-70111905D02*
X150267200Y-70159524D01*
X150267200Y-70159524D02*
X150314819Y-70254762D01*
X150314819Y-70254762D02*
X150314819Y-70445238D01*
X150314819Y-70445238D02*
X150267200Y-70540476D01*
X150267200Y-70540476D02*
X150219580Y-70588095D01*
X150219580Y-70588095D02*
X150124342Y-70635714D01*
X150124342Y-70635714D02*
X149886247Y-70635714D01*
X149886247Y-70635714D02*
X149791009Y-70588095D01*
X149791009Y-70588095D02*
X149743390Y-70540476D01*
X149743390Y-70540476D02*
X149695771Y-70445238D01*
X149695771Y-70445238D02*
X149695771Y-70254762D01*
X149695771Y-70254762D02*
X149743390Y-70159524D01*
X149743390Y-70159524D02*
X149791009Y-70111905D01*
X149791009Y-70111905D02*
X149886247Y-70064286D01*
X182030476Y-121431009D02*
X181887619Y-121478628D01*
X181887619Y-121478628D02*
X181840000Y-121526247D01*
X181840000Y-121526247D02*
X181792381Y-121621485D01*
X181792381Y-121621485D02*
X181792381Y-121764342D01*
X181792381Y-121764342D02*
X181840000Y-121859580D01*
X181840000Y-121859580D02*
X181887619Y-121907200D01*
X181887619Y-121907200D02*
X181982857Y-121954819D01*
X181982857Y-121954819D02*
X182363809Y-121954819D01*
X182363809Y-121954819D02*
X182363809Y-120954819D01*
X182363809Y-120954819D02*
X182030476Y-120954819D01*
X182030476Y-120954819D02*
X181935238Y-121002438D01*
X181935238Y-121002438D02*
X181887619Y-121050057D01*
X181887619Y-121050057D02*
X181840000Y-121145295D01*
X181840000Y-121145295D02*
X181840000Y-121240533D01*
X181840000Y-121240533D02*
X181887619Y-121335771D01*
X181887619Y-121335771D02*
X181935238Y-121383390D01*
X181935238Y-121383390D02*
X182030476Y-121431009D01*
X182030476Y-121431009D02*
X182363809Y-121431009D01*
X181411428Y-121669104D02*
X180935238Y-121669104D01*
X181506666Y-121954819D02*
X181173333Y-120954819D01*
X181173333Y-120954819D02*
X180840000Y-121954819D01*
X180649523Y-120954819D02*
X180078095Y-120954819D01*
X180363809Y-121954819D02*
X180363809Y-120954819D01*
X179316190Y-121288152D02*
X179316190Y-121954819D01*
X179554285Y-120907200D02*
X179792380Y-121621485D01*
X179792380Y-121621485D02*
X179173333Y-121621485D01*
X178887618Y-120954819D02*
X178268571Y-120954819D01*
X178268571Y-120954819D02*
X178601904Y-121335771D01*
X178601904Y-121335771D02*
X178459047Y-121335771D01*
X178459047Y-121335771D02*
X178363809Y-121383390D01*
X178363809Y-121383390D02*
X178316190Y-121431009D01*
X178316190Y-121431009D02*
X178268571Y-121526247D01*
X178268571Y-121526247D02*
X178268571Y-121764342D01*
X178268571Y-121764342D02*
X178316190Y-121859580D01*
X178316190Y-121859580D02*
X178363809Y-121907200D01*
X178363809Y-121907200D02*
X178459047Y-121954819D01*
X178459047Y-121954819D02*
X178744761Y-121954819D01*
X178744761Y-121954819D02*
X178839999Y-121907200D01*
X178839999Y-121907200D02*
X178887618Y-121859580D01*
D11*
X181011428Y-119743855D02*
X181011428Y-118943855D01*
X181011428Y-118943855D02*
X180820952Y-118943855D01*
X180820952Y-118943855D02*
X180706666Y-118981950D01*
X180706666Y-118981950D02*
X180630476Y-119058140D01*
X180630476Y-119058140D02*
X180592381Y-119134331D01*
X180592381Y-119134331D02*
X180554285Y-119286712D01*
X180554285Y-119286712D02*
X180554285Y-119400998D01*
X180554285Y-119400998D02*
X180592381Y-119553379D01*
X180592381Y-119553379D02*
X180630476Y-119629569D01*
X180630476Y-119629569D02*
X180706666Y-119705760D01*
X180706666Y-119705760D02*
X180820952Y-119743855D01*
X180820952Y-119743855D02*
X181011428Y-119743855D01*
X179792381Y-119743855D02*
X180249524Y-119743855D01*
X180020952Y-119743855D02*
X180020952Y-118943855D01*
X180020952Y-118943855D02*
X180097143Y-119058140D01*
X180097143Y-119058140D02*
X180173333Y-119134331D01*
X180173333Y-119134331D02*
X180249524Y-119172426D01*
X179297142Y-118943855D02*
X179220952Y-118943855D01*
X179220952Y-118943855D02*
X179144761Y-118981950D01*
X179144761Y-118981950D02*
X179106666Y-119020045D01*
X179106666Y-119020045D02*
X179068571Y-119096236D01*
X179068571Y-119096236D02*
X179030476Y-119248617D01*
X179030476Y-119248617D02*
X179030476Y-119439093D01*
X179030476Y-119439093D02*
X179068571Y-119591474D01*
X179068571Y-119591474D02*
X179106666Y-119667664D01*
X179106666Y-119667664D02*
X179144761Y-119705760D01*
X179144761Y-119705760D02*
X179220952Y-119743855D01*
X179220952Y-119743855D02*
X179297142Y-119743855D01*
X179297142Y-119743855D02*
X179373333Y-119705760D01*
X179373333Y-119705760D02*
X179411428Y-119667664D01*
X179411428Y-119667664D02*
X179449523Y-119591474D01*
X179449523Y-119591474D02*
X179487619Y-119439093D01*
X179487619Y-119439093D02*
X179487619Y-119248617D01*
X179487619Y-119248617D02*
X179449523Y-119096236D01*
X179449523Y-119096236D02*
X179411428Y-119020045D01*
X179411428Y-119020045D02*
X179373333Y-118981950D01*
X179373333Y-118981950D02*
X179297142Y-118943855D01*
D10*
X184411904Y-118034819D02*
X184411904Y-117034819D01*
X183840476Y-118034819D02*
X184269047Y-117463390D01*
X183840476Y-117034819D02*
X184411904Y-117606247D01*
X144398152Y-123630176D02*
X145064819Y-123630176D01*
X144017200Y-123392081D02*
X144731485Y-123153986D01*
X144731485Y-123153986D02*
X144731485Y-123773033D01*
X144064819Y-124058748D02*
X144064819Y-124725414D01*
X144064819Y-124725414D02*
X145064819Y-124296843D01*
X144064819Y-125296843D02*
X144064819Y-125392081D01*
X144064819Y-125392081D02*
X144112438Y-125487319D01*
X144112438Y-125487319D02*
X144160057Y-125534938D01*
X144160057Y-125534938D02*
X144255295Y-125582557D01*
X144255295Y-125582557D02*
X144445771Y-125630176D01*
X144445771Y-125630176D02*
X144683866Y-125630176D01*
X144683866Y-125630176D02*
X144874342Y-125582557D01*
X144874342Y-125582557D02*
X144969580Y-125534938D01*
X144969580Y-125534938D02*
X145017200Y-125487319D01*
X145017200Y-125487319D02*
X145064819Y-125392081D01*
X145064819Y-125392081D02*
X145064819Y-125296843D01*
X145064819Y-125296843D02*
X145017200Y-125201605D01*
X145017200Y-125201605D02*
X144969580Y-125153986D01*
X144969580Y-125153986D02*
X144874342Y-125106367D01*
X144874342Y-125106367D02*
X144683866Y-125058748D01*
X144683866Y-125058748D02*
X144445771Y-125058748D01*
X144445771Y-125058748D02*
X144255295Y-125106367D01*
X144255295Y-125106367D02*
X144160057Y-125153986D01*
X144160057Y-125153986D02*
X144112438Y-125201605D01*
X144112438Y-125201605D02*
X144064819Y-125296843D01*
X142694819Y-124225414D02*
X142218628Y-123892081D01*
X142694819Y-123653986D02*
X141694819Y-123653986D01*
X141694819Y-123653986D02*
X141694819Y-124034938D01*
X141694819Y-124034938D02*
X141742438Y-124130176D01*
X141742438Y-124130176D02*
X141790057Y-124177795D01*
X141790057Y-124177795D02*
X141885295Y-124225414D01*
X141885295Y-124225414D02*
X142028152Y-124225414D01*
X142028152Y-124225414D02*
X142123390Y-124177795D01*
X142123390Y-124177795D02*
X142171009Y-124130176D01*
X142171009Y-124130176D02*
X142218628Y-124034938D01*
X142218628Y-124034938D02*
X142218628Y-123653986D01*
X141694819Y-124558748D02*
X141694819Y-125177795D01*
X141694819Y-125177795D02*
X142075771Y-124844462D01*
X142075771Y-124844462D02*
X142075771Y-124987319D01*
X142075771Y-124987319D02*
X142123390Y-125082557D01*
X142123390Y-125082557D02*
X142171009Y-125130176D01*
X142171009Y-125130176D02*
X142266247Y-125177795D01*
X142266247Y-125177795D02*
X142504342Y-125177795D01*
X142504342Y-125177795D02*
X142599580Y-125130176D01*
X142599580Y-125130176D02*
X142647200Y-125082557D01*
X142647200Y-125082557D02*
X142694819Y-124987319D01*
X142694819Y-124987319D02*
X142694819Y-124701605D01*
X142694819Y-124701605D02*
X142647200Y-124606367D01*
X142647200Y-124606367D02*
X142599580Y-124558748D01*
X147040057Y-80018095D02*
X146992438Y-80065714D01*
X146992438Y-80065714D02*
X146944819Y-80160952D01*
X146944819Y-80160952D02*
X146944819Y-80399047D01*
X146944819Y-80399047D02*
X146992438Y-80494285D01*
X146992438Y-80494285D02*
X147040057Y-80541904D01*
X147040057Y-80541904D02*
X147135295Y-80589523D01*
X147135295Y-80589523D02*
X147230533Y-80589523D01*
X147230533Y-80589523D02*
X147373390Y-80541904D01*
X147373390Y-80541904D02*
X147944819Y-79970476D01*
X147944819Y-79970476D02*
X147944819Y-80589523D01*
X147040057Y-80970476D02*
X146992438Y-81018095D01*
X146992438Y-81018095D02*
X146944819Y-81113333D01*
X146944819Y-81113333D02*
X146944819Y-81351428D01*
X146944819Y-81351428D02*
X146992438Y-81446666D01*
X146992438Y-81446666D02*
X147040057Y-81494285D01*
X147040057Y-81494285D02*
X147135295Y-81541904D01*
X147135295Y-81541904D02*
X147230533Y-81541904D01*
X147230533Y-81541904D02*
X147373390Y-81494285D01*
X147373390Y-81494285D02*
X147944819Y-80922857D01*
X147944819Y-80922857D02*
X147944819Y-81541904D01*
X147944819Y-81970476D02*
X146944819Y-81970476D01*
X147944819Y-82541904D02*
X147373390Y-82113333D01*
X146944819Y-82541904D02*
X147516247Y-81970476D01*
X150314819Y-81113333D02*
X149838628Y-80780000D01*
X150314819Y-80541905D02*
X149314819Y-80541905D01*
X149314819Y-80541905D02*
X149314819Y-80922857D01*
X149314819Y-80922857D02*
X149362438Y-81018095D01*
X149362438Y-81018095D02*
X149410057Y-81065714D01*
X149410057Y-81065714D02*
X149505295Y-81113333D01*
X149505295Y-81113333D02*
X149648152Y-81113333D01*
X149648152Y-81113333D02*
X149743390Y-81065714D01*
X149743390Y-81065714D02*
X149791009Y-81018095D01*
X149791009Y-81018095D02*
X149838628Y-80922857D01*
X149838628Y-80922857D02*
X149838628Y-80541905D01*
X149743390Y-81684762D02*
X149695771Y-81589524D01*
X149695771Y-81589524D02*
X149648152Y-81541905D01*
X149648152Y-81541905D02*
X149552914Y-81494286D01*
X149552914Y-81494286D02*
X149505295Y-81494286D01*
X149505295Y-81494286D02*
X149410057Y-81541905D01*
X149410057Y-81541905D02*
X149362438Y-81589524D01*
X149362438Y-81589524D02*
X149314819Y-81684762D01*
X149314819Y-81684762D02*
X149314819Y-81875238D01*
X149314819Y-81875238D02*
X149362438Y-81970476D01*
X149362438Y-81970476D02*
X149410057Y-82018095D01*
X149410057Y-82018095D02*
X149505295Y-82065714D01*
X149505295Y-82065714D02*
X149552914Y-82065714D01*
X149552914Y-82065714D02*
X149648152Y-82018095D01*
X149648152Y-82018095D02*
X149695771Y-81970476D01*
X149695771Y-81970476D02*
X149743390Y-81875238D01*
X149743390Y-81875238D02*
X149743390Y-81684762D01*
X149743390Y-81684762D02*
X149791009Y-81589524D01*
X149791009Y-81589524D02*
X149838628Y-81541905D01*
X149838628Y-81541905D02*
X149933866Y-81494286D01*
X149933866Y-81494286D02*
X150124342Y-81494286D01*
X150124342Y-81494286D02*
X150219580Y-81541905D01*
X150219580Y-81541905D02*
X150267200Y-81589524D01*
X150267200Y-81589524D02*
X150314819Y-81684762D01*
X150314819Y-81684762D02*
X150314819Y-81875238D01*
X150314819Y-81875238D02*
X150267200Y-81970476D01*
X150267200Y-81970476D02*
X150219580Y-82018095D01*
X150219580Y-82018095D02*
X150124342Y-82065714D01*
X150124342Y-82065714D02*
X149933866Y-82065714D01*
X149933866Y-82065714D02*
X149838628Y-82018095D01*
X149838628Y-82018095D02*
X149791009Y-81970476D01*
X149791009Y-81970476D02*
X149743390Y-81875238D01*
X182768570Y-97394819D02*
X182768570Y-96394819D01*
X182292380Y-97394819D02*
X182292380Y-96394819D01*
X182292380Y-96394819D02*
X181720952Y-97394819D01*
X181720952Y-97394819D02*
X181720952Y-96394819D01*
X180816190Y-96728152D02*
X180816190Y-97394819D01*
X181054285Y-96347200D02*
X181292380Y-97061485D01*
X181292380Y-97061485D02*
X180673333Y-97061485D01*
X179768571Y-97394819D02*
X180339999Y-97394819D01*
X180054285Y-97394819D02*
X180054285Y-96394819D01*
X180054285Y-96394819D02*
X180149523Y-96537676D01*
X180149523Y-96537676D02*
X180244761Y-96632914D01*
X180244761Y-96632914D02*
X180339999Y-96680533D01*
X178911428Y-96728152D02*
X178911428Y-97394819D01*
X179149523Y-96347200D02*
X179387618Y-97061485D01*
X179387618Y-97061485D02*
X178768571Y-97061485D01*
X178244761Y-96823390D02*
X178339999Y-96775771D01*
X178339999Y-96775771D02*
X178387618Y-96728152D01*
X178387618Y-96728152D02*
X178435237Y-96632914D01*
X178435237Y-96632914D02*
X178435237Y-96585295D01*
X178435237Y-96585295D02*
X178387618Y-96490057D01*
X178387618Y-96490057D02*
X178339999Y-96442438D01*
X178339999Y-96442438D02*
X178244761Y-96394819D01*
X178244761Y-96394819D02*
X178054285Y-96394819D01*
X178054285Y-96394819D02*
X177959047Y-96442438D01*
X177959047Y-96442438D02*
X177911428Y-96490057D01*
X177911428Y-96490057D02*
X177863809Y-96585295D01*
X177863809Y-96585295D02*
X177863809Y-96632914D01*
X177863809Y-96632914D02*
X177911428Y-96728152D01*
X177911428Y-96728152D02*
X177959047Y-96775771D01*
X177959047Y-96775771D02*
X178054285Y-96823390D01*
X178054285Y-96823390D02*
X178244761Y-96823390D01*
X178244761Y-96823390D02*
X178339999Y-96871009D01*
X178339999Y-96871009D02*
X178387618Y-96918628D01*
X178387618Y-96918628D02*
X178435237Y-97013866D01*
X178435237Y-97013866D02*
X178435237Y-97204342D01*
X178435237Y-97204342D02*
X178387618Y-97299580D01*
X178387618Y-97299580D02*
X178339999Y-97347200D01*
X178339999Y-97347200D02*
X178244761Y-97394819D01*
X178244761Y-97394819D02*
X178054285Y-97394819D01*
X178054285Y-97394819D02*
X177959047Y-97347200D01*
X177959047Y-97347200D02*
X177911428Y-97299580D01*
X177911428Y-97299580D02*
X177863809Y-97204342D01*
X177863809Y-97204342D02*
X177863809Y-97013866D01*
X177863809Y-97013866D02*
X177911428Y-96918628D01*
X177911428Y-96918628D02*
X177959047Y-96871009D01*
X177959047Y-96871009D02*
X178054285Y-96823390D01*
D11*
X181230475Y-99423855D02*
X181230475Y-98623855D01*
X181230475Y-98623855D02*
X181039999Y-98623855D01*
X181039999Y-98623855D02*
X180925713Y-98661950D01*
X180925713Y-98661950D02*
X180849523Y-98738140D01*
X180849523Y-98738140D02*
X180811428Y-98814331D01*
X180811428Y-98814331D02*
X180773332Y-98966712D01*
X180773332Y-98966712D02*
X180773332Y-99080998D01*
X180773332Y-99080998D02*
X180811428Y-99233379D01*
X180811428Y-99233379D02*
X180849523Y-99309569D01*
X180849523Y-99309569D02*
X180925713Y-99385760D01*
X180925713Y-99385760D02*
X181039999Y-99423855D01*
X181039999Y-99423855D02*
X181230475Y-99423855D01*
X180506666Y-98623855D02*
X179973332Y-98623855D01*
X179973332Y-98623855D02*
X180316190Y-99423855D01*
D10*
X176791904Y-101314819D02*
X176791904Y-100314819D01*
X176220476Y-101314819D02*
X176649047Y-100743390D01*
X176220476Y-100314819D02*
X176791904Y-100886247D01*
X147650057Y-82149524D02*
X147602438Y-82197143D01*
X147602438Y-82197143D02*
X147554819Y-82292381D01*
X147554819Y-82292381D02*
X147554819Y-82530476D01*
X147554819Y-82530476D02*
X147602438Y-82625714D01*
X147602438Y-82625714D02*
X147650057Y-82673333D01*
X147650057Y-82673333D02*
X147745295Y-82720952D01*
X147745295Y-82720952D02*
X147840533Y-82720952D01*
X147840533Y-82720952D02*
X147983390Y-82673333D01*
X147983390Y-82673333D02*
X148554819Y-82101905D01*
X148554819Y-82101905D02*
X148554819Y-82720952D01*
X147650057Y-83101905D02*
X147602438Y-83149524D01*
X147602438Y-83149524D02*
X147554819Y-83244762D01*
X147554819Y-83244762D02*
X147554819Y-83482857D01*
X147554819Y-83482857D02*
X147602438Y-83578095D01*
X147602438Y-83578095D02*
X147650057Y-83625714D01*
X147650057Y-83625714D02*
X147745295Y-83673333D01*
X147745295Y-83673333D02*
X147840533Y-83673333D01*
X147840533Y-83673333D02*
X147983390Y-83625714D01*
X147983390Y-83625714D02*
X148554819Y-83054286D01*
X148554819Y-83054286D02*
X148554819Y-83673333D01*
X147554819Y-84292381D02*
X147554819Y-84387619D01*
X147554819Y-84387619D02*
X147602438Y-84482857D01*
X147602438Y-84482857D02*
X147650057Y-84530476D01*
X147650057Y-84530476D02*
X147745295Y-84578095D01*
X147745295Y-84578095D02*
X147935771Y-84625714D01*
X147935771Y-84625714D02*
X148173866Y-84625714D01*
X148173866Y-84625714D02*
X148364342Y-84578095D01*
X148364342Y-84578095D02*
X148459580Y-84530476D01*
X148459580Y-84530476D02*
X148507200Y-84482857D01*
X148507200Y-84482857D02*
X148554819Y-84387619D01*
X148554819Y-84387619D02*
X148554819Y-84292381D01*
X148554819Y-84292381D02*
X148507200Y-84197143D01*
X148507200Y-84197143D02*
X148459580Y-84149524D01*
X148459580Y-84149524D02*
X148364342Y-84101905D01*
X148364342Y-84101905D02*
X148173866Y-84054286D01*
X148173866Y-84054286D02*
X147935771Y-84054286D01*
X147935771Y-84054286D02*
X147745295Y-84101905D01*
X147745295Y-84101905D02*
X147650057Y-84149524D01*
X147650057Y-84149524D02*
X147602438Y-84197143D01*
X147602438Y-84197143D02*
X147554819Y-84292381D01*
X147888152Y-85054286D02*
X148888152Y-85054286D01*
X147935771Y-85054286D02*
X147888152Y-85149524D01*
X147888152Y-85149524D02*
X147888152Y-85340000D01*
X147888152Y-85340000D02*
X147935771Y-85435238D01*
X147935771Y-85435238D02*
X147983390Y-85482857D01*
X147983390Y-85482857D02*
X148078628Y-85530476D01*
X148078628Y-85530476D02*
X148364342Y-85530476D01*
X148364342Y-85530476D02*
X148459580Y-85482857D01*
X148459580Y-85482857D02*
X148507200Y-85435238D01*
X148507200Y-85435238D02*
X148554819Y-85340000D01*
X148554819Y-85340000D02*
X148554819Y-85149524D01*
X148554819Y-85149524D02*
X148507200Y-85054286D01*
D12*
X146265748Y-83740000D02*
X146294320Y-83711428D01*
X146294320Y-83711428D02*
X146322891Y-83625714D01*
X146322891Y-83625714D02*
X146322891Y-83568571D01*
X146322891Y-83568571D02*
X146294320Y-83482857D01*
X146294320Y-83482857D02*
X146237177Y-83425714D01*
X146237177Y-83425714D02*
X146180034Y-83397143D01*
X146180034Y-83397143D02*
X146065748Y-83368571D01*
X146065748Y-83368571D02*
X145980034Y-83368571D01*
X145980034Y-83368571D02*
X145865748Y-83397143D01*
X145865748Y-83397143D02*
X145808605Y-83425714D01*
X145808605Y-83425714D02*
X145751462Y-83482857D01*
X145751462Y-83482857D02*
X145722891Y-83568571D01*
X145722891Y-83568571D02*
X145722891Y-83625714D01*
X145722891Y-83625714D02*
X145751462Y-83711428D01*
X145751462Y-83711428D02*
X145780034Y-83740000D01*
X145780034Y-83968571D02*
X145751462Y-83997143D01*
X145751462Y-83997143D02*
X145722891Y-84054286D01*
X145722891Y-84054286D02*
X145722891Y-84197143D01*
X145722891Y-84197143D02*
X145751462Y-84254286D01*
X145751462Y-84254286D02*
X145780034Y-84282857D01*
X145780034Y-84282857D02*
X145837177Y-84311428D01*
X145837177Y-84311428D02*
X145894320Y-84311428D01*
X145894320Y-84311428D02*
X145980034Y-84282857D01*
X145980034Y-84282857D02*
X146322891Y-83940000D01*
X146322891Y-83940000D02*
X146322891Y-84311428D01*
D10*
X144160057Y-112970176D02*
X144112438Y-113017795D01*
X144112438Y-113017795D02*
X144064819Y-113113033D01*
X144064819Y-113113033D02*
X144064819Y-113351128D01*
X144064819Y-113351128D02*
X144112438Y-113446366D01*
X144112438Y-113446366D02*
X144160057Y-113493985D01*
X144160057Y-113493985D02*
X144255295Y-113541604D01*
X144255295Y-113541604D02*
X144350533Y-113541604D01*
X144350533Y-113541604D02*
X144493390Y-113493985D01*
X144493390Y-113493985D02*
X145064819Y-112922557D01*
X145064819Y-112922557D02*
X145064819Y-113541604D01*
X144160057Y-113922557D02*
X144112438Y-113970176D01*
X144112438Y-113970176D02*
X144064819Y-114065414D01*
X144064819Y-114065414D02*
X144064819Y-114303509D01*
X144064819Y-114303509D02*
X144112438Y-114398747D01*
X144112438Y-114398747D02*
X144160057Y-114446366D01*
X144160057Y-114446366D02*
X144255295Y-114493985D01*
X144255295Y-114493985D02*
X144350533Y-114493985D01*
X144350533Y-114493985D02*
X144493390Y-114446366D01*
X144493390Y-114446366D02*
X145064819Y-113874938D01*
X145064819Y-113874938D02*
X145064819Y-114493985D01*
X145064819Y-114922557D02*
X144064819Y-114922557D01*
X145064819Y-115493985D02*
X144493390Y-115065414D01*
X144064819Y-115493985D02*
X144636247Y-114922557D01*
X142694819Y-114065414D02*
X142218628Y-113732081D01*
X142694819Y-113493986D02*
X141694819Y-113493986D01*
X141694819Y-113493986D02*
X141694819Y-113874938D01*
X141694819Y-113874938D02*
X141742438Y-113970176D01*
X141742438Y-113970176D02*
X141790057Y-114017795D01*
X141790057Y-114017795D02*
X141885295Y-114065414D01*
X141885295Y-114065414D02*
X142028152Y-114065414D01*
X142028152Y-114065414D02*
X142123390Y-114017795D01*
X142123390Y-114017795D02*
X142171009Y-113970176D01*
X142171009Y-113970176D02*
X142218628Y-113874938D01*
X142218628Y-113874938D02*
X142218628Y-113493986D01*
X141790057Y-114446367D02*
X141742438Y-114493986D01*
X141742438Y-114493986D02*
X141694819Y-114589224D01*
X141694819Y-114589224D02*
X141694819Y-114827319D01*
X141694819Y-114827319D02*
X141742438Y-114922557D01*
X141742438Y-114922557D02*
X141790057Y-114970176D01*
X141790057Y-114970176D02*
X141885295Y-115017795D01*
X141885295Y-115017795D02*
X141980533Y-115017795D01*
X141980533Y-115017795D02*
X142123390Y-114970176D01*
X142123390Y-114970176D02*
X142694819Y-114398748D01*
X142694819Y-114398748D02*
X142694819Y-115017795D01*
X143840057Y-55479524D02*
X143792438Y-55527143D01*
X143792438Y-55527143D02*
X143744819Y-55622381D01*
X143744819Y-55622381D02*
X143744819Y-55860476D01*
X143744819Y-55860476D02*
X143792438Y-55955714D01*
X143792438Y-55955714D02*
X143840057Y-56003333D01*
X143840057Y-56003333D02*
X143935295Y-56050952D01*
X143935295Y-56050952D02*
X144030533Y-56050952D01*
X144030533Y-56050952D02*
X144173390Y-56003333D01*
X144173390Y-56003333D02*
X144744819Y-55431905D01*
X144744819Y-55431905D02*
X144744819Y-56050952D01*
X143840057Y-56431905D02*
X143792438Y-56479524D01*
X143792438Y-56479524D02*
X143744819Y-56574762D01*
X143744819Y-56574762D02*
X143744819Y-56812857D01*
X143744819Y-56812857D02*
X143792438Y-56908095D01*
X143792438Y-56908095D02*
X143840057Y-56955714D01*
X143840057Y-56955714D02*
X143935295Y-57003333D01*
X143935295Y-57003333D02*
X144030533Y-57003333D01*
X144030533Y-57003333D02*
X144173390Y-56955714D01*
X144173390Y-56955714D02*
X144744819Y-56384286D01*
X144744819Y-56384286D02*
X144744819Y-57003333D01*
X143744819Y-57622381D02*
X143744819Y-57717619D01*
X143744819Y-57717619D02*
X143792438Y-57812857D01*
X143792438Y-57812857D02*
X143840057Y-57860476D01*
X143840057Y-57860476D02*
X143935295Y-57908095D01*
X143935295Y-57908095D02*
X144125771Y-57955714D01*
X144125771Y-57955714D02*
X144363866Y-57955714D01*
X144363866Y-57955714D02*
X144554342Y-57908095D01*
X144554342Y-57908095D02*
X144649580Y-57860476D01*
X144649580Y-57860476D02*
X144697200Y-57812857D01*
X144697200Y-57812857D02*
X144744819Y-57717619D01*
X144744819Y-57717619D02*
X144744819Y-57622381D01*
X144744819Y-57622381D02*
X144697200Y-57527143D01*
X144697200Y-57527143D02*
X144649580Y-57479524D01*
X144649580Y-57479524D02*
X144554342Y-57431905D01*
X144554342Y-57431905D02*
X144363866Y-57384286D01*
X144363866Y-57384286D02*
X144125771Y-57384286D01*
X144125771Y-57384286D02*
X143935295Y-57431905D01*
X143935295Y-57431905D02*
X143840057Y-57479524D01*
X143840057Y-57479524D02*
X143792438Y-57527143D01*
X143792438Y-57527143D02*
X143744819Y-57622381D01*
X144078152Y-58384286D02*
X145078152Y-58384286D01*
X144125771Y-58384286D02*
X144078152Y-58479524D01*
X144078152Y-58479524D02*
X144078152Y-58670000D01*
X144078152Y-58670000D02*
X144125771Y-58765238D01*
X144125771Y-58765238D02*
X144173390Y-58812857D01*
X144173390Y-58812857D02*
X144268628Y-58860476D01*
X144268628Y-58860476D02*
X144554342Y-58860476D01*
X144554342Y-58860476D02*
X144649580Y-58812857D01*
X144649580Y-58812857D02*
X144697200Y-58765238D01*
X144697200Y-58765238D02*
X144744819Y-58670000D01*
X144744819Y-58670000D02*
X144744819Y-58479524D01*
X144744819Y-58479524D02*
X144697200Y-58384286D01*
D12*
X142455748Y-57070000D02*
X142484320Y-57041428D01*
X142484320Y-57041428D02*
X142512891Y-56955714D01*
X142512891Y-56955714D02*
X142512891Y-56898571D01*
X142512891Y-56898571D02*
X142484320Y-56812857D01*
X142484320Y-56812857D02*
X142427177Y-56755714D01*
X142427177Y-56755714D02*
X142370034Y-56727143D01*
X142370034Y-56727143D02*
X142255748Y-56698571D01*
X142255748Y-56698571D02*
X142170034Y-56698571D01*
X142170034Y-56698571D02*
X142055748Y-56727143D01*
X142055748Y-56727143D02*
X141998605Y-56755714D01*
X141998605Y-56755714D02*
X141941462Y-56812857D01*
X141941462Y-56812857D02*
X141912891Y-56898571D01*
X141912891Y-56898571D02*
X141912891Y-56955714D01*
X141912891Y-56955714D02*
X141941462Y-57041428D01*
X141941462Y-57041428D02*
X141970034Y-57070000D01*
X142512891Y-57641428D02*
X142512891Y-57298571D01*
X142512891Y-57470000D02*
X141912891Y-57470000D01*
X141912891Y-57470000D02*
X141998605Y-57412857D01*
X141998605Y-57412857D02*
X142055748Y-57355714D01*
X142055748Y-57355714D02*
X142084320Y-57298571D01*
D10*
X140051009Y-132861604D02*
X140098628Y-133004461D01*
X140098628Y-133004461D02*
X140146247Y-133052080D01*
X140146247Y-133052080D02*
X140241485Y-133099699D01*
X140241485Y-133099699D02*
X140384342Y-133099699D01*
X140384342Y-133099699D02*
X140479580Y-133052080D01*
X140479580Y-133052080D02*
X140527200Y-133004461D01*
X140527200Y-133004461D02*
X140574819Y-132909223D01*
X140574819Y-132909223D02*
X140574819Y-132528271D01*
X140574819Y-132528271D02*
X139574819Y-132528271D01*
X139574819Y-132528271D02*
X139574819Y-132861604D01*
X139574819Y-132861604D02*
X139622438Y-132956842D01*
X139622438Y-132956842D02*
X139670057Y-133004461D01*
X139670057Y-133004461D02*
X139765295Y-133052080D01*
X139765295Y-133052080D02*
X139860533Y-133052080D01*
X139860533Y-133052080D02*
X139955771Y-133004461D01*
X139955771Y-133004461D02*
X140003390Y-132956842D01*
X140003390Y-132956842D02*
X140051009Y-132861604D01*
X140051009Y-132861604D02*
X140051009Y-132528271D01*
X140289104Y-133480652D02*
X140289104Y-133956842D01*
X140574819Y-133385414D02*
X139574819Y-133718747D01*
X139574819Y-133718747D02*
X140574819Y-134052080D01*
X139574819Y-134242557D02*
X139574819Y-134813985D01*
X140574819Y-134528271D02*
X139574819Y-134528271D01*
X139908152Y-135575890D02*
X140574819Y-135575890D01*
X139527200Y-135337795D02*
X140241485Y-135099700D01*
X140241485Y-135099700D02*
X140241485Y-135718747D01*
X139574819Y-136004462D02*
X139574819Y-136623509D01*
X139574819Y-136623509D02*
X139955771Y-136290176D01*
X139955771Y-136290176D02*
X139955771Y-136433033D01*
X139955771Y-136433033D02*
X140003390Y-136528271D01*
X140003390Y-136528271D02*
X140051009Y-136575890D01*
X140051009Y-136575890D02*
X140146247Y-136623509D01*
X140146247Y-136623509D02*
X140384342Y-136623509D01*
X140384342Y-136623509D02*
X140479580Y-136575890D01*
X140479580Y-136575890D02*
X140527200Y-136528271D01*
X140527200Y-136528271D02*
X140574819Y-136433033D01*
X140574819Y-136433033D02*
X140574819Y-136147319D01*
X140574819Y-136147319D02*
X140527200Y-136052081D01*
X140527200Y-136052081D02*
X140479580Y-136004462D01*
D11*
X142603855Y-133280652D02*
X141803855Y-133280652D01*
X141803855Y-133280652D02*
X141803855Y-133471128D01*
X141803855Y-133471128D02*
X141841950Y-133585414D01*
X141841950Y-133585414D02*
X141918140Y-133661604D01*
X141918140Y-133661604D02*
X141994331Y-133699699D01*
X141994331Y-133699699D02*
X142146712Y-133737795D01*
X142146712Y-133737795D02*
X142260998Y-133737795D01*
X142260998Y-133737795D02*
X142413379Y-133699699D01*
X142413379Y-133699699D02*
X142489569Y-133661604D01*
X142489569Y-133661604D02*
X142565760Y-133585414D01*
X142565760Y-133585414D02*
X142603855Y-133471128D01*
X142603855Y-133471128D02*
X142603855Y-133280652D01*
X142603855Y-134499699D02*
X142603855Y-134042556D01*
X142603855Y-134271128D02*
X141803855Y-134271128D01*
X141803855Y-134271128D02*
X141918140Y-134194937D01*
X141918140Y-134194937D02*
X141994331Y-134118747D01*
X141994331Y-134118747D02*
X142032426Y-134042556D01*
X141880045Y-134804461D02*
X141841950Y-134842557D01*
X141841950Y-134842557D02*
X141803855Y-134918747D01*
X141803855Y-134918747D02*
X141803855Y-135109223D01*
X141803855Y-135109223D02*
X141841950Y-135185414D01*
X141841950Y-135185414D02*
X141880045Y-135223509D01*
X141880045Y-135223509D02*
X141956236Y-135261604D01*
X141956236Y-135261604D02*
X142032426Y-135261604D01*
X142032426Y-135261604D02*
X142146712Y-135223509D01*
X142146712Y-135223509D02*
X142603855Y-134766366D01*
X142603855Y-134766366D02*
X142603855Y-135261604D01*
D10*
X144494819Y-138100176D02*
X143494819Y-138100176D01*
X144494819Y-138671604D02*
X143923390Y-138243033D01*
X143494819Y-138671604D02*
X144066247Y-138100176D01*
X182030476Y-91791009D02*
X181887619Y-91838628D01*
X181887619Y-91838628D02*
X181840000Y-91886247D01*
X181840000Y-91886247D02*
X181792381Y-91981485D01*
X181792381Y-91981485D02*
X181792381Y-92124342D01*
X181792381Y-92124342D02*
X181840000Y-92219580D01*
X181840000Y-92219580D02*
X181887619Y-92267200D01*
X181887619Y-92267200D02*
X181982857Y-92314819D01*
X181982857Y-92314819D02*
X182363809Y-92314819D01*
X182363809Y-92314819D02*
X182363809Y-91314819D01*
X182363809Y-91314819D02*
X182030476Y-91314819D01*
X182030476Y-91314819D02*
X181935238Y-91362438D01*
X181935238Y-91362438D02*
X181887619Y-91410057D01*
X181887619Y-91410057D02*
X181840000Y-91505295D01*
X181840000Y-91505295D02*
X181840000Y-91600533D01*
X181840000Y-91600533D02*
X181887619Y-91695771D01*
X181887619Y-91695771D02*
X181935238Y-91743390D01*
X181935238Y-91743390D02*
X182030476Y-91791009D01*
X182030476Y-91791009D02*
X182363809Y-91791009D01*
X181411428Y-92029104D02*
X180935238Y-92029104D01*
X181506666Y-92314819D02*
X181173333Y-91314819D01*
X181173333Y-91314819D02*
X180840000Y-92314819D01*
X180649523Y-91314819D02*
X180078095Y-91314819D01*
X180363809Y-92314819D02*
X180363809Y-91314819D01*
X179316190Y-91648152D02*
X179316190Y-92314819D01*
X179554285Y-91267200D02*
X179792380Y-91981485D01*
X179792380Y-91981485D02*
X179173333Y-91981485D01*
X178887618Y-91314819D02*
X178268571Y-91314819D01*
X178268571Y-91314819D02*
X178601904Y-91695771D01*
X178601904Y-91695771D02*
X178459047Y-91695771D01*
X178459047Y-91695771D02*
X178363809Y-91743390D01*
X178363809Y-91743390D02*
X178316190Y-91791009D01*
X178316190Y-91791009D02*
X178268571Y-91886247D01*
X178268571Y-91886247D02*
X178268571Y-92124342D01*
X178268571Y-92124342D02*
X178316190Y-92219580D01*
X178316190Y-92219580D02*
X178363809Y-92267200D01*
X178363809Y-92267200D02*
X178459047Y-92314819D01*
X178459047Y-92314819D02*
X178744761Y-92314819D01*
X178744761Y-92314819D02*
X178839999Y-92267200D01*
X178839999Y-92267200D02*
X178887618Y-92219580D01*
D11*
X181230475Y-94343855D02*
X181230475Y-93543855D01*
X181230475Y-93543855D02*
X181039999Y-93543855D01*
X181039999Y-93543855D02*
X180925713Y-93581950D01*
X180925713Y-93581950D02*
X180849523Y-93658140D01*
X180849523Y-93658140D02*
X180811428Y-93734331D01*
X180811428Y-93734331D02*
X180773332Y-93886712D01*
X180773332Y-93886712D02*
X180773332Y-94000998D01*
X180773332Y-94000998D02*
X180811428Y-94153379D01*
X180811428Y-94153379D02*
X180849523Y-94229569D01*
X180849523Y-94229569D02*
X180925713Y-94305760D01*
X180925713Y-94305760D02*
X181039999Y-94343855D01*
X181039999Y-94343855D02*
X181230475Y-94343855D01*
X180049523Y-93543855D02*
X180430475Y-93543855D01*
X180430475Y-93543855D02*
X180468571Y-93924807D01*
X180468571Y-93924807D02*
X180430475Y-93886712D01*
X180430475Y-93886712D02*
X180354285Y-93848617D01*
X180354285Y-93848617D02*
X180163809Y-93848617D01*
X180163809Y-93848617D02*
X180087618Y-93886712D01*
X180087618Y-93886712D02*
X180049523Y-93924807D01*
X180049523Y-93924807D02*
X180011428Y-94000998D01*
X180011428Y-94000998D02*
X180011428Y-94191474D01*
X180011428Y-94191474D02*
X180049523Y-94267664D01*
X180049523Y-94267664D02*
X180087618Y-94305760D01*
X180087618Y-94305760D02*
X180163809Y-94343855D01*
X180163809Y-94343855D02*
X180354285Y-94343855D01*
X180354285Y-94343855D02*
X180430475Y-94305760D01*
X180430475Y-94305760D02*
X180468571Y-94267664D01*
D10*
X176791904Y-96234819D02*
X176791904Y-95234819D01*
X176220476Y-96234819D02*
X176649047Y-95663390D01*
X176220476Y-95234819D02*
X176791904Y-95806247D01*
X137151904Y-142822138D02*
X137104285Y-142774519D01*
X137104285Y-142774519D02*
X137009047Y-142726900D01*
X137009047Y-142726900D02*
X136770952Y-142726900D01*
X136770952Y-142726900D02*
X136675714Y-142774519D01*
X136675714Y-142774519D02*
X136628095Y-142822138D01*
X136628095Y-142822138D02*
X136580476Y-142917376D01*
X136580476Y-142917376D02*
X136580476Y-143012614D01*
X136580476Y-143012614D02*
X136628095Y-143155471D01*
X136628095Y-143155471D02*
X137199523Y-143726900D01*
X137199523Y-143726900D02*
X136580476Y-143726900D01*
X136199523Y-142822138D02*
X136151904Y-142774519D01*
X136151904Y-142774519D02*
X136056666Y-142726900D01*
X136056666Y-142726900D02*
X135818571Y-142726900D01*
X135818571Y-142726900D02*
X135723333Y-142774519D01*
X135723333Y-142774519D02*
X135675714Y-142822138D01*
X135675714Y-142822138D02*
X135628095Y-142917376D01*
X135628095Y-142917376D02*
X135628095Y-143012614D01*
X135628095Y-143012614D02*
X135675714Y-143155471D01*
X135675714Y-143155471D02*
X136247142Y-143726900D01*
X136247142Y-143726900D02*
X135628095Y-143726900D01*
X135199523Y-143726900D02*
X135199523Y-142726900D01*
X134628095Y-143726900D02*
X135056666Y-143155471D01*
X134628095Y-142726900D02*
X135199523Y-143298328D01*
X136056666Y-141356900D02*
X136389999Y-140880709D01*
X136628094Y-141356900D02*
X136628094Y-140356900D01*
X136628094Y-140356900D02*
X136247142Y-140356900D01*
X136247142Y-140356900D02*
X136151904Y-140404519D01*
X136151904Y-140404519D02*
X136104285Y-140452138D01*
X136104285Y-140452138D02*
X136056666Y-140547376D01*
X136056666Y-140547376D02*
X136056666Y-140690233D01*
X136056666Y-140690233D02*
X136104285Y-140785471D01*
X136104285Y-140785471D02*
X136151904Y-140833090D01*
X136151904Y-140833090D02*
X136247142Y-140880709D01*
X136247142Y-140880709D02*
X136628094Y-140880709D01*
X135151904Y-140356900D02*
X135628094Y-140356900D01*
X135628094Y-140356900D02*
X135675713Y-140833090D01*
X135675713Y-140833090D02*
X135628094Y-140785471D01*
X135628094Y-140785471D02*
X135532856Y-140737852D01*
X135532856Y-140737852D02*
X135294761Y-140737852D01*
X135294761Y-140737852D02*
X135199523Y-140785471D01*
X135199523Y-140785471D02*
X135151904Y-140833090D01*
X135151904Y-140833090D02*
X135104285Y-140928328D01*
X135104285Y-140928328D02*
X135104285Y-141166423D01*
X135104285Y-141166423D02*
X135151904Y-141261661D01*
X135151904Y-141261661D02*
X135199523Y-141309281D01*
X135199523Y-141309281D02*
X135294761Y-141356900D01*
X135294761Y-141356900D02*
X135532856Y-141356900D01*
X135532856Y-141356900D02*
X135628094Y-141309281D01*
X135628094Y-141309281D02*
X135675713Y-141261661D01*
X181601904Y-121640057D02*
X181554285Y-121592438D01*
X181554285Y-121592438D02*
X181459047Y-121544819D01*
X181459047Y-121544819D02*
X181220952Y-121544819D01*
X181220952Y-121544819D02*
X181125714Y-121592438D01*
X181125714Y-121592438D02*
X181078095Y-121640057D01*
X181078095Y-121640057D02*
X181030476Y-121735295D01*
X181030476Y-121735295D02*
X181030476Y-121830533D01*
X181030476Y-121830533D02*
X181078095Y-121973390D01*
X181078095Y-121973390D02*
X181649523Y-122544819D01*
X181649523Y-122544819D02*
X181030476Y-122544819D01*
X180649523Y-121640057D02*
X180601904Y-121592438D01*
X180601904Y-121592438D02*
X180506666Y-121544819D01*
X180506666Y-121544819D02*
X180268571Y-121544819D01*
X180268571Y-121544819D02*
X180173333Y-121592438D01*
X180173333Y-121592438D02*
X180125714Y-121640057D01*
X180125714Y-121640057D02*
X180078095Y-121735295D01*
X180078095Y-121735295D02*
X180078095Y-121830533D01*
X180078095Y-121830533D02*
X180125714Y-121973390D01*
X180125714Y-121973390D02*
X180697142Y-122544819D01*
X180697142Y-122544819D02*
X180078095Y-122544819D01*
X179649523Y-122544819D02*
X179649523Y-121544819D01*
X179078095Y-122544819D02*
X179506666Y-121973390D01*
X179078095Y-121544819D02*
X179649523Y-122116247D01*
X180982857Y-124914819D02*
X181316190Y-124438628D01*
X181554285Y-124914819D02*
X181554285Y-123914819D01*
X181554285Y-123914819D02*
X181173333Y-123914819D01*
X181173333Y-123914819D02*
X181078095Y-123962438D01*
X181078095Y-123962438D02*
X181030476Y-124010057D01*
X181030476Y-124010057D02*
X180982857Y-124105295D01*
X180982857Y-124105295D02*
X180982857Y-124248152D01*
X180982857Y-124248152D02*
X181030476Y-124343390D01*
X181030476Y-124343390D02*
X181078095Y-124391009D01*
X181078095Y-124391009D02*
X181173333Y-124438628D01*
X181173333Y-124438628D02*
X181554285Y-124438628D01*
X180030476Y-124914819D02*
X180601904Y-124914819D01*
X180316190Y-124914819D02*
X180316190Y-123914819D01*
X180316190Y-123914819D02*
X180411428Y-124057676D01*
X180411428Y-124057676D02*
X180506666Y-124152914D01*
X180506666Y-124152914D02*
X180601904Y-124200533D01*
X179411428Y-123914819D02*
X179316190Y-123914819D01*
X179316190Y-123914819D02*
X179220952Y-123962438D01*
X179220952Y-123962438D02*
X179173333Y-124010057D01*
X179173333Y-124010057D02*
X179125714Y-124105295D01*
X179125714Y-124105295D02*
X179078095Y-124295771D01*
X179078095Y-124295771D02*
X179078095Y-124533866D01*
X179078095Y-124533866D02*
X179125714Y-124724342D01*
X179125714Y-124724342D02*
X179173333Y-124819580D01*
X179173333Y-124819580D02*
X179220952Y-124867200D01*
X179220952Y-124867200D02*
X179316190Y-124914819D01*
X179316190Y-124914819D02*
X179411428Y-124914819D01*
X179411428Y-124914819D02*
X179506666Y-124867200D01*
X179506666Y-124867200D02*
X179554285Y-124819580D01*
X179554285Y-124819580D02*
X179601904Y-124724342D01*
X179601904Y-124724342D02*
X179649523Y-124533866D01*
X179649523Y-124533866D02*
X179649523Y-124295771D01*
X179649523Y-124295771D02*
X179601904Y-124105295D01*
X179601904Y-124105295D02*
X179554285Y-124010057D01*
X179554285Y-124010057D02*
X179506666Y-123962438D01*
X179506666Y-123962438D02*
X179411428Y-123914819D01*
X191451009Y-132977619D02*
X191451009Y-133310952D01*
X191974819Y-133453809D02*
X191974819Y-132977619D01*
X191974819Y-132977619D02*
X190974819Y-132977619D01*
X190974819Y-132977619D02*
X190974819Y-133453809D01*
X190974819Y-133882381D02*
X191784342Y-133882381D01*
X191784342Y-133882381D02*
X191879580Y-133930000D01*
X191879580Y-133930000D02*
X191927200Y-133977619D01*
X191927200Y-133977619D02*
X191974819Y-134072857D01*
X191974819Y-134072857D02*
X191974819Y-134263333D01*
X191974819Y-134263333D02*
X191927200Y-134358571D01*
X191927200Y-134358571D02*
X191879580Y-134406190D01*
X191879580Y-134406190D02*
X191784342Y-134453809D01*
X191784342Y-134453809D02*
X190974819Y-134453809D01*
X191974819Y-135501428D02*
X191498628Y-135168095D01*
X191974819Y-134930000D02*
X190974819Y-134930000D01*
X190974819Y-134930000D02*
X190974819Y-135310952D01*
X190974819Y-135310952D02*
X191022438Y-135406190D01*
X191022438Y-135406190D02*
X191070057Y-135453809D01*
X191070057Y-135453809D02*
X191165295Y-135501428D01*
X191165295Y-135501428D02*
X191308152Y-135501428D01*
X191308152Y-135501428D02*
X191403390Y-135453809D01*
X191403390Y-135453809D02*
X191451009Y-135406190D01*
X191451009Y-135406190D02*
X191498628Y-135310952D01*
X191498628Y-135310952D02*
X191498628Y-134930000D01*
X190974819Y-136120476D02*
X190974819Y-136310952D01*
X190974819Y-136310952D02*
X191022438Y-136406190D01*
X191022438Y-136406190D02*
X191117676Y-136501428D01*
X191117676Y-136501428D02*
X191308152Y-136549047D01*
X191308152Y-136549047D02*
X191641485Y-136549047D01*
X191641485Y-136549047D02*
X191831961Y-136501428D01*
X191831961Y-136501428D02*
X191927200Y-136406190D01*
X191927200Y-136406190D02*
X191974819Y-136310952D01*
X191974819Y-136310952D02*
X191974819Y-136120476D01*
X191974819Y-136120476D02*
X191927200Y-136025238D01*
X191927200Y-136025238D02*
X191831961Y-135930000D01*
X191831961Y-135930000D02*
X191641485Y-135882381D01*
X191641485Y-135882381D02*
X191308152Y-135882381D01*
X191308152Y-135882381D02*
X191117676Y-135930000D01*
X191117676Y-135930000D02*
X191022438Y-136025238D01*
X191022438Y-136025238D02*
X190974819Y-136120476D01*
X192070057Y-136739524D02*
X192070057Y-137501428D01*
X191974819Y-137739524D02*
X190974819Y-137739524D01*
X190974819Y-137739524D02*
X190974819Y-138120476D01*
X190974819Y-138120476D02*
X191022438Y-138215714D01*
X191022438Y-138215714D02*
X191070057Y-138263333D01*
X191070057Y-138263333D02*
X191165295Y-138310952D01*
X191165295Y-138310952D02*
X191308152Y-138310952D01*
X191308152Y-138310952D02*
X191403390Y-138263333D01*
X191403390Y-138263333D02*
X191451009Y-138215714D01*
X191451009Y-138215714D02*
X191498628Y-138120476D01*
X191498628Y-138120476D02*
X191498628Y-137739524D01*
X190974819Y-138644286D02*
X191974819Y-138882381D01*
X191974819Y-138882381D02*
X191260533Y-139072857D01*
X191260533Y-139072857D02*
X191974819Y-139263333D01*
X191974819Y-139263333D02*
X190974819Y-139501429D01*
X191974819Y-140453809D02*
X191498628Y-140120476D01*
X191974819Y-139882381D02*
X190974819Y-139882381D01*
X190974819Y-139882381D02*
X190974819Y-140263333D01*
X190974819Y-140263333D02*
X191022438Y-140358571D01*
X191022438Y-140358571D02*
X191070057Y-140406190D01*
X191070057Y-140406190D02*
X191165295Y-140453809D01*
X191165295Y-140453809D02*
X191308152Y-140453809D01*
X191308152Y-140453809D02*
X191403390Y-140406190D01*
X191403390Y-140406190D02*
X191451009Y-140358571D01*
X191451009Y-140358571D02*
X191498628Y-140263333D01*
X191498628Y-140263333D02*
X191498628Y-139882381D01*
X192070057Y-140644286D02*
X192070057Y-141406190D01*
X191070057Y-141596667D02*
X191022438Y-141644286D01*
X191022438Y-141644286D02*
X190974819Y-141739524D01*
X190974819Y-141739524D02*
X190974819Y-141977619D01*
X190974819Y-141977619D02*
X191022438Y-142072857D01*
X191022438Y-142072857D02*
X191070057Y-142120476D01*
X191070057Y-142120476D02*
X191165295Y-142168095D01*
X191165295Y-142168095D02*
X191260533Y-142168095D01*
X191260533Y-142168095D02*
X191403390Y-142120476D01*
X191403390Y-142120476D02*
X191974819Y-141549048D01*
X191974819Y-141549048D02*
X191974819Y-142168095D01*
X191974819Y-142501429D02*
X191308152Y-143025238D01*
X191308152Y-142501429D02*
X191974819Y-143025238D01*
X190974819Y-143882381D02*
X190974819Y-143406191D01*
X190974819Y-143406191D02*
X191451009Y-143358572D01*
X191451009Y-143358572D02*
X191403390Y-143406191D01*
X191403390Y-143406191D02*
X191355771Y-143501429D01*
X191355771Y-143501429D02*
X191355771Y-143739524D01*
X191355771Y-143739524D02*
X191403390Y-143834762D01*
X191403390Y-143834762D02*
X191451009Y-143882381D01*
X191451009Y-143882381D02*
X191546247Y-143930000D01*
X191546247Y-143930000D02*
X191784342Y-143930000D01*
X191784342Y-143930000D02*
X191879580Y-143882381D01*
X191879580Y-143882381D02*
X191927200Y-143834762D01*
X191927200Y-143834762D02*
X191974819Y-143739524D01*
X191974819Y-143739524D02*
X191974819Y-143501429D01*
X191974819Y-143501429D02*
X191927200Y-143406191D01*
X191927200Y-143406191D02*
X191879580Y-143358572D01*
X180673333Y-137884819D02*
X180673333Y-138599104D01*
X180673333Y-138599104D02*
X180720952Y-138741961D01*
X180720952Y-138741961D02*
X180816190Y-138837200D01*
X180816190Y-138837200D02*
X180959047Y-138884819D01*
X180959047Y-138884819D02*
X181054285Y-138884819D01*
X179720952Y-137884819D02*
X180197142Y-137884819D01*
X180197142Y-137884819D02*
X180244761Y-138361009D01*
X180244761Y-138361009D02*
X180197142Y-138313390D01*
X180197142Y-138313390D02*
X180101904Y-138265771D01*
X180101904Y-138265771D02*
X179863809Y-138265771D01*
X179863809Y-138265771D02*
X179768571Y-138313390D01*
X179768571Y-138313390D02*
X179720952Y-138361009D01*
X179720952Y-138361009D02*
X179673333Y-138456247D01*
X179673333Y-138456247D02*
X179673333Y-138694342D01*
X179673333Y-138694342D02*
X179720952Y-138789580D01*
X179720952Y-138789580D02*
X179768571Y-138837200D01*
X179768571Y-138837200D02*
X179863809Y-138884819D01*
X179863809Y-138884819D02*
X180101904Y-138884819D01*
X180101904Y-138884819D02*
X180197142Y-138837200D01*
X180197142Y-138837200D02*
X180244761Y-138789580D01*
X181779104Y-55491904D02*
X181779104Y-55968094D01*
X182064819Y-55396666D02*
X181064819Y-55729999D01*
X181064819Y-55729999D02*
X182064819Y-56063332D01*
X182064819Y-56396666D02*
X181398152Y-56396666D01*
X181588628Y-56396666D02*
X181493390Y-56444285D01*
X181493390Y-56444285D02*
X181445771Y-56491904D01*
X181445771Y-56491904D02*
X181398152Y-56587142D01*
X181398152Y-56587142D02*
X181398152Y-56682380D01*
X182064819Y-57444285D02*
X181064819Y-57444285D01*
X182017200Y-57444285D02*
X182064819Y-57349047D01*
X182064819Y-57349047D02*
X182064819Y-57158571D01*
X182064819Y-57158571D02*
X182017200Y-57063333D01*
X182017200Y-57063333D02*
X181969580Y-57015714D01*
X181969580Y-57015714D02*
X181874342Y-56968095D01*
X181874342Y-56968095D02*
X181588628Y-56968095D01*
X181588628Y-56968095D02*
X181493390Y-57015714D01*
X181493390Y-57015714D02*
X181445771Y-57063333D01*
X181445771Y-57063333D02*
X181398152Y-57158571D01*
X181398152Y-57158571D02*
X181398152Y-57349047D01*
X181398152Y-57349047D02*
X181445771Y-57444285D01*
X181398152Y-58349047D02*
X182064819Y-58349047D01*
X181398152Y-57920476D02*
X181921961Y-57920476D01*
X181921961Y-57920476D02*
X182017200Y-57968095D01*
X182017200Y-57968095D02*
X182064819Y-58063333D01*
X182064819Y-58063333D02*
X182064819Y-58206190D01*
X182064819Y-58206190D02*
X182017200Y-58301428D01*
X182017200Y-58301428D02*
X181969580Y-58349047D01*
X182064819Y-58825238D02*
X181398152Y-58825238D01*
X181064819Y-58825238D02*
X181112438Y-58777619D01*
X181112438Y-58777619D02*
X181160057Y-58825238D01*
X181160057Y-58825238D02*
X181112438Y-58872857D01*
X181112438Y-58872857D02*
X181064819Y-58825238D01*
X181064819Y-58825238D02*
X181160057Y-58825238D01*
X181398152Y-59301428D02*
X182064819Y-59301428D01*
X181493390Y-59301428D02*
X181445771Y-59349047D01*
X181445771Y-59349047D02*
X181398152Y-59444285D01*
X181398152Y-59444285D02*
X181398152Y-59587142D01*
X181398152Y-59587142D02*
X181445771Y-59682380D01*
X181445771Y-59682380D02*
X181541009Y-59729999D01*
X181541009Y-59729999D02*
X182064819Y-59729999D01*
X182064819Y-60349047D02*
X182017200Y-60253809D01*
X182017200Y-60253809D02*
X181969580Y-60206190D01*
X181969580Y-60206190D02*
X181874342Y-60158571D01*
X181874342Y-60158571D02*
X181588628Y-60158571D01*
X181588628Y-60158571D02*
X181493390Y-60206190D01*
X181493390Y-60206190D02*
X181445771Y-60253809D01*
X181445771Y-60253809D02*
X181398152Y-60349047D01*
X181398152Y-60349047D02*
X181398152Y-60491904D01*
X181398152Y-60491904D02*
X181445771Y-60587142D01*
X181445771Y-60587142D02*
X181493390Y-60634761D01*
X181493390Y-60634761D02*
X181588628Y-60682380D01*
X181588628Y-60682380D02*
X181874342Y-60682380D01*
X181874342Y-60682380D02*
X181969580Y-60634761D01*
X181969580Y-60634761D02*
X182017200Y-60587142D01*
X182017200Y-60587142D02*
X182064819Y-60491904D01*
X182064819Y-60491904D02*
X182064819Y-60349047D01*
X182160057Y-60872857D02*
X182160057Y-61634761D01*
X182064819Y-61872857D02*
X181064819Y-61872857D01*
X181064819Y-61872857D02*
X182064819Y-62444285D01*
X182064819Y-62444285D02*
X181064819Y-62444285D01*
X182064819Y-63349047D02*
X181541009Y-63349047D01*
X181541009Y-63349047D02*
X181445771Y-63301428D01*
X181445771Y-63301428D02*
X181398152Y-63206190D01*
X181398152Y-63206190D02*
X181398152Y-63015714D01*
X181398152Y-63015714D02*
X181445771Y-62920476D01*
X182017200Y-63349047D02*
X182064819Y-63253809D01*
X182064819Y-63253809D02*
X182064819Y-63015714D01*
X182064819Y-63015714D02*
X182017200Y-62920476D01*
X182017200Y-62920476D02*
X181921961Y-62872857D01*
X181921961Y-62872857D02*
X181826723Y-62872857D01*
X181826723Y-62872857D02*
X181731485Y-62920476D01*
X181731485Y-62920476D02*
X181683866Y-63015714D01*
X181683866Y-63015714D02*
X181683866Y-63253809D01*
X181683866Y-63253809D02*
X181636247Y-63349047D01*
X181398152Y-63825238D02*
X182064819Y-63825238D01*
X181493390Y-63825238D02*
X181445771Y-63872857D01*
X181445771Y-63872857D02*
X181398152Y-63968095D01*
X181398152Y-63968095D02*
X181398152Y-64110952D01*
X181398152Y-64110952D02*
X181445771Y-64206190D01*
X181445771Y-64206190D02*
X181541009Y-64253809D01*
X181541009Y-64253809D02*
X182064819Y-64253809D01*
X182064819Y-64872857D02*
X182017200Y-64777619D01*
X182017200Y-64777619D02*
X181969580Y-64730000D01*
X181969580Y-64730000D02*
X181874342Y-64682381D01*
X181874342Y-64682381D02*
X181588628Y-64682381D01*
X181588628Y-64682381D02*
X181493390Y-64730000D01*
X181493390Y-64730000D02*
X181445771Y-64777619D01*
X181445771Y-64777619D02*
X181398152Y-64872857D01*
X181398152Y-64872857D02*
X181398152Y-65015714D01*
X181398152Y-65015714D02*
X181445771Y-65110952D01*
X181445771Y-65110952D02*
X181493390Y-65158571D01*
X181493390Y-65158571D02*
X181588628Y-65206190D01*
X181588628Y-65206190D02*
X181874342Y-65206190D01*
X181874342Y-65206190D02*
X181969580Y-65158571D01*
X181969580Y-65158571D02*
X182017200Y-65110952D01*
X182017200Y-65110952D02*
X182064819Y-65015714D01*
X182064819Y-65015714D02*
X182064819Y-64872857D01*
X182160057Y-65396667D02*
X182160057Y-66158571D01*
X181398152Y-66301429D02*
X182064819Y-66539524D01*
X182064819Y-66539524D02*
X181398152Y-66777619D01*
X181064819Y-67063334D02*
X181064819Y-67682381D01*
X181064819Y-67682381D02*
X181445771Y-67349048D01*
X181445771Y-67349048D02*
X181445771Y-67491905D01*
X181445771Y-67491905D02*
X181493390Y-67587143D01*
X181493390Y-67587143D02*
X181541009Y-67634762D01*
X181541009Y-67634762D02*
X181636247Y-67682381D01*
X181636247Y-67682381D02*
X181874342Y-67682381D01*
X181874342Y-67682381D02*
X181969580Y-67634762D01*
X181969580Y-67634762D02*
X182017200Y-67587143D01*
X182017200Y-67587143D02*
X182064819Y-67491905D01*
X182064819Y-67491905D02*
X182064819Y-67206191D01*
X182064819Y-67206191D02*
X182017200Y-67110953D01*
X182017200Y-67110953D02*
X181969580Y-67063334D01*
X181969580Y-68110953D02*
X182017200Y-68158572D01*
X182017200Y-68158572D02*
X182064819Y-68110953D01*
X182064819Y-68110953D02*
X182017200Y-68063334D01*
X182017200Y-68063334D02*
X181969580Y-68110953D01*
X181969580Y-68110953D02*
X182064819Y-68110953D01*
X182064819Y-68491905D02*
X181398152Y-69015714D01*
X181398152Y-68491905D02*
X182064819Y-69015714D01*
X179239104Y-61515714D02*
X179239104Y-61991904D01*
X179524819Y-61420476D02*
X178524819Y-61753809D01*
X178524819Y-61753809D02*
X179524819Y-62087142D01*
X179524819Y-62944285D02*
X179524819Y-62372857D01*
X179524819Y-62658571D02*
X178524819Y-62658571D01*
X178524819Y-62658571D02*
X178667676Y-62563333D01*
X178667676Y-62563333D02*
X178762914Y-62468095D01*
X178762914Y-62468095D02*
X178810533Y-62372857D01*
X182030476Y-107031009D02*
X181887619Y-107078628D01*
X181887619Y-107078628D02*
X181840000Y-107126247D01*
X181840000Y-107126247D02*
X181792381Y-107221485D01*
X181792381Y-107221485D02*
X181792381Y-107364342D01*
X181792381Y-107364342D02*
X181840000Y-107459580D01*
X181840000Y-107459580D02*
X181887619Y-107507200D01*
X181887619Y-107507200D02*
X181982857Y-107554819D01*
X181982857Y-107554819D02*
X182363809Y-107554819D01*
X182363809Y-107554819D02*
X182363809Y-106554819D01*
X182363809Y-106554819D02*
X182030476Y-106554819D01*
X182030476Y-106554819D02*
X181935238Y-106602438D01*
X181935238Y-106602438D02*
X181887619Y-106650057D01*
X181887619Y-106650057D02*
X181840000Y-106745295D01*
X181840000Y-106745295D02*
X181840000Y-106840533D01*
X181840000Y-106840533D02*
X181887619Y-106935771D01*
X181887619Y-106935771D02*
X181935238Y-106983390D01*
X181935238Y-106983390D02*
X182030476Y-107031009D01*
X182030476Y-107031009D02*
X182363809Y-107031009D01*
X181411428Y-107269104D02*
X180935238Y-107269104D01*
X181506666Y-107554819D02*
X181173333Y-106554819D01*
X181173333Y-106554819D02*
X180840000Y-107554819D01*
X180649523Y-106554819D02*
X180078095Y-106554819D01*
X180363809Y-107554819D02*
X180363809Y-106554819D01*
X179316190Y-106888152D02*
X179316190Y-107554819D01*
X179554285Y-106507200D02*
X179792380Y-107221485D01*
X179792380Y-107221485D02*
X179173333Y-107221485D01*
X178887618Y-106554819D02*
X178268571Y-106554819D01*
X178268571Y-106554819D02*
X178601904Y-106935771D01*
X178601904Y-106935771D02*
X178459047Y-106935771D01*
X178459047Y-106935771D02*
X178363809Y-106983390D01*
X178363809Y-106983390D02*
X178316190Y-107031009D01*
X178316190Y-107031009D02*
X178268571Y-107126247D01*
X178268571Y-107126247D02*
X178268571Y-107364342D01*
X178268571Y-107364342D02*
X178316190Y-107459580D01*
X178316190Y-107459580D02*
X178363809Y-107507200D01*
X178363809Y-107507200D02*
X178459047Y-107554819D01*
X178459047Y-107554819D02*
X178744761Y-107554819D01*
X178744761Y-107554819D02*
X178839999Y-107507200D01*
X178839999Y-107507200D02*
X178887618Y-107459580D01*
D11*
X181230475Y-109583855D02*
X181230475Y-108783855D01*
X181230475Y-108783855D02*
X181039999Y-108783855D01*
X181039999Y-108783855D02*
X180925713Y-108821950D01*
X180925713Y-108821950D02*
X180849523Y-108898140D01*
X180849523Y-108898140D02*
X180811428Y-108974331D01*
X180811428Y-108974331D02*
X180773332Y-109126712D01*
X180773332Y-109126712D02*
X180773332Y-109240998D01*
X180773332Y-109240998D02*
X180811428Y-109393379D01*
X180811428Y-109393379D02*
X180849523Y-109469569D01*
X180849523Y-109469569D02*
X180925713Y-109545760D01*
X180925713Y-109545760D02*
X181039999Y-109583855D01*
X181039999Y-109583855D02*
X181230475Y-109583855D01*
X180506666Y-108783855D02*
X180011428Y-108783855D01*
X180011428Y-108783855D02*
X180278094Y-109088617D01*
X180278094Y-109088617D02*
X180163809Y-109088617D01*
X180163809Y-109088617D02*
X180087618Y-109126712D01*
X180087618Y-109126712D02*
X180049523Y-109164807D01*
X180049523Y-109164807D02*
X180011428Y-109240998D01*
X180011428Y-109240998D02*
X180011428Y-109431474D01*
X180011428Y-109431474D02*
X180049523Y-109507664D01*
X180049523Y-109507664D02*
X180087618Y-109545760D01*
X180087618Y-109545760D02*
X180163809Y-109583855D01*
X180163809Y-109583855D02*
X180392380Y-109583855D01*
X180392380Y-109583855D02*
X180468571Y-109545760D01*
X180468571Y-109545760D02*
X180506666Y-109507664D01*
D10*
X176791904Y-111474819D02*
X176791904Y-110474819D01*
X176220476Y-111474819D02*
X176649047Y-110903390D01*
X176220476Y-110474819D02*
X176791904Y-111046247D01*
X182030476Y-90951009D02*
X181887619Y-90998628D01*
X181887619Y-90998628D02*
X181840000Y-91046247D01*
X181840000Y-91046247D02*
X181792381Y-91141485D01*
X181792381Y-91141485D02*
X181792381Y-91284342D01*
X181792381Y-91284342D02*
X181840000Y-91379580D01*
X181840000Y-91379580D02*
X181887619Y-91427200D01*
X181887619Y-91427200D02*
X181982857Y-91474819D01*
X181982857Y-91474819D02*
X182363809Y-91474819D01*
X182363809Y-91474819D02*
X182363809Y-90474819D01*
X182363809Y-90474819D02*
X182030476Y-90474819D01*
X182030476Y-90474819D02*
X181935238Y-90522438D01*
X181935238Y-90522438D02*
X181887619Y-90570057D01*
X181887619Y-90570057D02*
X181840000Y-90665295D01*
X181840000Y-90665295D02*
X181840000Y-90760533D01*
X181840000Y-90760533D02*
X181887619Y-90855771D01*
X181887619Y-90855771D02*
X181935238Y-90903390D01*
X181935238Y-90903390D02*
X182030476Y-90951009D01*
X182030476Y-90951009D02*
X182363809Y-90951009D01*
X181411428Y-91189104D02*
X180935238Y-91189104D01*
X181506666Y-91474819D02*
X181173333Y-90474819D01*
X181173333Y-90474819D02*
X180840000Y-91474819D01*
X180649523Y-90474819D02*
X180078095Y-90474819D01*
X180363809Y-91474819D02*
X180363809Y-90474819D01*
X179316190Y-90808152D02*
X179316190Y-91474819D01*
X179554285Y-90427200D02*
X179792380Y-91141485D01*
X179792380Y-91141485D02*
X179173333Y-91141485D01*
X178887618Y-90474819D02*
X178268571Y-90474819D01*
X178268571Y-90474819D02*
X178601904Y-90855771D01*
X178601904Y-90855771D02*
X178459047Y-90855771D01*
X178459047Y-90855771D02*
X178363809Y-90903390D01*
X178363809Y-90903390D02*
X178316190Y-90951009D01*
X178316190Y-90951009D02*
X178268571Y-91046247D01*
X178268571Y-91046247D02*
X178268571Y-91284342D01*
X178268571Y-91284342D02*
X178316190Y-91379580D01*
X178316190Y-91379580D02*
X178363809Y-91427200D01*
X178363809Y-91427200D02*
X178459047Y-91474819D01*
X178459047Y-91474819D02*
X178744761Y-91474819D01*
X178744761Y-91474819D02*
X178839999Y-91427200D01*
X178839999Y-91427200D02*
X178887618Y-91379580D01*
X184411904Y-87554819D02*
X184411904Y-86554819D01*
X183840476Y-87554819D02*
X184269047Y-86983390D01*
X183840476Y-86554819D02*
X184411904Y-87126247D01*
D11*
X180630475Y-89263855D02*
X180630475Y-88463855D01*
X180630475Y-88463855D02*
X180439999Y-88463855D01*
X180439999Y-88463855D02*
X180325713Y-88501950D01*
X180325713Y-88501950D02*
X180249523Y-88578140D01*
X180249523Y-88578140D02*
X180211428Y-88654331D01*
X180211428Y-88654331D02*
X180173332Y-88806712D01*
X180173332Y-88806712D02*
X180173332Y-88920998D01*
X180173332Y-88920998D02*
X180211428Y-89073379D01*
X180211428Y-89073379D02*
X180249523Y-89149569D01*
X180249523Y-89149569D02*
X180325713Y-89225760D01*
X180325713Y-89225760D02*
X180439999Y-89263855D01*
X180439999Y-89263855D02*
X180630475Y-89263855D01*
X179411428Y-89263855D02*
X179868571Y-89263855D01*
X179639999Y-89263855D02*
X179639999Y-88463855D01*
X179639999Y-88463855D02*
X179716190Y-88578140D01*
X179716190Y-88578140D02*
X179792380Y-88654331D01*
X179792380Y-88654331D02*
X179868571Y-88692426D01*
D10*
X182030476Y-127351009D02*
X181887619Y-127398628D01*
X181887619Y-127398628D02*
X181840000Y-127446247D01*
X181840000Y-127446247D02*
X181792381Y-127541485D01*
X181792381Y-127541485D02*
X181792381Y-127684342D01*
X181792381Y-127684342D02*
X181840000Y-127779580D01*
X181840000Y-127779580D02*
X181887619Y-127827200D01*
X181887619Y-127827200D02*
X181982857Y-127874819D01*
X181982857Y-127874819D02*
X182363809Y-127874819D01*
X182363809Y-127874819D02*
X182363809Y-126874819D01*
X182363809Y-126874819D02*
X182030476Y-126874819D01*
X182030476Y-126874819D02*
X181935238Y-126922438D01*
X181935238Y-126922438D02*
X181887619Y-126970057D01*
X181887619Y-126970057D02*
X181840000Y-127065295D01*
X181840000Y-127065295D02*
X181840000Y-127160533D01*
X181840000Y-127160533D02*
X181887619Y-127255771D01*
X181887619Y-127255771D02*
X181935238Y-127303390D01*
X181935238Y-127303390D02*
X182030476Y-127351009D01*
X182030476Y-127351009D02*
X182363809Y-127351009D01*
X181411428Y-127589104D02*
X180935238Y-127589104D01*
X181506666Y-127874819D02*
X181173333Y-126874819D01*
X181173333Y-126874819D02*
X180840000Y-127874819D01*
X180649523Y-126874819D02*
X180078095Y-126874819D01*
X180363809Y-127874819D02*
X180363809Y-126874819D01*
X179316190Y-127208152D02*
X179316190Y-127874819D01*
X179554285Y-126827200D02*
X179792380Y-127541485D01*
X179792380Y-127541485D02*
X179173333Y-127541485D01*
X178887618Y-126874819D02*
X178268571Y-126874819D01*
X178268571Y-126874819D02*
X178601904Y-127255771D01*
X178601904Y-127255771D02*
X178459047Y-127255771D01*
X178459047Y-127255771D02*
X178363809Y-127303390D01*
X178363809Y-127303390D02*
X178316190Y-127351009D01*
X178316190Y-127351009D02*
X178268571Y-127446247D01*
X178268571Y-127446247D02*
X178268571Y-127684342D01*
X178268571Y-127684342D02*
X178316190Y-127779580D01*
X178316190Y-127779580D02*
X178363809Y-127827200D01*
X178363809Y-127827200D02*
X178459047Y-127874819D01*
X178459047Y-127874819D02*
X178744761Y-127874819D01*
X178744761Y-127874819D02*
X178839999Y-127827200D01*
X178839999Y-127827200D02*
X178887618Y-127779580D01*
D11*
X181611428Y-129903855D02*
X181611428Y-129103855D01*
X181611428Y-129103855D02*
X181420952Y-129103855D01*
X181420952Y-129103855D02*
X181306666Y-129141950D01*
X181306666Y-129141950D02*
X181230476Y-129218140D01*
X181230476Y-129218140D02*
X181192381Y-129294331D01*
X181192381Y-129294331D02*
X181154285Y-129446712D01*
X181154285Y-129446712D02*
X181154285Y-129560998D01*
X181154285Y-129560998D02*
X181192381Y-129713379D01*
X181192381Y-129713379D02*
X181230476Y-129789569D01*
X181230476Y-129789569D02*
X181306666Y-129865760D01*
X181306666Y-129865760D02*
X181420952Y-129903855D01*
X181420952Y-129903855D02*
X181611428Y-129903855D01*
X180392381Y-129903855D02*
X180849524Y-129903855D01*
X180620952Y-129903855D02*
X180620952Y-129103855D01*
X180620952Y-129103855D02*
X180697143Y-129218140D01*
X180697143Y-129218140D02*
X180773333Y-129294331D01*
X180773333Y-129294331D02*
X180849524Y-129332426D01*
X179630476Y-129903855D02*
X180087619Y-129903855D01*
X179859047Y-129903855D02*
X179859047Y-129103855D01*
X179859047Y-129103855D02*
X179935238Y-129218140D01*
X179935238Y-129218140D02*
X180011428Y-129294331D01*
X180011428Y-129294331D02*
X180087619Y-129332426D01*
D10*
X176791904Y-131794819D02*
X176791904Y-130794819D01*
X176220476Y-131794819D02*
X176649047Y-131223390D01*
X176220476Y-130794819D02*
X176791904Y-131366247D01*
X126958152Y-133790176D02*
X127624819Y-133790176D01*
X126577200Y-133552081D02*
X127291485Y-133313986D01*
X127291485Y-133313986D02*
X127291485Y-133933033D01*
X126624819Y-134218748D02*
X126624819Y-134885414D01*
X126624819Y-134885414D02*
X127624819Y-134456843D01*
X126624819Y-135456843D02*
X126624819Y-135552081D01*
X126624819Y-135552081D02*
X126672438Y-135647319D01*
X126672438Y-135647319D02*
X126720057Y-135694938D01*
X126720057Y-135694938D02*
X126815295Y-135742557D01*
X126815295Y-135742557D02*
X127005771Y-135790176D01*
X127005771Y-135790176D02*
X127243866Y-135790176D01*
X127243866Y-135790176D02*
X127434342Y-135742557D01*
X127434342Y-135742557D02*
X127529580Y-135694938D01*
X127529580Y-135694938D02*
X127577200Y-135647319D01*
X127577200Y-135647319D02*
X127624819Y-135552081D01*
X127624819Y-135552081D02*
X127624819Y-135456843D01*
X127624819Y-135456843D02*
X127577200Y-135361605D01*
X127577200Y-135361605D02*
X127529580Y-135313986D01*
X127529580Y-135313986D02*
X127434342Y-135266367D01*
X127434342Y-135266367D02*
X127243866Y-135218748D01*
X127243866Y-135218748D02*
X127005771Y-135218748D01*
X127005771Y-135218748D02*
X126815295Y-135266367D01*
X126815295Y-135266367D02*
X126720057Y-135313986D01*
X126720057Y-135313986D02*
X126672438Y-135361605D01*
X126672438Y-135361605D02*
X126624819Y-135456843D01*
X129994819Y-134385414D02*
X129518628Y-134052081D01*
X129994819Y-133813986D02*
X128994819Y-133813986D01*
X128994819Y-133813986D02*
X128994819Y-134194938D01*
X128994819Y-134194938D02*
X129042438Y-134290176D01*
X129042438Y-134290176D02*
X129090057Y-134337795D01*
X129090057Y-134337795D02*
X129185295Y-134385414D01*
X129185295Y-134385414D02*
X129328152Y-134385414D01*
X129328152Y-134385414D02*
X129423390Y-134337795D01*
X129423390Y-134337795D02*
X129471009Y-134290176D01*
X129471009Y-134290176D02*
X129518628Y-134194938D01*
X129518628Y-134194938D02*
X129518628Y-133813986D01*
X128994819Y-134718748D02*
X128994819Y-135385414D01*
X128994819Y-135385414D02*
X129994819Y-134956843D01*
D13*
%TO.C,R1*%
X148610000Y-54000000D02*
X148610000Y-60300000D01*
X148610000Y-60300000D02*
X151110000Y-60300000D01*
X149860000Y-54000000D02*
X149860000Y-53340000D01*
X149860000Y-60300000D02*
X149860000Y-60960000D01*
X151110000Y-54000000D02*
X148610000Y-54000000D01*
X151110000Y-60300000D02*
X151110000Y-54000000D01*
%TO.C,D8*%
X178340000Y-103140000D02*
X178340000Y-105140000D01*
X178340000Y-104140000D02*
X176530000Y-104140000D01*
X178340000Y-105140000D02*
X182340000Y-105140000D01*
X178840000Y-103140000D02*
X178840000Y-105140000D01*
X178940000Y-103140000D02*
X178940000Y-105140000D01*
X179040000Y-103140000D02*
X179040000Y-105140000D01*
X182340000Y-103140000D02*
X178340000Y-103140000D01*
X182340000Y-104140000D02*
X184150000Y-104140000D01*
X182340000Y-105140000D02*
X182340000Y-103140000D01*
%TO.C,R4*%
X133370000Y-54000000D02*
X133370000Y-60300000D01*
X133370000Y-60300000D02*
X135870000Y-60300000D01*
X134620000Y-54000000D02*
X134620000Y-53340000D01*
X134620000Y-60300000D02*
X134620000Y-60960000D01*
X135870000Y-54000000D02*
X133370000Y-54000000D01*
X135870000Y-60300000D02*
X135870000Y-54000000D01*
%TO.C,R9*%
X143490000Y-107222081D02*
X143490000Y-100922081D01*
X143490000Y-100922081D02*
X140990000Y-100922081D01*
X142240000Y-107222081D02*
X142240000Y-107882081D01*
X142240000Y-100922081D02*
X142240000Y-100262081D01*
X140990000Y-107222081D02*
X143490000Y-107222081D01*
X140990000Y-100922081D02*
X140990000Y-107222081D01*
%TO.C,J8*%
X152400000Y-45085000D02*
X153035000Y-44450000D01*
X152400000Y-82550000D02*
X152400000Y-45085000D01*
X153035000Y-44450000D02*
X154940000Y-44450000D01*
X154940000Y-44450000D02*
X154940000Y-82550000D01*
X154940000Y-82550000D02*
X152400000Y-82550000D01*
%TO.C,D4*%
X178340000Y-113300000D02*
X178340000Y-115300000D01*
X178340000Y-114300000D02*
X176530000Y-114300000D01*
X178340000Y-115300000D02*
X182340000Y-115300000D01*
X181640000Y-115300000D02*
X181640000Y-113300000D01*
X181740000Y-115300000D02*
X181740000Y-113300000D01*
X181840000Y-115300000D02*
X181840000Y-113300000D01*
X182340000Y-113300000D02*
X178340000Y-113300000D01*
X182340000Y-114300000D02*
X184150000Y-114300000D01*
X182340000Y-115300000D02*
X182340000Y-113300000D01*
%TO.C,J7*%
X129540000Y-45085000D02*
X130175000Y-44450000D01*
X129540000Y-82550000D02*
X129540000Y-45085000D01*
X130175000Y-44450000D02*
X132080000Y-44450000D01*
X132080000Y-44450000D02*
X132080000Y-82550000D01*
X132080000Y-82550000D02*
X129540000Y-82550000D01*
%TO.C,R6*%
X148610000Y-66700000D02*
X148610000Y-73000000D01*
X148610000Y-73000000D02*
X151110000Y-73000000D01*
X149860000Y-66700000D02*
X149860000Y-66040000D01*
X149860000Y-73000000D02*
X149860000Y-73660000D01*
X151110000Y-66700000D02*
X148610000Y-66700000D01*
X151110000Y-73000000D02*
X151110000Y-66700000D01*
%TO.C,D10*%
X178340000Y-118380000D02*
X178340000Y-120380000D01*
X178340000Y-119380000D02*
X176530000Y-119380000D01*
X178340000Y-120380000D02*
X182340000Y-120380000D01*
X181640000Y-120380000D02*
X181640000Y-118380000D01*
X181740000Y-120380000D02*
X181740000Y-118380000D01*
X181840000Y-120380000D02*
X181840000Y-118380000D01*
X182340000Y-118380000D02*
X178340000Y-118380000D01*
X182340000Y-119380000D02*
X184150000Y-119380000D01*
X182340000Y-120380000D02*
X182340000Y-118380000D01*
%TO.C,R3*%
X143490000Y-127542081D02*
X143490000Y-121242081D01*
X143490000Y-121242081D02*
X140990000Y-121242081D01*
X142240000Y-127542081D02*
X142240000Y-128202081D01*
X142240000Y-121242081D02*
X142240000Y-120582081D01*
X140990000Y-127542081D02*
X143490000Y-127542081D01*
X140990000Y-121242081D02*
X140990000Y-127542081D01*
%TO.C,R8*%
X148610000Y-78130000D02*
X148610000Y-84430000D01*
X148610000Y-84430000D02*
X151110000Y-84430000D01*
X149860000Y-78130000D02*
X149860000Y-77470000D01*
X149860000Y-84430000D02*
X149860000Y-85090000D01*
X151110000Y-78130000D02*
X148610000Y-78130000D01*
X151110000Y-84430000D02*
X151110000Y-78130000D01*
%TO.C,D7*%
X178340000Y-98060000D02*
X178340000Y-100060000D01*
X178340000Y-99060000D02*
X176530000Y-99060000D01*
X178340000Y-100060000D02*
X182340000Y-100060000D01*
X178840000Y-98060000D02*
X178840000Y-100060000D01*
X178940000Y-98060000D02*
X178940000Y-100060000D01*
X179040000Y-98060000D02*
X179040000Y-100060000D01*
X182340000Y-98060000D02*
X178340000Y-98060000D01*
X182340000Y-99060000D02*
X184150000Y-99060000D01*
X182340000Y-100060000D02*
X182340000Y-98060000D01*
%TO.C,C2*%
X145250000Y-82340000D02*
X145250000Y-85340000D01*
X145250000Y-85340000D02*
X146850000Y-85340000D01*
X146850000Y-82340000D02*
X145250000Y-82340000D01*
X146850000Y-85340000D02*
X146850000Y-82340000D01*
%TO.C,R2*%
X140990000Y-111082081D02*
X140990000Y-117382081D01*
X140990000Y-117382081D02*
X143490000Y-117382081D01*
X142240000Y-111082081D02*
X142240000Y-110422081D01*
X142240000Y-117382081D02*
X142240000Y-118042081D01*
X143490000Y-111082081D02*
X140990000Y-111082081D01*
X143490000Y-117382081D02*
X143490000Y-111082081D01*
%TO.C,C1*%
X141440000Y-55670000D02*
X141440000Y-58670000D01*
X141440000Y-58670000D02*
X143040000Y-58670000D01*
X143040000Y-55670000D02*
X141440000Y-55670000D01*
X143040000Y-58670000D02*
X143040000Y-55670000D01*
%TO.C,D12*%
X143240000Y-136552081D02*
X143240000Y-132552081D01*
X143240000Y-132552081D02*
X141240000Y-132552081D01*
X142240000Y-136552081D02*
X142240000Y-138362081D01*
X142240000Y-132552081D02*
X142240000Y-130742081D01*
X141240000Y-136552081D02*
X143240000Y-136552081D01*
X141240000Y-136052081D02*
X143240000Y-136052081D01*
X141240000Y-135952081D02*
X143240000Y-135952081D01*
X141240000Y-135852081D02*
X143240000Y-135852081D01*
X141240000Y-132552081D02*
X141240000Y-136552081D01*
%TO.C,D5*%
X178340000Y-92980000D02*
X178340000Y-94980000D01*
X178340000Y-93980000D02*
X176530000Y-93980000D01*
X178340000Y-94980000D02*
X182340000Y-94980000D01*
X178840000Y-92980000D02*
X178840000Y-94980000D01*
X178940000Y-92980000D02*
X178940000Y-94980000D01*
X179040000Y-92980000D02*
X179040000Y-94980000D01*
X182340000Y-92980000D02*
X178340000Y-92980000D01*
X182340000Y-93980000D02*
X184150000Y-93980000D01*
X182340000Y-94980000D02*
X182340000Y-92980000D01*
%TO.C,R5*%
X139040000Y-142152081D02*
X139040000Y-139652081D01*
X139040000Y-140902081D02*
X139700000Y-140902081D01*
X139040000Y-139652081D02*
X132740000Y-139652081D01*
X132740000Y-142152081D02*
X139040000Y-142152081D01*
X132740000Y-140902081D02*
X132080000Y-140902081D01*
X132740000Y-139652081D02*
X132740000Y-142152081D01*
%TO.C,R10*%
X177190000Y-123210000D02*
X177190000Y-125710000D01*
X177190000Y-124460000D02*
X176530000Y-124460000D01*
X177190000Y-125710000D02*
X183490000Y-125710000D01*
X183490000Y-123210000D02*
X177190000Y-123210000D01*
X183490000Y-124460000D02*
X184150000Y-124460000D01*
X183490000Y-125710000D02*
X183490000Y-123210000D01*
%TO.C,J5*%
X170160000Y-134980000D02*
X171160000Y-133980000D01*
X170160000Y-142880000D02*
X170160000Y-134980000D01*
X171160000Y-133980000D02*
X190520000Y-133980000D01*
X171350000Y-135180000D02*
X178290000Y-135180000D01*
X171350000Y-141680000D02*
X171350000Y-135180000D01*
X178290000Y-135180000D02*
X178290000Y-133980000D01*
X182390000Y-133980000D02*
X182390000Y-135180000D01*
X182390000Y-135180000D02*
X182390000Y-135180000D01*
X182390000Y-135180000D02*
X189330000Y-135180000D01*
X189330000Y-135180000D02*
X189330000Y-141680000D01*
X189330000Y-141680000D02*
X171350000Y-141680000D01*
X190520000Y-133980000D02*
X190520000Y-142880000D01*
X190520000Y-142880000D02*
X170160000Y-142880000D01*
%TO.C,A1*%
X171450000Y-41910000D02*
X189230000Y-41910000D01*
X171450000Y-83820000D02*
X171450000Y-41910000D01*
X172720000Y-85090000D02*
X171450000Y-83820000D01*
X176530000Y-39370000D02*
X184150000Y-39370000D01*
X176530000Y-49530000D02*
X176530000Y-39370000D01*
X184150000Y-39370000D02*
X184150000Y-49530000D01*
X184150000Y-49530000D02*
X176530000Y-49530000D01*
X189230000Y-41910000D02*
X189230000Y-85090000D01*
X189230000Y-85090000D02*
X172720000Y-85090000D01*
%TO.C,D3*%
X178340000Y-108220000D02*
X178340000Y-110220000D01*
X178340000Y-109220000D02*
X176530000Y-109220000D01*
X178340000Y-110220000D02*
X182340000Y-110220000D01*
X178840000Y-108220000D02*
X178840000Y-110220000D01*
X178940000Y-108220000D02*
X178940000Y-110220000D01*
X179040000Y-108220000D02*
X179040000Y-110220000D01*
X182340000Y-108220000D02*
X178340000Y-108220000D01*
X182340000Y-109220000D02*
X184150000Y-109220000D01*
X182340000Y-110220000D02*
X182340000Y-108220000D01*
%TO.C,D1*%
X178340000Y-87900000D02*
X178340000Y-89900000D01*
X178340000Y-88900000D02*
X176530000Y-88900000D01*
X178340000Y-89900000D02*
X182340000Y-89900000D01*
X181640000Y-89900000D02*
X181640000Y-87900000D01*
X181740000Y-89900000D02*
X181740000Y-87900000D01*
X181840000Y-89900000D02*
X181840000Y-87900000D01*
X182340000Y-87900000D02*
X178340000Y-87900000D01*
X182340000Y-88900000D02*
X184150000Y-88900000D01*
X182340000Y-89900000D02*
X182340000Y-87900000D01*
%TO.C,D11*%
X178340000Y-128540000D02*
X178340000Y-130540000D01*
X178340000Y-129540000D02*
X176530000Y-129540000D01*
X178340000Y-130540000D02*
X182340000Y-130540000D01*
X178840000Y-128540000D02*
X178840000Y-130540000D01*
X178940000Y-128540000D02*
X178940000Y-130540000D01*
X179040000Y-128540000D02*
X179040000Y-130540000D01*
X182340000Y-128540000D02*
X178340000Y-128540000D01*
X182340000Y-129540000D02*
X184150000Y-129540000D01*
X182340000Y-130540000D02*
X182340000Y-128540000D01*
%TO.C,R7*%
X130790000Y-137702081D02*
X130790000Y-131402081D01*
X130790000Y-131402081D02*
X128290000Y-131402081D01*
X129540000Y-137702081D02*
X129540000Y-138362081D01*
X129540000Y-131402081D02*
X129540000Y-130742081D01*
X128290000Y-137702081D02*
X130790000Y-137702081D01*
X128290000Y-131402081D02*
X128290000Y-137702081D01*
%TD*%
%TO.C,REF\u002A\u002A*%
X228290000Y-106680000D02*
G75*
G02*
X221290000Y-106680000I-3500000J0D01*
G01*
X221290000Y-106680000D02*
G75*
G02*
X228290000Y-106680000I3500000J0D01*
G01*
%TD*%
X227600000Y-152450600D02*
X229600000Y-152450600D01*
X229600000Y-149250600D02*
G75*
G02*
X229600000Y-152450600I0J-1600000D01*
G01*
X229600000Y-149250600D02*
X227600000Y-149250600D01*
X227600000Y-149250600D02*
G75*
G03*
X227600000Y-152450600I0J-1600000D01*
G01*
%TO.C,J4*%
X136790000Y-108722081D02*
G75*
G02*
X134990000Y-108722081I-900000J0D01*
G01*
X134990000Y-108722081D02*
G75*
G02*
X136790000Y-108722081I900000J0D01*
G01*
X136790000Y-100422081D02*
G75*
G02*
X134990000Y-100422081I-900000J0D01*
G01*
X134990000Y-100422081D02*
G75*
G02*
X136790000Y-100422081I900000J0D01*
G01*
X136790000Y-111822081D02*
G75*
G02*
X134990000Y-111822081I-900000J0D01*
G01*
X134990000Y-111822081D02*
G75*
G02*
X136790000Y-111822081I900000J0D01*
G01*
%TD*%
%TO.C,REF\u002A\u002A*%
X228290000Y-121920000D02*
G75*
G02*
X221290000Y-121920000I-3500000J0D01*
G01*
X221290000Y-121920000D02*
G75*
G02*
X228290000Y-121920000I3500000J0D01*
G01*
%TD*%
%TO.C,REF\u002A\u002A*%
X215590000Y-106680000D02*
G75*
G02*
X208590000Y-106680000I-3500000J0D01*
G01*
X208590000Y-106680000D02*
G75*
G02*
X215590000Y-106680000I3500000J0D01*
G01*
%TD*%
%TO.C,D9*%
X150760000Y-90102081D02*
G75*
G02*
X148960000Y-90102081I-900000J0D01*
G01*
X148960000Y-90102081D02*
G75*
G02*
X150760000Y-90102081I900000J0D01*
G01*
X146420000Y-89202081D02*
X146420000Y-91002081D01*
X148220000Y-91002081D01*
X148220000Y-89202081D01*
X146420000Y-89202081D01*
%TD*%
%TO.C,J9*%
X190920000Y-44870000D02*
X190920000Y-46570000D01*
X192620000Y-46570000D01*
X192620000Y-44870000D01*
X190920000Y-44870000D01*
X190920000Y-48260000D02*
X190920000Y-48260000D01*
X192620000Y-48260000D02*
G75*
G02*
X190920000Y-48260000I-850000J0D01*
G01*
X192620000Y-48260000D02*
X192620000Y-48260000D01*
X192620000Y-48260000D02*
G75*
G03*
X190920000Y-48260000I-850000J0D01*
G01*
X190920000Y-50800000D02*
X190920000Y-50800000D01*
X192620000Y-50800000D02*
G75*
G02*
X190920000Y-50800000I-850000J0D01*
G01*
X192620000Y-50800000D02*
X192620000Y-50800000D01*
X192620000Y-50800000D02*
G75*
G03*
X190920000Y-50800000I-850000J0D01*
G01*
X190920000Y-53340000D02*
X190920000Y-53340000D01*
X192620000Y-53340000D02*
G75*
G02*
X190920000Y-53340000I-850000J0D01*
G01*
X192620000Y-53340000D02*
X192620000Y-53340000D01*
X192620000Y-53340000D02*
G75*
G03*
X190920000Y-53340000I-850000J0D01*
G01*
X190920000Y-55880000D02*
X190920000Y-55880000D01*
X192620000Y-55880000D02*
G75*
G02*
X190920000Y-55880000I-850000J0D01*
G01*
X192620000Y-55880000D02*
X192620000Y-55880000D01*
X192620000Y-55880000D02*
G75*
G03*
X190920000Y-55880000I-850000J0D01*
G01*
X190920000Y-58420000D02*
X190920000Y-58420000D01*
X192620000Y-58420000D02*
G75*
G02*
X190920000Y-58420000I-850000J0D01*
G01*
X192620000Y-58420000D02*
X192620000Y-58420000D01*
X192620000Y-58420000D02*
G75*
G03*
X190920000Y-58420000I-850000J0D01*
G01*
X190920000Y-60960000D02*
X190920000Y-60960000D01*
X192620000Y-60960000D02*
G75*
G02*
X190920000Y-60960000I-850000J0D01*
G01*
X192620000Y-60960000D02*
X192620000Y-60960000D01*
X192620000Y-60960000D02*
G75*
G03*
X190920000Y-60960000I-850000J0D01*
G01*
X190920000Y-63500000D02*
X190920000Y-63500000D01*
X192620000Y-63500000D02*
G75*
G02*
X190920000Y-63500000I-850000J0D01*
G01*
X192620000Y-63500000D02*
X192620000Y-63500000D01*
X192620000Y-63500000D02*
G75*
G03*
X190920000Y-63500000I-850000J0D01*
G01*
X190920000Y-66040000D02*
X190920000Y-66040000D01*
X192620000Y-66040000D02*
G75*
G02*
X190920000Y-66040000I-850000J0D01*
G01*
X192620000Y-66040000D02*
X192620000Y-66040000D01*
X192620000Y-66040000D02*
G75*
G03*
X190920000Y-66040000I-850000J0D01*
G01*
X190920000Y-68580000D02*
X190920000Y-68580000D01*
X192620000Y-68580000D02*
G75*
G02*
X190920000Y-68580000I-850000J0D01*
G01*
X192620000Y-68580000D02*
X192620000Y-68580000D01*
X192620000Y-68580000D02*
G75*
G03*
X190920000Y-68580000I-850000J0D01*
G01*
X190920000Y-71120000D02*
X190920000Y-71120000D01*
X192620000Y-71120000D02*
G75*
G02*
X190920000Y-71120000I-850000J0D01*
G01*
X192620000Y-71120000D02*
X192620000Y-71120000D01*
X192620000Y-71120000D02*
G75*
G03*
X190920000Y-71120000I-850000J0D01*
G01*
X190920000Y-73660000D02*
X190920000Y-73660000D01*
X192620000Y-73660000D02*
G75*
G02*
X190920000Y-73660000I-850000J0D01*
G01*
X192620000Y-73660000D02*
X192620000Y-73660000D01*
X192620000Y-73660000D02*
G75*
G03*
X190920000Y-73660000I-850000J0D01*
G01*
X190920000Y-76200000D02*
X190920000Y-76200000D01*
X192620000Y-76200000D02*
G75*
G02*
X190920000Y-76200000I-850000J0D01*
G01*
X192620000Y-76200000D02*
X192620000Y-76200000D01*
X192620000Y-76200000D02*
G75*
G03*
X190920000Y-76200000I-850000J0D01*
G01*
X190920000Y-78740000D02*
X190920000Y-78740000D01*
X192620000Y-78740000D02*
G75*
G02*
X190920000Y-78740000I-850000J0D01*
G01*
X192620000Y-78740000D02*
X192620000Y-78740000D01*
X192620000Y-78740000D02*
G75*
G03*
X190920000Y-78740000I-850000J0D01*
G01*
X190920000Y-81280000D02*
X190920000Y-81280000D01*
X192620000Y-81280000D02*
G75*
G02*
X190920000Y-81280000I-850000J0D01*
G01*
X192620000Y-81280000D02*
X192620000Y-81280000D01*
X192620000Y-81280000D02*
G75*
G03*
X190920000Y-81280000I-850000J0D01*
G01*
%TD*%
%TO.C,REF\u002A\u002A*%
X214590000Y-137160000D02*
G75*
G02*
X209590000Y-137160000I-2500000J0D01*
G01*
X209590000Y-137160000D02*
G75*
G02*
X214590000Y-137160000I2500000J0D01*
G01*
%TD*%
%TO.C,J2*%
X149490000Y-139202081D02*
G75*
G02*
X147690000Y-139202081I-900000J0D01*
G01*
X147690000Y-139202081D02*
G75*
G02*
X149490000Y-139202081I900000J0D01*
G01*
X149490000Y-130902081D02*
G75*
G02*
X147690000Y-130902081I-900000J0D01*
G01*
X147690000Y-130902081D02*
G75*
G02*
X149490000Y-130902081I900000J0D01*
G01*
X149490000Y-142302081D02*
G75*
G02*
X147690000Y-142302081I-900000J0D01*
G01*
X147690000Y-142302081D02*
G75*
G02*
X149490000Y-142302081I900000J0D01*
G01*
%TD*%
%TO.C,J3*%
X149490000Y-108722081D02*
G75*
G02*
X147690000Y-108722081I-900000J0D01*
G01*
X147690000Y-108722081D02*
G75*
G02*
X149490000Y-108722081I900000J0D01*
G01*
X149490000Y-100422081D02*
G75*
G02*
X147690000Y-100422081I-900000J0D01*
G01*
X147690000Y-100422081D02*
G75*
G02*
X149490000Y-100422081I900000J0D01*
G01*
X149490000Y-111822081D02*
G75*
G02*
X147690000Y-111822081I-900000J0D01*
G01*
X147690000Y-111822081D02*
G75*
G02*
X149490000Y-111822081I900000J0D01*
G01*
%TD*%
X207280000Y-29946400D02*
X209280000Y-29946400D01*
X209280000Y-26746400D02*
G75*
G02*
X209280000Y-29946400I0J-1600000D01*
G01*
X209280000Y-26746400D02*
X207280000Y-26746400D01*
X207280000Y-26746400D02*
G75*
G03*
X207280000Y-29946400I0J-1600000D01*
G01*
%TO.C,SW1*%
X137580000Y-88832081D02*
X137580000Y-91372081D01*
X139280000Y-91372081D01*
X139280000Y-88832081D01*
X137580000Y-88832081D01*
X132500000Y-88832081D02*
X132500000Y-91372081D01*
X134200000Y-91372081D01*
X134200000Y-88832081D01*
X132500000Y-88832081D01*
X135040000Y-88832081D02*
X135040000Y-91372081D01*
X136740000Y-91372081D01*
X136740000Y-88832081D01*
X135040000Y-88832081D01*
%TD*%
%TO.C,REF\u002A\u002A*%
X227290000Y-91440000D02*
G75*
G02*
X222290000Y-91440000I-2500000J0D01*
G01*
X222290000Y-91440000D02*
G75*
G02*
X227290000Y-91440000I2500000J0D01*
G01*
%TD*%
%TO.C,D6*%
X138060000Y-135822081D02*
G75*
G02*
X136260000Y-135822081I-900000J0D01*
G01*
X136260000Y-135822081D02*
G75*
G02*
X138060000Y-135822081I900000J0D01*
G01*
X133720000Y-134922081D02*
X133720000Y-136722081D01*
X135520000Y-136722081D01*
X135520000Y-134922081D01*
X133720000Y-134922081D01*
%TD*%
%TO.C,REF\u002A\u002A*%
X221940000Y-44450000D02*
G75*
G02*
X214940000Y-44450000I-3500000J0D01*
G01*
X214940000Y-44450000D02*
G75*
G02*
X221940000Y-44450000I3500000J0D01*
G01*
%TD*%
%TO.C,D2*%
X138060000Y-120582081D02*
G75*
G02*
X136260000Y-120582081I-900000J0D01*
G01*
X136260000Y-120582081D02*
G75*
G02*
X138060000Y-120582081I900000J0D01*
G01*
X133720000Y-119682081D02*
X133720000Y-121482081D01*
X135520000Y-121482081D01*
X135520000Y-119682081D01*
X133720000Y-119682081D01*
%TD*%
%TO.C,RV1*%
X138480000Y-44450000D02*
G75*
G02*
X136480000Y-44450000I-1000000J0D01*
G01*
X136480000Y-44450000D02*
G75*
G02*
X138480000Y-44450000I1000000J0D01*
G01*
X148080000Y-44450000D02*
G75*
G02*
X146080000Y-44450000I-1000000J0D01*
G01*
X146080000Y-44450000D02*
G75*
G02*
X148080000Y-44450000I1000000J0D01*
G01*
X140430000Y-51950000D02*
G75*
G02*
X139130000Y-51950000I-650000J0D01*
G01*
X139130000Y-51950000D02*
G75*
G02*
X140430000Y-51950000I650000J0D01*
G01*
X142930000Y-51950000D02*
G75*
G02*
X141630000Y-51950000I-650000J0D01*
G01*
X141630000Y-51950000D02*
G75*
G02*
X142930000Y-51950000I650000J0D01*
G01*
X145430000Y-51950000D02*
G75*
G02*
X144130000Y-51950000I-650000J0D01*
G01*
X144130000Y-51950000D02*
G75*
G02*
X145430000Y-51950000I650000J0D01*
G01*
%TD*%
%TO.C,REF\u002A\u002A*%
X228290000Y-137160000D02*
G75*
G02*
X221290000Y-137160000I-3500000J0D01*
G01*
X221290000Y-137160000D02*
G75*
G02*
X228290000Y-137160000I3500000J0D01*
G01*
%TD*%
%TO.C,RV2*%
X138480000Y-69850000D02*
G75*
G02*
X136480000Y-69850000I-1000000J0D01*
G01*
X136480000Y-69850000D02*
G75*
G02*
X138480000Y-69850000I1000000J0D01*
G01*
X148080000Y-69850000D02*
G75*
G02*
X146080000Y-69850000I-1000000J0D01*
G01*
X146080000Y-69850000D02*
G75*
G02*
X148080000Y-69850000I1000000J0D01*
G01*
X140430000Y-77350000D02*
G75*
G02*
X139130000Y-77350000I-650000J0D01*
G01*
X139130000Y-77350000D02*
G75*
G02*
X140430000Y-77350000I650000J0D01*
G01*
X142930000Y-77350000D02*
G75*
G02*
X141630000Y-77350000I-650000J0D01*
G01*
X141630000Y-77350000D02*
G75*
G02*
X142930000Y-77350000I650000J0D01*
G01*
X145430000Y-77350000D02*
G75*
G02*
X144130000Y-77350000I-650000J0D01*
G01*
X144130000Y-77350000D02*
G75*
G02*
X145430000Y-77350000I650000J0D01*
G01*
%TD*%
%TO.C,J1*%
X149490000Y-123962081D02*
G75*
G02*
X147690000Y-123962081I-900000J0D01*
G01*
X147690000Y-123962081D02*
G75*
G02*
X149490000Y-123962081I900000J0D01*
G01*
X149490000Y-115662081D02*
G75*
G02*
X147690000Y-115662081I-900000J0D01*
G01*
X147690000Y-115662081D02*
G75*
G02*
X149490000Y-115662081I900000J0D01*
G01*
X149490000Y-127062081D02*
G75*
G02*
X147690000Y-127062081I-900000J0D01*
G01*
X147690000Y-127062081D02*
G75*
G02*
X149490000Y-127062081I900000J0D01*
G01*
%TD*%
%TO.C,J6*%
X168060000Y-44870000D02*
X168060000Y-46570000D01*
X169760000Y-46570000D01*
X169760000Y-44870000D01*
X168060000Y-44870000D01*
X168060000Y-48260000D02*
X168060000Y-48260000D01*
X169760000Y-48260000D02*
G75*
G02*
X168060000Y-48260000I-850000J0D01*
G01*
X169760000Y-48260000D02*
X169760000Y-48260000D01*
X169760000Y-48260000D02*
G75*
G03*
X168060000Y-48260000I-850000J0D01*
G01*
X168060000Y-50800000D02*
X168060000Y-50800000D01*
X169760000Y-50800000D02*
G75*
G02*
X168060000Y-50800000I-850000J0D01*
G01*
X169760000Y-50800000D02*
X169760000Y-50800000D01*
X169760000Y-50800000D02*
G75*
G03*
X168060000Y-50800000I-850000J0D01*
G01*
X168060000Y-53340000D02*
X168060000Y-53340000D01*
X169760000Y-53340000D02*
G75*
G02*
X168060000Y-53340000I-850000J0D01*
G01*
X169760000Y-53340000D02*
X169760000Y-53340000D01*
X169760000Y-53340000D02*
G75*
G03*
X168060000Y-53340000I-850000J0D01*
G01*
X168060000Y-55880000D02*
X168060000Y-55880000D01*
X169760000Y-55880000D02*
G75*
G02*
X168060000Y-55880000I-850000J0D01*
G01*
X169760000Y-55880000D02*
X169760000Y-55880000D01*
X169760000Y-55880000D02*
G75*
G03*
X168060000Y-55880000I-850000J0D01*
G01*
X168060000Y-58420000D02*
X168060000Y-58420000D01*
X169760000Y-58420000D02*
G75*
G02*
X168060000Y-58420000I-850000J0D01*
G01*
X169760000Y-58420000D02*
X169760000Y-58420000D01*
X169760000Y-58420000D02*
G75*
G03*
X168060000Y-58420000I-850000J0D01*
G01*
X168060000Y-60960000D02*
X168060000Y-60960000D01*
X169760000Y-60960000D02*
G75*
G02*
X168060000Y-60960000I-850000J0D01*
G01*
X169760000Y-60960000D02*
X169760000Y-60960000D01*
X169760000Y-60960000D02*
G75*
G03*
X168060000Y-60960000I-850000J0D01*
G01*
X168060000Y-63500000D02*
X168060000Y-63500000D01*
X169760000Y-63500000D02*
G75*
G02*
X168060000Y-63500000I-850000J0D01*
G01*
X169760000Y-63500000D02*
X169760000Y-63500000D01*
X169760000Y-63500000D02*
G75*
G03*
X168060000Y-63500000I-850000J0D01*
G01*
X168060000Y-66040000D02*
X168060000Y-66040000D01*
X169760000Y-66040000D02*
G75*
G02*
X168060000Y-66040000I-850000J0D01*
G01*
X169760000Y-66040000D02*
X169760000Y-66040000D01*
X169760000Y-66040000D02*
G75*
G03*
X168060000Y-66040000I-850000J0D01*
G01*
X168060000Y-68580000D02*
X168060000Y-68580000D01*
X169760000Y-68580000D02*
G75*
G02*
X168060000Y-68580000I-850000J0D01*
G01*
X169760000Y-68580000D02*
X169760000Y-68580000D01*
X169760000Y-68580000D02*
G75*
G03*
X168060000Y-68580000I-850000J0D01*
G01*
X168060000Y-71120000D02*
X168060000Y-71120000D01*
X169760000Y-71120000D02*
G75*
G02*
X168060000Y-71120000I-850000J0D01*
G01*
X169760000Y-71120000D02*
X169760000Y-71120000D01*
X169760000Y-71120000D02*
G75*
G03*
X168060000Y-71120000I-850000J0D01*
G01*
X168060000Y-73660000D02*
X168060000Y-73660000D01*
X169760000Y-73660000D02*
G75*
G02*
X168060000Y-73660000I-850000J0D01*
G01*
X169760000Y-73660000D02*
X169760000Y-73660000D01*
X169760000Y-73660000D02*
G75*
G03*
X168060000Y-73660000I-850000J0D01*
G01*
X168060000Y-76200000D02*
X168060000Y-76200000D01*
X169760000Y-76200000D02*
G75*
G02*
X168060000Y-76200000I-850000J0D01*
G01*
X169760000Y-76200000D02*
X169760000Y-76200000D01*
X169760000Y-76200000D02*
G75*
G03*
X168060000Y-76200000I-850000J0D01*
G01*
X168060000Y-78740000D02*
X168060000Y-78740000D01*
X169760000Y-78740000D02*
G75*
G02*
X168060000Y-78740000I-850000J0D01*
G01*
X169760000Y-78740000D02*
X169760000Y-78740000D01*
X169760000Y-78740000D02*
G75*
G03*
X168060000Y-78740000I-850000J0D01*
G01*
X168060000Y-81280000D02*
X168060000Y-81280000D01*
X169760000Y-81280000D02*
G75*
G02*
X168060000Y-81280000I-850000J0D01*
G01*
X169760000Y-81280000D02*
X169760000Y-81280000D01*
X169760000Y-81280000D02*
G75*
G03*
X168060000Y-81280000I-850000J0D01*
G01*
%TD*%
%TO.C,*%
X214590000Y-121920000D02*
G75*
G02*
X209590000Y-121920000I-2500000J0D01*
G01*
X209590000Y-121920000D02*
G75*
G02*
X214590000Y-121920000I2500000J0D01*
G01*
%TD*%
%TO.C,REF\u002A\u002A*%
X214590000Y-91440000D02*
G75*
G02*
X209590000Y-91440000I-2500000J0D01*
G01*
X209590000Y-91440000D02*
G75*
G02*
X214590000Y-91440000I2500000J0D01*
G01*
%TD*%
%TO.C,REF\u002A\u002A*%
X221940000Y-69850000D02*
G75*
G02*
X214940000Y-69850000I-3500000J0D01*
G01*
X214940000Y-69850000D02*
G75*
G02*
X221940000Y-69850000I3500000J0D01*
G01*
%TD*%
%TO.C,R1*%
X150660000Y-53340000D02*
G75*
G02*
X149060000Y-53340000I-800000J0D01*
G01*
X149060000Y-53340000D02*
G75*
G02*
X150660000Y-53340000I800000J0D01*
G01*
X149860000Y-60160000D02*
X149860000Y-60160000D01*
X149860000Y-61760000D02*
G75*
G02*
X149860000Y-60160000I0J800000D01*
G01*
X149860000Y-61760000D02*
X149860000Y-61760000D01*
X149860000Y-61760000D02*
G75*
G03*
X149860000Y-60160000I0J800000D01*
G01*
%TD*%
%TO.C,D8*%
X175730000Y-103340000D02*
X175730000Y-104940000D01*
X177330000Y-104940000D01*
X177330000Y-103340000D01*
X175730000Y-103340000D01*
X183350000Y-104140000D02*
X183350000Y-104140000D01*
X184950000Y-104140000D02*
G75*
G02*
X183350000Y-104140000I-800000J0D01*
G01*
X184950000Y-104140000D02*
X184950000Y-104140000D01*
X184950000Y-104140000D02*
G75*
G03*
X183350000Y-104140000I-800000J0D01*
G01*
%TD*%
%TO.C,R4*%
X135420000Y-60960000D02*
G75*
G02*
X133820000Y-60960000I-800000J0D01*
G01*
X133820000Y-60960000D02*
G75*
G02*
X135420000Y-60960000I800000J0D01*
G01*
X134620000Y-54140000D02*
X134620000Y-54140000D01*
X134620000Y-52540000D02*
G75*
G02*
X134620000Y-54140000I0J-800000D01*
G01*
X134620000Y-52540000D02*
X134620000Y-52540000D01*
X134620000Y-52540000D02*
G75*
G03*
X134620000Y-54140000I0J-800000D01*
G01*
%TD*%
X142240000Y-107082081D02*
X142240000Y-107082081D01*
X142240000Y-108682081D02*
G75*
G02*
X142240000Y-107082081I0J800000D01*
G01*
X142240000Y-108682081D02*
X142240000Y-108682081D01*
X142240000Y-108682081D02*
G75*
G03*
X142240000Y-107082081I0J800000D01*
G01*
%TO.C,R9*%
X143040000Y-100262081D02*
G75*
G02*
X141440000Y-100262081I-800000J0D01*
G01*
X141440000Y-100262081D02*
G75*
G02*
X143040000Y-100262081I800000J0D01*
G01*
%TD*%
%TO.C,J8*%
X152820000Y-44870000D02*
X152820000Y-46570000D01*
X154520000Y-46570000D01*
X154520000Y-44870000D01*
X152820000Y-44870000D01*
X154520000Y-48260000D02*
X154520000Y-48260000D01*
X152820000Y-48260000D02*
G75*
G02*
X154520000Y-48260000I850000J0D01*
G01*
X152820000Y-48260000D02*
X152820000Y-48260000D01*
X152820000Y-48260000D02*
G75*
G03*
X154520000Y-48260000I850000J0D01*
G01*
X154520000Y-50800000D02*
X154520000Y-50800000D01*
X152820000Y-50800000D02*
G75*
G02*
X154520000Y-50800000I850000J0D01*
G01*
X152820000Y-50800000D02*
X152820000Y-50800000D01*
X152820000Y-50800000D02*
G75*
G03*
X154520000Y-50800000I850000J0D01*
G01*
X154520000Y-53340000D02*
X154520000Y-53340000D01*
X152820000Y-53340000D02*
G75*
G02*
X154520000Y-53340000I850000J0D01*
G01*
X152820000Y-53340000D02*
X152820000Y-53340000D01*
X152820000Y-53340000D02*
G75*
G03*
X154520000Y-53340000I850000J0D01*
G01*
X154520000Y-55880000D02*
X154520000Y-55880000D01*
X152820000Y-55880000D02*
G75*
G02*
X154520000Y-55880000I850000J0D01*
G01*
X152820000Y-55880000D02*
X152820000Y-55880000D01*
X152820000Y-55880000D02*
G75*
G03*
X154520000Y-55880000I850000J0D01*
G01*
X154520000Y-58420000D02*
X154520000Y-58420000D01*
X152820000Y-58420000D02*
G75*
G02*
X154520000Y-58420000I850000J0D01*
G01*
X152820000Y-58420000D02*
X152820000Y-58420000D01*
X152820000Y-58420000D02*
G75*
G03*
X154520000Y-58420000I850000J0D01*
G01*
X154520000Y-60960000D02*
X154520000Y-60960000D01*
X152820000Y-60960000D02*
G75*
G02*
X154520000Y-60960000I850000J0D01*
G01*
X152820000Y-60960000D02*
X152820000Y-60960000D01*
X152820000Y-60960000D02*
G75*
G03*
X154520000Y-60960000I850000J0D01*
G01*
X154520000Y-63500000D02*
X154520000Y-63500000D01*
X152820000Y-63500000D02*
G75*
G02*
X154520000Y-63500000I850000J0D01*
G01*
X152820000Y-63500000D02*
X152820000Y-63500000D01*
X152820000Y-63500000D02*
G75*
G03*
X154520000Y-63500000I850000J0D01*
G01*
X154520000Y-66040000D02*
X154520000Y-66040000D01*
X152820000Y-66040000D02*
G75*
G02*
X154520000Y-66040000I850000J0D01*
G01*
X152820000Y-66040000D02*
X152820000Y-66040000D01*
X152820000Y-66040000D02*
G75*
G03*
X154520000Y-66040000I850000J0D01*
G01*
X154520000Y-68580000D02*
X154520000Y-68580000D01*
X152820000Y-68580000D02*
G75*
G02*
X154520000Y-68580000I850000J0D01*
G01*
X152820000Y-68580000D02*
X152820000Y-68580000D01*
X152820000Y-68580000D02*
G75*
G03*
X154520000Y-68580000I850000J0D01*
G01*
X154520000Y-71120000D02*
X154520000Y-71120000D01*
X152820000Y-71120000D02*
G75*
G02*
X154520000Y-71120000I850000J0D01*
G01*
X152820000Y-71120000D02*
X152820000Y-71120000D01*
X152820000Y-71120000D02*
G75*
G03*
X154520000Y-71120000I850000J0D01*
G01*
X154520000Y-73660000D02*
X154520000Y-73660000D01*
X152820000Y-73660000D02*
G75*
G02*
X154520000Y-73660000I850000J0D01*
G01*
X152820000Y-73660000D02*
X152820000Y-73660000D01*
X152820000Y-73660000D02*
G75*
G03*
X154520000Y-73660000I850000J0D01*
G01*
X154520000Y-76200000D02*
X154520000Y-76200000D01*
X152820000Y-76200000D02*
G75*
G02*
X154520000Y-76200000I850000J0D01*
G01*
X152820000Y-76200000D02*
X152820000Y-76200000D01*
X152820000Y-76200000D02*
G75*
G03*
X154520000Y-76200000I850000J0D01*
G01*
X154520000Y-78740000D02*
X154520000Y-78740000D01*
X152820000Y-78740000D02*
G75*
G02*
X154520000Y-78740000I850000J0D01*
G01*
X152820000Y-78740000D02*
X152820000Y-78740000D01*
X152820000Y-78740000D02*
G75*
G03*
X154520000Y-78740000I850000J0D01*
G01*
X154520000Y-81280000D02*
X154520000Y-81280000D01*
X152820000Y-81280000D02*
G75*
G02*
X154520000Y-81280000I850000J0D01*
G01*
X152820000Y-81280000D02*
X152820000Y-81280000D01*
X152820000Y-81280000D02*
G75*
G03*
X154520000Y-81280000I850000J0D01*
G01*
%TD*%
%TO.C,D4*%
X183350000Y-113500000D02*
X183350000Y-115100000D01*
X184950000Y-115100000D01*
X184950000Y-113500000D01*
X183350000Y-113500000D01*
X177330000Y-114300000D02*
X177330000Y-114300000D01*
X175730000Y-114300000D02*
G75*
G02*
X177330000Y-114300000I800000J0D01*
G01*
X175730000Y-114300000D02*
X175730000Y-114300000D01*
X175730000Y-114300000D02*
G75*
G03*
X177330000Y-114300000I800000J0D01*
G01*
%TD*%
%TO.C,J7*%
X129960000Y-44870000D02*
X129960000Y-46570000D01*
X131660000Y-46570000D01*
X131660000Y-44870000D01*
X129960000Y-44870000D01*
X131660000Y-48260000D02*
X131660000Y-48260000D01*
X129960000Y-48260000D02*
G75*
G02*
X131660000Y-48260000I850000J0D01*
G01*
X129960000Y-48260000D02*
X129960000Y-48260000D01*
X129960000Y-48260000D02*
G75*
G03*
X131660000Y-48260000I850000J0D01*
G01*
X131660000Y-50800000D02*
X131660000Y-50800000D01*
X129960000Y-50800000D02*
G75*
G02*
X131660000Y-50800000I850000J0D01*
G01*
X129960000Y-50800000D02*
X129960000Y-50800000D01*
X129960000Y-50800000D02*
G75*
G03*
X131660000Y-50800000I850000J0D01*
G01*
X131660000Y-53340000D02*
X131660000Y-53340000D01*
X129960000Y-53340000D02*
G75*
G02*
X131660000Y-53340000I850000J0D01*
G01*
X129960000Y-53340000D02*
X129960000Y-53340000D01*
X129960000Y-53340000D02*
G75*
G03*
X131660000Y-53340000I850000J0D01*
G01*
X131660000Y-55880000D02*
X131660000Y-55880000D01*
X129960000Y-55880000D02*
G75*
G02*
X131660000Y-55880000I850000J0D01*
G01*
X129960000Y-55880000D02*
X129960000Y-55880000D01*
X129960000Y-55880000D02*
G75*
G03*
X131660000Y-55880000I850000J0D01*
G01*
X131660000Y-58420000D02*
X131660000Y-58420000D01*
X129960000Y-58420000D02*
G75*
G02*
X131660000Y-58420000I850000J0D01*
G01*
X129960000Y-58420000D02*
X129960000Y-58420000D01*
X129960000Y-58420000D02*
G75*
G03*
X131660000Y-58420000I850000J0D01*
G01*
X131660000Y-60960000D02*
X131660000Y-60960000D01*
X129960000Y-60960000D02*
G75*
G02*
X131660000Y-60960000I850000J0D01*
G01*
X129960000Y-60960000D02*
X129960000Y-60960000D01*
X129960000Y-60960000D02*
G75*
G03*
X131660000Y-60960000I850000J0D01*
G01*
X131660000Y-63500000D02*
X131660000Y-63500000D01*
X129960000Y-63500000D02*
G75*
G02*
X131660000Y-63500000I850000J0D01*
G01*
X129960000Y-63500000D02*
X129960000Y-63500000D01*
X129960000Y-63500000D02*
G75*
G03*
X131660000Y-63500000I850000J0D01*
G01*
X131660000Y-66040000D02*
X131660000Y-66040000D01*
X129960000Y-66040000D02*
G75*
G02*
X131660000Y-66040000I850000J0D01*
G01*
X129960000Y-66040000D02*
X129960000Y-66040000D01*
X129960000Y-66040000D02*
G75*
G03*
X131660000Y-66040000I850000J0D01*
G01*
X131660000Y-68580000D02*
X131660000Y-68580000D01*
X129960000Y-68580000D02*
G75*
G02*
X131660000Y-68580000I850000J0D01*
G01*
X129960000Y-68580000D02*
X129960000Y-68580000D01*
X129960000Y-68580000D02*
G75*
G03*
X131660000Y-68580000I850000J0D01*
G01*
X131660000Y-71120000D02*
X131660000Y-71120000D01*
X129960000Y-71120000D02*
G75*
G02*
X131660000Y-71120000I850000J0D01*
G01*
X129960000Y-71120000D02*
X129960000Y-71120000D01*
X129960000Y-71120000D02*
G75*
G03*
X131660000Y-71120000I850000J0D01*
G01*
X131660000Y-73660000D02*
X131660000Y-73660000D01*
X129960000Y-73660000D02*
G75*
G02*
X131660000Y-73660000I850000J0D01*
G01*
X129960000Y-73660000D02*
X129960000Y-73660000D01*
X129960000Y-73660000D02*
G75*
G03*
X131660000Y-73660000I850000J0D01*
G01*
X131660000Y-76200000D02*
X131660000Y-76200000D01*
X129960000Y-76200000D02*
G75*
G02*
X131660000Y-76200000I850000J0D01*
G01*
X129960000Y-76200000D02*
X129960000Y-76200000D01*
X129960000Y-76200000D02*
G75*
G03*
X131660000Y-76200000I850000J0D01*
G01*
X131660000Y-78740000D02*
X131660000Y-78740000D01*
X129960000Y-78740000D02*
G75*
G02*
X131660000Y-78740000I850000J0D01*
G01*
X129960000Y-78740000D02*
X129960000Y-78740000D01*
X129960000Y-78740000D02*
G75*
G03*
X131660000Y-78740000I850000J0D01*
G01*
X131660000Y-81280000D02*
X131660000Y-81280000D01*
X129960000Y-81280000D02*
G75*
G02*
X131660000Y-81280000I850000J0D01*
G01*
X129960000Y-81280000D02*
X129960000Y-81280000D01*
X129960000Y-81280000D02*
G75*
G03*
X131660000Y-81280000I850000J0D01*
G01*
%TD*%
%TO.C,R6*%
X150660000Y-66040000D02*
G75*
G02*
X149060000Y-66040000I-800000J0D01*
G01*
X149060000Y-66040000D02*
G75*
G02*
X150660000Y-66040000I800000J0D01*
G01*
X149860000Y-72860000D02*
X149860000Y-72860000D01*
X149860000Y-74460000D02*
G75*
G02*
X149860000Y-72860000I0J800000D01*
G01*
X149860000Y-74460000D02*
X149860000Y-74460000D01*
X149860000Y-74460000D02*
G75*
G03*
X149860000Y-72860000I0J800000D01*
G01*
%TD*%
%TO.C,D10*%
X183350000Y-118580000D02*
X183350000Y-120180000D01*
X184950000Y-120180000D01*
X184950000Y-118580000D01*
X183350000Y-118580000D01*
X177330000Y-119380000D02*
X177330000Y-119380000D01*
X175730000Y-119380000D02*
G75*
G02*
X177330000Y-119380000I800000J0D01*
G01*
X175730000Y-119380000D02*
X175730000Y-119380000D01*
X175730000Y-119380000D02*
G75*
G03*
X177330000Y-119380000I800000J0D01*
G01*
%TD*%
X142240000Y-127402081D02*
X142240000Y-127402081D01*
X142240000Y-129002081D02*
G75*
G02*
X142240000Y-127402081I0J800000D01*
G01*
X142240000Y-129002081D02*
X142240000Y-129002081D01*
X142240000Y-129002081D02*
G75*
G03*
X142240000Y-127402081I0J800000D01*
G01*
%TO.C,R3*%
X143040000Y-120582081D02*
G75*
G02*
X141440000Y-120582081I-800000J0D01*
G01*
X141440000Y-120582081D02*
G75*
G02*
X143040000Y-120582081I800000J0D01*
G01*
%TD*%
%TO.C,R8*%
X150660000Y-85090000D02*
G75*
G02*
X149060000Y-85090000I-800000J0D01*
G01*
X149060000Y-85090000D02*
G75*
G02*
X150660000Y-85090000I800000J0D01*
G01*
X149860000Y-78270000D02*
X149860000Y-78270000D01*
X149860000Y-76670000D02*
G75*
G02*
X149860000Y-78270000I0J-800000D01*
G01*
X149860000Y-76670000D02*
X149860000Y-76670000D01*
X149860000Y-76670000D02*
G75*
G03*
X149860000Y-78270000I0J-800000D01*
G01*
%TD*%
%TO.C,D7*%
X175730000Y-98260000D02*
X175730000Y-99860000D01*
X177330000Y-99860000D01*
X177330000Y-98260000D01*
X175730000Y-98260000D01*
X183350000Y-99060000D02*
X183350000Y-99060000D01*
X184950000Y-99060000D02*
G75*
G02*
X183350000Y-99060000I-800000J0D01*
G01*
X184950000Y-99060000D02*
X184950000Y-99060000D01*
X184950000Y-99060000D02*
G75*
G03*
X183350000Y-99060000I-800000J0D01*
G01*
%TD*%
%TO.C,C2*%
X146850000Y-82590000D02*
G75*
G02*
X145250000Y-82590000I-800000J0D01*
G01*
X145250000Y-82590000D02*
G75*
G02*
X146850000Y-82590000I800000J0D01*
G01*
X146850000Y-85090000D02*
G75*
G02*
X145250000Y-85090000I-800000J0D01*
G01*
X145250000Y-85090000D02*
G75*
G02*
X146850000Y-85090000I800000J0D01*
G01*
%TD*%
%TO.C,R2*%
X143040000Y-110422081D02*
G75*
G02*
X141440000Y-110422081I-800000J0D01*
G01*
X141440000Y-110422081D02*
G75*
G02*
X143040000Y-110422081I800000J0D01*
G01*
X142240000Y-117242081D02*
X142240000Y-117242081D01*
X142240000Y-118842081D02*
G75*
G02*
X142240000Y-117242081I0J800000D01*
G01*
X142240000Y-118842081D02*
X142240000Y-118842081D01*
X142240000Y-118842081D02*
G75*
G03*
X142240000Y-117242081I0J800000D01*
G01*
%TD*%
%TO.C,C1*%
X143040000Y-55920000D02*
G75*
G02*
X141440000Y-55920000I-800000J0D01*
G01*
X141440000Y-55920000D02*
G75*
G02*
X143040000Y-55920000I800000J0D01*
G01*
X143040000Y-58420000D02*
G75*
G02*
X141440000Y-58420000I-800000J0D01*
G01*
X141440000Y-58420000D02*
G75*
G02*
X143040000Y-58420000I800000J0D01*
G01*
%TD*%
X142240000Y-131542081D02*
X142240000Y-131542081D01*
X142240000Y-129942081D02*
G75*
G02*
X142240000Y-131542081I0J-800000D01*
G01*
X142240000Y-129942081D02*
X142240000Y-129942081D01*
X142240000Y-129942081D02*
G75*
G03*
X142240000Y-131542081I0J-800000D01*
G01*
%TO.C,D12*%
X141440000Y-137562081D02*
X141440000Y-139162081D01*
X143040000Y-139162081D01*
X143040000Y-137562081D01*
X141440000Y-137562081D01*
%TD*%
%TO.C,D5*%
X175730000Y-93180000D02*
X175730000Y-94780000D01*
X177330000Y-94780000D01*
X177330000Y-93180000D01*
X175730000Y-93180000D01*
X183350000Y-93980000D02*
X183350000Y-93980000D01*
X184950000Y-93980000D02*
G75*
G02*
X183350000Y-93980000I-800000J0D01*
G01*
X184950000Y-93980000D02*
X184950000Y-93980000D01*
X184950000Y-93980000D02*
G75*
G03*
X183350000Y-93980000I-800000J0D01*
G01*
%TD*%
X132880000Y-140902081D02*
X132880000Y-140902081D01*
X131280000Y-140902081D02*
G75*
G02*
X132880000Y-140902081I800000J0D01*
G01*
X131280000Y-140902081D02*
X131280000Y-140902081D01*
X131280000Y-140902081D02*
G75*
G03*
X132880000Y-140902081I800000J0D01*
G01*
%TO.C,R5*%
X140500000Y-140902081D02*
G75*
G02*
X138900000Y-140902081I-800000J0D01*
G01*
X138900000Y-140902081D02*
G75*
G02*
X140500000Y-140902081I800000J0D01*
G01*
%TD*%
%TO.C,R10*%
X177330000Y-124460000D02*
G75*
G02*
X175730000Y-124460000I-800000J0D01*
G01*
X175730000Y-124460000D02*
G75*
G02*
X177330000Y-124460000I800000J0D01*
G01*
X183350000Y-124460000D02*
X183350000Y-124460000D01*
X184950000Y-124460000D02*
G75*
G02*
X183350000Y-124460000I-800000J0D01*
G01*
X184950000Y-124460000D02*
X184950000Y-124460000D01*
X184950000Y-124460000D02*
G75*
G03*
X183350000Y-124460000I-800000J0D01*
G01*
%TD*%
D14*
%TO.C,J5*%
D13*
X186020000Y-138850000D02*
X186115671Y-138869030D01*
X186196777Y-138923223D01*
X186250970Y-139004329D01*
X186270000Y-139100000D01*
X186270000Y-140300000D01*
X186250970Y-140395671D01*
X186196777Y-140476777D01*
X186115671Y-140530970D01*
X186020000Y-140550000D01*
X184820000Y-140550000D01*
X184724329Y-140530970D01*
X184643223Y-140476777D01*
X184589030Y-140395671D01*
X184570000Y-140300000D01*
X184570000Y-139100000D01*
X184589030Y-139004329D01*
X184643223Y-138923223D01*
X184724329Y-138869030D01*
X184820000Y-138850000D01*
X186020000Y-138850000D01*
X186270000Y-137160000D02*
G75*
G02*
X184570000Y-137160000I-850000J0D01*
G01*
X184570000Y-137160000D02*
G75*
G02*
X186270000Y-137160000I850000J0D01*
G01*
X183730000Y-139700000D02*
G75*
G02*
X182030000Y-139700000I-850000J0D01*
G01*
X182030000Y-139700000D02*
G75*
G02*
X183730000Y-139700000I850000J0D01*
G01*
X183730000Y-137160000D02*
G75*
G02*
X182030000Y-137160000I-850000J0D01*
G01*
X182030000Y-137160000D02*
G75*
G02*
X183730000Y-137160000I850000J0D01*
G01*
X181190000Y-139700000D02*
G75*
G02*
X179490000Y-139700000I-850000J0D01*
G01*
X179490000Y-139700000D02*
G75*
G02*
X181190000Y-139700000I850000J0D01*
G01*
X181190000Y-137160000D02*
G75*
G02*
X179490000Y-137160000I-850000J0D01*
G01*
X179490000Y-137160000D02*
G75*
G02*
X181190000Y-137160000I850000J0D01*
G01*
X178650000Y-139700000D02*
G75*
G02*
X176950000Y-139700000I-850000J0D01*
G01*
X176950000Y-139700000D02*
G75*
G02*
X178650000Y-139700000I850000J0D01*
G01*
X178650000Y-137160000D02*
G75*
G02*
X176950000Y-137160000I-850000J0D01*
G01*
X176950000Y-137160000D02*
G75*
G02*
X178650000Y-137160000I850000J0D01*
G01*
X176110000Y-139700000D02*
G75*
G02*
X174410000Y-139700000I-850000J0D01*
G01*
X174410000Y-139700000D02*
G75*
G02*
X176110000Y-139700000I850000J0D01*
G01*
X176110000Y-137160000D02*
G75*
G02*
X174410000Y-137160000I-850000J0D01*
G01*
X174410000Y-137160000D02*
G75*
G02*
X176110000Y-137160000I850000J0D01*
G01*
%TD*%
%TO.C,A1*%
X171920000Y-80480000D02*
X171920000Y-82080000D01*
X173520000Y-82080000D01*
X173520000Y-80480000D01*
X171920000Y-80480000D01*
X171920000Y-78740000D02*
X171920000Y-78740000D01*
X173520000Y-78740000D02*
G75*
G02*
X171920000Y-78740000I-800000J0D01*
G01*
X173520000Y-78740000D02*
X173520000Y-78740000D01*
X173520000Y-78740000D02*
G75*
G03*
X171920000Y-78740000I-800000J0D01*
G01*
X171920000Y-76200000D02*
X171920000Y-76200000D01*
X173520000Y-76200000D02*
G75*
G02*
X171920000Y-76200000I-800000J0D01*
G01*
X173520000Y-76200000D02*
X173520000Y-76200000D01*
X173520000Y-76200000D02*
G75*
G03*
X171920000Y-76200000I-800000J0D01*
G01*
X171920000Y-73660000D02*
X171920000Y-73660000D01*
X173520000Y-73660000D02*
G75*
G02*
X171920000Y-73660000I-800000J0D01*
G01*
X173520000Y-73660000D02*
X173520000Y-73660000D01*
X173520000Y-73660000D02*
G75*
G03*
X171920000Y-73660000I-800000J0D01*
G01*
X171920000Y-71120000D02*
X171920000Y-71120000D01*
X173520000Y-71120000D02*
G75*
G02*
X171920000Y-71120000I-800000J0D01*
G01*
X173520000Y-71120000D02*
X173520000Y-71120000D01*
X173520000Y-71120000D02*
G75*
G03*
X171920000Y-71120000I-800000J0D01*
G01*
X171920000Y-68580000D02*
X171920000Y-68580000D01*
X173520000Y-68580000D02*
G75*
G02*
X171920000Y-68580000I-800000J0D01*
G01*
X173520000Y-68580000D02*
X173520000Y-68580000D01*
X173520000Y-68580000D02*
G75*
G03*
X171920000Y-68580000I-800000J0D01*
G01*
X171920000Y-66040000D02*
X171920000Y-66040000D01*
X173520000Y-66040000D02*
G75*
G02*
X171920000Y-66040000I-800000J0D01*
G01*
X173520000Y-66040000D02*
X173520000Y-66040000D01*
X173520000Y-66040000D02*
G75*
G03*
X171920000Y-66040000I-800000J0D01*
G01*
X171920000Y-63500000D02*
X171920000Y-63500000D01*
X173520000Y-63500000D02*
G75*
G02*
X171920000Y-63500000I-800000J0D01*
G01*
X173520000Y-63500000D02*
X173520000Y-63500000D01*
X173520000Y-63500000D02*
G75*
G03*
X171920000Y-63500000I-800000J0D01*
G01*
X171920000Y-60960000D02*
X171920000Y-60960000D01*
X173520000Y-60960000D02*
G75*
G02*
X171920000Y-60960000I-800000J0D01*
G01*
X173520000Y-60960000D02*
X173520000Y-60960000D01*
X173520000Y-60960000D02*
G75*
G03*
X171920000Y-60960000I-800000J0D01*
G01*
X171920000Y-58420000D02*
X171920000Y-58420000D01*
X173520000Y-58420000D02*
G75*
G02*
X171920000Y-58420000I-800000J0D01*
G01*
X173520000Y-58420000D02*
X173520000Y-58420000D01*
X173520000Y-58420000D02*
G75*
G03*
X171920000Y-58420000I-800000J0D01*
G01*
X171920000Y-55880000D02*
X171920000Y-55880000D01*
X173520000Y-55880000D02*
G75*
G02*
X171920000Y-55880000I-800000J0D01*
G01*
X173520000Y-55880000D02*
X173520000Y-55880000D01*
X173520000Y-55880000D02*
G75*
G03*
X171920000Y-55880000I-800000J0D01*
G01*
X171920000Y-53340000D02*
X171920000Y-53340000D01*
X173520000Y-53340000D02*
G75*
G02*
X171920000Y-53340000I-800000J0D01*
G01*
X173520000Y-53340000D02*
X173520000Y-53340000D01*
X173520000Y-53340000D02*
G75*
G03*
X171920000Y-53340000I-800000J0D01*
G01*
X171920000Y-50800000D02*
X171920000Y-50800000D01*
X173520000Y-50800000D02*
G75*
G02*
X171920000Y-50800000I-800000J0D01*
G01*
X173520000Y-50800000D02*
X173520000Y-50800000D01*
X173520000Y-50800000D02*
G75*
G03*
X171920000Y-50800000I-800000J0D01*
G01*
X171920000Y-48260000D02*
X171920000Y-48260000D01*
X173520000Y-48260000D02*
G75*
G02*
X171920000Y-48260000I-800000J0D01*
G01*
X173520000Y-48260000D02*
X173520000Y-48260000D01*
X173520000Y-48260000D02*
G75*
G03*
X171920000Y-48260000I-800000J0D01*
G01*
X171920000Y-45720000D02*
X171920000Y-45720000D01*
X173520000Y-45720000D02*
G75*
G02*
X171920000Y-45720000I-800000J0D01*
G01*
X173520000Y-45720000D02*
X173520000Y-45720000D01*
X173520000Y-45720000D02*
G75*
G03*
X171920000Y-45720000I-800000J0D01*
G01*
X187160000Y-45720000D02*
X187160000Y-45720000D01*
X188760000Y-45720000D02*
G75*
G02*
X187160000Y-45720000I-800000J0D01*
G01*
X188760000Y-45720000D02*
X188760000Y-45720000D01*
X188760000Y-45720000D02*
G75*
G03*
X187160000Y-45720000I-800000J0D01*
G01*
X187160000Y-48260000D02*
X187160000Y-48260000D01*
X188760000Y-48260000D02*
G75*
G02*
X187160000Y-48260000I-800000J0D01*
G01*
X188760000Y-48260000D02*
X188760000Y-48260000D01*
X188760000Y-48260000D02*
G75*
G03*
X187160000Y-48260000I-800000J0D01*
G01*
X187160000Y-50800000D02*
X187160000Y-50800000D01*
X188760000Y-50800000D02*
G75*
G02*
X187160000Y-50800000I-800000J0D01*
G01*
X188760000Y-50800000D02*
X188760000Y-50800000D01*
X188760000Y-50800000D02*
G75*
G03*
X187160000Y-50800000I-800000J0D01*
G01*
X187160000Y-53340000D02*
X187160000Y-53340000D01*
X188760000Y-53340000D02*
G75*
G02*
X187160000Y-53340000I-800000J0D01*
G01*
X188760000Y-53340000D02*
X188760000Y-53340000D01*
X188760000Y-53340000D02*
G75*
G03*
X187160000Y-53340000I-800000J0D01*
G01*
X187160000Y-55880000D02*
X187160000Y-55880000D01*
X188760000Y-55880000D02*
G75*
G02*
X187160000Y-55880000I-800000J0D01*
G01*
X188760000Y-55880000D02*
X188760000Y-55880000D01*
X188760000Y-55880000D02*
G75*
G03*
X187160000Y-55880000I-800000J0D01*
G01*
X187160000Y-58420000D02*
X187160000Y-58420000D01*
X188760000Y-58420000D02*
G75*
G02*
X187160000Y-58420000I-800000J0D01*
G01*
X188760000Y-58420000D02*
X188760000Y-58420000D01*
X188760000Y-58420000D02*
G75*
G03*
X187160000Y-58420000I-800000J0D01*
G01*
X187160000Y-60960000D02*
X187160000Y-60960000D01*
X188760000Y-60960000D02*
G75*
G02*
X187160000Y-60960000I-800000J0D01*
G01*
X188760000Y-60960000D02*
X188760000Y-60960000D01*
X188760000Y-60960000D02*
G75*
G03*
X187160000Y-60960000I-800000J0D01*
G01*
X187160000Y-63500000D02*
X187160000Y-63500000D01*
X188760000Y-63500000D02*
G75*
G02*
X187160000Y-63500000I-800000J0D01*
G01*
X188760000Y-63500000D02*
X188760000Y-63500000D01*
X188760000Y-63500000D02*
G75*
G03*
X187160000Y-63500000I-800000J0D01*
G01*
X187160000Y-66040000D02*
X187160000Y-66040000D01*
X188760000Y-66040000D02*
G75*
G02*
X187160000Y-66040000I-800000J0D01*
G01*
X188760000Y-66040000D02*
X188760000Y-66040000D01*
X188760000Y-66040000D02*
G75*
G03*
X187160000Y-66040000I-800000J0D01*
G01*
X187160000Y-68580000D02*
X187160000Y-68580000D01*
X188760000Y-68580000D02*
G75*
G02*
X187160000Y-68580000I-800000J0D01*
G01*
X188760000Y-68580000D02*
X188760000Y-68580000D01*
X188760000Y-68580000D02*
G75*
G03*
X187160000Y-68580000I-800000J0D01*
G01*
X187160000Y-71120000D02*
X187160000Y-71120000D01*
X188760000Y-71120000D02*
G75*
G02*
X187160000Y-71120000I-800000J0D01*
G01*
X188760000Y-71120000D02*
X188760000Y-71120000D01*
X188760000Y-71120000D02*
G75*
G03*
X187160000Y-71120000I-800000J0D01*
G01*
X187160000Y-73660000D02*
X187160000Y-73660000D01*
X188760000Y-73660000D02*
G75*
G02*
X187160000Y-73660000I-800000J0D01*
G01*
X188760000Y-73660000D02*
X188760000Y-73660000D01*
X188760000Y-73660000D02*
G75*
G03*
X187160000Y-73660000I-800000J0D01*
G01*
X187160000Y-76200000D02*
X187160000Y-76200000D01*
X188760000Y-76200000D02*
G75*
G02*
X187160000Y-76200000I-800000J0D01*
G01*
X188760000Y-76200000D02*
X188760000Y-76200000D01*
X188760000Y-76200000D02*
G75*
G03*
X187160000Y-76200000I-800000J0D01*
G01*
X187160000Y-78740000D02*
X187160000Y-78740000D01*
X188760000Y-78740000D02*
G75*
G02*
X187160000Y-78740000I-800000J0D01*
G01*
X188760000Y-78740000D02*
X188760000Y-78740000D01*
X188760000Y-78740000D02*
G75*
G03*
X187160000Y-78740000I-800000J0D01*
G01*
X187160000Y-81280000D02*
X187160000Y-81280000D01*
X188760000Y-81280000D02*
G75*
G02*
X187160000Y-81280000I-800000J0D01*
G01*
X188760000Y-81280000D02*
X188760000Y-81280000D01*
X188760000Y-81280000D02*
G75*
G03*
X187160000Y-81280000I-800000J0D01*
G01*
%TD*%
%TO.C,D3*%
X175730000Y-108420000D02*
X175730000Y-110020000D01*
X177330000Y-110020000D01*
X177330000Y-108420000D01*
X175730000Y-108420000D01*
X183350000Y-109220000D02*
X183350000Y-109220000D01*
X184950000Y-109220000D02*
G75*
G02*
X183350000Y-109220000I-800000J0D01*
G01*
X184950000Y-109220000D02*
X184950000Y-109220000D01*
X184950000Y-109220000D02*
G75*
G03*
X183350000Y-109220000I-800000J0D01*
G01*
%TD*%
%TO.C,D1*%
X183350000Y-88100000D02*
X183350000Y-89700000D01*
X184950000Y-89700000D01*
X184950000Y-88100000D01*
X183350000Y-88100000D01*
X177330000Y-88900000D02*
X177330000Y-88900000D01*
X175730000Y-88900000D02*
G75*
G02*
X177330000Y-88900000I800000J0D01*
G01*
X175730000Y-88900000D02*
X175730000Y-88900000D01*
X175730000Y-88900000D02*
G75*
G03*
X177330000Y-88900000I800000J0D01*
G01*
%TD*%
%TO.C,D11*%
X175730000Y-128740000D02*
X175730000Y-130340000D01*
X177330000Y-130340000D01*
X177330000Y-128740000D01*
X175730000Y-128740000D01*
X183350000Y-129540000D02*
X183350000Y-129540000D01*
X184950000Y-129540000D02*
G75*
G02*
X183350000Y-129540000I-800000J0D01*
G01*
X184950000Y-129540000D02*
X184950000Y-129540000D01*
X184950000Y-129540000D02*
G75*
G03*
X183350000Y-129540000I-800000J0D01*
G01*
%TD*%
X129540000Y-131542081D02*
X129540000Y-131542081D01*
X129540000Y-129942081D02*
G75*
G02*
X129540000Y-131542081I0J-800000D01*
G01*
X129540000Y-129942081D02*
X129540000Y-129942081D01*
X129540000Y-129942081D02*
G75*
G03*
X129540000Y-131542081I0J-800000D01*
G01*
%TO.C,R7*%
X130340000Y-138362081D02*
G75*
G02*
X128740000Y-138362081I-800000J0D01*
G01*
X128740000Y-138362081D02*
G75*
G02*
X130340000Y-138362081I800000J0D01*
G01*
%TD*%
M02*
