%TF.GenerationSoftware,KiCad,Pcbnew,8.0.1-8.0.1-1~ubuntu22.04.1*%
%TF.CreationDate,2024-04-25T17:06:33+02:00*%
%TF.ProjectId,EuroClockMD,4575726f-436c-46f6-936b-4d442e6b6963,rev?*%
%TF.SameCoordinates,Original*%
%TF.FileFunction,Legend,Bot*%
%TF.FilePolarity,Positive*%
%FSLAX46Y46*%
G04 Gerber Fmt 4.6, Leading zero omitted, Abs format (unit mm)*
G04 Created by KiCad (PCBNEW 8.0.1-8.0.1-1~ubuntu22.04.1) date 2024-04-25 17:06:33*
%MOMM*%
%LPD*%
G01*
G04 APERTURE LIST*
%ADD10C,0.150000*%
%ADD11C,0.120000*%
G04 APERTURE END LIST*
D10*
X154444819Y-131999574D02*
X155159104Y-131999574D01*
X155159104Y-131999574D02*
X155301961Y-131951955D01*
X155301961Y-131951955D02*
X155397200Y-131856717D01*
X155397200Y-131856717D02*
X155444819Y-131713860D01*
X155444819Y-131713860D02*
X155444819Y-131618622D01*
X155444819Y-132951955D02*
X155444819Y-132475765D01*
X155444819Y-132475765D02*
X154444819Y-132475765D01*
X155349580Y-133856717D02*
X155397200Y-133809098D01*
X155397200Y-133809098D02*
X155444819Y-133666241D01*
X155444819Y-133666241D02*
X155444819Y-133571003D01*
X155444819Y-133571003D02*
X155397200Y-133428146D01*
X155397200Y-133428146D02*
X155301961Y-133332908D01*
X155301961Y-133332908D02*
X155206723Y-133285289D01*
X155206723Y-133285289D02*
X155016247Y-133237670D01*
X155016247Y-133237670D02*
X154873390Y-133237670D01*
X154873390Y-133237670D02*
X154682914Y-133285289D01*
X154682914Y-133285289D02*
X154587676Y-133332908D01*
X154587676Y-133332908D02*
X154492438Y-133428146D01*
X154492438Y-133428146D02*
X154444819Y-133571003D01*
X154444819Y-133571003D02*
X154444819Y-133666241D01*
X154444819Y-133666241D02*
X154492438Y-133809098D01*
X154492438Y-133809098D02*
X154540057Y-133856717D01*
X154444819Y-134571003D02*
X155159104Y-134571003D01*
X155159104Y-134571003D02*
X155301961Y-134523384D01*
X155301961Y-134523384D02*
X155397200Y-134428146D01*
X155397200Y-134428146D02*
X155444819Y-134285289D01*
X155444819Y-134285289D02*
X155444819Y-134190051D01*
X155444819Y-135523384D02*
X155444819Y-135047194D01*
X155444819Y-135047194D02*
X154444819Y-135047194D01*
X155349580Y-136428146D02*
X155397200Y-136380527D01*
X155397200Y-136380527D02*
X155444819Y-136237670D01*
X155444819Y-136237670D02*
X155444819Y-136142432D01*
X155444819Y-136142432D02*
X155397200Y-135999575D01*
X155397200Y-135999575D02*
X155301961Y-135904337D01*
X155301961Y-135904337D02*
X155206723Y-135856718D01*
X155206723Y-135856718D02*
X155016247Y-135809099D01*
X155016247Y-135809099D02*
X154873390Y-135809099D01*
X154873390Y-135809099D02*
X154682914Y-135856718D01*
X154682914Y-135856718D02*
X154587676Y-135904337D01*
X154587676Y-135904337D02*
X154492438Y-135999575D01*
X154492438Y-135999575D02*
X154444819Y-136142432D01*
X154444819Y-136142432D02*
X154444819Y-136237670D01*
X154444819Y-136237670D02*
X154492438Y-136380527D01*
X154492438Y-136380527D02*
X154540057Y-136428146D01*
X154444819Y-137142432D02*
X155159104Y-137142432D01*
X155159104Y-137142432D02*
X155301961Y-137094813D01*
X155301961Y-137094813D02*
X155397200Y-136999575D01*
X155397200Y-136999575D02*
X155444819Y-136856718D01*
X155444819Y-136856718D02*
X155444819Y-136761480D01*
X155444819Y-138094813D02*
X155444819Y-137618623D01*
X155444819Y-137618623D02*
X154444819Y-137618623D01*
X155349580Y-138999575D02*
X155397200Y-138951956D01*
X155397200Y-138951956D02*
X155444819Y-138809099D01*
X155444819Y-138809099D02*
X155444819Y-138713861D01*
X155444819Y-138713861D02*
X155397200Y-138571004D01*
X155397200Y-138571004D02*
X155301961Y-138475766D01*
X155301961Y-138475766D02*
X155206723Y-138428147D01*
X155206723Y-138428147D02*
X155016247Y-138380528D01*
X155016247Y-138380528D02*
X154873390Y-138380528D01*
X154873390Y-138380528D02*
X154682914Y-138428147D01*
X154682914Y-138428147D02*
X154587676Y-138475766D01*
X154587676Y-138475766D02*
X154492438Y-138571004D01*
X154492438Y-138571004D02*
X154444819Y-138713861D01*
X154444819Y-138713861D02*
X154444819Y-138809099D01*
X154444819Y-138809099D02*
X154492438Y-138951956D01*
X154492438Y-138951956D02*
X154540057Y-138999575D01*
X154444819Y-139713861D02*
X155159104Y-139713861D01*
X155159104Y-139713861D02*
X155301961Y-139666242D01*
X155301961Y-139666242D02*
X155397200Y-139571004D01*
X155397200Y-139571004D02*
X155444819Y-139428147D01*
X155444819Y-139428147D02*
X155444819Y-139332909D01*
X155444819Y-140666242D02*
X155444819Y-140190052D01*
X155444819Y-140190052D02*
X154444819Y-140190052D01*
X155349580Y-141571004D02*
X155397200Y-141523385D01*
X155397200Y-141523385D02*
X155444819Y-141380528D01*
X155444819Y-141380528D02*
X155444819Y-141285290D01*
X155444819Y-141285290D02*
X155397200Y-141142433D01*
X155397200Y-141142433D02*
X155301961Y-141047195D01*
X155301961Y-141047195D02*
X155206723Y-140999576D01*
X155206723Y-140999576D02*
X155016247Y-140951957D01*
X155016247Y-140951957D02*
X154873390Y-140951957D01*
X154873390Y-140951957D02*
X154682914Y-140999576D01*
X154682914Y-140999576D02*
X154587676Y-141047195D01*
X154587676Y-141047195D02*
X154492438Y-141142433D01*
X154492438Y-141142433D02*
X154444819Y-141285290D01*
X154444819Y-141285290D02*
X154444819Y-141380528D01*
X154444819Y-141380528D02*
X154492438Y-141523385D01*
X154492438Y-141523385D02*
X154540057Y-141571004D01*
X226072506Y-28079819D02*
X226072506Y-28794104D01*
X226072506Y-28794104D02*
X226120125Y-28936961D01*
X226120125Y-28936961D02*
X226215363Y-29032200D01*
X226215363Y-29032200D02*
X226358220Y-29079819D01*
X226358220Y-29079819D02*
X226453458Y-29079819D01*
X225120125Y-29079819D02*
X225596315Y-29079819D01*
X225596315Y-29079819D02*
X225596315Y-28079819D01*
X224215363Y-28984580D02*
X224262982Y-29032200D01*
X224262982Y-29032200D02*
X224405839Y-29079819D01*
X224405839Y-29079819D02*
X224501077Y-29079819D01*
X224501077Y-29079819D02*
X224643934Y-29032200D01*
X224643934Y-29032200D02*
X224739172Y-28936961D01*
X224739172Y-28936961D02*
X224786791Y-28841723D01*
X224786791Y-28841723D02*
X224834410Y-28651247D01*
X224834410Y-28651247D02*
X224834410Y-28508390D01*
X224834410Y-28508390D02*
X224786791Y-28317914D01*
X224786791Y-28317914D02*
X224739172Y-28222676D01*
X224739172Y-28222676D02*
X224643934Y-28127438D01*
X224643934Y-28127438D02*
X224501077Y-28079819D01*
X224501077Y-28079819D02*
X224405839Y-28079819D01*
X224405839Y-28079819D02*
X224262982Y-28127438D01*
X224262982Y-28127438D02*
X224215363Y-28175057D01*
X223501077Y-28079819D02*
X223501077Y-28794104D01*
X223501077Y-28794104D02*
X223548696Y-28936961D01*
X223548696Y-28936961D02*
X223643934Y-29032200D01*
X223643934Y-29032200D02*
X223786791Y-29079819D01*
X223786791Y-29079819D02*
X223882029Y-29079819D01*
X222548696Y-29079819D02*
X223024886Y-29079819D01*
X223024886Y-29079819D02*
X223024886Y-28079819D01*
X221643934Y-28984580D02*
X221691553Y-29032200D01*
X221691553Y-29032200D02*
X221834410Y-29079819D01*
X221834410Y-29079819D02*
X221929648Y-29079819D01*
X221929648Y-29079819D02*
X222072505Y-29032200D01*
X222072505Y-29032200D02*
X222167743Y-28936961D01*
X222167743Y-28936961D02*
X222215362Y-28841723D01*
X222215362Y-28841723D02*
X222262981Y-28651247D01*
X222262981Y-28651247D02*
X222262981Y-28508390D01*
X222262981Y-28508390D02*
X222215362Y-28317914D01*
X222215362Y-28317914D02*
X222167743Y-28222676D01*
X222167743Y-28222676D02*
X222072505Y-28127438D01*
X222072505Y-28127438D02*
X221929648Y-28079819D01*
X221929648Y-28079819D02*
X221834410Y-28079819D01*
X221834410Y-28079819D02*
X221691553Y-28127438D01*
X221691553Y-28127438D02*
X221643934Y-28175057D01*
X220929648Y-28079819D02*
X220929648Y-28794104D01*
X220929648Y-28794104D02*
X220977267Y-28936961D01*
X220977267Y-28936961D02*
X221072505Y-29032200D01*
X221072505Y-29032200D02*
X221215362Y-29079819D01*
X221215362Y-29079819D02*
X221310600Y-29079819D01*
X219977267Y-29079819D02*
X220453457Y-29079819D01*
X220453457Y-29079819D02*
X220453457Y-28079819D01*
X219072505Y-28984580D02*
X219120124Y-29032200D01*
X219120124Y-29032200D02*
X219262981Y-29079819D01*
X219262981Y-29079819D02*
X219358219Y-29079819D01*
X219358219Y-29079819D02*
X219501076Y-29032200D01*
X219501076Y-29032200D02*
X219596314Y-28936961D01*
X219596314Y-28936961D02*
X219643933Y-28841723D01*
X219643933Y-28841723D02*
X219691552Y-28651247D01*
X219691552Y-28651247D02*
X219691552Y-28508390D01*
X219691552Y-28508390D02*
X219643933Y-28317914D01*
X219643933Y-28317914D02*
X219596314Y-28222676D01*
X219596314Y-28222676D02*
X219501076Y-28127438D01*
X219501076Y-28127438D02*
X219358219Y-28079819D01*
X219358219Y-28079819D02*
X219262981Y-28079819D01*
X219262981Y-28079819D02*
X219120124Y-28127438D01*
X219120124Y-28127438D02*
X219072505Y-28175057D01*
X218358219Y-28079819D02*
X218358219Y-28794104D01*
X218358219Y-28794104D02*
X218405838Y-28936961D01*
X218405838Y-28936961D02*
X218501076Y-29032200D01*
X218501076Y-29032200D02*
X218643933Y-29079819D01*
X218643933Y-29079819D02*
X218739171Y-29079819D01*
X217405838Y-29079819D02*
X217882028Y-29079819D01*
X217882028Y-29079819D02*
X217882028Y-28079819D01*
X216501076Y-28984580D02*
X216548695Y-29032200D01*
X216548695Y-29032200D02*
X216691552Y-29079819D01*
X216691552Y-29079819D02*
X216786790Y-29079819D01*
X216786790Y-29079819D02*
X216929647Y-29032200D01*
X216929647Y-29032200D02*
X217024885Y-28936961D01*
X217024885Y-28936961D02*
X217072504Y-28841723D01*
X217072504Y-28841723D02*
X217120123Y-28651247D01*
X217120123Y-28651247D02*
X217120123Y-28508390D01*
X217120123Y-28508390D02*
X217072504Y-28317914D01*
X217072504Y-28317914D02*
X217024885Y-28222676D01*
X217024885Y-28222676D02*
X216929647Y-28127438D01*
X216929647Y-28127438D02*
X216786790Y-28079819D01*
X216786790Y-28079819D02*
X216691552Y-28079819D01*
X216691552Y-28079819D02*
X216548695Y-28127438D01*
X216548695Y-28127438D02*
X216501076Y-28175057D01*
X147944819Y-56983333D02*
X147468628Y-56650000D01*
X147944819Y-56411905D02*
X146944819Y-56411905D01*
X146944819Y-56411905D02*
X146944819Y-56792857D01*
X146944819Y-56792857D02*
X146992438Y-56888095D01*
X146992438Y-56888095D02*
X147040057Y-56935714D01*
X147040057Y-56935714D02*
X147135295Y-56983333D01*
X147135295Y-56983333D02*
X147278152Y-56983333D01*
X147278152Y-56983333D02*
X147373390Y-56935714D01*
X147373390Y-56935714D02*
X147421009Y-56888095D01*
X147421009Y-56888095D02*
X147468628Y-56792857D01*
X147468628Y-56792857D02*
X147468628Y-56411905D01*
X147944819Y-57935714D02*
X147944819Y-57364286D01*
X147944819Y-57650000D02*
X146944819Y-57650000D01*
X146944819Y-57650000D02*
X147087676Y-57554762D01*
X147087676Y-57554762D02*
X147182914Y-57459524D01*
X147182914Y-57459524D02*
X147230533Y-57364286D01*
X181078094Y-106714819D02*
X181078094Y-105714819D01*
X181078094Y-105714819D02*
X180839999Y-105714819D01*
X180839999Y-105714819D02*
X180697142Y-105762438D01*
X180697142Y-105762438D02*
X180601904Y-105857676D01*
X180601904Y-105857676D02*
X180554285Y-105952914D01*
X180554285Y-105952914D02*
X180506666Y-106143390D01*
X180506666Y-106143390D02*
X180506666Y-106286247D01*
X180506666Y-106286247D02*
X180554285Y-106476723D01*
X180554285Y-106476723D02*
X180601904Y-106571961D01*
X180601904Y-106571961D02*
X180697142Y-106667200D01*
X180697142Y-106667200D02*
X180839999Y-106714819D01*
X180839999Y-106714819D02*
X181078094Y-106714819D01*
X179935237Y-106143390D02*
X180030475Y-106095771D01*
X180030475Y-106095771D02*
X180078094Y-106048152D01*
X180078094Y-106048152D02*
X180125713Y-105952914D01*
X180125713Y-105952914D02*
X180125713Y-105905295D01*
X180125713Y-105905295D02*
X180078094Y-105810057D01*
X180078094Y-105810057D02*
X180030475Y-105762438D01*
X180030475Y-105762438D02*
X179935237Y-105714819D01*
X179935237Y-105714819D02*
X179744761Y-105714819D01*
X179744761Y-105714819D02*
X179649523Y-105762438D01*
X179649523Y-105762438D02*
X179601904Y-105810057D01*
X179601904Y-105810057D02*
X179554285Y-105905295D01*
X179554285Y-105905295D02*
X179554285Y-105952914D01*
X179554285Y-105952914D02*
X179601904Y-106048152D01*
X179601904Y-106048152D02*
X179649523Y-106095771D01*
X179649523Y-106095771D02*
X179744761Y-106143390D01*
X179744761Y-106143390D02*
X179935237Y-106143390D01*
X179935237Y-106143390D02*
X180030475Y-106191009D01*
X180030475Y-106191009D02*
X180078094Y-106238628D01*
X180078094Y-106238628D02*
X180125713Y-106333866D01*
X180125713Y-106333866D02*
X180125713Y-106524342D01*
X180125713Y-106524342D02*
X180078094Y-106619580D01*
X180078094Y-106619580D02*
X180030475Y-106667200D01*
X180030475Y-106667200D02*
X179935237Y-106714819D01*
X179935237Y-106714819D02*
X179744761Y-106714819D01*
X179744761Y-106714819D02*
X179649523Y-106667200D01*
X179649523Y-106667200D02*
X179601904Y-106619580D01*
X179601904Y-106619580D02*
X179554285Y-106524342D01*
X179554285Y-106524342D02*
X179554285Y-106333866D01*
X179554285Y-106333866D02*
X179601904Y-106238628D01*
X179601904Y-106238628D02*
X179649523Y-106191009D01*
X179649523Y-106191009D02*
X179744761Y-106143390D01*
X176791904Y-106394819D02*
X176791904Y-105394819D01*
X176220476Y-106394819D02*
X176649047Y-105823390D01*
X176220476Y-105394819D02*
X176791904Y-105966247D01*
X137444819Y-56983333D02*
X136968628Y-56650000D01*
X137444819Y-56411905D02*
X136444819Y-56411905D01*
X136444819Y-56411905D02*
X136444819Y-56792857D01*
X136444819Y-56792857D02*
X136492438Y-56888095D01*
X136492438Y-56888095D02*
X136540057Y-56935714D01*
X136540057Y-56935714D02*
X136635295Y-56983333D01*
X136635295Y-56983333D02*
X136778152Y-56983333D01*
X136778152Y-56983333D02*
X136873390Y-56935714D01*
X136873390Y-56935714D02*
X136921009Y-56888095D01*
X136921009Y-56888095D02*
X136968628Y-56792857D01*
X136968628Y-56792857D02*
X136968628Y-56411905D01*
X136778152Y-57840476D02*
X137444819Y-57840476D01*
X136397200Y-57602381D02*
X137111485Y-57364286D01*
X137111485Y-57364286D02*
X137111485Y-57983333D01*
X140324819Y-103905414D02*
X139848628Y-103572081D01*
X140324819Y-103333986D02*
X139324819Y-103333986D01*
X139324819Y-103333986D02*
X139324819Y-103714938D01*
X139324819Y-103714938D02*
X139372438Y-103810176D01*
X139372438Y-103810176D02*
X139420057Y-103857795D01*
X139420057Y-103857795D02*
X139515295Y-103905414D01*
X139515295Y-103905414D02*
X139658152Y-103905414D01*
X139658152Y-103905414D02*
X139753390Y-103857795D01*
X139753390Y-103857795D02*
X139801009Y-103810176D01*
X139801009Y-103810176D02*
X139848628Y-103714938D01*
X139848628Y-103714938D02*
X139848628Y-103333986D01*
X140324819Y-104381605D02*
X140324819Y-104572081D01*
X140324819Y-104572081D02*
X140277200Y-104667319D01*
X140277200Y-104667319D02*
X140229580Y-104714938D01*
X140229580Y-104714938D02*
X140086723Y-104810176D01*
X140086723Y-104810176D02*
X139896247Y-104857795D01*
X139896247Y-104857795D02*
X139515295Y-104857795D01*
X139515295Y-104857795D02*
X139420057Y-104810176D01*
X139420057Y-104810176D02*
X139372438Y-104762557D01*
X139372438Y-104762557D02*
X139324819Y-104667319D01*
X139324819Y-104667319D02*
X139324819Y-104476843D01*
X139324819Y-104476843D02*
X139372438Y-104381605D01*
X139372438Y-104381605D02*
X139420057Y-104333986D01*
X139420057Y-104333986D02*
X139515295Y-104286367D01*
X139515295Y-104286367D02*
X139753390Y-104286367D01*
X139753390Y-104286367D02*
X139848628Y-104333986D01*
X139848628Y-104333986D02*
X139896247Y-104381605D01*
X139896247Y-104381605D02*
X139943866Y-104476843D01*
X139943866Y-104476843D02*
X139943866Y-104667319D01*
X139943866Y-104667319D02*
X139896247Y-104762557D01*
X139896247Y-104762557D02*
X139848628Y-104810176D01*
X139848628Y-104810176D02*
X139753390Y-104857795D01*
X154003333Y-42404819D02*
X154003333Y-43119104D01*
X154003333Y-43119104D02*
X154050952Y-43261961D01*
X154050952Y-43261961D02*
X154146190Y-43357200D01*
X154146190Y-43357200D02*
X154289047Y-43404819D01*
X154289047Y-43404819D02*
X154384285Y-43404819D01*
X153384285Y-42833390D02*
X153479523Y-42785771D01*
X153479523Y-42785771D02*
X153527142Y-42738152D01*
X153527142Y-42738152D02*
X153574761Y-42642914D01*
X153574761Y-42642914D02*
X153574761Y-42595295D01*
X153574761Y-42595295D02*
X153527142Y-42500057D01*
X153527142Y-42500057D02*
X153479523Y-42452438D01*
X153479523Y-42452438D02*
X153384285Y-42404819D01*
X153384285Y-42404819D02*
X153193809Y-42404819D01*
X153193809Y-42404819D02*
X153098571Y-42452438D01*
X153098571Y-42452438D02*
X153050952Y-42500057D01*
X153050952Y-42500057D02*
X153003333Y-42595295D01*
X153003333Y-42595295D02*
X153003333Y-42642914D01*
X153003333Y-42642914D02*
X153050952Y-42738152D01*
X153050952Y-42738152D02*
X153098571Y-42785771D01*
X153098571Y-42785771D02*
X153193809Y-42833390D01*
X153193809Y-42833390D02*
X153384285Y-42833390D01*
X153384285Y-42833390D02*
X153479523Y-42881009D01*
X153479523Y-42881009D02*
X153527142Y-42928628D01*
X153527142Y-42928628D02*
X153574761Y-43023866D01*
X153574761Y-43023866D02*
X153574761Y-43214342D01*
X153574761Y-43214342D02*
X153527142Y-43309580D01*
X153527142Y-43309580D02*
X153479523Y-43357200D01*
X153479523Y-43357200D02*
X153384285Y-43404819D01*
X153384285Y-43404819D02*
X153193809Y-43404819D01*
X153193809Y-43404819D02*
X153098571Y-43357200D01*
X153098571Y-43357200D02*
X153050952Y-43309580D01*
X153050952Y-43309580D02*
X153003333Y-43214342D01*
X153003333Y-43214342D02*
X153003333Y-43023866D01*
X153003333Y-43023866D02*
X153050952Y-42928628D01*
X153050952Y-42928628D02*
X153098571Y-42881009D01*
X153098571Y-42881009D02*
X153193809Y-42833390D01*
X181078094Y-112634819D02*
X181078094Y-111634819D01*
X181078094Y-111634819D02*
X180839999Y-111634819D01*
X180839999Y-111634819D02*
X180697142Y-111682438D01*
X180697142Y-111682438D02*
X180601904Y-111777676D01*
X180601904Y-111777676D02*
X180554285Y-111872914D01*
X180554285Y-111872914D02*
X180506666Y-112063390D01*
X180506666Y-112063390D02*
X180506666Y-112206247D01*
X180506666Y-112206247D02*
X180554285Y-112396723D01*
X180554285Y-112396723D02*
X180601904Y-112491961D01*
X180601904Y-112491961D02*
X180697142Y-112587200D01*
X180697142Y-112587200D02*
X180839999Y-112634819D01*
X180839999Y-112634819D02*
X181078094Y-112634819D01*
X179649523Y-111968152D02*
X179649523Y-112634819D01*
X179887618Y-111587200D02*
X180125713Y-112301485D01*
X180125713Y-112301485D02*
X179506666Y-112301485D01*
X184411904Y-112954819D02*
X184411904Y-111954819D01*
X183840476Y-112954819D02*
X184269047Y-112383390D01*
X183840476Y-111954819D02*
X184411904Y-112526247D01*
X131143333Y-42404819D02*
X131143333Y-43119104D01*
X131143333Y-43119104D02*
X131190952Y-43261961D01*
X131190952Y-43261961D02*
X131286190Y-43357200D01*
X131286190Y-43357200D02*
X131429047Y-43404819D01*
X131429047Y-43404819D02*
X131524285Y-43404819D01*
X130762380Y-42404819D02*
X130095714Y-42404819D01*
X130095714Y-42404819D02*
X130524285Y-43404819D01*
X147944819Y-69683333D02*
X147468628Y-69350000D01*
X147944819Y-69111905D02*
X146944819Y-69111905D01*
X146944819Y-69111905D02*
X146944819Y-69492857D01*
X146944819Y-69492857D02*
X146992438Y-69588095D01*
X146992438Y-69588095D02*
X147040057Y-69635714D01*
X147040057Y-69635714D02*
X147135295Y-69683333D01*
X147135295Y-69683333D02*
X147278152Y-69683333D01*
X147278152Y-69683333D02*
X147373390Y-69635714D01*
X147373390Y-69635714D02*
X147421009Y-69588095D01*
X147421009Y-69588095D02*
X147468628Y-69492857D01*
X147468628Y-69492857D02*
X147468628Y-69111905D01*
X146944819Y-70540476D02*
X146944819Y-70350000D01*
X146944819Y-70350000D02*
X146992438Y-70254762D01*
X146992438Y-70254762D02*
X147040057Y-70207143D01*
X147040057Y-70207143D02*
X147182914Y-70111905D01*
X147182914Y-70111905D02*
X147373390Y-70064286D01*
X147373390Y-70064286D02*
X147754342Y-70064286D01*
X147754342Y-70064286D02*
X147849580Y-70111905D01*
X147849580Y-70111905D02*
X147897200Y-70159524D01*
X147897200Y-70159524D02*
X147944819Y-70254762D01*
X147944819Y-70254762D02*
X147944819Y-70445238D01*
X147944819Y-70445238D02*
X147897200Y-70540476D01*
X147897200Y-70540476D02*
X147849580Y-70588095D01*
X147849580Y-70588095D02*
X147754342Y-70635714D01*
X147754342Y-70635714D02*
X147516247Y-70635714D01*
X147516247Y-70635714D02*
X147421009Y-70588095D01*
X147421009Y-70588095D02*
X147373390Y-70540476D01*
X147373390Y-70540476D02*
X147325771Y-70445238D01*
X147325771Y-70445238D02*
X147325771Y-70254762D01*
X147325771Y-70254762D02*
X147373390Y-70159524D01*
X147373390Y-70159524D02*
X147421009Y-70111905D01*
X147421009Y-70111905D02*
X147516247Y-70064286D01*
X181554285Y-117714819D02*
X181554285Y-116714819D01*
X181554285Y-116714819D02*
X181316190Y-116714819D01*
X181316190Y-116714819D02*
X181173333Y-116762438D01*
X181173333Y-116762438D02*
X181078095Y-116857676D01*
X181078095Y-116857676D02*
X181030476Y-116952914D01*
X181030476Y-116952914D02*
X180982857Y-117143390D01*
X180982857Y-117143390D02*
X180982857Y-117286247D01*
X180982857Y-117286247D02*
X181030476Y-117476723D01*
X181030476Y-117476723D02*
X181078095Y-117571961D01*
X181078095Y-117571961D02*
X181173333Y-117667200D01*
X181173333Y-117667200D02*
X181316190Y-117714819D01*
X181316190Y-117714819D02*
X181554285Y-117714819D01*
X180030476Y-117714819D02*
X180601904Y-117714819D01*
X180316190Y-117714819D02*
X180316190Y-116714819D01*
X180316190Y-116714819D02*
X180411428Y-116857676D01*
X180411428Y-116857676D02*
X180506666Y-116952914D01*
X180506666Y-116952914D02*
X180601904Y-117000533D01*
X179411428Y-116714819D02*
X179316190Y-116714819D01*
X179316190Y-116714819D02*
X179220952Y-116762438D01*
X179220952Y-116762438D02*
X179173333Y-116810057D01*
X179173333Y-116810057D02*
X179125714Y-116905295D01*
X179125714Y-116905295D02*
X179078095Y-117095771D01*
X179078095Y-117095771D02*
X179078095Y-117333866D01*
X179078095Y-117333866D02*
X179125714Y-117524342D01*
X179125714Y-117524342D02*
X179173333Y-117619580D01*
X179173333Y-117619580D02*
X179220952Y-117667200D01*
X179220952Y-117667200D02*
X179316190Y-117714819D01*
X179316190Y-117714819D02*
X179411428Y-117714819D01*
X179411428Y-117714819D02*
X179506666Y-117667200D01*
X179506666Y-117667200D02*
X179554285Y-117619580D01*
X179554285Y-117619580D02*
X179601904Y-117524342D01*
X179601904Y-117524342D02*
X179649523Y-117333866D01*
X179649523Y-117333866D02*
X179649523Y-117095771D01*
X179649523Y-117095771D02*
X179601904Y-116905295D01*
X179601904Y-116905295D02*
X179554285Y-116810057D01*
X179554285Y-116810057D02*
X179506666Y-116762438D01*
X179506666Y-116762438D02*
X179411428Y-116714819D01*
X184411904Y-118034819D02*
X184411904Y-117034819D01*
X183840476Y-118034819D02*
X184269047Y-117463390D01*
X183840476Y-117034819D02*
X184411904Y-117606247D01*
X140324819Y-124225414D02*
X139848628Y-123892081D01*
X140324819Y-123653986D02*
X139324819Y-123653986D01*
X139324819Y-123653986D02*
X139324819Y-124034938D01*
X139324819Y-124034938D02*
X139372438Y-124130176D01*
X139372438Y-124130176D02*
X139420057Y-124177795D01*
X139420057Y-124177795D02*
X139515295Y-124225414D01*
X139515295Y-124225414D02*
X139658152Y-124225414D01*
X139658152Y-124225414D02*
X139753390Y-124177795D01*
X139753390Y-124177795D02*
X139801009Y-124130176D01*
X139801009Y-124130176D02*
X139848628Y-124034938D01*
X139848628Y-124034938D02*
X139848628Y-123653986D01*
X139324819Y-124558748D02*
X139324819Y-125177795D01*
X139324819Y-125177795D02*
X139705771Y-124844462D01*
X139705771Y-124844462D02*
X139705771Y-124987319D01*
X139705771Y-124987319D02*
X139753390Y-125082557D01*
X139753390Y-125082557D02*
X139801009Y-125130176D01*
X139801009Y-125130176D02*
X139896247Y-125177795D01*
X139896247Y-125177795D02*
X140134342Y-125177795D01*
X140134342Y-125177795D02*
X140229580Y-125130176D01*
X140229580Y-125130176D02*
X140277200Y-125082557D01*
X140277200Y-125082557D02*
X140324819Y-124987319D01*
X140324819Y-124987319D02*
X140324819Y-124701605D01*
X140324819Y-124701605D02*
X140277200Y-124606367D01*
X140277200Y-124606367D02*
X140229580Y-124558748D01*
X152684819Y-81113333D02*
X152208628Y-80780000D01*
X152684819Y-80541905D02*
X151684819Y-80541905D01*
X151684819Y-80541905D02*
X151684819Y-80922857D01*
X151684819Y-80922857D02*
X151732438Y-81018095D01*
X151732438Y-81018095D02*
X151780057Y-81065714D01*
X151780057Y-81065714D02*
X151875295Y-81113333D01*
X151875295Y-81113333D02*
X152018152Y-81113333D01*
X152018152Y-81113333D02*
X152113390Y-81065714D01*
X152113390Y-81065714D02*
X152161009Y-81018095D01*
X152161009Y-81018095D02*
X152208628Y-80922857D01*
X152208628Y-80922857D02*
X152208628Y-80541905D01*
X152113390Y-81684762D02*
X152065771Y-81589524D01*
X152065771Y-81589524D02*
X152018152Y-81541905D01*
X152018152Y-81541905D02*
X151922914Y-81494286D01*
X151922914Y-81494286D02*
X151875295Y-81494286D01*
X151875295Y-81494286D02*
X151780057Y-81541905D01*
X151780057Y-81541905D02*
X151732438Y-81589524D01*
X151732438Y-81589524D02*
X151684819Y-81684762D01*
X151684819Y-81684762D02*
X151684819Y-81875238D01*
X151684819Y-81875238D02*
X151732438Y-81970476D01*
X151732438Y-81970476D02*
X151780057Y-82018095D01*
X151780057Y-82018095D02*
X151875295Y-82065714D01*
X151875295Y-82065714D02*
X151922914Y-82065714D01*
X151922914Y-82065714D02*
X152018152Y-82018095D01*
X152018152Y-82018095D02*
X152065771Y-81970476D01*
X152065771Y-81970476D02*
X152113390Y-81875238D01*
X152113390Y-81875238D02*
X152113390Y-81684762D01*
X152113390Y-81684762D02*
X152161009Y-81589524D01*
X152161009Y-81589524D02*
X152208628Y-81541905D01*
X152208628Y-81541905D02*
X152303866Y-81494286D01*
X152303866Y-81494286D02*
X152494342Y-81494286D01*
X152494342Y-81494286D02*
X152589580Y-81541905D01*
X152589580Y-81541905D02*
X152637200Y-81589524D01*
X152637200Y-81589524D02*
X152684819Y-81684762D01*
X152684819Y-81684762D02*
X152684819Y-81875238D01*
X152684819Y-81875238D02*
X152637200Y-81970476D01*
X152637200Y-81970476D02*
X152589580Y-82018095D01*
X152589580Y-82018095D02*
X152494342Y-82065714D01*
X152494342Y-82065714D02*
X152303866Y-82065714D01*
X152303866Y-82065714D02*
X152208628Y-82018095D01*
X152208628Y-82018095D02*
X152161009Y-81970476D01*
X152161009Y-81970476D02*
X152113390Y-81875238D01*
X181078094Y-101634819D02*
X181078094Y-100634819D01*
X181078094Y-100634819D02*
X180839999Y-100634819D01*
X180839999Y-100634819D02*
X180697142Y-100682438D01*
X180697142Y-100682438D02*
X180601904Y-100777676D01*
X180601904Y-100777676D02*
X180554285Y-100872914D01*
X180554285Y-100872914D02*
X180506666Y-101063390D01*
X180506666Y-101063390D02*
X180506666Y-101206247D01*
X180506666Y-101206247D02*
X180554285Y-101396723D01*
X180554285Y-101396723D02*
X180601904Y-101491961D01*
X180601904Y-101491961D02*
X180697142Y-101587200D01*
X180697142Y-101587200D02*
X180839999Y-101634819D01*
X180839999Y-101634819D02*
X181078094Y-101634819D01*
X180173332Y-100634819D02*
X179506666Y-100634819D01*
X179506666Y-100634819D02*
X179935237Y-101634819D01*
X176791904Y-101314819D02*
X176791904Y-100314819D01*
X176220476Y-101314819D02*
X176649047Y-100743390D01*
X176220476Y-100314819D02*
X176791904Y-100886247D01*
X144359580Y-83673333D02*
X144407200Y-83625714D01*
X144407200Y-83625714D02*
X144454819Y-83482857D01*
X144454819Y-83482857D02*
X144454819Y-83387619D01*
X144454819Y-83387619D02*
X144407200Y-83244762D01*
X144407200Y-83244762D02*
X144311961Y-83149524D01*
X144311961Y-83149524D02*
X144216723Y-83101905D01*
X144216723Y-83101905D02*
X144026247Y-83054286D01*
X144026247Y-83054286D02*
X143883390Y-83054286D01*
X143883390Y-83054286D02*
X143692914Y-83101905D01*
X143692914Y-83101905D02*
X143597676Y-83149524D01*
X143597676Y-83149524D02*
X143502438Y-83244762D01*
X143502438Y-83244762D02*
X143454819Y-83387619D01*
X143454819Y-83387619D02*
X143454819Y-83482857D01*
X143454819Y-83482857D02*
X143502438Y-83625714D01*
X143502438Y-83625714D02*
X143550057Y-83673333D01*
X143550057Y-84054286D02*
X143502438Y-84101905D01*
X143502438Y-84101905D02*
X143454819Y-84197143D01*
X143454819Y-84197143D02*
X143454819Y-84435238D01*
X143454819Y-84435238D02*
X143502438Y-84530476D01*
X143502438Y-84530476D02*
X143550057Y-84578095D01*
X143550057Y-84578095D02*
X143645295Y-84625714D01*
X143645295Y-84625714D02*
X143740533Y-84625714D01*
X143740533Y-84625714D02*
X143883390Y-84578095D01*
X143883390Y-84578095D02*
X144454819Y-84006667D01*
X144454819Y-84006667D02*
X144454819Y-84625714D01*
X140324819Y-114065414D02*
X139848628Y-113732081D01*
X140324819Y-113493986D02*
X139324819Y-113493986D01*
X139324819Y-113493986D02*
X139324819Y-113874938D01*
X139324819Y-113874938D02*
X139372438Y-113970176D01*
X139372438Y-113970176D02*
X139420057Y-114017795D01*
X139420057Y-114017795D02*
X139515295Y-114065414D01*
X139515295Y-114065414D02*
X139658152Y-114065414D01*
X139658152Y-114065414D02*
X139753390Y-114017795D01*
X139753390Y-114017795D02*
X139801009Y-113970176D01*
X139801009Y-113970176D02*
X139848628Y-113874938D01*
X139848628Y-113874938D02*
X139848628Y-113493986D01*
X139420057Y-114446367D02*
X139372438Y-114493986D01*
X139372438Y-114493986D02*
X139324819Y-114589224D01*
X139324819Y-114589224D02*
X139324819Y-114827319D01*
X139324819Y-114827319D02*
X139372438Y-114922557D01*
X139372438Y-114922557D02*
X139420057Y-114970176D01*
X139420057Y-114970176D02*
X139515295Y-115017795D01*
X139515295Y-115017795D02*
X139610533Y-115017795D01*
X139610533Y-115017795D02*
X139753390Y-114970176D01*
X139753390Y-114970176D02*
X140324819Y-114398748D01*
X140324819Y-114398748D02*
X140324819Y-115017795D01*
X140549580Y-57003333D02*
X140597200Y-56955714D01*
X140597200Y-56955714D02*
X140644819Y-56812857D01*
X140644819Y-56812857D02*
X140644819Y-56717619D01*
X140644819Y-56717619D02*
X140597200Y-56574762D01*
X140597200Y-56574762D02*
X140501961Y-56479524D01*
X140501961Y-56479524D02*
X140406723Y-56431905D01*
X140406723Y-56431905D02*
X140216247Y-56384286D01*
X140216247Y-56384286D02*
X140073390Y-56384286D01*
X140073390Y-56384286D02*
X139882914Y-56431905D01*
X139882914Y-56431905D02*
X139787676Y-56479524D01*
X139787676Y-56479524D02*
X139692438Y-56574762D01*
X139692438Y-56574762D02*
X139644819Y-56717619D01*
X139644819Y-56717619D02*
X139644819Y-56812857D01*
X139644819Y-56812857D02*
X139692438Y-56955714D01*
X139692438Y-56955714D02*
X139740057Y-57003333D01*
X140644819Y-57955714D02*
X140644819Y-57384286D01*
X140644819Y-57670000D02*
X139644819Y-57670000D01*
X139644819Y-57670000D02*
X139787676Y-57574762D01*
X139787676Y-57574762D02*
X139882914Y-57479524D01*
X139882914Y-57479524D02*
X139930533Y-57384286D01*
X144814819Y-133337795D02*
X143814819Y-133337795D01*
X143814819Y-133337795D02*
X143814819Y-133575890D01*
X143814819Y-133575890D02*
X143862438Y-133718747D01*
X143862438Y-133718747D02*
X143957676Y-133813985D01*
X143957676Y-133813985D02*
X144052914Y-133861604D01*
X144052914Y-133861604D02*
X144243390Y-133909223D01*
X144243390Y-133909223D02*
X144386247Y-133909223D01*
X144386247Y-133909223D02*
X144576723Y-133861604D01*
X144576723Y-133861604D02*
X144671961Y-133813985D01*
X144671961Y-133813985D02*
X144767200Y-133718747D01*
X144767200Y-133718747D02*
X144814819Y-133575890D01*
X144814819Y-133575890D02*
X144814819Y-133337795D01*
X144814819Y-134861604D02*
X144814819Y-134290176D01*
X144814819Y-134575890D02*
X143814819Y-134575890D01*
X143814819Y-134575890D02*
X143957676Y-134480652D01*
X143957676Y-134480652D02*
X144052914Y-134385414D01*
X144052914Y-134385414D02*
X144100533Y-134290176D01*
X143910057Y-135242557D02*
X143862438Y-135290176D01*
X143862438Y-135290176D02*
X143814819Y-135385414D01*
X143814819Y-135385414D02*
X143814819Y-135623509D01*
X143814819Y-135623509D02*
X143862438Y-135718747D01*
X143862438Y-135718747D02*
X143910057Y-135766366D01*
X143910057Y-135766366D02*
X144005295Y-135813985D01*
X144005295Y-135813985D02*
X144100533Y-135813985D01*
X144100533Y-135813985D02*
X144243390Y-135766366D01*
X144243390Y-135766366D02*
X144814819Y-135194938D01*
X144814819Y-135194938D02*
X144814819Y-135813985D01*
X144494819Y-138100176D02*
X143494819Y-138100176D01*
X144494819Y-138671604D02*
X143923390Y-138243033D01*
X143494819Y-138671604D02*
X144066247Y-138100176D01*
X181078094Y-96554819D02*
X181078094Y-95554819D01*
X181078094Y-95554819D02*
X180839999Y-95554819D01*
X180839999Y-95554819D02*
X180697142Y-95602438D01*
X180697142Y-95602438D02*
X180601904Y-95697676D01*
X180601904Y-95697676D02*
X180554285Y-95792914D01*
X180554285Y-95792914D02*
X180506666Y-95983390D01*
X180506666Y-95983390D02*
X180506666Y-96126247D01*
X180506666Y-96126247D02*
X180554285Y-96316723D01*
X180554285Y-96316723D02*
X180601904Y-96411961D01*
X180601904Y-96411961D02*
X180697142Y-96507200D01*
X180697142Y-96507200D02*
X180839999Y-96554819D01*
X180839999Y-96554819D02*
X181078094Y-96554819D01*
X179601904Y-95554819D02*
X180078094Y-95554819D01*
X180078094Y-95554819D02*
X180125713Y-96031009D01*
X180125713Y-96031009D02*
X180078094Y-95983390D01*
X180078094Y-95983390D02*
X179982856Y-95935771D01*
X179982856Y-95935771D02*
X179744761Y-95935771D01*
X179744761Y-95935771D02*
X179649523Y-95983390D01*
X179649523Y-95983390D02*
X179601904Y-96031009D01*
X179601904Y-96031009D02*
X179554285Y-96126247D01*
X179554285Y-96126247D02*
X179554285Y-96364342D01*
X179554285Y-96364342D02*
X179601904Y-96459580D01*
X179601904Y-96459580D02*
X179649523Y-96507200D01*
X179649523Y-96507200D02*
X179744761Y-96554819D01*
X179744761Y-96554819D02*
X179982856Y-96554819D01*
X179982856Y-96554819D02*
X180078094Y-96507200D01*
X180078094Y-96507200D02*
X180125713Y-96459580D01*
X176791904Y-96234819D02*
X176791904Y-95234819D01*
X176220476Y-96234819D02*
X176649047Y-95663390D01*
X176220476Y-95234819D02*
X176791904Y-95806247D01*
X136056666Y-138986900D02*
X136389999Y-138510709D01*
X136628094Y-138986900D02*
X136628094Y-137986900D01*
X136628094Y-137986900D02*
X136247142Y-137986900D01*
X136247142Y-137986900D02*
X136151904Y-138034519D01*
X136151904Y-138034519D02*
X136104285Y-138082138D01*
X136104285Y-138082138D02*
X136056666Y-138177376D01*
X136056666Y-138177376D02*
X136056666Y-138320233D01*
X136056666Y-138320233D02*
X136104285Y-138415471D01*
X136104285Y-138415471D02*
X136151904Y-138463090D01*
X136151904Y-138463090D02*
X136247142Y-138510709D01*
X136247142Y-138510709D02*
X136628094Y-138510709D01*
X135151904Y-137986900D02*
X135628094Y-137986900D01*
X135628094Y-137986900D02*
X135675713Y-138463090D01*
X135675713Y-138463090D02*
X135628094Y-138415471D01*
X135628094Y-138415471D02*
X135532856Y-138367852D01*
X135532856Y-138367852D02*
X135294761Y-138367852D01*
X135294761Y-138367852D02*
X135199523Y-138415471D01*
X135199523Y-138415471D02*
X135151904Y-138463090D01*
X135151904Y-138463090D02*
X135104285Y-138558328D01*
X135104285Y-138558328D02*
X135104285Y-138796423D01*
X135104285Y-138796423D02*
X135151904Y-138891661D01*
X135151904Y-138891661D02*
X135199523Y-138939281D01*
X135199523Y-138939281D02*
X135294761Y-138986900D01*
X135294761Y-138986900D02*
X135532856Y-138986900D01*
X135532856Y-138986900D02*
X135628094Y-138939281D01*
X135628094Y-138939281D02*
X135675713Y-138891661D01*
X180982857Y-127284819D02*
X181316190Y-126808628D01*
X181554285Y-127284819D02*
X181554285Y-126284819D01*
X181554285Y-126284819D02*
X181173333Y-126284819D01*
X181173333Y-126284819D02*
X181078095Y-126332438D01*
X181078095Y-126332438D02*
X181030476Y-126380057D01*
X181030476Y-126380057D02*
X180982857Y-126475295D01*
X180982857Y-126475295D02*
X180982857Y-126618152D01*
X180982857Y-126618152D02*
X181030476Y-126713390D01*
X181030476Y-126713390D02*
X181078095Y-126761009D01*
X181078095Y-126761009D02*
X181173333Y-126808628D01*
X181173333Y-126808628D02*
X181554285Y-126808628D01*
X180030476Y-127284819D02*
X180601904Y-127284819D01*
X180316190Y-127284819D02*
X180316190Y-126284819D01*
X180316190Y-126284819D02*
X180411428Y-126427676D01*
X180411428Y-126427676D02*
X180506666Y-126522914D01*
X180506666Y-126522914D02*
X180601904Y-126570533D01*
X179411428Y-126284819D02*
X179316190Y-126284819D01*
X179316190Y-126284819D02*
X179220952Y-126332438D01*
X179220952Y-126332438D02*
X179173333Y-126380057D01*
X179173333Y-126380057D02*
X179125714Y-126475295D01*
X179125714Y-126475295D02*
X179078095Y-126665771D01*
X179078095Y-126665771D02*
X179078095Y-126903866D01*
X179078095Y-126903866D02*
X179125714Y-127094342D01*
X179125714Y-127094342D02*
X179173333Y-127189580D01*
X179173333Y-127189580D02*
X179220952Y-127237200D01*
X179220952Y-127237200D02*
X179316190Y-127284819D01*
X179316190Y-127284819D02*
X179411428Y-127284819D01*
X179411428Y-127284819D02*
X179506666Y-127237200D01*
X179506666Y-127237200D02*
X179554285Y-127189580D01*
X179554285Y-127189580D02*
X179601904Y-127094342D01*
X179601904Y-127094342D02*
X179649523Y-126903866D01*
X179649523Y-126903866D02*
X179649523Y-126665771D01*
X179649523Y-126665771D02*
X179601904Y-126475295D01*
X179601904Y-126475295D02*
X179554285Y-126380057D01*
X179554285Y-126380057D02*
X179506666Y-126332438D01*
X179506666Y-126332438D02*
X179411428Y-126284819D01*
X168614819Y-138096666D02*
X169329104Y-138096666D01*
X169329104Y-138096666D02*
X169471961Y-138049047D01*
X169471961Y-138049047D02*
X169567200Y-137953809D01*
X169567200Y-137953809D02*
X169614819Y-137810952D01*
X169614819Y-137810952D02*
X169614819Y-137715714D01*
X168614819Y-139049047D02*
X168614819Y-138572857D01*
X168614819Y-138572857D02*
X169091009Y-138525238D01*
X169091009Y-138525238D02*
X169043390Y-138572857D01*
X169043390Y-138572857D02*
X168995771Y-138668095D01*
X168995771Y-138668095D02*
X168995771Y-138906190D01*
X168995771Y-138906190D02*
X169043390Y-139001428D01*
X169043390Y-139001428D02*
X169091009Y-139049047D01*
X169091009Y-139049047D02*
X169186247Y-139096666D01*
X169186247Y-139096666D02*
X169424342Y-139096666D01*
X169424342Y-139096666D02*
X169519580Y-139049047D01*
X169519580Y-139049047D02*
X169567200Y-139001428D01*
X169567200Y-139001428D02*
X169614819Y-138906190D01*
X169614819Y-138906190D02*
X169614819Y-138668095D01*
X169614819Y-138668095D02*
X169567200Y-138572857D01*
X169567200Y-138572857D02*
X169519580Y-138525238D01*
X181054285Y-86529104D02*
X180578095Y-86529104D01*
X181149523Y-86814819D02*
X180816190Y-85814819D01*
X180816190Y-85814819D02*
X180482857Y-86814819D01*
X179625714Y-86814819D02*
X180197142Y-86814819D01*
X179911428Y-86814819D02*
X179911428Y-85814819D01*
X179911428Y-85814819D02*
X180006666Y-85957676D01*
X180006666Y-85957676D02*
X180101904Y-86052914D01*
X180101904Y-86052914D02*
X180197142Y-86100533D01*
X179078095Y-46265180D02*
X179078095Y-45455657D01*
X179078095Y-45455657D02*
X179125714Y-45360419D01*
X179125714Y-45360419D02*
X179173333Y-45312800D01*
X179173333Y-45312800D02*
X179268571Y-45265180D01*
X179268571Y-45265180D02*
X179459047Y-45265180D01*
X179459047Y-45265180D02*
X179554285Y-45312800D01*
X179554285Y-45312800D02*
X179601904Y-45360419D01*
X179601904Y-45360419D02*
X179649523Y-45455657D01*
X179649523Y-45455657D02*
X179649523Y-46265180D01*
X180078095Y-45312800D02*
X180220952Y-45265180D01*
X180220952Y-45265180D02*
X180459047Y-45265180D01*
X180459047Y-45265180D02*
X180554285Y-45312800D01*
X180554285Y-45312800D02*
X180601904Y-45360419D01*
X180601904Y-45360419D02*
X180649523Y-45455657D01*
X180649523Y-45455657D02*
X180649523Y-45550895D01*
X180649523Y-45550895D02*
X180601904Y-45646133D01*
X180601904Y-45646133D02*
X180554285Y-45693752D01*
X180554285Y-45693752D02*
X180459047Y-45741371D01*
X180459047Y-45741371D02*
X180268571Y-45788990D01*
X180268571Y-45788990D02*
X180173333Y-45836609D01*
X180173333Y-45836609D02*
X180125714Y-45884228D01*
X180125714Y-45884228D02*
X180078095Y-45979466D01*
X180078095Y-45979466D02*
X180078095Y-46074704D01*
X180078095Y-46074704D02*
X180125714Y-46169942D01*
X180125714Y-46169942D02*
X180173333Y-46217561D01*
X180173333Y-46217561D02*
X180268571Y-46265180D01*
X180268571Y-46265180D02*
X180506666Y-46265180D01*
X180506666Y-46265180D02*
X180649523Y-46217561D01*
X181411428Y-45788990D02*
X181554285Y-45741371D01*
X181554285Y-45741371D02*
X181601904Y-45693752D01*
X181601904Y-45693752D02*
X181649523Y-45598514D01*
X181649523Y-45598514D02*
X181649523Y-45455657D01*
X181649523Y-45455657D02*
X181601904Y-45360419D01*
X181601904Y-45360419D02*
X181554285Y-45312800D01*
X181554285Y-45312800D02*
X181459047Y-45265180D01*
X181459047Y-45265180D02*
X181078095Y-45265180D01*
X181078095Y-45265180D02*
X181078095Y-46265180D01*
X181078095Y-46265180D02*
X181411428Y-46265180D01*
X181411428Y-46265180D02*
X181506666Y-46217561D01*
X181506666Y-46217561D02*
X181554285Y-46169942D01*
X181554285Y-46169942D02*
X181601904Y-46074704D01*
X181601904Y-46074704D02*
X181601904Y-45979466D01*
X181601904Y-45979466D02*
X181554285Y-45884228D01*
X181554285Y-45884228D02*
X181506666Y-45836609D01*
X181506666Y-45836609D02*
X181411428Y-45788990D01*
X181411428Y-45788990D02*
X181078095Y-45788990D01*
X181078094Y-111794819D02*
X181078094Y-110794819D01*
X181078094Y-110794819D02*
X180839999Y-110794819D01*
X180839999Y-110794819D02*
X180697142Y-110842438D01*
X180697142Y-110842438D02*
X180601904Y-110937676D01*
X180601904Y-110937676D02*
X180554285Y-111032914D01*
X180554285Y-111032914D02*
X180506666Y-111223390D01*
X180506666Y-111223390D02*
X180506666Y-111366247D01*
X180506666Y-111366247D02*
X180554285Y-111556723D01*
X180554285Y-111556723D02*
X180601904Y-111651961D01*
X180601904Y-111651961D02*
X180697142Y-111747200D01*
X180697142Y-111747200D02*
X180839999Y-111794819D01*
X180839999Y-111794819D02*
X181078094Y-111794819D01*
X180173332Y-110794819D02*
X179554285Y-110794819D01*
X179554285Y-110794819D02*
X179887618Y-111175771D01*
X179887618Y-111175771D02*
X179744761Y-111175771D01*
X179744761Y-111175771D02*
X179649523Y-111223390D01*
X179649523Y-111223390D02*
X179601904Y-111271009D01*
X179601904Y-111271009D02*
X179554285Y-111366247D01*
X179554285Y-111366247D02*
X179554285Y-111604342D01*
X179554285Y-111604342D02*
X179601904Y-111699580D01*
X179601904Y-111699580D02*
X179649523Y-111747200D01*
X179649523Y-111747200D02*
X179744761Y-111794819D01*
X179744761Y-111794819D02*
X180030475Y-111794819D01*
X180030475Y-111794819D02*
X180125713Y-111747200D01*
X180125713Y-111747200D02*
X180173332Y-111699580D01*
X176791904Y-111474819D02*
X176791904Y-110474819D01*
X176220476Y-111474819D02*
X176649047Y-110903390D01*
X176220476Y-110474819D02*
X176791904Y-111046247D01*
X181078094Y-87234819D02*
X181078094Y-86234819D01*
X181078094Y-86234819D02*
X180839999Y-86234819D01*
X180839999Y-86234819D02*
X180697142Y-86282438D01*
X180697142Y-86282438D02*
X180601904Y-86377676D01*
X180601904Y-86377676D02*
X180554285Y-86472914D01*
X180554285Y-86472914D02*
X180506666Y-86663390D01*
X180506666Y-86663390D02*
X180506666Y-86806247D01*
X180506666Y-86806247D02*
X180554285Y-86996723D01*
X180554285Y-86996723D02*
X180601904Y-87091961D01*
X180601904Y-87091961D02*
X180697142Y-87187200D01*
X180697142Y-87187200D02*
X180839999Y-87234819D01*
X180839999Y-87234819D02*
X181078094Y-87234819D01*
X179554285Y-87234819D02*
X180125713Y-87234819D01*
X179839999Y-87234819D02*
X179839999Y-86234819D01*
X179839999Y-86234819D02*
X179935237Y-86377676D01*
X179935237Y-86377676D02*
X180030475Y-86472914D01*
X180030475Y-86472914D02*
X180125713Y-86520533D01*
X184411904Y-87554819D02*
X184411904Y-86554819D01*
X183840476Y-87554819D02*
X184269047Y-86983390D01*
X183840476Y-86554819D02*
X184411904Y-87126247D01*
X181554285Y-132114819D02*
X181554285Y-131114819D01*
X181554285Y-131114819D02*
X181316190Y-131114819D01*
X181316190Y-131114819D02*
X181173333Y-131162438D01*
X181173333Y-131162438D02*
X181078095Y-131257676D01*
X181078095Y-131257676D02*
X181030476Y-131352914D01*
X181030476Y-131352914D02*
X180982857Y-131543390D01*
X180982857Y-131543390D02*
X180982857Y-131686247D01*
X180982857Y-131686247D02*
X181030476Y-131876723D01*
X181030476Y-131876723D02*
X181078095Y-131971961D01*
X181078095Y-131971961D02*
X181173333Y-132067200D01*
X181173333Y-132067200D02*
X181316190Y-132114819D01*
X181316190Y-132114819D02*
X181554285Y-132114819D01*
X180030476Y-132114819D02*
X180601904Y-132114819D01*
X180316190Y-132114819D02*
X180316190Y-131114819D01*
X180316190Y-131114819D02*
X180411428Y-131257676D01*
X180411428Y-131257676D02*
X180506666Y-131352914D01*
X180506666Y-131352914D02*
X180601904Y-131400533D01*
X179078095Y-132114819D02*
X179649523Y-132114819D01*
X179363809Y-132114819D02*
X179363809Y-131114819D01*
X179363809Y-131114819D02*
X179459047Y-131257676D01*
X179459047Y-131257676D02*
X179554285Y-131352914D01*
X179554285Y-131352914D02*
X179649523Y-131400533D01*
X176791904Y-131794819D02*
X176791904Y-130794819D01*
X176220476Y-131794819D02*
X176649047Y-131223390D01*
X176220476Y-130794819D02*
X176791904Y-131366247D01*
X132364819Y-134385414D02*
X131888628Y-134052081D01*
X132364819Y-133813986D02*
X131364819Y-133813986D01*
X131364819Y-133813986D02*
X131364819Y-134194938D01*
X131364819Y-134194938D02*
X131412438Y-134290176D01*
X131412438Y-134290176D02*
X131460057Y-134337795D01*
X131460057Y-134337795D02*
X131555295Y-134385414D01*
X131555295Y-134385414D02*
X131698152Y-134385414D01*
X131698152Y-134385414D02*
X131793390Y-134337795D01*
X131793390Y-134337795D02*
X131841009Y-134290176D01*
X131841009Y-134290176D02*
X131888628Y-134194938D01*
X131888628Y-134194938D02*
X131888628Y-133813986D01*
X131364819Y-134718748D02*
X131364819Y-135385414D01*
X131364819Y-135385414D02*
X132364819Y-134956843D01*
D11*
%TO.C,R1*%
X148490000Y-53880000D02*
X148820000Y-53880000D01*
X148490000Y-60420000D02*
X148490000Y-53880000D01*
X148820000Y-60420000D02*
X148490000Y-60420000D01*
X150900000Y-60420000D02*
X151230000Y-60420000D01*
X151230000Y-53880000D02*
X150900000Y-53880000D01*
X151230000Y-60420000D02*
X151230000Y-53880000D01*
%TO.C,D8*%
X178220000Y-103020000D02*
X178220000Y-105260000D01*
X178220000Y-104140000D02*
X177570000Y-104140000D01*
X178220000Y-105260000D02*
X182460000Y-105260000D01*
X178820000Y-103020000D02*
X178820000Y-105260000D01*
X178940000Y-103020000D02*
X178940000Y-105260000D01*
X179060000Y-103020000D02*
X179060000Y-105260000D01*
X182460000Y-103020000D02*
X178220000Y-103020000D01*
X182460000Y-104140000D02*
X183110000Y-104140000D01*
X182460000Y-105260000D02*
X182460000Y-103020000D01*
%TO.C,R4*%
X133250000Y-53880000D02*
X133250000Y-60420000D01*
X133250000Y-60420000D02*
X133580000Y-60420000D01*
X133580000Y-53880000D02*
X133250000Y-53880000D01*
X135660000Y-53880000D02*
X135990000Y-53880000D01*
X135990000Y-53880000D02*
X135990000Y-60420000D01*
X135990000Y-60420000D02*
X135660000Y-60420000D01*
%TO.C,R9*%
X143610000Y-107342081D02*
X143610000Y-100802081D01*
X143610000Y-100802081D02*
X143280000Y-100802081D01*
X143280000Y-107342081D02*
X143610000Y-107342081D01*
X141200000Y-107342081D02*
X140870000Y-107342081D01*
X140870000Y-107342081D02*
X140870000Y-100802081D01*
X140870000Y-100802081D02*
X141200000Y-100802081D01*
%TO.C,J8*%
X152340000Y-44390000D02*
X153670000Y-44390000D01*
X152340000Y-45720000D02*
X152340000Y-44390000D01*
X152340000Y-46990000D02*
X155000000Y-46990000D01*
X152340000Y-82610000D02*
X152340000Y-46990000D01*
X152340000Y-82610000D02*
X155000000Y-82610000D01*
X155000000Y-82610000D02*
X155000000Y-46990000D01*
%TO.C,D4*%
X178220000Y-113180000D02*
X178220000Y-115420000D01*
X178220000Y-114300000D02*
X177570000Y-114300000D01*
X178220000Y-115420000D02*
X182460000Y-115420000D01*
X181620000Y-115420000D02*
X181620000Y-113180000D01*
X181740000Y-115420000D02*
X181740000Y-113180000D01*
X181860000Y-115420000D02*
X181860000Y-113180000D01*
X182460000Y-113180000D02*
X178220000Y-113180000D01*
X182460000Y-114300000D02*
X183110000Y-114300000D01*
X182460000Y-115420000D02*
X182460000Y-113180000D01*
%TO.C,J7*%
X129480000Y-44390000D02*
X130810000Y-44390000D01*
X129480000Y-45720000D02*
X129480000Y-44390000D01*
X129480000Y-46990000D02*
X132140000Y-46990000D01*
X129480000Y-82610000D02*
X129480000Y-46990000D01*
X129480000Y-82610000D02*
X132140000Y-82610000D01*
X132140000Y-82610000D02*
X132140000Y-46990000D01*
%TO.C,R6*%
X148490000Y-66580000D02*
X148820000Y-66580000D01*
X148490000Y-73120000D02*
X148490000Y-66580000D01*
X148820000Y-73120000D02*
X148490000Y-73120000D01*
X150900000Y-73120000D02*
X151230000Y-73120000D01*
X151230000Y-66580000D02*
X150900000Y-66580000D01*
X151230000Y-73120000D02*
X151230000Y-66580000D01*
%TO.C,D10*%
X178220000Y-118260000D02*
X178220000Y-120500000D01*
X178220000Y-119380000D02*
X177570000Y-119380000D01*
X178220000Y-120500000D02*
X182460000Y-120500000D01*
X181620000Y-120500000D02*
X181620000Y-118260000D01*
X181740000Y-120500000D02*
X181740000Y-118260000D01*
X181860000Y-120500000D02*
X181860000Y-118260000D01*
X182460000Y-118260000D02*
X178220000Y-118260000D01*
X182460000Y-119380000D02*
X183110000Y-119380000D01*
X182460000Y-120500000D02*
X182460000Y-118260000D01*
%TO.C,R3*%
X143610000Y-127662081D02*
X143610000Y-121122081D01*
X143610000Y-121122081D02*
X143280000Y-121122081D01*
X143280000Y-127662081D02*
X143610000Y-127662081D01*
X141200000Y-127662081D02*
X140870000Y-127662081D01*
X140870000Y-127662081D02*
X140870000Y-121122081D01*
X140870000Y-121122081D02*
X141200000Y-121122081D01*
%TO.C,R8*%
X148490000Y-78010000D02*
X148490000Y-84550000D01*
X148490000Y-84550000D02*
X148820000Y-84550000D01*
X148820000Y-78010000D02*
X148490000Y-78010000D01*
X150900000Y-78010000D02*
X151230000Y-78010000D01*
X151230000Y-78010000D02*
X151230000Y-84550000D01*
X151230000Y-84550000D02*
X150900000Y-84550000D01*
%TO.C,D7*%
X178220000Y-97940000D02*
X178220000Y-100180000D01*
X178220000Y-99060000D02*
X177570000Y-99060000D01*
X178220000Y-100180000D02*
X182460000Y-100180000D01*
X178820000Y-97940000D02*
X178820000Y-100180000D01*
X178940000Y-97940000D02*
X178940000Y-100180000D01*
X179060000Y-97940000D02*
X179060000Y-100180000D01*
X182460000Y-97940000D02*
X178220000Y-97940000D01*
X182460000Y-99060000D02*
X183110000Y-99060000D01*
X182460000Y-100180000D02*
X182460000Y-97940000D01*
%TO.C,C2*%
X145130000Y-84469000D02*
X145130000Y-83211000D01*
X146970000Y-84469000D02*
X146970000Y-83211000D01*
%TO.C,R2*%
X140870000Y-110962081D02*
X141200000Y-110962081D01*
X140870000Y-117502081D02*
X140870000Y-110962081D01*
X141200000Y-117502081D02*
X140870000Y-117502081D01*
X143280000Y-117502081D02*
X143610000Y-117502081D01*
X143610000Y-110962081D02*
X143280000Y-110962081D01*
X143610000Y-117502081D02*
X143610000Y-110962081D01*
%TO.C,C1*%
X141320000Y-57799000D02*
X141320000Y-56541000D01*
X143160000Y-57799000D02*
X143160000Y-56541000D01*
%TO.C,D12*%
X143360000Y-136672081D02*
X143360000Y-132432081D01*
X143360000Y-132432081D02*
X141120000Y-132432081D01*
X142240000Y-136672081D02*
X142240000Y-137322081D01*
X142240000Y-132432081D02*
X142240000Y-131782081D01*
X141120000Y-136672081D02*
X143360000Y-136672081D01*
X141120000Y-136072081D02*
X143360000Y-136072081D01*
X141120000Y-135952081D02*
X143360000Y-135952081D01*
X141120000Y-135832081D02*
X143360000Y-135832081D01*
X141120000Y-132432081D02*
X141120000Y-136672081D01*
%TO.C,D5*%
X178220000Y-92860000D02*
X178220000Y-95100000D01*
X178220000Y-93980000D02*
X177570000Y-93980000D01*
X178220000Y-95100000D02*
X182460000Y-95100000D01*
X178820000Y-92860000D02*
X178820000Y-95100000D01*
X178940000Y-92860000D02*
X178940000Y-95100000D01*
X179060000Y-92860000D02*
X179060000Y-95100000D01*
X182460000Y-92860000D02*
X178220000Y-92860000D01*
X182460000Y-93980000D02*
X183110000Y-93980000D01*
X182460000Y-95100000D02*
X182460000Y-92860000D01*
%TO.C,R5*%
X139160000Y-142272081D02*
X139160000Y-141942081D01*
X139160000Y-139532081D02*
X139160000Y-139862081D01*
X132620000Y-142272081D02*
X139160000Y-142272081D01*
X132620000Y-141942081D02*
X132620000Y-142272081D01*
X132620000Y-139862081D02*
X132620000Y-139532081D01*
X132620000Y-139532081D02*
X139160000Y-139532081D01*
%TO.C,R10*%
X177070000Y-123090000D02*
X177070000Y-123420000D01*
X177070000Y-125830000D02*
X177070000Y-125500000D01*
X183610000Y-123090000D02*
X177070000Y-123090000D01*
X183610000Y-123420000D02*
X183610000Y-123090000D01*
X183610000Y-125500000D02*
X183610000Y-125830000D01*
X183610000Y-125830000D02*
X177070000Y-125830000D01*
%TO.C,J5*%
X170050000Y-133870000D02*
X190630000Y-133870000D01*
X170050000Y-142990000D02*
X170050000Y-133870000D01*
X171350000Y-135180000D02*
X178290000Y-135180000D01*
X171350000Y-141680000D02*
X171350000Y-135180000D01*
X174760000Y-132480000D02*
X175260000Y-133480000D01*
X175260000Y-133480000D02*
X175760000Y-132480000D01*
X175760000Y-132480000D02*
X174760000Y-132480000D01*
X178290000Y-135180000D02*
X178290000Y-133870000D01*
X182390000Y-133870000D02*
X182390000Y-135180000D01*
X182390000Y-135180000D02*
X182390000Y-135180000D01*
X182390000Y-135180000D02*
X189330000Y-135180000D01*
X189330000Y-135180000D02*
X189330000Y-141680000D01*
X189330000Y-141680000D02*
X171350000Y-141680000D01*
X190630000Y-133870000D02*
X190630000Y-142990000D01*
X190630000Y-142990000D02*
X170050000Y-142990000D01*
%TO.C,A1*%
X171320000Y-41780000D02*
X171320000Y-80010000D01*
X171320000Y-44450000D02*
X173990000Y-44450000D01*
X171320000Y-80010000D02*
X173990000Y-80010000D01*
X171320000Y-82550000D02*
X171320000Y-85220000D01*
X171320000Y-82550000D02*
X173990000Y-82550000D01*
X171320000Y-85220000D02*
X189360000Y-85220000D01*
X173990000Y-44450000D02*
X173990000Y-80010000D01*
X173990000Y-82550000D02*
X173990000Y-80010000D01*
X176400000Y-39240000D02*
X184280000Y-39240000D01*
X176400000Y-41780000D02*
X171320000Y-41780000D01*
X176400000Y-49660000D02*
X176400000Y-39240000D01*
X184280000Y-39240000D02*
X184280000Y-49660000D01*
X184280000Y-41780000D02*
X189360000Y-41780000D01*
X184280000Y-49660000D02*
X176400000Y-49660000D01*
X186690000Y-44450000D02*
X186690000Y-82550000D01*
X189360000Y-44450000D02*
X186690000Y-44450000D01*
X189360000Y-82550000D02*
X186690000Y-82550000D01*
X189360000Y-85220000D02*
X189360000Y-41780000D01*
%TO.C,D3*%
X178220000Y-108100000D02*
X178220000Y-110340000D01*
X178220000Y-109220000D02*
X177570000Y-109220000D01*
X178220000Y-110340000D02*
X182460000Y-110340000D01*
X178820000Y-108100000D02*
X178820000Y-110340000D01*
X178940000Y-108100000D02*
X178940000Y-110340000D01*
X179060000Y-108100000D02*
X179060000Y-110340000D01*
X182460000Y-108100000D02*
X178220000Y-108100000D01*
X182460000Y-109220000D02*
X183110000Y-109220000D01*
X182460000Y-110340000D02*
X182460000Y-108100000D01*
%TO.C,D1*%
X178220000Y-87780000D02*
X178220000Y-90020000D01*
X178220000Y-88900000D02*
X177570000Y-88900000D01*
X178220000Y-90020000D02*
X182460000Y-90020000D01*
X181620000Y-90020000D02*
X181620000Y-87780000D01*
X181740000Y-90020000D02*
X181740000Y-87780000D01*
X181860000Y-90020000D02*
X181860000Y-87780000D01*
X182460000Y-87780000D02*
X178220000Y-87780000D01*
X182460000Y-88900000D02*
X183110000Y-88900000D01*
X182460000Y-90020000D02*
X182460000Y-87780000D01*
%TO.C,D11*%
X178220000Y-128420000D02*
X178220000Y-130660000D01*
X178220000Y-129540000D02*
X177570000Y-129540000D01*
X178220000Y-130660000D02*
X182460000Y-130660000D01*
X178820000Y-128420000D02*
X178820000Y-130660000D01*
X178940000Y-128420000D02*
X178940000Y-130660000D01*
X179060000Y-128420000D02*
X179060000Y-130660000D01*
X182460000Y-128420000D02*
X178220000Y-128420000D01*
X182460000Y-129540000D02*
X183110000Y-129540000D01*
X182460000Y-130660000D02*
X182460000Y-128420000D01*
%TO.C,R7*%
X130910000Y-137822081D02*
X130580000Y-137822081D01*
X130910000Y-131282081D02*
X130910000Y-137822081D01*
X130580000Y-131282081D02*
X130910000Y-131282081D01*
X128500000Y-131282081D02*
X128170000Y-131282081D01*
X128170000Y-137822081D02*
X128500000Y-137822081D01*
X128170000Y-131282081D02*
X128170000Y-137822081D01*
%TD*%
M02*
