<?xml version="1.0" standalone="no"?>
 <!DOCTYPE svg PUBLIC "-//W3C//DTD SVG 1.1//EN" 
 "http://www.w3.org/Graphics/SVG/1.1/DTD/svg11.dtd"> 
<svg
  xmlns:svg="http://www.w3.org/2000/svg"
  xmlns="http://www.w3.org/2000/svg"
  xmlns:xlink="http://www.w3.org/1999/xlink"
  version="1.1"
  width="297.0022mm" height="210.0072mm" viewBox="0.0000 0.0000 297.0022 210.0072">
<title>SVG Image created as pth-Edge_Cuts.svg date 2024/04/26 21:42:04 </title>
  <desc>Image generated by PCBNEW </desc>
<g style="fill:#000000; fill-opacity:1.0000;stroke:#000000; stroke-opacity:1.0000;
stroke-linecap:round; stroke-linejoin:round;"
 transform="translate(0 0) scale(1 1)">
</g>
<g style="fill:#000000; fill-opacity:1.0000; stroke:none;">
<circle cx="129.5400" cy="130.7414" r="0.4000" /> 
<circle cx="129.5400" cy="138.3614" r="0.4000" /> 
<circle cx="132.0800" cy="140.9014" r="0.4000" /> 
<circle cx="134.6200" cy="53.3400" r="0.4000" /> 
<circle cx="134.6200" cy="60.9600" r="0.4000" /> 
<circle cx="139.7000" cy="140.9014" r="0.4000" /> 
<circle cx="142.2400" cy="55.9206" r="0.4000" /> 
<circle cx="142.2400" cy="58.4200" r="0.4000" /> 
<circle cx="142.2400" cy="100.2614" r="0.4000" /> 
<circle cx="142.2400" cy="107.8814" r="0.4000" /> 
<circle cx="142.2400" cy="110.4214" r="0.4000" /> 
<circle cx="142.2400" cy="118.0414" r="0.4000" /> 
<circle cx="142.2400" cy="120.5814" r="0.4000" /> 
<circle cx="142.2400" cy="128.2014" r="0.4000" /> 
<circle cx="142.2400" cy="130.7414" r="0.4000" /> 
<circle cx="142.2400" cy="138.3614" r="0.4000" /> 
<circle cx="146.0500" cy="82.5906" r="0.4000" /> 
<circle cx="146.0500" cy="85.0900" r="0.4000" /> 
<circle cx="149.8600" cy="53.3400" r="0.4000" /> 
<circle cx="149.8600" cy="60.9600" r="0.4000" /> 
<circle cx="149.8600" cy="66.0400" r="0.4000" /> 
<circle cx="149.8600" cy="73.6600" r="0.4000" /> 
<circle cx="149.8600" cy="77.4700" r="0.4000" /> 
<circle cx="149.8600" cy="85.0900" r="0.4000" /> 
<circle cx="176.5300" cy="88.9000" r="0.4000" /> 
<circle cx="176.5300" cy="93.9800" r="0.4000" /> 
<circle cx="176.5300" cy="99.0600" r="0.4000" /> 
<circle cx="176.5300" cy="104.1400" r="0.4000" /> 
<circle cx="176.5300" cy="109.2200" r="0.4000" /> 
<circle cx="176.5300" cy="114.3000" r="0.4000" /> 
<circle cx="176.5300" cy="119.3800" r="0.4000" /> 
<circle cx="176.5300" cy="124.4600" r="0.4000" /> 
<circle cx="176.5300" cy="129.5400" r="0.4000" /> 
<circle cx="184.1500" cy="88.9000" r="0.4000" /> 
<circle cx="184.1500" cy="93.9800" r="0.4000" /> 
<circle cx="184.1500" cy="99.0600" r="0.4000" /> 
<circle cx="184.1500" cy="104.1400" r="0.4000" /> 
<circle cx="184.1500" cy="109.2200" r="0.4000" /> 
<circle cx="184.1500" cy="114.3000" r="0.4000" /> 
<circle cx="184.1500" cy="119.3800" r="0.4000" /> 
<circle cx="184.1500" cy="124.4600" r="0.4000" /> 
<circle cx="184.1500" cy="129.5400" r="0.4000" /> 
<circle cx="134.6200" cy="120.5814" r="0.4496" /> 
<circle cx="134.6200" cy="135.8214" r="0.4496" /> 
<circle cx="137.1600" cy="120.5814" r="0.4496" /> 
<circle cx="137.1600" cy="135.8214" r="0.4496" /> 
<circle cx="147.3200" cy="90.1014" r="0.4496" /> 
<circle cx="149.8600" cy="90.1014" r="0.4496" /> 
<circle cx="130.8100" cy="45.7200" r="0.5004" /> 
<circle cx="130.8100" cy="48.2600" r="0.5004" /> 
<circle cx="130.8100" cy="50.8000" r="0.5004" /> 
<circle cx="130.8100" cy="53.3400" r="0.5004" /> 
<circle cx="130.8100" cy="55.8800" r="0.5004" /> 
<circle cx="130.8100" cy="58.4200" r="0.5004" /> 
<circle cx="130.8100" cy="60.9600" r="0.5004" /> 
<circle cx="130.8100" cy="63.5000" r="0.5004" /> 
<circle cx="130.8100" cy="66.0400" r="0.5004" /> 
<circle cx="130.8100" cy="68.5800" r="0.5004" /> 
<circle cx="130.8100" cy="71.1200" r="0.5004" /> 
<circle cx="130.8100" cy="73.6600" r="0.5004" /> 
<circle cx="130.8100" cy="76.2000" r="0.5004" /> 
<circle cx="130.8100" cy="78.7400" r="0.5004" /> 
<circle cx="130.8100" cy="81.2800" r="0.5004" /> 
<circle cx="139.7787" cy="51.9506" r="0.5004" /> 
<circle cx="139.7787" cy="77.3506" r="0.5004" /> 
<circle cx="142.2806" cy="51.9506" r="0.5004" /> 
<circle cx="142.2806" cy="77.3506" r="0.5004" /> 
<circle cx="144.7800" cy="51.9506" r="0.5004" /> 
<circle cx="144.7800" cy="77.3506" r="0.5004" /> 
<circle cx="153.6700" cy="45.7200" r="0.5004" /> 
<circle cx="153.6700" cy="48.2600" r="0.5004" /> 
<circle cx="153.6700" cy="50.8000" r="0.5004" /> 
<circle cx="153.6700" cy="53.3400" r="0.5004" /> 
<circle cx="153.6700" cy="55.8800" r="0.5004" /> 
<circle cx="153.6700" cy="58.4200" r="0.5004" /> 
<circle cx="153.6700" cy="60.9600" r="0.5004" /> 
<circle cx="153.6700" cy="63.5000" r="0.5004" /> 
<circle cx="153.6700" cy="66.0400" r="0.5004" /> 
<circle cx="153.6700" cy="68.5800" r="0.5004" /> 
<circle cx="153.6700" cy="71.1200" r="0.5004" /> 
<circle cx="153.6700" cy="73.6600" r="0.5004" /> 
<circle cx="153.6700" cy="76.2000" r="0.5004" /> 
<circle cx="153.6700" cy="78.7400" r="0.5004" /> 
<circle cx="153.6700" cy="81.2800" r="0.5004" /> 
<circle cx="168.9100" cy="45.7200" r="0.5004" /> 
<circle cx="168.9100" cy="48.2600" r="0.5004" /> 
<circle cx="168.9100" cy="50.8000" r="0.5004" /> 
<circle cx="168.9100" cy="53.3400" r="0.5004" /> 
<circle cx="168.9100" cy="55.8800" r="0.5004" /> 
<circle cx="168.9100" cy="58.4200" r="0.5004" /> 
<circle cx="168.9100" cy="60.9600" r="0.5004" /> 
<circle cx="168.9100" cy="63.5000" r="0.5004" /> 
<circle cx="168.9100" cy="66.0400" r="0.5004" /> 
<circle cx="168.9100" cy="68.5800" r="0.5004" /> 
<circle cx="168.9100" cy="71.1200" r="0.5004" /> 
<circle cx="168.9100" cy="73.6600" r="0.5004" /> 
<circle cx="168.9100" cy="76.2000" r="0.5004" /> 
<circle cx="168.9100" cy="78.7400" r="0.5004" /> 
<circle cx="168.9100" cy="81.2800" r="0.5004" /> 
<circle cx="172.7200" cy="45.7200" r="0.5004" /> 
<circle cx="172.7200" cy="48.2600" r="0.5004" /> 
<circle cx="172.7200" cy="50.8000" r="0.5004" /> 
<circle cx="172.7200" cy="53.3400" r="0.5004" /> 
<circle cx="172.7200" cy="55.8800" r="0.5004" /> 
<circle cx="172.7200" cy="58.4200" r="0.5004" /> 
<circle cx="172.7200" cy="60.9600" r="0.5004" /> 
<circle cx="172.7200" cy="63.5000" r="0.5004" /> 
<circle cx="172.7200" cy="66.0400" r="0.5004" /> 
<circle cx="172.7200" cy="68.5800" r="0.5004" /> 
<circle cx="172.7200" cy="71.1200" r="0.5004" /> 
<circle cx="172.7200" cy="73.6600" r="0.5004" /> 
<circle cx="172.7200" cy="76.2000" r="0.5004" /> 
<circle cx="172.7200" cy="78.7400" r="0.5004" /> 
<circle cx="172.7200" cy="81.2800" r="0.5004" /> 
<circle cx="175.2600" cy="137.1600" r="0.5004" /> 
<circle cx="175.2600" cy="139.7000" r="0.5004" /> 
<circle cx="177.8000" cy="137.1600" r="0.5004" /> 
<circle cx="177.8000" cy="139.7000" r="0.5004" /> 
<circle cx="180.3400" cy="137.1600" r="0.5004" /> 
<circle cx="180.3400" cy="139.7000" r="0.5004" /> 
<circle cx="182.8800" cy="137.1600" r="0.5004" /> 
<circle cx="182.8800" cy="139.7000" r="0.5004" /> 
<circle cx="185.4200" cy="137.1600" r="0.5004" /> 
<circle cx="185.4200" cy="139.7000" r="0.5004" /> 
<circle cx="187.9600" cy="45.7200" r="0.5004" /> 
<circle cx="187.9600" cy="48.2600" r="0.5004" /> 
<circle cx="187.9600" cy="50.8000" r="0.5004" /> 
<circle cx="187.9600" cy="53.3400" r="0.5004" /> 
<circle cx="187.9600" cy="55.8800" r="0.5004" /> 
<circle cx="187.9600" cy="58.4200" r="0.5004" /> 
<circle cx="187.9600" cy="60.9600" r="0.5004" /> 
<circle cx="187.9600" cy="63.5000" r="0.5004" /> 
<circle cx="187.9600" cy="66.0400" r="0.5004" /> 
<circle cx="187.9600" cy="68.5800" r="0.5004" /> 
<circle cx="187.9600" cy="71.1200" r="0.5004" /> 
<circle cx="187.9600" cy="73.6600" r="0.5004" /> 
<circle cx="187.9600" cy="76.2000" r="0.5004" /> 
<circle cx="187.9600" cy="78.7400" r="0.5004" /> 
<circle cx="187.9600" cy="81.2800" r="0.5004" /> 
<circle cx="191.7700" cy="45.7200" r="0.5004" /> 
<circle cx="191.7700" cy="48.2600" r="0.5004" /> 
<circle cx="191.7700" cy="50.8000" r="0.5004" /> 
<circle cx="191.7700" cy="53.3400" r="0.5004" /> 
<circle cx="191.7700" cy="55.8800" r="0.5004" /> 
<circle cx="191.7700" cy="58.4200" r="0.5004" /> 
<circle cx="191.7700" cy="60.9600" r="0.5004" /> 
<circle cx="191.7700" cy="63.5000" r="0.5004" /> 
<circle cx="191.7700" cy="66.0400" r="0.5004" /> 
<circle cx="191.7700" cy="68.5800" r="0.5004" /> 
<circle cx="191.7700" cy="71.1200" r="0.5004" /> 
<circle cx="191.7700" cy="73.6600" r="0.5004" /> 
<circle cx="191.7700" cy="76.2000" r="0.5004" /> 
<circle cx="191.7700" cy="78.7400" r="0.5004" /> 
<circle cx="191.7700" cy="81.2800" r="0.5004" /> 
<circle cx="135.8900" cy="100.4214" r="0.8001" /> 
<circle cx="135.8900" cy="108.7222" r="0.8001" /> 
<circle cx="135.8900" cy="111.8210" r="0.8001" /> 
<circle cx="148.5900" cy="100.4214" r="0.8001" /> 
<circle cx="148.5900" cy="108.7222" r="0.8001" /> 
<circle cx="148.5900" cy="111.8210" r="0.8001" /> 
<circle cx="148.5900" cy="115.6614" r="0.8001" /> 
<circle cx="148.5900" cy="123.9622" r="0.8001" /> 
<circle cx="148.5900" cy="127.0610" r="0.8001" /> 
<circle cx="148.5900" cy="130.9014" r="0.8001" /> 
<circle cx="148.5900" cy="139.2022" r="0.8001" /> 
<circle cx="148.5900" cy="142.3010" r="0.8001" /> 
<circle cx="137.4800" cy="44.4500" r="0.9004" /> 
<circle cx="137.4800" cy="69.8500" r="0.9004" /> 
<circle cx="147.0812" cy="44.4500" r="0.9004" /> 
<circle cx="147.0812" cy="69.8500" r="0.9004" /> 
</g>
<g style="fill:none; 
stroke:#000000; stroke-width:1.1989; stroke-opacity:1; 
stroke-linecap:round; stroke-linejoin:round;">
<path d="M133.3500 89.6518
L133.3500 90.5510
" />
<path d="M135.8900 89.6518
L135.8900 90.5510
" />
<path d="M138.4300 89.6518
L138.4300 90.5510
" />
</g> 
</svg>
